<?xml version="1.0" encoding="utf-8"?>
<!-- Generator: Adobe Illustrator 19.2.1, SVG Export Plug-In . SVG Version: 6.00 Build 0)  -->
<!DOCTYPE svg PUBLIC "-//W3C//DTD SVG 1.1//EN" "http://www.w3.org/Graphics/SVG/1.1/DTD/svg11.dtd">
<svg version="1.1" id="Warstwa_1" xmlns="http://www.w3.org/2000/svg" xmlns:xlink="http://www.w3.org/1999/xlink" x="0px" y="0px"
	 width="1153.7px" height="567px" viewBox="0 0 1153.7 567" style="enable-background:new 0 0 1153.7 567;" xml:space="preserve">
<style type="text/css">
	.st0{fill-rule:evenodd;clip-rule:evenodd;fill:none;}
	.st1{fill-rule:evenodd;clip-rule:evenodd;fill:#E1E1E1;}
	.st2{fill:url(#SVGID_1_);}
</style>
<pattern  width="23" height="13.2" patternUnits="userSpaceOnUse" id="kropki" viewBox="0 -13.2 23 13.2" style="overflow:visible;">
	<g>
		<rect x="0" y="-13.2" class="st0" width="23" height="13.2"/>
		<circle class="st1" cx="18.1" cy="-11.5" r="1.1"/>
		<circle class="st1" cx="21.3" cy="-11.5" r="1.1"/>
		<circle class="st1" cx="18.1" cy="-8.2" r="1.1"/>
		<circle class="st1" cx="18.1" cy="-4.9" r="1.1"/>
		<circle class="st1" cx="21.3" cy="-8.2" r="1.1"/>
		<circle class="st1" cx="21.3" cy="-4.9" r="1.1"/>
		<circle class="st1" cx="1.7" cy="-11.5" r="1.1"/>
		<circle class="st1" cx="5" cy="-11.5" r="1.1"/>
		<circle class="st1" cx="8.2" cy="-11.5" r="1.1"/>
		<circle class="st1" cx="11.5" cy="-11.5" r="1.1"/>
		<circle class="st1" cx="14.8" cy="-11.5" r="1.1"/>
		<circle class="st1" cx="1.7" cy="-8.2" r="1.1"/>
		<circle class="st1" cx="5" cy="-8.2" r="1.1"/>
		<circle class="st1" cx="8.2" cy="-8.2" r="1.1"/>
		<circle class="st1" cx="8.2" cy="-4.9" r="1.1"/>
		<circle class="st1" cx="11.5" cy="-8.2" r="1.1"/>
		<circle class="st1" cx="11.5" cy="-4.9" r="1.1"/>
		<circle class="st1" cx="1.6" cy="-4.9" r="1.1"/>
		<circle class="st1" cx="5" cy="-4.9" r="1.1"/>
		<circle class="st1" cx="14.8" cy="-8.2" r="1.1"/>
		<circle class="st1" cx="14.8" cy="-4.9" r="1.1"/>
		<circle class="st1" cx="18.1" cy="-1.6" r="1.1"/>
		<circle class="st1" cx="21.3" cy="-1.6" r="1.1"/>
		<circle class="st1" cx="11.5" cy="-1.6" r="1.1"/>
		<circle class="st1" cx="14.8" cy="-1.6" r="1.1"/>
		<circle class="st1" cx="8.2" cy="-1.6" r="1.1"/>
		<circle class="st1" cx="1.7" cy="-1.6" r="1.1"/>
		<circle class="st1" cx="5" cy="-1.6" r="1.1"/>
	</g>
</pattern>
<pattern  id="SVGID_1_" xlink:href="#kropki" patternTransform="matrix(1.3984 0 0 1.3984 3084.4719 2913.2981)">
</pattern>
<path class="st2" d="M736.4,75L736.4,75c2.1,0.8,5.3,1.1,8,2.8c1.9,1.2,4.2,2.1,6.4,2.1h0c1.7,0,3.5-0.6,4.7-2
	c0.8-0.9,1.1-2.1,1.1-3.1c0-1.1-0.3-2.1-0.8-2.9c-0.5-0.8-1.1-1.6-2.2-1.9c0,0,0,0,0,0c0,0-0.1-0.1-0.1-0.3c0-0.4,0.2-1.3,1.9-2.3
	c3.6-2.4,7.4-5.2,11-5.7c2.1-0.3,5.9-0.6,9.4-0.6c2.8,0,5.5,0.2,6.7,0.6c0.4,0.1,0.9,0.2,1.3,0.2c2.3-0.1,4.3-1.4,6.1-2.9
	c1.7-1.5,3.2-3.2,3.9-4.5c0.3-0.4,0.4-0.9,0.4-1.4c0-1.3-0.9-2.2-1.8-2.7c-0.9-0.5-2-0.7-3-0.7c-1.4,0-3.1,0.5-4.1,2
	c-0.1,0.5-2.7,1.3-5.2,1.2c-2,0-4-0.3-4.3-0.5c-0.5-0.2-0.8-0.2-1.2-0.2c-1.9,0-5.4,0.7-9,1.4c-3.5,0.7-7,1.4-7.8,1.3
	c-2.2,0-3.4,1.5-4.5,2.7c-1.1,1.3-2.2,2.5-3.8,3.4c-3.9,2-9.1,5-11,5.9c-2,1.2-3.5,3.5-3.6,5.8C734.8,73.4,735.3,74.6,736.4,75z
	 M233.7,49.1c1.9,0,4.7-0.7,6-0.7h0c0,0.3,0.1,0.7,0.3,1.2c0.6,1,1.7,1.4,3.1,1.7c2.4,0.4,3.5,0.9,5.3,0.9c0,0,0.1,0,0.1,0
	c0.7,0,1.5-0.4,1.8-1c0.4-0.6,0.4-1.1,0.4-1.7c0-1.5-0.6-3-1.5-4.4c-0.6-0.9-0.9-1.6-1.7-2.2c-0.8-0.5-1.6-0.7-3.2-1.3
	c-2.5-0.8-4.9-1.1-6.9-1.1c-0.9,0-1.7,0-2.4,0.1c-0.9,0.1-2.1,0-3.4,0.3c-1.4,0.3-2.7,1.6-3,3.5c0,0.2,0,0.4,0,0.6
	C228.7,47.8,231.2,49.1,233.7,49.1z M311.6,108.4c-0.5,0-1,0.1-1.4,0.3l0,0c-1.2,0.4-2.2,1.3-2.2,2.6c0.2,2.1,1.9,2.9,3.5,3
	c0.5,0,1-0.1,1.4-0.3c1.1-0.5,1.8-1.6,1.8-2.7c0-0.8-0.3-1.5-0.9-2C313.3,108.7,312.5,108.4,311.6,108.4z M355.4,275.8L355.4,275.8
	L355.4,275.8c-2.1,0.5-2.7,2.5-2.7,4c0,0.9,0.2,1.9,0.7,2.7c0.5,0.8,1.4,1.6,2.6,1.6c0,0,0,0,0,0c0.4,0,0.8-0.1,1.2-0.2
	c1.8-0.6,2.6-2.3,2.6-3.7c-0.1-2-1.2-4.3-3.8-4.4C355.8,275.7,355.6,275.7,355.4,275.8L355.4,275.8
	C355.4,275.8,355.4,275.8,355.4,275.8z M15.8,147.2c-0.7-0.3-3.7-1.6-3.8-1.6l-0.4-0.1c-0.8-0.1-1.6-0.1-2.4-0.1
	c-1.3,0-2.5,0.1-3.5,0.4c-1,0.3-2.1,0.7-2.6,1.9c-0.1,0.2-0.2,0.5-0.2,0.8c0,1,0.6,1.6,1.1,2c1.5,1.1,3.7,1.4,5.6,1.5
	c1.3,0,2.8-0.4,4.1-0.8c0.6-0.2,1.2-0.4,1.7-0.7c0.2-0.1,0.5-0.2,0.7-0.4c0.2-0.2,0.6-0.3,0.7-1.4C16.8,147.8,16.1,147.3,15.8,147.2
	z M341.3,271.3c-1.8,0-3.4,0.4-4.5,0.6c-1.6,0.4-3,1.8-4.5,3.1c-1.4,1.3-2.6,2.6-2.6,2.6c-0.4,0.4-0.5,0.9-0.3,1.4
	c0.2,0.5,0.6,0.9,1.1,1c0.1,0,3,0.7,5.2,0.7c1.2,0,2,0.9,3.9,2.1c0.6,0.3,1.2,0.5,1.7,0.5c1.3,0,2.3-0.5,3.3-0.9
	c0.5-0.2,0.9-0.4,1.2-0.5c0,0,0.1,0,0.1,0c0.1,0.1,0.3,0.3,0.5,0.6c0.4,0.3,0.5,0.9,1.8,1c1.1,0,1.6-0.9,1.8-1.4
	c0.2-0.6,0.3-1.1,0.3-1.9c0-0.2,0-0.4,0-0.6c0-4.9-4.2-7.1-6.5-7.8C342.9,271.4,342.1,271.3,341.3,271.3z M33.1,138.4L33.1,138.4
	c-0.4-0.2-0.8-0.3-1.2-0.3c-1.1,0-2,0.9-2.3,1.5c-0.5,1-0.6,2-0.8,2.7c-0.3,0.8-0.4,0.9-0.7,0.9c-1.2,0.3-2.4,0.7-3.4,1.2
	c-0.5,0.3-0.9,0.5-1.4,0.9c-0.4,0.3-0.9,0.7-0.9,1.7c0,0.6,0.3,1.2,0.7,1.4c0.4,0.3,0.7,0.4,1.1,0.5c0.7,0.2,1.5,0.3,2.2,0.3
	c1.3,0,2.8-0.2,4-0.5c1.3-0.4,2.2-0.5,3.1-1.7c0.4-0.8,0.5-1.5,0.7-2.4c0.1-0.9,0.2-2,0.2-3c0-0.6,0-1.1-0.1-1.6
	C34.1,139.6,34.2,139,33.1,138.4z M453.9,367.6L453.9,367.6c-2.5-1.1-6.1-1.6-7.1-3.4c-0.9-1.5-2.4-2.7-3.9-3.7
	c-1.6-1-3.1-1.7-4.6-1.7c-0.4,0-0.7,0-1.2,0.2c-0.8,0.3-1.8,0.6-2.8,0.6c-0.9,0-1.7-0.2-2.4-0.8c-2.3-1.7-5.9-3.7-7-4.8
	c-2-1.8-5.4-2.6-7.6-2.7c-0.4,0-0.4-0.1-1.4-0.2c-0.5,0-1.1,0.2-1.5,0.6c-0.1-1-0.6-1.9-1.2-2.4c-0.8-0.7-1.8-1.1-2.9-1.1
	c-0.1,0-0.2,0-0.3,0c0.6-0.6,1.2-1.1,1.3-2.3c0-0.8-0.1-2.1-0.6-3.5c-0.4-1.2-1.5-2.9-3.5-2.9c0,0-0.1,0-0.1,0c0,0,0,0,0-0.1
	c-0.5-0.4-1.1-3.5-3.7-6.9c-3.1-4-6.9-6.8-10.8-6.9c-0.4,0-0.9,0-1.3,0.1c-1.5,0.3-2.7,0.6-3.5,0.6c-1-0.1-1.4-0.1-2.3-1.8
	c-1.8-4-4-4.9-4.7-6.4c-0.7-1.3-2.1-1.7-3-1.6c-0.9,0-1.7,0.2-2,0.2c-0.6-0.8-0.6-0.8-0.6-0.8c-0.3-0.4-0.9-0.6-1.4-0.5
	c1.5-2.6,2.3-6,2.3-8c0-0.4,0-0.6-0.1-1c-0.1-0.2-0.1-0.4-0.4-0.7c-0.2-0.3-0.7-0.6-1.2-0.5c-0.2,0-0.5,0.1-0.7,0.2l0,0
	c-0.8,0.5-0.9,0.9-1.2,1.4c-0.4,0.8-0.9,1.7-1.3,2.4c-0.1,0.1-0.2,0.2-0.2,0.3c-0.4-0.6-1-1.5-2.3-2.4c-1.2-0.9-2.6-1.2-3.8-1.2
	c-1.3,0-2.6,0.3-3.5,0.9c-1,0.5-1.9,1.3-2,2.8v0c-0.1-0.2-0.2-0.4-0.3-0.6c-0.8-1.9-2.7-2.5-4.5-2.5c-1.4,0-2.8,0.4-4,1.4
	c-0.3-0.5-0.6-1.2-0.9-2c-0.3-0.6-0.5-1.2-0.9-1.7c-0.3-0.5-0.7-1.2-2-1.3c-2.3,0.1-5.1,2-6.8,5.4c-0.1,0.3-0.3,0.6-0.4,0.9
	c0-0.5,0-0.8,0.1-1.1c0-0.3,0.4-1.2,0.9-2.1c0.4-0.9,1-1.8,1-3.1c0.1-0.9-0.8-2.2-1.8-2.4c-0.3-0.1-0.6-0.1-0.9-0.1
	c-1.8,0.1-3.1,1.1-4.4,2c-0.6,0.5-1.1,0.9-1.6,1.2c-0.2,0.2-0.4,0.3-0.5,0.4c-0.1,0-0.1,0.1-0.1,0.1l0,0c-2.2,0.6-4.7,3-6.7,5.9
	c-1.7,2.7-2.5,4.1-3.6,4.8c-0.2,0.1-0.5,0.2-0.8,0.2c-0.2,0-0.4,0-0.5-0.1v0c-0.1-1.1-0.5-1.4-0.9-1.9c-1.4-1.3-3.3-2.8-5.4-2.9
	c-0.5,0-1.4,0.2-1.9,1c-0.2,0.6-2.7,1.8-5.2,3.1c-0.2,0.1-0.4,0.2-0.6,0.2c-0.8,0.2-2.4-1.6-2.6-2.4c-0.9-2-1.5-1.3-1.8-5.4
	c0-0.5-0.1-1.1-0.1-1.6c0-3.6,0.7-7.3,1.4-9.4c0.1-0.3,0.2-0.7,0.2-1.1c-0.1-2-1.3-3.8-2.6-5.4c-1.5-1.5-2.8-2.8-4.8-2.9
	c-0.1,0-0.3,0-0.5,0c-1.3,0.2-2.3,0.9-3.1,1.5c-0.9,0.5-1.6,0.9-1.9,0.8c0,0-0.1,0-0.1,0c-0.8-0.2-0.6-0.2-1.2-0.5
	c-0.6-0.3-1.2-0.5-2.4-0.5c0.3-0.5,0.5-1.2,0.6-1.9c0.1-0.6,0.2-1.3,0.2-1.9c0-1-0.1-2.1-0.1-3c0-1.7,0.2-2.8,1.4-3.9
	c1.8-1.6,2.4-3.9,2.4-5.9c0-1.3-0.2-2.5-0.6-3.5c-0.4-1-1.1-2-2.4-2.3c-0.3-0.1-0.6-0.1-1-0.1c-2.1,0-4.6,0.8-6.3,0.8
	c-0.3,0-0.5,0-0.7-0.1c-0.2,0-0.4,0-0.6,0c-2.8,0-4.8,2.5-4.8,5.4c0,0.6,0.1,1.2,0.2,1.8c0.1,0.3,0.1,0.6,0.1,0.9
	c0,0.7-0.2,1.2-0.5,1.6c-0.1,0.1-0.1,0.2-0.2,0.2c-0.4-0.3-1.2-0.7-2.2-0.7c-1.2,0-2.5,0.6-3.9,1.8c-1.1,1-1.7,1.2-2,1.2
	c-0.3,0.1-1.4-0.6-3.2-2.4c-3.1-3-6-5.7-6.4-9.7c-0.3-2.3-0.5-4.5-0.5-6.5c0-2,0.2-3.6,0.6-4.6c0.6-1.4,0.9-3.1,0.9-4.8
	c0-1-0.1-1.9-0.4-2.8c-0.2-0.6-0.5-1.3-1.1-1.7c0,0,0,0,0,0c0.7-0.9,2.3-2.1,3-2.3c2.6-1,5.3-3.7,6.3-5.6c0.2-0.1,1.1-0.3,2.2-0.2
	c0.8,0,1.8,0,2.8,0c3.1,0.1,2.7-0.2,5.8,1.8c0.9,0.5,1.7,0.9,2.6,0.9c1.4,0,2.4-1,2.8-1.9c0.4-0.9,0.5-1.6,0.5-2.2
	c0-0.1,0.2-1.2,2.2-1.2c0.2,0,0.4,0,0.6,0c0.4,0.1,0.7,0.1,1.1,0.1c2.6,0,5.4-0.7,6.7-0.7c0.1,0,0.2,0,0.2,0c0.3,0.4,0.7,1.2,1.2,2
	c0.7,0.9,1.4,2.1,3.1,2.2c0.6,0,1.2-0.2,1.6-0.6c0.2-0.1,0.3-0.3,0.5-0.4c0.3,2,0.8,4.4,1.5,6.6c0.8,2.2,1.7,4.3,3.7,5.2
	c0.4,0.1,0.6,0.6,0.9,1.9c0.1,0.6,0.3,1.3,0.7,2c0.4,0.7,1.3,1.4,2.3,1.5c0.1,0,0.2,0,0.4,0c1,0,1.8-0.5,2.3-1.1
	c1.5-1.8,1.9-4.5,2-6.9c0-0.9-0.1-1.7-0.3-2.5c-0.4-1-1-3.4-1.7-5.6c-0.7-2.3-1.4-4.4-2.4-5.7c-0.3-0.3-0.6-1.2-0.6-2.1
	c0-1.4,0.5-2.5,1.5-2.9c1.7-0.8,4-2.8,6.3-4.9c2.2-2.1,4.4-4.2,5.4-5.2c0.6-0.6,2-1.4,3.3-2.3c1.2-0.9,2.8-1.9,2.9-4
	c0-0.6-0.2-1.2-0.6-1.8c-1.2-1.9-1.7-3.1-1.9-4.3c0.4,0.4,1,0.6,1.5,0.6c1.4-0.1,2.1-0.8,2.9-1.6c0.7-0.8,1.4-1.8,1.4-3.2
	c0-0.4-0.1-0.8-0.3-1.2c-0.2-0.4-0.3-0.8-0.3-1.2c0-0.2,0-0.3,0.1-0.4c0,0,0,0,0.1,0c0.2,0,0.4,0.1,0.6,0.1c0.9,0,1.8-0.4,2.3-1
	c0.5-0.6,0.7-1.4,0.7-2.1c0-0.6-0.2-1.2-0.4-1.8c0.3-0.2,1-0.5,1.5-0.5c0.2,0,0.3,0,0.5,0.1c0.7,0.2,1.3,0.3,2.1,0.3
	c1.3,0,2.7-0.2,4-0.6c1.3-0.4,2.4-0.8,3.2-1.9c0.3-0.4,0.4-0.9,0.4-1.3c-0.1-1.4-0.7-2-1.1-2.7c-0.4-0.7-0.7-1.3-0.7-2
	c0-0.7,0.5-1.6,1.4-2.4c0.8-0.8,2-1.3,2.6-1.4c0.8-0.1,1.8-0.1,2.8-0.2c0.5-0.1,1-0.1,1.5-0.3c0.5-0.2,1.2-0.6,1.4-1.5l0,0
	c0.1-0.1,0.3-0.4,0.6-0.7c0.1,0.9,0.1,2.1,0.3,3.2c0.1,0.7,0.3,1.5,0.8,2.2c0.5,0.7,1.4,1.3,2.4,1.3c1.7,0,3.1-1,4.2-1.8
	c0.6-0.4,1.1-0.8,1.5-1.1c0.2-0.2,0.4-0.3,0.5-0.4c0.1,0,0.1-0.1,0.1-0.1v0c0.7-0.3,5.9-1.6,7-1.9c0.2-0.1,2.1-0.4,3.8-0.8
	c0.9-0.2,1.7-0.5,2.5-1c0.7-0.4,1.6-1.2,1.6-2.5c0-0.3-0.1-0.6-0.1-0.8c-0.9-2.4-1.6-4.6-2.7-6c-0.3-0.4-0.9-0.9-1.7-0.9
	c-1.2,0.1-1.6,0.7-2.1,1.2c-0.4,0.5-0.8,1.1-1.2,1.8c-0.3,0.5-0.7,0.6-0.9,0.6c-0.2,0-0.1,0-0.1-0.1c-0.1,0-0.1-1.1-0.2-2.1
	c-0.1-0.5-0.1-1-0.3-1.6c-0.1-0.5-0.8-1.5-1.9-1.5c-0.6,0-1.1,0.2-1.5,0.5c-0.9,0.6-1.5,1.3-1.9,1.6c0,0-0.1,0.1-0.1,0.1
	c-0.2-0.2-0.6-0.6-0.8-1.1c0,0-0.1-0.1-0.1-0.1c0.5-0.6,1.1-1.6,1.1-2.9c0-0.9-0.3-1.9-0.9-2.8c-1.1-1.8-2.9-2.8-4.6-2.7
	c-1.7,0-3.3,0.7-4.8,1.6c-1.6,0.9-2,1.1-2.7,1.4c0,0,0.1-0.1,0.1-0.1c1.6-1.7,4.1-2.7,6.1-5c0.1-0.1,0.1-0.1,0.5-0.2
	c0.6,0,1.5,0.3,2.3,0.7c0.8,0.4,1.3,0.7,1.3,0.7c0.5,0.3,1,0.3,1.5,0.1c0,0.2,0,0.4,0,0.5c0,0.9,0.1,1.7,0.3,2.6
	c0.2,0.8,0.9,2,2.4,2c1.2-0.1,2.4-0.6,3.6-1.2c0.6-0.3,1.1-0.7,1.6-1.1c0.4-0.4,0.8-0.7,1-1.5c0.1,0,0.2,0,0.3-0.1
	c1.1-0.2,2.4-0.5,3.5-1.4c1.5-1.3,3.2-1.2,5-2.2c1.1-0.8,1.5-1.7,2-2.4c0.5-0.8,0.9-1,1.1-0.9c0.2,0,0.3,0,0.3,0.5
	c0,0.4-0.2,1.1-1.2,1.8c-1.8,1.3-2.6,3.3-3.2,5c-0.5,1.7-1.1,3.3-1.3,3.3c-0.7,0.6-1.1,1.5-1.1,2.4c0,0.8,0.4,1.6,1,2.1
	c0.6,0.5,1.4,0.7,2.2,0.7c0.2,0,0.5,0,0.7-0.1c0.4-0.1,0.8-0.1,1.3-0.1c0.8,0,1.6,0.1,2.4,0.1c0.8,0,1.7-0.1,2.6-0.4
	c0.2-0.1,0.4-0.1,0.5-0.1c0.5,0,0.9,0.4,1.3,1.1c0.3,0.6,1.1,1.1,1.7,1c1.2-0.1,1.6-0.6,2.1-1c0.2-0.1,0.3-0.3,0.4-0.4
	c0,0,0.1,0,0.2,0c0.3-0.1,0.8-0.1,1.3-0.1c0.8,0,1.3,0.2,1.3,0.3c0.4,0.5,0.9,1.1,1.9,1.2c1.1-0.1,1.6-0.8,1.9-1.3
	c0.2-0.6,0.3-1.1,0.3-1.7c0-0.7-0.1-1.5-0.5-2.2c-0.9-1.7-2-3.3-2.7-5.2c-0.6-1.7-2-3.2-4-3.1c-0.6,0-1.2,0.1-1.9,0.3
	c-0.3,0.1-0.5,0.1-0.7,0.1c-0.3,0-0.4,0-0.7-0.3c-0.3-0.2-0.8-0.7-1.5-1.2c-0.1-0.1-0.3-0.2-0.4-0.2c0.7-1.4,1.2-2.2,2-3.9
	c0.2-0.4,0.7-1.3,1.3-2.2c0.5-0.9,1.1-1.9,1.2-3.3c0.1-1.4-1.1-2.7-2.6-3c-1.7-0.5-2.8-0.9-3.3-1.3c-0.5-0.4-0.6-0.6-0.9-1.4
	c-0.5-1.6-1.7-2.9-3.1-4.2c-0.7-0.6-1.4-1.2-2-1.6c-0.7-0.4-1.1-0.8-2.1-0.8c-0.5,0-1.7,0-2.6-0.2c-0.5-0.1-0.9-0.2-1.1-0.3
	c0,0-0.1,0-0.1-0.1c-0.6-2.5-3.3-5.7-4.7-7.5c-0.6-0.7-2.3-3-3.9-5.1c-0.8-1-1.6-2.1-2.2-2.9c-0.7-0.8-1.1-1.4-1.6-1.8
	c-0.3-0.3-0.9-0.6-1.6-0.6c-2,0.2-3,1.6-4.9,4.5c-1.7,2.8-3.1,3.4-3.8,3.3c-0.3,0-0.6-0.1-0.9-0.2c-1.1-0.5-1.6-0.7-1.9-0.9
	c-0.3-0.2-0.8-0.6-1.7-1.9c-0.2-0.3-0.3-0.5-0.3-0.5c0-0.1,0.2-0.3,0.6-0.6c0.3-0.4,1.1-0.9,1.2-2.2c0-0.4-0.1-0.8-0.3-1.1
	c-0.9-1.6-2.5-2.1-4.2-2.6c-1.7-0.4-3.5-0.7-4.9-0.8c-0.8-0.1-1.8-0.8-3.2-1.9c-1.4-1-3.2-2.2-5.6-2.4c-0.6-0.1-1.3-0.1-1.9-0.1
	c-3.8,0-7.8,0.7-8.6,0.7c-0.7,0-1.6,0.4-2,1c-1.1,1.6-0.9,3.5-1.4,6.1c-0.1,0.5-0.1,0.9-0.1,1.3c0,1,0.2,1.9,0.4,2.5
	c0,0.1,0.1,0.3,0.1,0.4c-0.7,0.2-1.3,0.4-1.9,0.6c-0.3,0.1-0.6,0.2-0.9,0.5c-0.3,0.2-0.7,0.7-0.7,1.4c0,0.9,0.5,1.3,0.8,1.6
	c0.4,0.3,0.8,0.6,1.3,0.8c0.8,0.4,2.3,2,3.3,3.4c0.7,0.9,1.3,1.8,1.6,2.3c0,0.3-0.1,0.6-0.2,0.9c-0.2,0.8-0.6,1.6-1.2,2.2
	c-1.1,1-2.3,1.8-2.6,1.9c0,0-0.1-0.1-0.1-0.2c-0.8-1.4-2.2-2.1-3.4-2.1c-0.6,0-1.2,0.1-1.8,0.6c-0.6,0.4-1,1.2-0.9,1.9
	c0,0.4,0.1,0.8,0.3,1.2c0.5,1.2,1.2,2.1,1.7,2.7c0.5,0.7,0.7,1.1,0.7,1.6c0,1.2,0.4,2.3,0.7,3.5c0.4,1.2,0.6,2.5,0.6,3.3
	c0,0.5-0.1,0.7-0.2,0.7c-0.4,0.4-0.6,0.4-1.1,0.4c-0.5,0-1.3-0.2-2.3-0.3c-0.2,0-0.4,0-0.6,0.1c-0.2-0.1-0.4-0.6-0.5-0.9
	c0.9-0.8,0.8-1.7,0.8-2.4c0-2-0.7-4.5-0.8-4.6c-0.1-0.5-0.6-1-1.2-1c-0.6-0.1-1.1,0.2-1.4,0.7c0,0-0.2,0.4-0.6,0.9
	c-0.2-0.6-0.4-1.1-0.6-1.4c-0.4-0.7-0.5-1-0.5-1.7c0-1.2-0.3-2.3-1.1-3.1c-0.8-0.8-1.9-1.2-3-1.2c-0.6,0-1.2,0.1-1.8,0.2
	c-0.3,0.1-0.5,0.1-0.9,0.1c-1.7,0.1-4.5-1.2-8.6-2.1c-4.6-1-6.2-1.5-10-3.8c-1.7-1-3.1-1.4-4.3-1.4c-1.6,0-2.7,0.6-3.4,0.8
	c-0.2-0.4-0.4-1.3-0.7-2.2c-0.3-1-1-2.5-2.7-2.9c-1.5-0.4-2.7-0.3-2.7-0.4c-0.1,0,0,0-0.2-0.2c-0.1-0.3-0.3-0.8-0.4-1.8
	c-0.1-0.5-0.1-0.9-0.1-1.3c0-1.3,0.2-1.8,1.1-2.9c0.9-1,2.6-2.3,5.2-4.3c3.1-2.4,4.6-4.2,5.6-5.2c1.1-1,1.4-1.4,3.6-1.7
	c1-0.1,1.9-0.2,2.7-0.2c1.1,0,1.9,0.1,2.7,0.1c0.5,0,1,0,1.7-0.4c0.7-0.4,1.1-1.3,1-2c0-0.2,0.1-0.7,0.1-1.3
	c0.2,0.1,0.4,0.3,0.5,0.4c0.4,0.3,0.8,0.6,1.1,0.8c0,0,0,0,0,0c-1,1-1.7,1.6-1.8,2.9c0,1.2,1.1,1.9,1.7,2c0.6,0.2,1.3,0.2,1.9,0.2
	c1.5,0,2.9-0.7,4.1-1.3c1.1-0.5,1.9-1.1,2.1-1.2c0.2-0.1,0.5-0.3,1.1-0.5c0.6-0.3,1.5-0.5,2-0.5c0.2,0,0.3,0,0.4,0.1l0,0
	c0.4,0.8,0.7,1.7,1.2,2.7c0,0,0,0,0,0.1c-0.6-0.5-1.5-0.8-2.4-0.8c-1.1,0-2.3,0.6-3.1,1.6l0,0c-0.2,0.3-0.4,0.7-0.4,1.1
	c0.2,1.6,1.1,1.8,1.8,2.2c0.7,0.3,1.6,0.6,2.5,0.6c0.8,0,1.8-0.2,2.5-1.3c0.2-0.4,0.3-0.8,0.3-1.1c0-0.4-0.1-0.8-0.3-1.1
	c0.6,0.5,1.3,0.8,2.1,0.7c1.1,0,2.2-0.4,3.3-1.1c1-0.7,2-1.7,2-3.3c0-1.3-0.8-2.4-2-3.2c-1.9-1.2-3.5-1.8-4.7-2.3
	c-1.2-0.5-2-0.9-2.9-2c-0.4-0.5-0.8-0.9-1.1-1.2c1-0.4,2.9-1.2,3.5-1.4c0.1,0,1.4-0.3,2.6-0.9c1.2-0.5,2.8-1.6,2.8-3.7
	c0-0.4-0.1-0.7-0.1-1.1c-0.5-1.9-1.8-3-2.9-3.6c-0.4-0.2-0.8-0.4-1.1-0.6c0.5-0.4,1.3-0.8,1.9-1.1c0-0.1,0.7-0.2,1.3-0.2
	c0.7,0,1.4,0.1,2,0.1c0.6,0.1,1,0.1,1,0.1c0.1,0,0.4,0.1,0.9,0.1c0.5,0,1.1,0,1.7-0.3c0.3-0.1,0.7-0.3,1-0.6
	c0.1,0.2,0.2,0.4,0.4,0.6c0.4,0.5,1.1,0.7,1.7,0.7c0.3,0,0.6-0.1,1-0.1c0.6-0.2,1-0.2,1.3-0.2c0.6,0,0.7,0.2,1.8,0.9
	c0,0,0,0.1,0,0.2c0,0.4-0.2,1.3-0.5,1.9c-0.2,0.3-0.4,0.6-0.5,0.8c-0.2,0.2-0.3,0.3-0.3,0.3c-0.5,0.2-1,0.5-1.6,0.9
	c-0.5,0.4-1.2,0.7-1.3,2c0,0.9,0.7,1.5,1.2,1.7c0.5,0.2,1,0.3,1.6,0.4c3.1,0.3,5.3,0.3,5.4,0.3c0.4,0,0.8-0.2,1.1-0.5
	c0-0.1,2-2.4,3-4.6c0,0,0,0,0-0.1c0.3,0.2,0.7,0.5,1.2,0.8c0.3,0.2,0.7,0.4,1.1,0.5c-3.7,1.3-5.1,3.5-5.8,5.1
	c-0.3,0.6-0.5,1-0.6,1.1c-0.1,0.1,0,0.1-0.5,0.1c-0.4,0-1-0.1-1.9-0.3c-1.4-0.4-2.6-0.6-3.7-0.6c-1.8-0.1-3.5,0.8-4.2,2.3
	c-0.4,0.9-0.5,1.9-0.5,3c0,1,0.1,2.1,0.4,3.1c0.1,0.5,0.3,0.9,0.6,1.3c0.3,0.4,0.8,1,1.7,1c0.3,0,0.6-0.1,0.8-0.2
	c1-0.5,2.4-0.6,4.3-1.3c0,0,0.4-0.1,1-0.1c2,0,5.6,0.6,7.6,0.6c0.3,0,0.7,0,1-0.1c0.1,0,0.2,0.1,0.5,0.2c0.5,0.3,1.2,0.8,1.8,1.3
	c0.7,0.5,1.1,1,2.4,1.2c0.2,0,0.5,0,0.7-0.1c0.5,0.3,1.7,1.4,2.8,2.4c0.4,0.3,0.9,0.6,1.5,0.6c0.7,0,1.2-0.4,1.5-0.7
	c0.3-0.3,0.4-0.5,0.5-0.7c0.1,0.1,0.3,0.2,0.6,0.4c1.4,1.3,1.5,1.7,1.7,1.9c0,0.1,0.4,0.8,1.1,1c0.4,0.1,0.6,0.1,0.9,0.1
	c0.1,0,0.2,0,0.3,0c1.5,0,5.1,0.3,5.1,0.3c0.4,0,0.7-0.1,1.1-0.3c0.3-0.3,0.5-0.6,0.5-1c0,0,0,0,0-0.2c0.1-0.3,0.2-0.7,0.4-0.9
	c0.2-0.2,0.2-0.2,0.5-0.3c0.1,0,0.2,0,0.4,0.1c0.7,0.1,1.5,0.7,2.3,1.2c0.4,0.3,0.8,0.6,1.1,0.8c0.4,0.2,0.7,0.5,1.5,0.6
	c0.5,0.1,1.3-0.4,1.5-0.9c0.3-0.5,0.3-0.8,0.3-1.2c0-0.2,0-0.3,0-0.5c-0.1-1.2-0.1-2.3-0.3-3.6c-0.2-1.3-0.8-2.7-2.1-3.9
	c-1.3-1.1-2.8-2-4-2.7c-0.6-0.4-1.2-0.7-1.5-0.9c-0.2-0.1-0.3-0.2-0.4-0.3l0,0c-0.2-0.4-0.4-0.8-0.5-1c1.1,0,3.6,0.9,4.9,1.9
	c1.7,1.2,3.1,2.6,5.3,2.7c0.8,0,1.6-0.3,2.2-0.8c1.4-1.2,3.3-1.7,4.6-3.2c0.9-1.1,2.8-4.1,2.8-4.1c0.3-0.4,0.3-0.9,0.1-1.4
	c-0.2-0.4-0.6-0.8-1.1-0.8c0,0-2-0.3-4.1-0.8c-1.1-0.3-2.1-0.6-3-0.9c-0.4-0.2-0.8-0.3-1-0.5c-0.1-0.1-0.2-0.1-0.2-0.1h0
	c-0.8-1.2-2.1-2.1-3.4-3c-1.4-0.8-2.5-1.5-3.8-1.6c-0.9,0-1.3,0.3-1.8,0.5c-0.5,0.2-1,0.3-1.3,0.3c-0.4-0.1-0.3,0.2-0.7-0.8
	c-0.5-1.5-0.8-3.2-1.1-4.7c-0.1-0.8-0.3-1.4-0.5-2c-0.2-0.6-0.5-1.3-1.6-1.7c-0.8-0.2-3.8-0.8-7.1-1.4c-1.6-0.3-3.2-0.7-4.5-1
	c-1.3-0.3-2.3-0.7-2.4-0.7c-1.1-0.6-3.1-1.4-5.2-2.3c-2.1-0.9-4.4-1.9-5.4-2.6c-2.6-1.6-6-4.1-9-4.2c-2.2,0-9.5,1-12.1,1
	c-0.3,0-0.5,0-0.5,0c-0.4-0.1-0.7-0.1-1.1-0.1c-2.4,0-6.2,0.8-7.9,1.1c-0.4,0.1-1,0.3-1.3,0.7c-0.4,0.4-0.4,0.9-0.4,1.3
	c0.1,1.5,0.8,2.5,0.7,3.1c-0.1,0.3,0.3,0.1-0.7,0.5c-0.5,0.1-1,0.2-1.3,0.3c0.1-0.5,0.2-1.2,0.4-2c0.1-0.6,0.1-1.1,0.1-1.6
	c0-1.5-0.4-2.9-1.4-3.9c-0.4-0.4-0.8-0.7-1.2-0.9c0.1,0,0.1,0,0.2,0c0.6,0,1.3,0,1.9,0.1c3.6,0.4,8.8,0.9,12.5,0.9
	c0.6,0,1.1,0,1.7,0c1.9-0.1,3.2-0.5,4.1-1.2c0.9-0.7,1.3-1.6,1.5-2c0.1-0.2,0.1-0.4,0.1-0.6c-0.1-1-0.6-1.3-0.8-1.5
	c-1-0.7-2.4-1.1-4-1.6c-1.6-0.4-3.2-0.7-4.4-0.7c-0.2,0-0.3,0-0.6,0c-0.6,0.1-3.4,0.1-6.2,0.1c-2.9,0-5.9-0.1-7.2-0.2
	c-1.4-0.1-3-0.2-4.5-0.2c-1.5,0-3,0-4.1,0.2c0,0-0.1,0-0.2,0c-1.1,0.1-2.6-1.3-4.4-2.6c-0.7-0.4-2-1.6-3.5-2.7
	c-1.5-1.1-2.9-2.2-4.5-2.5c-2.1-0.4-1.6-0.4-6.3-1.7c-1.2-0.3-2.7-0.7-4-1.1c-0.6-0.2-1.1-0.4-1.4-0.5h0c0,0-0.1-0.1-0.1-0.1
	c-0.2-0.2-0.6-0.6-1.2-0.6c-0.7,0-0.9,0.3-1.1,0.5c-0.4,0.5-0.3,0.5-0.4,0.7c-0.1,0.5-0.2,1.1-0.3,1.9c0,1.2,0.3,2.9,2,3.9
	c2,1.1,5.3,3,7.8,4.2c1.5,0.7,3.2,1,4.7,1.4c1.6,0.4,2.8,1,3.1,1.6c2.1,2.9,7,4.4,7.1,4.5l0.3,0.1l5.7,0.6c-1.4,0.7-3.3,1.4-4.9,2.2
	c-0.9,0.4-1.7,0.8-2.3,1.3c-0.6,0.5-1.3,1.3-1.4,2.5c0,0.5,0.2,1,0.4,1.4c0.5,0.8,0.4,1.3,0.5,2.5c0.1,1.2,0.6,2.8,2.3,4.1
	c1.4,1.3,2.7,2.2,4.1,2.6c-0.2,0-0.3,0-0.4,0c-1.2,0-2.1,0.6-3.1,1.4c-0.5,0.3-0.8,0.6-1.1,0.9c-0.1-0.2-0.2-0.4-0.3-0.6
	c-1.2-2.8-3.8-4.8-4.7-5.4c-0.5-0.7-2.3-3.4-3.9-4.9c-0.4-0.4-1-0.8-1.5-1c1.6-0.2,3.3-0.4,4.2-0.6c2-0.4,2.6-2.1,2.7-3.5
	c0.1-1.2-0.7-2.9-2.5-3.1c-0.4,0-0.9-0.3-1.6-0.7c-0.7-0.4-1.5-0.9-2.8-0.9c-0.2,0-0.4,0-0.6,0c0.3-0.4,0.5-0.8,0.5-1.4
	c0-0.3-0.1-0.6-0.1-0.9l0,0c-0.9-2.3-3.1-3.4-5.2-3.4c-1.5,0-3.3,0.8-3.9,2.5c-0.1,0.2-0.1,0.5-0.1,0.8c0.1,1.7,1.4,2.4,2.3,2.8
	c1.1,0.5,2.3,0.7,3.5,0.7c0.1,0,0.2,0,0.4,0c-0.7,0.3-1.4,0.7-2.1,1.2c-0.8,0.5-1.6,1-2.2,1.6c-0.6,0.6-1.2,1.2-1.3,2.4
	c0,0.2,0,0.5,0.1,0.7c0.6,1.2,1.8,2.1,3.7,2.3c-0.4,0.4-0.7,0.9-0.8,1.6c0,0.3-0.1,0.6-0.1,0.9c0,2,0.9,3.6,1.8,6.1
	c0.6,1.6,1.2,4.3,1.2,6c0,0.5,0,0.8-0.1,1c-1.9,0.4-2.4,0.8-4.1,1.3c-0.2,0.1-0.3,0.1-0.3,0.1h0c0,0-0.2-0.1-0.3-0.6
	c-0.1-0.4-0.2-1-0.2-1.8c0-2.2-0.5-4.1-0.5-4.9c0-0.1,0-0.2,0-0.3l0,0c0.1-0.2,0.2-0.4,0.2-0.9c0-0.4-0.3-1.1-0.8-1.3
	c-0.4-0.2-0.7-0.2-0.9-0.2c-1.1,0.1-2,0.5-3.4,0.5c-0.4,0-0.7,0-1.1-0.1c-0.5-0.1-1-0.2-1.4-0.2c-0.9,0-1.7,0.2-2.4,0.6
	c-0.7,0.4-1.4,1-1.4,2.1c0.1,1.4,1.1,2.1,2.2,2.5c0.9,0.3,1.4,1.3,1.4,2.1c0,0.6-0.2,0.9-0.7,1.2c-0.4,0.2-1.9,0.4-3.7,0.3
	c-3.6,0-8.4-0.4-10.5-0.4c-1.7,0-3.5,0.2-5,0.2c-0.7,0-1.3-0.1-1.6-0.2c-0.3-0.1-0.3-0.2-0.3-0.2c0-0.1,0-0.1,0-0.1s0,0,0.1-0.1
	c0.3-0.5,2.1-1.2,3-1.1c0.3,0,0.7,0,1.1,0c2.5-0.1,7.4-0.1,10-4c0.5-0.8,0.8-1.6,0.8-2.4c0-2.1-1.7-3.1-3-3.5
	c-1.4-0.5-2.9-0.6-3.9-0.6c-1.7,0-2.7-0.5-5.2-3.4c-0.4-0.5-0.5-0.8-0.5-1c0-0.3,0.2-0.9,0.7-1.5c0.4-0.7,1.1-1.1,1.2-2.6
	c0-0.3,0-0.6-0.2-0.8c-0.1-0.4-0.4-0.7-0.7-0.9h0c0.3,0,0.5,0,0.8-0.1c1.8-0.7,2.1-2.2,2.7-3.2c0.3-0.6,0.5-1.1,0.7-1.3c0,0,0,0,0,0
	c1.1-0.1,2.6-0.5,4-0.5c0.6,0,1.2,0.1,1.5,0.2c0.3,0.1,0.3,0.2,0.3,0.2c0.3,0.7,0.5,1.2,0.9,1.7c0.4,0.5,1.3,0.9,1.8,0.8
	c0.6,0,0.9-0.1,1.5-0.1c0.2,0,0.4,0,0.6,0c0.1,0,0.3,0,0.4,0c1.9,0,3.2-1.1,4.2-2.2c1-1.1,1.5-2.2,1.8-3.2c0-0.2,0-0.3,0-0.4
	c0-2.1-2-4.1-5.3-4.2c-0.3,0-0.7,0-1.1,0.1c-0.6,0.1-1.5,0.1-2.5,0.1c-1.9,0-4.3-0.1-6.6-0.1c-1.5,0-2.9,0-4.1,0.2
	c-1.2,0.2-2.1,0.2-3.1,1.1h0c-1,1.1-1,2.3-1,3.4c0,1.3,0.2,2.7,0.2,3.3c-0.3,0.4-0.3,0.8-0.3,1.2c0,0.7,0.2,1.3,0.7,1.9
	c0.1,0.2,0.2,0.3,0.4,0.4c-0.2,0-0.3,0-0.5,0c-1.4,0-2.9,0.4-4.2,0.3c0,0,0,0,0,0c0.1-0.1,0.4-0.3,0.7-0.6c0.5-0.4,1.4-1.1,1.6-2.4
	c0.1-1.2,1.1-5.4,1.1-5.4c0.1-0.3,0-0.6-0.1-0.9c-0.1-0.1-0.7-2.2-3.3-2.4c-0.6,0-1.2,0.2-1.7,0.5c-1.6,1-2,1.3-2.3,1.2
	c-0.1,0-0.3,0-0.6-0.1v0c-0.1,0-0.5-0.7-1.1-1.5c-0.5-0.8-1.6-1.9-3.2-1.9c-0.3,0-0.7,0-1,0.1c-3.5,0.7-4.6,3.6-5,3.9
	c-0.3,0.4-1.6,0.9-2,0.8c0,0,0,0,0,0c-0.9-0.6-4.8-3.2-4.8-3.2c-0.2-0.1-0.4-0.2-0.6-0.2c1.5-0.2,3.4-0.8,4.5-0.8c0.2,0,0.3,0,0.4,0
	c0.7,0.7,1.6,0.9,2.4,0.9c0.8,0,1.5-0.2,2.2-0.6c0.6-0.4,1.4-1,1.5-2.2c0-0.1,0-0.2,0-0.3c0-0.1,0-0.1,0-0.1c0-0.4,0.2-1.8,0.2-3.1
	c0-0.7-0.1-1.4-0.4-2.2c-0.3-0.8-1.2-1.6-2.2-1.6c-0.1,0-0.3,0-0.4,0c-3.2,0.1-5.9,2.7-8.9,3.8c-1.5,0.6-2.4,1.9-2.3,3.2
	c0,1.1,0.7,2.4,2,2.7c-0.8-0.1-2.1-0.2-3.4-0.3c-1.1-0.1-2.2-0.3-2.9-0.5c-0.3-0.1-0.5-0.1-0.7-0.2c-0.6-1.6-2.5-3.8-6.1-3.8
	c-0.4,0-0.8,0-1.2,0.1c-2.2,0.2-5,1.1-7.4,1.9c-1.2,0.4-2.3,0.7-3.1,1c-0.4,0.1-0.8,0.2-1,0.3c-0.1,0-0.2,0.1-0.3,0.1l0,0
	c-0.3,0-0.8,0.1-1.2,0.5c-0.4,0.4-0.5,0.9-0.5,1.2c0,0.4,0.1,0.7,0.2,0.9c-0.5,0-1.2,0.1-1.8,0.4c-0.9,0.4-1.7,1.3-2,2.4
	c-0.1,0.2-0.1,0.4-0.1,0.7c0,0.7,0.4,1.4,0.9,1.8c1.4,0.9,2.8,0.6,4.4,0.7c0,0,0.1,0,0.2,0c1.2,0,2.8,0,4.2-0.1
	c1.5-0.1,2.7-0.2,3.8-0.8c0.2-0.2,2.9-1,4.1-1c0,0,0.1,0,0.1,0c0,0.7,0.2,1.3,0.5,1.9c-0.1,0-0.2,0-0.3,0c-0.3,0-0.5,0-0.7,0
	c-1.7,0-2.9,0.6-3.7,1.1c-0.8,0.5-1.1,0.7-2,0.7c-0.2,0-0.5,0-0.9-0.1c-1.1-0.2-2-0.3-2.8-0.3c-1.9,0-3,0.3-4.7,0.3
	c-0.4,0-0.9,0-1.4-0.1c-1.4-0.1-2.5-0.2-3.5-0.2c-0.9,0-1.8,0.1-2.7,0.6c-0.9,0.5-1.4,1.4-1.6,2.4c-0.3,1.1-0.7,2.6-1.2,3.8
	c-0.2,0.6-0.5,1-0.7,1.3c-0.1,0.1-0.1,0.1-0.1,0.1c-0.7,0-1.4,0.3-1.9,0.6c-0.5,0.4-1.1,1-1.2,2c0,1,0.8,1.8,1.5,2.2
	c0.8,0.4,1.8,0.6,3.2,0.7c2.2,0.3,2,0.5,2.4,1c0.2,0.3,0.5,0.9,1.2,1.3c0.7,0.5,1.6,0.7,2.6,0.7c0.2,0,0.5,0,0.8,0
	c2.3-0.2,4.5-0.2,6.5-0.6c1.9-0.4,3.8-1.2,4.6-3.2c0.1-0.3,0.2-0.5,0.3-0.7c1.3,2,4.2,6.2,4.3,6.3l0.2,0.2c0.1,0,2,1.9,3.4,3
	c-0.2,0.2-0.4,0.3-0.5,0.2c-0.1,0-0.3,0-0.5-0.2c-1.5-1.1-3.2-1.4-4.7-1.7c-1.5-0.3-2.7-0.7-3.1-1.1c-1.1-1-2.5-1.3-4.1-1.6
	c-1.6-0.2-3.3-0.3-4.9-0.3c-1.4,0-2.5,0.1-3.3,0.2c-0.1,0-0.3,0-0.4,0c-0.7,0-1.8-0.2-2.8-0.5c-1.1-0.3-1.9-0.5-2.8-0.6
	c-0.9,0.1-1.4,0.4-2,0.7c-0.8,0.5-1.6,1.1-2.3,1.7c-0.4-0.8-1-1.7-1.4-2.4c-0.3-0.5-1-1.1-1.8-1c-1.4,0.1-1.8,0.9-2.4,1.3
	c-0.2,0.2-0.5,0.5-0.6,0.6c0,0-0.1,0-0.1,0.1c-0.7-0.2-3-1.6-5.6-1.6c-0.7,0-1.5,0.1-2.3,0.5c-1.6,0.6-2.5,1.4-3,1.8
	c-0.5,0.3-0.6,0.4-2,0.5c-0.3,0-0.7,0-1.2,0c-3.9-0.3-4.9-1-6.8-1.1c-0.3,0-0.6,0-1,0.1c-1.6,0.3-1.6,0.3-1.6,0.3
	c-0.7,0.1-1.2,0.8-1.2,1.6c0,0,0.1,0.5-1,1.3c-0.7,0.5-1.3,1-1.7,1.3c-0.2,0.2-0.4,0.3-0.5,0.3c-0.1,0-0.1,0-0.1,0.1
	c0-0.1-0.1-0.1-0.2-0.3c-1.4-2.2-3.2-2.7-3.7-2.8c-0.1,0-0.5-0.3-1.3-0.7c-0.8-0.4-1.9-0.7-3.1-0.7c-0.8,0-1.6,0.1-2.5,0.4
	c-0.4,0.1-1,0.2-1.6,0.2c-1.4,0-3.2-0.4-4.6-0.7c-1.5-0.4-2.5-0.8-3.5-0.8c-0.8,0-11.1-0.7-12.7-1.3c-1.6-0.5-4.1-0.6-6.5-0.6
	c-1.7,0-3.2,0.1-4.3,0.2c-1.6,0.3-5.6,0.3-7,0.3c-0.4-0.3-1.1-0.8-1.8-1.4c-0.6-0.4-1.2-0.8-1.7-1.2c-0.6-0.3-0.9-0.6-1.9-0.7
	c-0.8,0-1.2,0.2-1.8,0.4c-0.6,0.2-1.2,0.3-1.6,0.3c-0.4,0-0.6-0.1-0.7-0.2c-1.7-2-4.3-3-4.4-3.1c-0.4-0.1-0.8-0.1-1.2,0.1
	c-0.4,0.2-0.6,0.5-0.8,0.9c0,0-0.2,0.8-0.7,1.6c-0.4,0.9-1.1,1.7-1.4,1.7c-1.5,0.5-4.6,1.4-5.6,1.4c0,0-0.1,0-0.1,0
	c-0.4-0.3-0.8-0.3-1-0.3c-1.4,0-3.2,0.8-5,1.5c-1.7,0.7-3.2,1.4-3.2,1.4l-0.4,0.3c0,0-1,1-2.1,1.9c-0.6,0.5-1.2,1-1.6,1.3
	c-0.2,0.2-0.4,0.3-0.6,0.3h0c-0.8-0.2-2.2-0.4-3.5-0.4c-0.5,0-1,0-1.6,0.2c-0.5,0.1-1.4,0.7-1.5,1.8c0,0.3,0.1,0.6,0.2,0.8
	c0.1,0.2,0.1,1.4,0.8,2.6c0.7,1.3,2.5,2.3,4.9,2.2c2,0,2.8,0.4,3.4,0.8c0.6,0.4,1.2,1.1,2.6,1.5c1,0.2,1.5,0.2,1.8,0.3
	c0.3,0.1,0.7,0.3,1.6,1.3c0.5,0.5,0.7,0.9,0.9,1.2c-0.1,0-0.1,0-0.2,0c-2.4-0.3-4.8-1-6-2.2c-1.6-1.6-1.6-1.6-1.6-1.6
	c-0.5-0.4-1.2-0.6-1.7-0.2l-2.8,1.5c-4.2,0.5-8.9,2.7-8.9,2.7c-0.7,0.3-1,1.2-0.7,1.9c0.1,0.1,1.4,3.2,4.2,5.5
	c3.1,2.3,8.4,2.2,9.3,2.3v0c-1.2,0.5-2.3,1.2-3.3,2.1c-0.9,0.8-1.8,1.4-2.6,2.1c-0.8,0.6-1.7,1.6-1.7,3c0,0.6,0.1,1.2,0.4,1.8
	c0.5,1.1,1.2,2.1,2,3.1c-0.3-0.1-0.7-0.2-1-0.2H33c-0.8,0-1.3,0-1.9,0.2c-0.6,0.2-0.8,0.4-2.1,0.9c-0.5,0.1-1.3,0.9-1.2,1.7
	c0.1,0.9,0.5,1.3,0.7,1.6c0.5,0.5,1.1,1,1.8,1.4c0.7,0.4,1.2,0.7,2.2,0.7c1.4-0.1,1.8-0.9,2.4-1.6c0.5-0.7,0.9-1.5,0.9-2.5
	c0-0.2,0-0.4-0.1-0.6c0.5,0.6,1.1,1.2,1.4,1.7c0.2,0.3,0.3,0.5,0.4,0.6c0.1,0.2,0.1,0.2,0.1,0.2c0.1,1.2,1.5,1.8,2.2,1.7
	c1.3,0,2.4-0.6,3.5-1.3c1-0.7,1.9-1.3,2.4-2.4c0,0.2,0,0.5-0.1,0.8c-0.1,0.5-0.1,0.9-0.1,1.3c0,1.9,1.1,3.2,2.1,3.8
	c1,0.6,1.9,0.8,1.9,0.8c0.6,0.1,1.3-0.2,1.6-0.8c0,0,0.3-0.6,0.7-1.2c0.1-0.1,0.2-0.2,0.2-0.3c0.4,0.4,0.9,0.9,1.3,1.3
	c0.8,0.8,1.5,1.5,1.5,1.5c0.5,0.6,1.4,0.6,2,0.1c0,0,0.4-0.4,1-0.7c0.6-0.4,1.2-0.6,1.5-0.6c0,0.1,0,0.1,0,0.1c0,0.1-0.2,0.5-0.8,1
	c-0.6,0.5-1.4,1-2.1,1.4c-0.7,0.4-2.6,1.3-4.5,2.2c-1.9,0.9-3.7,1.8-4.6,2.4c-0.6,0.4-2.2,1.4-3.8,2.2c-0.8,0.4-1.6,0.8-2.2,1.1
	c-0.3,0.1-0.6,0.2-0.8,0.3c-0.1,0-0.2,0-0.2,0.1h0c-1.1,0-1.8,0.8-2.1,1.3c-0.4,0.6-0.5,1.3-0.5,2c0,0.6,0.1,1.4,0.6,2
	c0.4,0.7,1.4,1.2,2.3,1.1c0.1,0,0.3,0,0.5,0c3-0.5,9.6-3.4,11.7-4.4c0.1-0.1,0.2-0.1,0.2-0.1h0c0,0,0,0,0.2,0
	c0.2,0.1,0.6,0.2,1.1,0.2c1.1,0,2.4-0.5,4.6-1.8c2.4-1.4,4.3-2.8,5.8-3.7c0.7-0.5,1.3-0.9,1.8-1.1c0.4-0.2,0.6-0.3,0.7-0.3
	c0,0,0.1,0,0.1,0.1c0.5,0.4,1.3,2.4,3.6,3.1c0.4,0.1,0.7,0.2,1.1,0.2c3-0.2,4.6-2.8,5.6-3.3c1.6-1.3,2.2-3.3,2.3-5
	c0-0.4,0-0.8-0.3-1.3c-0.2-0.5-1-1-1.6-1c-0.2,0-0.4,0-0.5,0.1c-0.1,0-0.4,0.1-0.8,0.1c0.7-0.7,1.4-1.6,1.5-2.9
	c0-1.2,0.4-2.7,1.2-3.5c-0.1,0.4-0.3,0.9-0.5,1.4c-0.2,0.6-0.4,1.2-0.4,1.8c0,0.6,0.2,1.4,0.8,1.9c0.6,0.5,1.2,0.6,1.8,0.6
	c1.8-0.1,3.4-1.1,4.6-2.2c0.6-0.5,0.7-0.5,1.6-0.7c0.9-0.2,2.3-0.5,4-1.8c1.6-1.2,2.5-2.3,3-2.8c0.6-0.6,0.4-0.4,0.8-0.5
	c0,0,0,0,0.1,0c0.4,0.1,1.2,0.7,2.1,1.3c0.9,0.6,1.9,1.2,3.3,1.3c0.6,0,1.2-0.2,1.7-0.6h0c0,0,0.1,0,0.3,0c0.6,0,2,0.4,3.4,0.9
	c1.5,0.5,2.9,1,4.5,1.1c0.8-0.1,3.8,1,6.5,2c1.4,0.5,2.7,1.1,3.8,1.5c1.2,0.4,1.9,0.7,2.8,0.8c0.3,0,1.9,0.4,3.1,1.4
	c1.3,1,2.2,2.3,2.3,3.8c0.1,2,0.5,3.3,1.4,4.3c1,1,2.2,1,2.9,1c0.2,0,0.5,0,0.7,0c0.4,0,1.7,0.3,2.7,0.8c0.5,0.3,0.9,0.6,1.2,0.8
	c0.1,0.1,0.2,0.2,0.2,0.2c0,0.6-0.2,2.4-0.2,4.2c0.1,2.4,0.2,5.2,2.6,6.9c1.1,0.7,2.3,1.6,3.3,2.3c1.1,0.7,1.9,1.5,3.4,1.6
	c0.4,0,0.8-0.1,1.1-0.3c1.2-0.9,1.1-1.9,1.2-2.7c0-0.7-0.1-1.5-0.2-2.2c0.2,0.2,0.4,0.5,0.5,0.7c0.5,0.5,1,1.1,2.1,1.1
	c0.1,0,0.2,0.2,0.5,0.3c0.9,0.8,2,2.7,1.9,3.6c0,0.2,0,0.3-0.1,0.4c-0.2,0.6-0.3,1.2-0.3,1.8c0,2.6,1.8,5.6,4.9,5.7
	c0.3-0.1,1.7,0.7,2.8,1.9c0.6,0.6,1.1,1.2,1.6,1.7c0.6,0.5,0.8,0.9,1.7,1.3c0.1,0,0.6,0.3,1,0.8c0.2,0.2,0.3,0.4,0.4,0.6
	c0,0.1,0.1,0.1,0.1,0.2h0c0,0.9,0.4,2.4,0.7,4.2c0.3,1.8,0.7,3.8,0.7,4.6c0,2.1-0.8,11.4-1.1,15c0,0.2,0,0.4,0,0.7
	c0.1,4.2,2.4,10,5.3,13.5c1.2,1.5,2.5,3.8,3.7,5.9c1.2,2.2,2.1,4,3.4,5.1c0.5,0.4,1.1,1.4,1.9,2.5c0.8,1.1,1.9,2.4,3.8,2.4
	c0.2,0,0.3,0,0.5,0c0.1,0,0.2,0,0.3,0c0.6,0,1.1,0.2,1.9,1.2c0.8,0.9,1.7,2.5,2.7,4.6c1,2.2,2.1,5.2,3.2,7.8c0.5,1.3,1,2.5,1.6,3.4
	c0.6,0.9,0.9,1.7,2.1,2.3c0.5,0.2,1.2,0.7,1.7,1.2c0.6,0.5,0.8,1.1,0.7,1.1c0,0,0,0,0,0.1c-1,1.3-2.4,3.1-2.5,5.2
	c0,0.5,0.2,1.2,0.7,1.8c0.6,0.5,1.2,0.7,1.9,0.7c1.6,0,2.7-0.5,2.9-0.5c0.1,0,0.2-0.2,1.1,1.1c1,1.5,2.1,2.7,2.8,3.6
	c0.8,0.9,1.1,1.6,1.1,1.9c0,0,0,0.1,0,0.1c0,0.1,0,0.3,0,0.5c0,1.6,1.1,2.6,2,3.1c0.8,0.5,1.7,0.7,2.2,0.9c0,0,0,0.1,0.1,0.1
	c0.4,0.4,1,1.4,1.8,2.3c0.8,0.9,1.7,1.9,3.4,2c0.9,0,1.8-0.4,2.4-1.1c0.7-0.7,1-1.6,1-2.5c-0.1-2.1-1.4-3.5-2.7-4.8
	c-1.3-1.3-2.7-2.4-3.3-3c-0.3-0.2-0.4-1.2-0.7-2.9c-0.3-1.7-1-3.9-3.2-6c-1.6-1.6-2.3-2.8-2.9-4c2.1,2.6,4.7,5.2,6.1,6.7
	c1,1.1,2.8,4,4.3,6.7c0.8,1.3,1.5,2.6,2.2,3.5c0.3,0.5,0.7,0.9,1,1.3c0.3,0.3,0.6,0.7,1.5,0.8c0.3,0.1,1.5,1.3,2.4,2.4
	c0.8,1,1.5,1.9,1.7,2.2c0.1,0.2,0.4,0.8,0.7,1.5c0.4,0.9,0.7,2,0.7,2.5c0,0.1,0,0.1,0,0.1c-0.3,0.6-0.4,1.1-0.4,1.6
	c0.1,2.6,1.6,6.1,3.8,7.8c2.1,1.4,9.6,5.6,10.8,6.3c0.2,0.2,1.2,1.6,2.2,2.8c1.1,1.3,2.6,2.9,4.9,2.9c2.9-0.1,4.9,0.6,4.9,0.8
	c0.2,0.3,0.9,1.2,1.6,2c0.8,0.8,1.7,1.8,3.3,1.8c0.9,0,1.8-0.5,2.4-1.3c0.9-1.2,1.4-2,1.7-2.3c0.3-0.3,0.4-0.4,1.5-0.4
	c0.8,0,1.2,0.3,1.9,0.9c0.6,0.6,1.2,1.6,2,2.5c0.7,0.8,1.9,2.3,3.3,3.5c1.5,1.2,2.8,2.5,4.7,2.6c0.2,0,0.3,0,0.4,0c0,0,0.1,0,0.1,0
	c0.2,0,1,0.3,1.8,0.7c0.8,0.4,1.7,1.1,3,1.1c0.5,0,1.1-0.1,1.5-0.5c0,0,0.1,0,0.2,0c0.5-0.1,2,0.8,2.9,1.4c1.1,0.6,4.1,2.6,4,5.2
	c0,0.1,0,0.2,0,0.3c0,0.2,0,0.4,0,0.7c-0.1,4.2,3.2,5.8,4.6,6.6c1.3,0.8,3.6,3,4.8,4.6c1,1.2,2.3,1.7,3.4,2.1c0.5,0.2,1,0.4,1.4,0.6
	c0.2,0.1,0.3,0.2,0.4,0.2c0.1,0.1,0.1,0.1,0.1,0.1c0.2,0.2,0.4,0.7,0.9,1.2c0.4,0.5,1.3,1.2,2.4,1.2c0.8,0,1.6-0.3,2.4-0.9
	c1.9-1.3,2.5-3.3,2.6-4.5h0.1c0.7,0,1.4,0.2,1.6,0.4c0.3,0.2,0.9,1.6,1.4,2.8c0.2,0.6,0.5,1.3,0.7,1.9c0.3,0.6,0.4,1,1,1.6
	c0,0,0,0,0,0c0.1,0.2,0.5,0.9,0.7,1.8c0.3,1,0.5,2.3,0.5,3.6c0,0.8-0.1,1.6-0.3,2.3c-0.6,2-0.8,3.8-1,5.2c-0.1,0.5-0.2,0.9-0.2,1.2
	c-0.7,0.2-1,0.8-1.4,1.1c-0.6,0.8-1.1,1.7-1.6,2.6c-0.5,0.9-1.1,1.5-1.2,1.6c-1.1,0.7-2.5,2-3.8,3.5c-1.3,1.6-2.5,2.9-2.6,4.8
	c0,0.1,0,0.3,0,0.5c0.2,1,0.8,2.3,1.3,3.9c0.5,1.5,1,3.1,0.9,3.9c0,0.2,0,0.3,0,0.4c-0.1,0.5-0.8,1.6-1.7,2.9
	c-0.8,1.3-1.7,2.9-1.7,4.9c0,0.5,0,0.9,0.2,1.4c0.6,2.5,2.7,3.8,4.2,4.9c1.6,1.1,2.6,2.1,2.6,2.8c0.2,2.1,1.4,4.7,2.5,7.3
	c1.1,2.6,2.3,5.3,2.5,6.6c0.4,2.2,1.9,4,3,5.8c1.2,1.8,2.2,3.6,2.2,5.4c0,3.1,2.1,5.2,4,6.7c2,1.5,4,2.3,5,2.6
	c0.1-0.1,1.1,0.7,2.1,1.6c1.1,0.9,2.1,1.9,3.4,2.6c1.5,0.8,3,2.5,4.3,4.9c0.8,1.5,1,3.9,0.9,5.4c0,0.6,0,1.1,0,1.5
	c0,0.8-0.8,11.1-1.6,16.9c-0.2,1.2-0.2,2.4-0.2,3.5c0,2.7,0.4,5,0.4,6.4c0,1-0.2,1.4-0.3,1.4c-1.1,1.2-3,2.4-3.2,4.8
	c0,0.8,0.3,1.7,0.9,2.4c0,0.1,0.1,0.1,0.1,0.1c-0.1,0.1-0.4,0.5-0.9,0.9c-0.3,0.2-0.5,0.5-0.8,0.7c-0.2,0.3-0.6,0.7-0.7,1.5
	c0.1,1,0.4,1.8,0.8,3.1c0.3,1.2,0.7,2.7,0.6,3.7c0,0.5-0.1,0.9-0.2,1.1c-1.2,2.5-2,5.8-2.8,7.6c-0.5,1.4-2.4,3.4-2.4,6.4
	c0,0.4,0,0.9,0.1,1.3c0,0.2,0.1,0.3,0.1,0.4c-0.1,0.4,0.1,0.2-0.6,0.8c-0.6,0.4-1.7,1.7-1.7,3.5c-0.1,1.7,0.9,2.9,1.5,3.3
	c0.5,0.5,0.4,0.2,0.5,1c0,0.2,0,0.4-0.1,0.7c-0.3,1.7-0.7,2.6-1.1,3.7c-0.4,1-0.9,2.2-0.9,3.8c0,1.6,0.4,3.2,0.7,4.6
	c0.4,1.3,0.7,2.6,0.6,2.6c0,0-0.2,1.1-0.8,2.2c-0.5,1.2-1.3,2.6-2.2,3.8c-1.7,2.4-3.2,4-3.3,6.3c0,0.2,0,0.4,0.1,0.7
	c0.2,1.2,0.8,2.1,1.3,2.9c0.2,0.4,0.4,0.8,0.6,1c0,0.1,0.1,0.2,0.1,0.2c-0.2,0.3-0.7,1.2-1.2,2.2c-0.6,1.2-1.3,2.7-1.3,4.3
	c0,0.2,0,0.4,0,0.6c0.1,1.8,1.7,2.7,2.5,2.9c0.4,0.1,0.6,0.2,0.7,0.3c-0.1,0.2-0.4,0.5-0.8,0.9c-0.4,0.5-1.2,1.1-1.2,2.5
	c0,0.7,0.3,1.4,0.8,1.9c1,1,2,1.3,2.4,1.7c0.4,0.4,0.5,0.4,0.6,1.4c0,0.2,0,0.6-0.1,0.9c0,0.3-0.1,0.7-0.1,1c0,4.3,4.3,5.8,4.2,6
	c0.4,0.4,1,1.3,1.8,2.1c0.7,0.7,1.5,1.5,2.9,1.7c0.1,0.4,0.3,0.9,0.7,1.1c0.3,0.2,0.6,0.3,0.8,0.3c0.3,0.1,1.6,0.7,2.8,1.3
	c1.4,0.6,2.9,1.3,4.4,1.3c2.7-0.1,6.9-1.4,7.9-1.7c0,0,1.9-0.5,3.6-0.8c0.9-0.2,1.7-0.5,2.5-0.7c0.7-0.3,1.4-0.4,2-1.4
	c0.1-0.2,0.2-0.5,0.2-0.8c0-0.9-0.7-1.4-1-1.5c-1.1-0.5-2.2-0.5-3.6-0.7c-1.4-0.1-2.8-0.3-3.5-0.6c-0.8-0.3-2.5-1.7-3.9-3.2
	c-1.4-1.5-2.6-3.3-2.7-3.7c-0.1-0.5-0.3-1.4-0.3-2.2c-0.1-1.6,0.5-3.2,1-3.4c2.2-1.5,6.8-6.1,7.8-7c0.8-0.8,1.3-1.8,1.8-3
	c0.5-1.2,0.8-2.4,0.8-3.5c0-0.5,0-1.2-0.8-1.9c-0.8-0.5-1.3-0.5-1.9-0.6c-0.9-0.1-1.9-0.1-2.6-0.1c-0.3,0-0.5-0.1-0.7-0.1
	c0,0,0,0,0-0.1c0-0.1,0.2-1,2-2.5c1.5-1.3,2.6-2.8,3.5-4.1c0.8-1.3,1.5-2.4,1.8-2.5c1.1-1,3.5-3.1,4.5-5.9c0.2-0.5,0.3-0.9,0.3-1.4
	c0-0.4-0.1-1-0.6-1.4c-0.5-0.4-1-0.5-1.3-0.5c-1,0.1-1.6,0.4-2.2,0.4c-0.1-0.1-0.1-0.1-0.3-0.3c-0.3-0.5-0.6-1.6-0.8-2.4
	c0.4,0.1,1,0.3,1.5,0.5c1.2,0.4,2.5,0.9,3.7,1.2c0.4,0.1,0.8,0.1,1.2,0.1c0.6,0,1.3-0.2,1.8-0.7c0.5-0.6,0.6-1.2,0.6-1.7
	c0-1.2-0.5-2.2-0.6-3c0-0.2,0-0.4,0-0.6c0-0.7,0.1-1.5,0.3-1.9c0-0.1,0-0.1,0.1-0.2c0.9,0.4,1.8,0.4,2.9,0.4c3.4,0,8-0.8,9.2-1.1
	c1.1-0.4,1.3-1,1.9-1.7c1.5-2,3.4-5.7,4.1-6.8c0.7-1,1.2-2.1,1.2-3.3c0-1.1-0.5-2.3-1.5-2.9c-0.1-0.1-0.3-0.2-0.4-0.5
	c1.3,0.4,2.6,0.8,3.9,0.8c2.2,0,4.2-1.1,6.3-3.5c3.5-4,6.5-6.5,6.9-10c0.2-2.2,1-4.3,1.6-5c0.3,0.2,0.7,0.5,1.6,0.6
	c0.7,0,1.5-0.4,1.9-1c0.4-0.5,0.8-1.2,1.1-2.1c0.8-2,1.4-2.7,2.2-3.6c0.8-0.9,1.8-1.9,2.7-3.9c0.4-0.8,0.5-1.7,0.5-2.5
	c-0.1-2.5-1.2-4.8-1.1-6.2c0-0.7,0.1-1.1,0.7-1.6c3.1-2.5,8.8-5.8,8.9-5.8c0,0,0.3-0.2,1.1-0.6c0.8-0.3,1.9-0.8,3.5-1.3
	c1.4-0.4,3.1-0.5,4.6-0.7c1.5-0.2,3.2-0.6,4.2-2.3c1.2-2.3,2.3-6.5,3.7-8.4c1.5-2.1,3.1-4.9,3.2-7.5c0-0.5-0.1-1.1-0.3-1.6
	c0,0,0-0.1,0-0.2c0-0.8,0.5-2.8,1-4.6c0.5-1.9,1.1-3.7,1.1-5.1c0-0.1,0-0.3,0-0.4c-0.3-1.5-1-3.2-1-5c0-1.4,0.4-2.8,1.9-4.3
	c2.1-2,4.3-4.6,6-6.8c1.7-2.3,2.9-4,3.2-5.5c0-0.4,0.9-2.5,1.7-4.8c0.8-2.3,1.6-4.8,1.6-6.9c0-0.2,0-0.3,0-0.5
	C459.4,372.9,456.5,369,453.9,367.6z M317.7,177l0.1-0.1L317.7,177L317.7,177z M315.2,181.3c0.7-0.9,1.5-1.8,2.1-2.4
	c0.2-0.2,0.4-0.4,0.6-0.6c0.3,0.1,0.6,0,0.9,0.1c1.3,0,2.9-0.3,4.2-0.3c0.4,0,0.7,0,0.9,0.1c-0.6,0.3-1.7,0.7-2.8,1.2
	c-1.3,0.6-2,0.8-2.9,1.2c-0.8,0.3-1.7,1-2.4,2c-0.1,0.3-1.1,0.9-2.4,1.5c-0.2,0.1-0.4,0.2-0.7,0.3
	C313.3,183.8,314.2,182.6,315.2,181.3z M310.9,172.6c0.3,0.4,0.5,0.9,0.6,1.3c0,0,0,0-0.1,0c-0.4-0.4-0.6-0.9-0.7-1.5
	C310.8,172.4,310.9,172.5,310.9,172.6z M310.1,186.3c-0.2,0.1-0.3,0.3-0.4,0.5c-0.7,0.9-1.9,1.6-2.5,1.8c0.1-0.2,0.2-0.4,0.3-0.6
	c0,0,0.1-0.1,0.1-0.1C308,187.4,309.1,186.8,310.1,186.3z M302.8,170.7c0.2,0,0.4,0,0.7-0.1l-0.5-1.4l0.5,1.3l0,0.1
	c0.2-0.1,1.3-0.2,2.3-0.1c0.8,0,1.7,0,2.4,0.1c-0.3,0.2-0.4,0.5-0.5,0.5c-0.4,0.6-0.6,1.3-0.8,2.3c-0.2,1-0.4,2.1-0.4,3.2
	c0,0.9,0.1,1.7,0.5,2.5c0,0.1,0,0.1,0,0.1c0.1,0.1-0.3,0.8-0.9,1.3c-0.3,0.2-0.6,0.5-0.9,0.6c0,0,0,0,0,0c-0.2-0.6-0.6-1.8-0.5-3.2
	c0-0.4,0-0.7,0.1-1c0-0.3,0-0.5,0-0.7c0-2.3-1.2-4.6-3.3-5.6C302.2,170.7,302.5,170.7,302.8,170.7z M299.7,170.1c-0.1,0-0.2,0-0.3,0
	c-0.2,0-0.4,0-0.7,0.1c-3.9,0.5-5.6,4.2-6.3,4.6c-0.9,1-1,1.9-1.2,3.1c-0.2,1.1-0.2,2.4-0.2,3.5c0,1.1,0.1,2,0.2,2.7
	c0,0.2,0.1,0.6,0.1,1.1c0,0.8-0.1,1.7-0.4,2.2c-0.3,0.6-0.3,0.5-0.5,0.6c0,0-0.1,0-0.1,0c0,0-0.1,0-0.3-0.6
	c-0.2-0.6-0.3-1.5-0.3-2.5c0-1.2,0.1-2.5,0.2-3.2c0-0.3,0.1-0.7,0.1-1c0-1.5-0.3-3.5-0.3-5.3c0-1.2,0.1-2.2,0.4-2.8
	c0.6-1.8,3.4-2.8,5.5-3.1c0.1,0,0.2,0,0.3,0c0.8,0,2.2,0.3,3.4,0.6C299.5,170,299.6,170,299.7,170.1z M278.5,163.2L278.5,163.2
	c0.2-0.2,1.6-0.5,3.7-1.5l-0.6-1.3l0.6,1.3c1.7-0.8,3.2-2,4.6-3c1.2-1,2.4-1.6,2.7-1.6c1.8,2,4.4,4.2,6.9,4.9
	c-0.1,0.3-0.3,0.7-0.5,1.1c-0.2,0.3-0.4,0.6-0.6,0.8c0,0,0,0-0.1,0.1c-0.9,0-3.5-0.7-5.7-0.7c-0.8-0.1-0.6-0.1-0.8-0.3
	c-0.1-0.1-0.2-0.3-0.4-0.6c-0.2-0.3-0.8-0.8-1.6-0.8c-0.2,0-0.4,0-0.7,0.1c-1,0.3-3.6,1-5.5,2.1c-0.4,0.2-1,0.4-1.5,0.4
	c-0.4,0-0.7-0.1-0.7-0.2C278.5,163.4,278.5,163.2,278.5,163.2z M297.9,94.9c-0.1,0-0.2,0.1-0.4,0.1c-0.3,0.1-0.5,0.1-0.7,0.1
	c-0.3,0-0.2,0-0.4-0.2c-0.1-0.1-0.1-0.2-0.3-0.3C296.7,94.6,297.3,94.7,297.9,94.9z M286.2,80.8c0.5,0,1,0,1.6-0.1
	c0.5,0,0.9-0.1,1.4-0.1c1.4,0,2.7,0.2,3.6,0.3c0.2,0,0.3,0.1,0.5,0.1c0,0.2,0,0.4-0.1,0.7c-0.1,0.5-0.2,0.9-0.3,1.2
	c-0.1,0.1-0.1,0.2-0.1,0.3c-0.4,0.2-1.3,0.4-2.2,0.8c-1,0.4-2.2,1.2-2.6,2.7c0,0.1,0,0.1-0.1,0.2c0.1-0.4,0.1-0.7,0.1-1.1
	c0-1.2-0.3-2.6-1.5-3.7c-0.7-0.6-1.3-1.2-2.1-1.5C284.9,80.7,285.5,80.8,286.2,80.8z M265.3,70.3l-0.1-0.6L265.3,70.3
	C265.3,70.3,265.3,70.3,265.3,70.3z M48.2,102.2c-0.5,0.6-1.1,0.9-1.7,0.9c-0.1,0-0.1,0-0.2,0c-0.3,0-0.7,0-1-0.1
	c0.4-0.2,0.7-0.5,1-0.8c0.7-0.7,1.3-0.8,2-0.8c0.1,0,0.2,0,0.3,0C48.6,101.7,48.4,102,48.2,102.2z M167.7,156.9
	C167.7,156.9,167.6,156.9,167.7,156.9C167.6,156.9,167.6,156.9,167.7,156.9c0,0,0.2,0.1,0.3,0.2C167.9,157,167.8,157,167.7,156.9z
	 M172.9,161.6c0.1,0.1,0.4,0.9,0.5,1.7C173.1,162.8,173,162.2,172.9,161.6z M201,230.6c0-0.3,0.1-0.5,0.7-1.2
	c0.1-0.1,0.2-0.1,0.3-0.2c0.1,0.3,0.4,0.9,0.6,1.6c0.3,1,0.6,2.2,1,3.3c0,0,0,0.1,0,0.1C201.9,232.6,200.9,231.1,201,230.6z
	 M216.5,65.8c-0.1,0-0.1,0-0.2,0c-1,0-2,0.1-3,0.2c-2.4,0.3-6.3,1.1-7.9,1.1c-0.2,0-0.4,0-0.4,0c-0.2,0-0.3-0.1-0.3-0.1
	c-0.2-0.2-0.9-0.8-2.6-1.8c-2.9-1.5-4.3-1.5-5.7-2.3c0.8-0.4,1.4-0.9,2.1-1.4c0.4-0.3,0.7-0.5,1-0.6c0.1-0.1,0.3-0.1,0.3-0.1
	c0.2,0.3,0.6,0.9,0.9,1.7c0.4,0.9,0.7,2,2,2.7c1.1,0.5,2.3,0.6,3.7,0.6c1.4,0,2.7-0.2,3.9-0.6c0.5-0.2,2.3-0.4,3.9-0.4
	c1.4,0,2.7,0.1,3.5,0.3c0.6,0.1,1.5,0.3,2.6,0.5c0,0.2,0,0.4,0,0.6c0,0.3,0,0.7,0.1,1.1C219.2,66.1,217.8,65.8,216.5,65.8z
	 M405.9,351.1c-0.3,0.5-0.3,0.8-2.3,1.3c-0.5,0.1-0.9,0.1-1.2,0.1c-0.2,0-0.3,0-0.4,0c0.1-0.1,0.3-0.2,0.6-0.3
	c1.1-0.3,2.2-0.7,3.4-1.3C406,351,405.9,351.1,405.9,351.1z M410.7,358.7L410.7,358.7C410.7,358.7,410.7,358.7,410.7,358.7
	C410.7,358.7,410.7,358.7,410.7,358.7C410.7,358.7,410.7,358.7,410.7,358.7z M246.7,64.8c-0.7,0-2.3-0.4-3.9-0.4
	c-1,0-2.2,0.2-3.3,0.9c-0.9,0.7-1.2,1.8-1.2,2.7c0,1.7,1,3.9,3.4,4.3c0.2,0,0.4,0,0.5,0c1.6,0,3.4-0.6,4.2-0.7
	c0.2,0.7,0.5,1.8,1,2.9c0.6,1.4,1.7,3.1,3.9,3.2c0.7,0,1.4-0.2,2-0.6c1.8-1.1,2.8-2.2,3.4-3.1c0.2-0.4,0.4-0.7,0.5-0.8
	c0.6-0.3,0.9-0.8,1-1.1c0.1-0.4,0.1-0.7,0.2-1.1c-0.1-2-0.8-4.8-2.6-6.4c-1.1-0.8-2.3-0.8-3.6-0.9c-2.1,0-4.1,0.3-5.3,0.9l0,0
	C246.9,64.7,246.9,64.8,246.7,64.8z M616.4,200.3c-0.1,0-2.1-0.4-3.8-0.4c-0.9,0-1.8,0.1-2.8,0.7c-0.5,0.3-0.9,1-0.8,1.6
	c0.1,1.5,0.9,2,1.6,2.8c0.8,0.7,1.6,1.3,2.4,1.7c0.3,0.1,0.9,0.6,1.5,1.3c0.6,0.6,1.2,1.4,2.3,1.7l0,0l0,0l0,0
	c0.4,0.1,0.8,0.2,1.2,0.2c0.8,0,1.7-0.1,2.6-0.7c0.9-0.5,1.8-1.7,1.7-3c0-0.5-0.1-1-0.3-1.6C620.8,200.5,617.2,200.2,616.4,200.3z
	 M974.4,299.8c0,0-0.1,0-0.1,0c-1.1,0.1-1.3,0.5-1.7,0.9c-1,1.2-1.9,3-2,5c0,0.5,0.1,1.1,0.4,1.7c0,0,0,0,0,0
	c-1.1-1.3-2.5-2.8-4.7-2.9c-0.5,0-1.1,0.1-1.6,0.3c-0.7,0.4-0.9,0.7-1.1,1.1c-0.7,1.2-1.4,2.9-1.5,4.7c0,0.7,0.1,1.4,0.6,2.1
	c0.5,0.7,1.4,1.1,2.3,1.1c1.5,0,3.8,0.3,5.5,0.3c0.6,0,1.1,0,1.6-0.2c0.3-0.1,0.6-0.2,0.9-0.5c0.3-0.3,0.6-0.8,0.6-1.4
	c0-0.5-0.2-0.9-0.4-1.2c-0.3-0.5-0.9-1.5-1.7-2.6c0.7,0.6,1.6,0.9,2.6,0.9c0.1,0,0.3,0,0.4,0c2.8-0.1,4.6-2.2,4.5-4.3
	C979.2,302.5,977.4,300.1,974.4,299.8z M1049.1,506.2c-1.7,0.1-2.8,1.1-4.2,1.9c-0.7,0.4-1.3,0.9-1.8,1.1c-0.2,0.1-0.5,0.3-0.6,0.3
	c0,0,0,0,0,0c-1.2-0.3-4-1.5-4-1.5c-0.6-0.3-1.3-0.1-1.7,0.4c-0.7,0.9-1.2,1.7-1.2,2.7c0.1,1.9,1.4,2.6,2.1,3.3
	c0.8,0.7,1.1,1,1.1,1.5c0,0.1,0,0.2,0,0.4c-0.1,0.3-0.1,0.7-0.1,1c0,1,0.5,2,1.3,2.5c0.8,0.5,1.6,0.6,2.3,0.6c1.6,0,3.1-0.5,4-0.9
	c0.9-0.5,1.2-1.1,1.8-2c1.5-2.5,3.1-6.4,3.2-9c0-0.3,0-0.6-0.1-0.9C1050.9,506.8,1049.8,506.1,1049.1,506.2z M976.1,312.3
	c-0.3-0.3-0.7-0.4-1.1-0.4c-0.4,0.1-0.8,0.3-1,0.6c-1.1,1.7-1.8,2.8-2.3,3.3c-0.2,0.2-0.3,0.3-0.4,0.4c-0.3-0.1-0.9-0.5-1.7-0.9
	c-0.6-0.3-1.2-0.4-1.8-0.4c-1.8,0-3.3,0.9-4.5,2c-1.2,1.1-2.1,2.2-2.2,3.9c0,0.4,0.1,0.8,0.3,1.1c0.7,1.2,1.7,1.3,2.5,1.4
	c1.3,0.2,2.7,0.1,3.8,0.2c1.2,0.2,1.7,0.5,1.9,0.9c0.5,1.1,0.8,1.8,1.3,2.5c0.4,0.7,1.4,1.3,2.3,1.3c0,0,0.1,0,0.1,0
	c0.7,0,1.3-0.1,2-0.3c1.8-0.4,3.1-1.7,4.2-3.2c1-1.5,1.7-3.2,1.8-4.8c0-0.5-0.1-0.9-0.2-1.4C979.8,315.6,976.2,312.4,976.1,312.3z
	 M1056.7,436c-1.8-2.3-3-4.5-2.9-5.2l0,0l0-0.1c0-0.1,0-0.2,0-0.3c0-1.1-0.6-2.1-1.3-2.7c-2.1-1.7-5-2.1-6.3-3.4
	c-0.8-0.7-1.5-2.8-2-5.2c-0.5-2.4-0.9-5.2-1.7-7.4c-1.5-4.3-4.4-7.1-7.1-10.6c-1.1-1.4-2.1-4.2-2.9-6.5c-0.4-1.2-0.7-2.2-1-3.1
	c-0.1-0.4-0.3-0.8-0.5-1.1c-0.1-0.2-0.2-0.4-0.5-0.7c1.4-0.8,2.2-2.3,3-3.6c1-1.8,1.8-3.7,2.2-4.2c0.2-0.3,1.9-1.1,3.3-1.1
	c0.6,0,1,0.1,1.3,0.3c0.2,0.1,0.3,0.2,0.4,0.4c0.6,3.3,2.5,6.7,6.2,8.9c2.5,1.5,5.1,3,7.3,3.1c0.8,0.1,2.2-0.6,2.3-1.8
	c0-0.3,0-0.4,0-0.6c0-1.4-0.5-3.3-1.3-5.2c-0.8-1.9-1.7-3.7-3.4-4.6c-0.6-0.2-2.1-1.8-3.3-3.4c-1.2-1.6-2-3.7-1.9-4.1
	c0-1.9-1.4-3.1-2.5-3.7c-1.2-0.7-2.3-1.3-2.8-1.9c-1.2-1-2.8-6.3-7.8-7.6c-3.7-0.9-4.6-2.3-9.2-5.1c-2.9-1.7-7.1-2.3-10.6-2.3
	c-1.4,0-2.6,0.1-3.6,0.3c-0.5,0.1-0.9,0.3-1.4,0.5c-0.1,0-0.2,0.1-0.3,0.2c-0.5-0.4-1.2-0.8-2.1-1.1c-1.9-0.8-3.6-0.8-4.6-0.9
	c-0.5-0.1-0.8-0.1-0.9-0.2c-0.1-0.1-0.1,0-0.3-0.4c-0.5-1.5-1.7-2.9-3.5-2.9c-1.6,0-2.9,1-4.2,2.5c-0.5,0.5-0.9,1-1.2,1.4
	c-0.3,0.4-0.8,0.8-0.8,1.8c0,0.6,0.3,1.2,0.7,1.4c1,0.8,1.9,0.8,3.8,1.3c1.7,0.4,2.9,0.6,3.6,0.8c0,0,0,0,0,0
	c-0.1,0.1-0.2,0.3-0.4,0.5c-1.4,2-2.6,4.1-2.6,6c-0.1,0.9,0.6,2.3,1.9,2.5c0.3,0,0.6,0.1,0.8,0.1c1.7,0,3.9-0.6,5.1-0.6
	c0,0,0.1,0,0.1,0c0,0.2,0,0.6,0.3,1.1c0.4,0.7,1.1,1,1.8,1.3c0.7,0.3,1.8,0.5,3.3,0.8c5.1,1,5.5,2.6,6.8,4.1
	c0.4,0.5,1.1,1.4,1.7,2.3c0.3,0.4,0.5,0.8,0.6,1.1c-1,0.2-1.7,0.8-2.4,1.4c-0.8,0.8-1.5,1.6-1.6,2.9c-0.1,0.8,0.8,2,1.7,2
	c0.3,0.1,0.7,0.1,1,0.1c1.6,0,3.9-0.4,5-0.4c0,0,0,0,0,0c0.3,0.9,1,2.2,1.8,3.5c1,1.5,2.2,3.3,4.3,3.7c-0.2,0.4-0.3,0.7-0.5,1.2
	c-0.7,2.1-1.6,5.8-1.6,9c0,1.6,0.1,3,0.9,4.3c0.3,0.4,0.4,1,0.4,1.8c0,2.6-1.7,6.7-2.8,9.7c-0.1,0.3-0.2,0.5-0.3,0.6
	c-0.1,0-0.3-0.1-0.5-0.2c-1.1-0.6-2.8-2.4-4.4-3.6c-3-2.1-6.8-3.5-8.2-5.3c0,0-0.1-0.1-0.1-0.4c0-0.7,0.5-2.2,1.2-3.8
	c0.6-1.5,1.4-3.1,1.4-4.7c0-0.6-0.1-1.1-0.4-1.7c-1.1-1.7-2.9-1.8-4.6-1.8c-1.4,0-2.9,0.2-4.2,0.4c-0.6,0.1-1.1,0.2-1.5,0.3
	c-0.1,0-0.2,0-0.3,0c-0.3-0.3-0.8-0.9-1.2-1.4c-0.7-0.7-1.6-1.7-3.1-1.8c-1.1,0-1.8,0.9-2,1.4c-0.4,0.8-0.5,1.7-0.6,2.5
	c-0.5-0.6-1.1-1.3-1.7-2.1c-0.3-0.3-0.5-0.6-0.8-0.8c-0.3-0.2-0.4-0.5-1.3-0.6c-0.9,0-1.5,0.8-1.5,1.1c-0.1,0.3-0.1,0.5-0.1,0.8
	c0,0.5,0.1,1,0.1,1.7c0,1-0.2,2.1-0.8,2.8c-1.2,1.5-1.7,2-2.1,2.8c-0.4,0.8-0.4,1.3-0.9,2.9c-0.2,0.5-0.4,0.8-0.4,0.9
	c-0.1,0.1-0.1,0.1-0.1,0.1s0,0,0,0c-0.2,0.1-1.6-0.8-3-2.6c-1-1.4-2.2-2.3-3.6-2.3c-2.1,0.1-3,1.6-3.8,1.9c-1.5,1.1-2.1,2.8-2.8,4.5
	c-0.6,1.7-1.2,3.5-1.5,3.8v0c-0.2,0.3-1.9,1.1-3.5,1.8c-1.6,0.8-3.3,1.5-4.4,2.7c-1,1.3-1.4,3.1-1.8,4.9c-0.2,1.4-0.4,2.7-0.4,3.6
	c-0.6,0.1-1.7,0.3-2.8,0.4c-1.5,0.2-3.1,0.4-4.4,1.5c-0.5,0.4-1.2,0.6-2.1,0.6c-1.1,0-2.5-0.3-3.8-0.3c-1.2,0.1-1.9,0.6-3,1.3
	c-2.9,1.9-7.1,5.8-8.6,6.9c-2,1.6-2.3,4.3-2.4,6.7c0,1.7,0.2,3.2,1,4.4c0.7,1,2,3.6,2.1,4.4c-1.3,1-1.6,2.5-1.6,4.3
	c0,2.1,0.7,4.6,2.6,6.9c2.1,2.6,2.1,3.3,2.1,4.2c0,0.3,0,0.6,0,1c0,0.3,0,0.6,0.1,1c0.2,1.3,0.8,2.3,1.5,3.1
	c0.7,0.9,1.5,1.8,2.6,3.4c0.2,0.3,0.2,0.5,0.2,0.7c0.1,0.4-0.7,1.5-1.8,2.5c-1.1,1.1-2.5,1.9-3.2,3.4c-0.2,0.4-0.3,0.9-0.2,1.3
	c0.1,3,2.7,5.2,4.1,6.8c1.1,1,2.5,1.3,3.8,1.3c2.1,0,4.3-0.7,6-1.3c1.5-0.6,2.8-1.5,4-2.4c1.1-0.8,2.3-1.5,2.6-1.5
	c0.6-0.1,3-0.3,5.1-0.4c2.1-0.1,4-0.2,4-0.2c0.5,0,1-0.3,1.2-0.7c0,0,2.7-4.9,4.6-7.4c0.2-0.4,0.9-0.7,2.1-0.7c0.9,0,2,0.2,2.8,0.4
	c0.8,0.2,1.4,0.4,1.4,0.4c0.5,0.2,1,0.1,1.4-0.2c0,0,0.1-0.1,0.4-0.2c0.9-0.5,3.3-1.9,8.1-3.1c1.2-0.3,2-0.4,2.5-0.4
	c0.5,0,0.6,0.1,0.6,0.1c0,0,0,0,0,0.1c0.2,0.2,0.4,2.1,2.3,2.8c2.7,1,5.8,1.7,7.3,3c0.2,0.2,0.3,0.4,0.3,1.1c0,1.4-0.8,3.4-1.1,4.8
	c0,0,0,0.2,0,0.4c0,1,0.7,1.7,1.3,1.9c0.6,0.3,1.2,0.3,1.7,0.3c0.9,0,1.8-0.2,2.7-0.5c0.8-0.4,1.8-0.9,2.1-2.3
	c0.1-0.9,0.9-2.1,2.9-3.7c0,0.5-0.1,1.1-0.1,1.8c0,0.9,0.1,1.9,0.4,2.8c0.1,0.4,0.3,0.7,0.6,1c0.3,0.3,0.8,0.6,1.4,0.6
	c0.7,0,1.1-0.3,1.3-0.5c0.2,0.4,0.4,0.8,0.5,1c0.4,1,1,1.3,1.4,1.5c0.7,0.4,1.3,0.7,1.7,1.1c0.4,0.4,0.6,0.7,0.7,1.6
	c0,1.7,0,3,0.1,4.1c0.1,1.1,0.3,2.1,1.2,3c0.8,0.5,1.3,0.5,1.9,0.6c1.8,0.3,3.8,0.6,4.9,2.8c0.7,1.4,1.5,2.5,3,2.6
	c1.5-0.1,2.1-1.1,2.6-1.7c0.5-0.7,0.9-1.5,1.2-1.9c0,0,0,0,0.1,0c0.7-0.1,3.3,1.4,3.7,2c0.4,0.5,1.1,0.8,1.7,0.8
	c1.7-0.1,2.5-1.1,3.8-1.9c1.3-0.9,2.7-1.9,4.3-2.3c2-0.7,2.9-0.9,3.8-1.4c1-0.6,1.2-1.4,1.7-2.2c1.3-2.5,2.1-7.5,4.3-11.1
	c2.5-4.1,5.9-11,6-16.9c0-5.4-0.2-17.4-3.5-23.7C1060.6,441.2,1058.5,438.4,1056.7,436z M968.7,391.2c0.5,0.5,1.2,0.7,1.7,0.7
	c0,0,0,0,0.1,0c1.7-0.1,2.8-1.1,4-1.9c0.7-0.5,1.3-1.1,1.6-1.4c0.5-0.1,1.2-0.3,2-0.6c0.7-0.3,1.4-0.6,2-1.2
	c0.6-0.5,1.1-1.4,1.1-2.5c0-1.5-0.9-2.6-1.9-3.6c-1-0.9-2.3-1.5-3.7-1.6c-1.1,0-2.4,0.6-3.1,1.7c-0.7,1.1-1.8,2.4-2.7,3.6
	c-0.9,1.3-1.8,2.6-1.9,4.4c0,0.2,0,0.3,0,0.5C968,390.1,968.2,390.7,968.7,391.2z M960.9,351.7c0.2,0,0.4,0,0.7-0.1
	c3-0.3,9.5-1.3,10.6-1.3c1.7-0.2,2.2-1.3,2.9-2.2c0.6-1,1-2,1.1-3.1c0-0.3,0-0.7-0.3-1.1c-0.3-0.5-1-0.8-1.5-0.8
	c-1.7,0.1-8.4,1.5-10,2c0,0-0.1,0-0.1,0c-0.6,0-1.9-0.2-3-0.4c-1.1-0.2-2-0.4-2-0.4c-0.5-0.1-1,0.1-1.4,0.5c-0.8,0.9-1.2,1.9-1.2,3
	c0,1,0.5,2,1.3,2.7C958.7,351.3,959.8,351.7,960.9,351.7z M1152.2,411.2L1152.2,411.2c-0.3-0.1-0.7-0.2-1-0.2
	c-1.3,0.1-2.2,0.7-3.1,1.4c-2.6,2.3-5,6.2-5.1,6.2c-0.2,0.4-0.3,0.8-0.2,1.2c0.1,0.4,0.4,0.7,0.8,0.9c0.6,0.3,1.1,0.4,1.7,0.4h0
	c2.2,0,4-1.3,5.5-2.8c1.5-1.5,2.6-3.1,2.7-4.9C1153.7,412.7,1153.1,411.5,1152.2,411.2z M1144,494.5c-0.9,0-1.4,0.4-1.7,0.5
	c-0.3,0.2-0.4,0.2-0.5,0.2c-0.1,0-0.4,0-1.1-0.5c-1.3-0.8-1.7-1.1-1.8-1.2c-0.2-0.1-0.5-0.8-1.3-2.5c-0.6-1.2-1.1-2.7-1.6-4.1
	c-0.3-0.7-0.6-1.3-1-1.9c-0.4-0.6-1.3-1.1-2.2-1.1c-0.7,0-1.3,0.2-1.9,0.6c-1,0.7-1.1,1.7-1.1,2.4c0.1,1.9,0.8,3.9,1.9,5.3
	c0.1,0.1,0.5,1.1,0.7,2.2c0.2,1.1,0.4,2.3,0.4,3.1c0,0.2,0,0.4,0,0.5c-0.2,0.2-0.9,0.7-1.5,1.3c-0.7,0.6-1.7,1.2-1.8,2.8
	c0,0.9,0.5,1.6,1.2,2.1c1.6,1.1,3.3,1.1,4.5,1.2c0.2,0,0.3,0,0.5,0c-0.4,0.9-1.1,2.1-1.2,3.5c-0.3-0.4-0.8-0.9-1.3-1.5
	c-0.5-0.5-0.9-1-1.4-1.4c-0.6-0.4-0.7-0.8-1.9-0.9c-0.5-0.1-1.5,0.6-1.6,1.2c-0.1,0.2-0.4,0.5-1.1,0.9c-0.8,0.5-1.9,1-2.9,2
	c-1.1,1.1-1.3,2.1-1.5,2.6c-0.2,0.5-0.7,1.3-3,2.8c-4.6,3.4-10.4,6.7-12,10.5c-0.2,0.6-0.4,1.3-0.4,1.9c0,1.6,0.9,2.9,2.2,3.7
	c1.3,0.8,2.9,1.1,4.9,1.3c1.6,0.1,2.3,0.3,3.3,0.4c0,0,0.1,0,0.1,0c0.8,0,1.7-0.5,2.1-1c0.5-0.6,1.1-1.3,2-2.5
	c2.9-3.8,5.5-6,9.2-9.3c3.4-3.1,3.9-7.3,4-8.8c0.4,0.4,0.9,0.8,1.5,0.9c0.3,0.1,0.7,0.1,1,0.1c1.7,0,2.8-1.2,3.5-2.3
	c0.6-1.1,1.1-2.3,1.6-3.2c1.1-2.4,1.9-4,3.3-5c1-0.6,1.5-1.8,1.4-2.7c0-1.1-0.4-2-1-2.7C1145.8,495.3,1145.2,494.6,1144,494.5z
	 M1107.9,439.1c1.5,0,2.8-1.4,2.9-3l-1.4-0.2l1.4,0.2c0-0.3,0.1-0.5,0.1-0.8c0-2.4-1.9-4.9-6.6-6.1c-1-0.3-1.7-0.4-2.4-0.4
	c-0.3,0-0.7,0-1.2,0.3c-0.5,0.2-0.9,1-0.8,1.5c0,0.7,0.3,1,0.5,1.4c0.6,1,1.7,2.1,2.3,3.3c1.2,2.1,2.9,3.7,5.1,3.8
	C1107.9,439.1,1107.9,439.1,1107.9,439.1z M579.8,192.9c-1.5,0.1-2.3,1.1-3.1,2.6c-0.2,0.3-0.3,0.6-0.3,1c0,0.9,0.6,1.6,1.2,1.8
	c0.5,0.3,1.1,0.4,1.6,0.4c0.9,0,2.2-0.3,2.8-1.7l0,0c0.2-0.4,0.2-0.8,0.2-1.2c0-0.6-0.1-1.2-0.5-1.8
	C581.5,193.5,580.8,192.9,579.8,192.9z M961.1,364.9c0,1,0.3,2.5,1.4,4.1c2,3,5.3,3.3,6.4,3.3c0.3,0,0.4,0,0.5,0
	c0.7-0.1,1.3-0.7,1.3-1.5c0-0.1-0.1-2.1-0.5-4.4c-0.5-2.3-1.2-5.1-3.4-6.6c-0.4-0.3-0.8-0.6-1.2-0.8c0.2,0,0.4,0,0.5,0
	c1.3,0,2.4-0.3,3.3-0.9c0.9-0.6,1.5-1.7,1.5-2.8c0-0.5-0.1-1-0.3-1.4c-1-2-3-2-4.5-2.1c-1.9,0-3.8,0.4-4.8,0.6c0,0-0.1,0-0.2,0
	c-0.4,0-1.2-0.2-1.8-0.6c-0.6-0.3-1-0.6-1-0.6c-0.4-0.3-0.9-0.3-1.3-0.1c-1.3,0.5-2.1,1.8-2.2,2.8c-0.2,1.1-0.3,2.3-0.6,3.8
	c-0.3,1.9-1.6,3.5-1.7,5.8c0,1,0.5,2.1,1.5,2.8c0.5,0.4,1.1,0.5,1.6,0.5c1.9-0.1,3-1.4,4.2-2.4c0.5-0.5,1-1,1.4-1.3
	C961.1,363.8,961,364.2,961.1,364.9z M1098,124.5c0-0.1,0.1-0.5,0.4-1.2c0.9-1.9,1.2-3.1,2-3.8c0.7-0.7,2.3-1.4,6.3-1.3
	c6.5,0,5.9,0.4,9,0.4c0.8,0,1.7,0,3.1-0.1c3.6-0.2,6.1-1.4,8.4-2.7c2.3-1.3,4.4-2.7,7.3-3.6c4.8-1.5,8.8-2.6,10.9-2.6
	c0.6,0,1,0.1,1.2,0.2c0.8,0.4,1.7,0.6,2.5,0.6c0.7,0,1.3-0.1,2-0.5c0.6-0.3,1.3-1.2,1.2-2.1c0-0.9-0.4-1.6-0.9-2.2
	c-0.9-1-2.1-2.1-3-3.1c-0.4-0.4-0.7-0.7-1-1.1c0.8-0.2,1.7-0.5,2.5-0.9c1.2-0.6,2.3-1.7,2.8-3.4c0.1-0.4,0.2-0.9,0.2-1.3
	c-0.1-2.7-1.7-5.3-1.6-7c0-0.5,0.1-0.8,0.3-1.1c0.7-0.8,1-1.7,1-2.6c0-1.8-1-3.1-2.2-4.2c-1.2-1-2.6-1.8-4-2.1
	c-0.9-0.2-2-0.2-3.3-0.2c-2.3,0-5.1,0.2-7.6,0.2c-2.2,0-4.2-0.3-4.3-0.4c-1.9-1.1-4.4-2.4-6.6-2.5c-0.6,0-1.3,0.1-2,0.7
	c-0.9,0.9-1.7,2.4-2.5,3.9c-0.4,0.7-0.7,1.4-1,2c-0.3-0.1-0.8-0.5-1.4-1.5c-1.2-2-3.5-2.5-5.8-2.9c-2.4-0.4-4.9-0.4-6.8-0.4
	c-0.8,0-1.6,0-2,0c-3,0-6,0.7-8.9,1c-1.6,0.2-2.8,0.5-3.6,0.5c-0.7,0-1.1-0.1-2.1-1c-2.5-2.6-5.8-3.7-6.4-4.4
	c-0.8-0.7-1.6-0.8-2.6-0.9c-1-0.1-2.2-0.2-3.5-0.2c-2.2,0-4.6,0.2-6.8,0.5c-3.8,0.5-7.7,0.6-8.8,0.6c-0.2-0.1-0.6-0.3-1.1-0.6
	c-0.9-0.5-2.2-1.3-3.8-2.4c-1.7-1.2-3.4-2.2-4.8-2.9c-1.5-0.7-2.5-1.2-3.7-1.3c-1.1,0-4.9,0.7-7.9,0.7c-1.5,0-2.7-0.3-2.7-0.4
	c-1.9-1.6-3.7-2.7-5.5-2.9c1.2-0.3,2.7-0.7,4.2-1.2c2.1-0.7,4.1-1.3,4.1-1.3c0.4-0.2,0.7-0.5,0.9-0.9c0.1-0.4,0.1-0.9-0.1-1.2
	c0,0-0.6-1-1.6-2.1c-1-1-2.5-2.2-4.5-2.2c-1.1,0-3-0.4-4.7-0.8c-1.8-0.4-3.2-0.8-4.3-0.8c-0.5,0-1.1,0.2-1.5,0.5
	c-0.3,0.2-0.4,0.5-0.5,0.6c-0.1,0-0.3,0-0.6-0.1c-1.8-0.4-3.6-1.2-5.6-1.3c-0.9,0-1.9,0.2-2.7,0.9c-0.5,0.4-1.3,0.9-2,1.5
	c-0.7,0.7-1.6,1.3-1.7,2.8c0,0.8,0.4,1.5,0.9,1.9c0.5,0.4,1.1,0.7,1.9,1c2.3,0.7,4.5,0.7,6,0.8c1.7,0.1,2.2,0.3,2.2,0.5
	c0.3,0.5,0.3,0.7,0.3,1c0,0.4-0.4,1.1-0.5,2.6c0,0-0.4,1.3-1,2.3c-0.6,1-1.6,2-1.7,2c0,0,0,0-0.2,0c-0.3,0-1.2-0.2-2.4-0.3
	c-0.9,0-2.1,0.2-3.3,1c-0.8,0.5-3.1,0.7-5.3,0.7c-0.5,0-1,0-1.4,0c-0.8,0-1.5,0-2.1,0.1c-0.4,0.1-0.8,0.1-1.2,0.3
	c-0.2-0.2-0.4-0.4-0.7-0.7c-0.6-0.5-1.2-1.2-2.5-1.3c-0.3,0-0.7,0.1-1,0.2c-1.1,0.6-2.1,1.7-3.3,2.7c-1.1,1.1-2.5,1.8-2.6,1.7v0
	c-1.1-0.1-3.3-2.1-3.2-3.8c0-1.5-0.2-3-0.6-4.4c-0.4-1.4-0.6-2.4-1.6-3.3c-0.6-0.4-1-0.5-1.5-0.6c-1.5-0.3-3.9-0.5-6-0.5
	c-1,0-1.9,0-2.6,0.2c-1,0.1-3.3,0.4-5.5,0.8c-1.1,0.2-2.2,0.4-3.1,0.7c-0.9,0.3-1.7,0.5-2.4,1.3c-0.5,0.7-3.5,1.9-5,1.8
	c-0.3,0-1.1-0.3-2.3-1.1c-1.2-0.7-2.9-1.5-5.1-1.9c-3.2-0.5-8.8-0.8-12.1-0.8c-1.3,0-2,0-2.8,0.2c0,0,0,0-0.1,0
	c-0.3,0-0.7-0.1-1.1-0.2c0.5-0.5,1.2-1.3,1.8-2.1c0.9-1.2,1.7-2.6,1.8-4.3c0-1-0.4-2.1-1.3-2.7c-3.2-2.4-8.8-2.2-11.1-2.6
	c-1.6-0.2-3.4-0.6-5.8-0.6c-1,0-2.2,0.1-3.5,0.3c-1.5,0.3-2.7,0.8-3.5,1.2l-0.2,0.1c-0.1-0.3-0.2-0.4-0.3-0.5
	c-0.3-0.3-0.4-0.3-0.5-0.4c-0.4-0.2-1.1-0.6-2.5-1.3c-3.5-1.8-6-2.5-8.1-2.5c-1.4,0-2.6,0.4-3.5,0.9c-0.5,0.3-0.8,0.5-1.1,0.8
	c-0.4,0.5-0.1,0.2-0.3,0.4c-0.2,0.2-0.9,0.6-2.5,1.3c-4.2,1.9-6.7,2.9-7.7,3.2h0c-0.5,0-2.5-0.4-4.2-0.9c-0.9-0.2-1.7-0.5-2.4-0.7
	c-0.3-0.1-0.6-0.2-0.8-0.3c-0.1,0-0.2-0.1-0.2-0.1v0c-0.6-0.5-1.2-0.5-1.7-0.5c-1.8,0-4.1,0.9-6.4,2c-2.6,1.3-4.3,2.7-5.7,2.6
	c-0.2,0-0.5,0-0.7-0.1c-1.3-0.3-2.8-0.5-4.4-0.5c-2.2,0-4.6,0.3-6.5,1.2c-2.4,1.2-4.6,1.3-7.7,3.8c-1.1,1-3,1.8-4.6,2.4
	c-1.2,0.4-2.2,0.7-2.6,0.8c-1-0.1-4.7-0.3-7-0.3c-1,0-2.1,0-3.1,0.2c-0.5,0.1-1,0.2-1.5,0.5c-0.5,0.3-1.1,1-1.1,1.9
	c0,1,0.5,1.6,1.1,2.2c1.4,1.5,3.7,2.6,5.7,3.6c0,0,0.1,0,0.1,0.1c-0.5-0.3-1.1-0.5-1.8-0.8c-1.7-0.7-2.7-0.8-3.1-1
	c-0.4-0.2-0.8-0.5-2.2-1.9c-1.6-1.7-3.5-2.6-5.3-2.6c-1.7,0-3.2,0.8-4.1,2.1c-1,1.5-1,3.1-1.2,4.4c-0.1,0.6-0.2,1.1-0.3,1.3l0,0
	c-0.8,0.2-1.5,0.5-1.8,0.5c0-0.1-0.1-0.3-0.1-0.6c-0.1-1.1-0.2-2.7-0.3-4c-0.1-0.7-0.2-1.3-0.4-1.9c-0.1-0.3-0.2-0.6-0.5-0.9
	c-0.2-0.3-0.8-0.7-1.4-0.7c-1.4,0.2-1.7,1-2.2,1.7c-0.9,1.6-1.5,2.3-2,2.9c-0.5,0.6-1,1.6-0.9,2.7c0.1,2.2,1.3,3.3,1.2,5.1
	c0,0.3,0,0.6-0.1,0.9c-0.3,1.4-0.4,2.6-0.4,3.5c0,0.6,0,1.1,0.2,1.7c0.1,0.4,0.5,0.9,1.2,1.2c-1.8,2.1-3.8,4.9-4.4,5.8
	c-0.5,0.3-1.5,0.8-2.6,1.3c-0.4,0.2-0.8,0.4-1.2,0.6c0.8-1,1.8-2,2.7-2.6c2.2-1.7,3.7-4.4,3.8-6.6c0-0.5-0.1-1.1-0.5-1.7l0,0
	c-0.4-0.5-1.2-4.6-1.2-6.6c0-0.5,0.1-0.9,0.1-0.9c0.1-0.7,1.5-2.1,1.6-4.2c0-1.2-0.7-2.4-2-3.1c-2.6-1.5-4.4-3.5-7-4.7
	c-0.4-0.2-0.8-0.3-1.2-0.3c-2,0.1-3.1,1.6-4.2,2.8c-1.1,1.2-2.1,2.6-2.6,2.9c-1.2,0.8-1.8,1.9-2.2,2.3c-0.4,0.5-0.4,0.6-1.3,0.7
	c-2.2,0.3-3.7,2.2-3.8,4.5c0,1.8,1.1,3.6,3.2,4.8c1.5,0.9,2.7,1.6,3.3,2.2c0.3,0.3,0.5,0.5,0.6,0.7c0,0,0,0.1,0,0.1
	c-0.1,0-0.1,0-0.2,0c-0.6,0-1.6-0.2-2.4-0.5c-0.8-0.3-1.4-0.5-1.4-0.5l0,0c-0.7-0.3-3.7-2-6.3-2.1c-1.6,0.1-4.3-1.5-6.9-2
	c-0.8-0.1-1.9-0.2-3-0.2c-2.2,0.1-4.4,0.1-6,1.7c-0.5,0.6-1.2,1.6-2.1,2.4c-0.8,0.8-1.7,1.3-1.9,1.3c-0.1,0-0.1,0-0.2,0
	c-0.7-0.4-1.1-0.8-1.6-1.2c-0.5-0.4-1.3-0.9-2.3-0.9c-0.8,0-1.6,0.2-2.6,0.7c-0.5,0.2-1.1,0.3-1.7,0.3c-1,0-2.1-0.3-3.4-0.3
	c-1,0-2.3,0.3-3.2,1.4c-0.3,0.3-0.5,0.6-0.6,0.8c-0.5-0.2-1.6-0.6-3.2-1.2c-1.3-0.5-2.3-0.7-3.2-0.7c-1.7,0-2.8,0.9-3.5,1.5
	c-0.8,0.6-1.5,1.1-3.1,1.5c-1,0.2-1.9,0.3-2.8,0.3c-1.5,0-2.8-0.2-4-0.2c-1.1,0-2.6,0.3-3.4,1.5c-0.4,0.6-0.8,1.3-1.3,1.9
	c0.1-0.4,0.3-0.8,0.5-1.2c0.5-1.1,1-2.1,1-3.4c0-0.6-0.2-1.3-0.8-1.9c-1.2-1.1-2.6-1.1-4.2-1.2c-1.1,0-2.3,0.1-3.3,0.3
	c-1,0.3-1.8,0.4-2.6,1.3c-0.7,1-0.7,1.9-0.8,2.8c0,1.7,0.3,3.4,0.8,4.6c0,0.1,0.1,0.3,0.2,0.6c-0.3-0.5-1.1-1-1.9-1
	c-0.2,0-0.4,0-0.6,0.1c-0.7,0.2-1.4,0.4-2,0.6c0.2-0.3,0.4-0.7,0.4-1.2c-0.1-1.4-1-1.8-1.7-2.3c-2.5-1.3-5.2-2.8-9.2-3.4
	c-4-0.7-9-0.7-14.7-3.2c-6-2.6-7.3-3.6-10.1-4.4c-2.2-0.6-12.7-2.6-20.5-2.7c-1.7,0-3.2,0.1-4.6,0.4c-3.5,0.7-10,2.5-15.7,4.3
	c-2.9,0.9-5.6,1.8-7.6,2.5c-1,0.4-1.9,0.7-2.6,1c-0.7,0.3-1,0.4-1.6,0.8c-0.9,0.9-1.5,2-2.5,3.5c-1,1.5-2.2,3.2-3.8,4.7
	c-3.6,3.4-10.3,10.8-14.7,11.8c-2.9,0.7-5.8,2.5-8.1,4.2c-1.1,0.9-2.1,1.7-2.8,2.5c-0.7,0.9-1.3,1.3-1.4,2.6c0,1.1,0.5,2.3,0.9,3.7
	c0.4,1.3,0.8,2.6,0.8,3c-0.2,0.4-0.2,0.7-0.2,1.1c0,1.2,0.5,2.7,1.3,4.2c0.8,1.5,2,3,3.8,3.8c1.5,0.6,3.2,0.9,4.8,0.9
	c0.8,0,1.5-0.1,2.2-0.2c0,0-0.1,0-0.1,0c-1.3,0.5-2.6,1.2-3.3,2.6c-0.6,1.4-1.2,3.5-1.2,5.5c0,1,0.1,2.1,0.8,3
	c0.3,0.4,0.6,0.8,0.9,1.2c-1-0.2-1.9-0.3-2.9-0.3c-1.9,0-3.9,0.4-5.4,1.8c-1.9,1.7-4.8,4.8-5.8,5.9c-0.7,0.1-1.8,0.3-3.1,0.6
	c-0.5,0.1-0.9,0.2-1.4,0.4c0-0.1,0-0.3,0-0.4c-0.5-3.1-3.3-6.7-6.2-8.3c-0.7-0.3-2.1-2-3.2-3.8c-1.2-1.8-2.2-3.5-3.4-4.5v0
	c-0.1-0.5,0.8-2.1,0.8-4c0-0.9-0.3-1.9-0.9-2.7c-1.1-1.3-2.2-2-3.1-2.4c-0.9-0.4-1.7-0.7-2.6-1.4c-0.8-0.6-1.7-0.9-2.5-0.9
	c-2.5,0.1-3.9,2-5,3.5c-0.1,0.2-0.2,0.2-0.2,0.2l0,0c-0.2,0.1-1.1-0.5-2.6-0.6c-0.4,0-0.8,0.1-1.2,0.2c-1.7,0.6-2.3,2.4-2.3,3.7
	c0,1.6,0.6,3.2,1.4,4.3c0.3,0.4,0.7,1,1.1,1.7c-0.5-0.1-1-0.2-1.5-0.2c-0.5,0-1,0.1-1.5,0.2c-1.9,0.4-2.8,1.7-3.4,2.6
	c-0.3,0.4-0.5,0.8-0.7,0.9c0,0-0.1,0.1-0.1,0.1c-0.9,0-1.8,0.1-2.7,0.6c-0.9,0.5-1.8,1.6-1.7,3c0,0.4,0.1,0.7,0.1,1.1
	c0.4,1.5,0.9,2.7,0.8,3.1c0,0.1,0,0.1,0,0.1s0,0-0.2,0.1c-1,0.6-1.3,1.7-1.3,2.5c0,1.2,0.5,2.3,1.2,3.3c0.7,1,1.7,1.8,3.1,2.1l0,0
	c0.2,0.1,0.5,0.1,0.7,0.1c2.8-0.1,5.1-2,6.7-2.8c2-1.1,5.4-3.2,5.4-7.2c0-1.7-0.2-3.2-0.5-4.6c0.2,0.1,0.4,0.2,0.6,0.4l0.6-1.3
	l-0.6,1.3c1.3,0.6,3,1.2,4.4,1.7c0.3,0.1,0.6,0.2,0.8,0.4c-1,0.8-2.2,1.7-3.2,2.8c-1.4,1.4-2.6,2.8-3,4.3c-0.1,0.2-0.1,0.4-0.1,0.7
	c0.2,2.2,1.9,2.9,3.1,3.8c0.4,0.2,0.7,0.4,1.1,0.6c-0.1,0.4-0.2,0.8-0.3,1.3c-0.1,0.7,0.4,1.8,1.4,2.2c0.3,0.1,0.7,0.2,1,0.2
	c1.6-0.1,2.1-1.1,2.7-1.6c0.6-0.6,0.9-0.8,1.3-0.8c1.6-0.1,5.7,1.4,8.4,1.6c-2,0.4-4.1,1-6.2,1.4c-1.9,0.4-3,1.2-3.7,1.6
	c-0.8,0.5-1.3,0.8-3,1c-1.2,0.1-2.1,0.3-2.9,0.7c-0.7,0.4-1.6,1-1.6,2.2c0,1,0.7,1.7,1.3,2c0.6,0.4,1.4,0.6,2.3,0.8
	c1.6,0.3,3.7,1.1,5.4,2.1c1.7,1,2.7,2.3,2.7,2.9c0,0.4,0.1,0.9,0.1,1.4c0,2.3-0.5,4.8-1.6,7.1v0c-0.1,0.1-0.9,0.3-1.9,0.3
	c-1.9,0-4.6-0.4-6.7-0.5c-2,0-5.7-0.6-8.8-0.6c-1.6,0-3.1,0.1-4.4,0.7c-2.5,1.4-2.8,4.3-2.9,6.9c0,2.1,0.3,4.2,0.7,5.6
	c0.2,0.6,0.2,1.1,0.2,1.5c0,1.3-0.5,2-1.2,2.6c-1,1-1.4,2.4-1.4,3.8c0,1.2,0.3,2.6,1.4,3.6c0.4,0.4,1.1,1.4,1.7,2.4
	c0.7,1,1,2,2.5,2.5c0.4,0.1,0.6,0.1,0.9,0.1c1,0,2.1-0.3,3.1-0.2c0.8,0,1.2,0.2,1.3,0.3c0.4,0.5,1.1,1.7,1.6,2.7
	c0.3,0.5,0.6,1,0.9,1.5c0,0.1,0.1,0.1,0.1,0.2c-0.1,0-0.1,0.1-0.2,0.1c-1.7,1.1-3.3,2.6-4.6,3.7c-0.6,0.6-1.2,1.1-1.6,1.4
	c-0.2,0.1-0.3,0.2-0.4,0.3c-0.7,0.1-1,0.4-1.5,0.7c-1.5,1.2-3.2,3.6-4.5,7.5c-0.9,2.7-0.8,5.2-0.9,7c-0.1,1.9-0.3,2.6-1.1,3
	c-3.1,1.7-8.6,5.3-11.1,8.2c-1.4,1.7-2.5,4.6-3.8,7.8c-1.3,3.2-2.7,6.5-3.9,8.4c-1,1.6-1.4,3.3-1.4,4.8c0,3.1,1.5,5.7,1.8,7.1
	c0.4,1.7,1.1,3.8,1.1,6.1c0,1.6-0.3,3.3-1.4,4.9c-1.6,2.4-2.3,4.3-2.8,5.5c-0.2,0.6-0.4,1-0.5,1.1c0,0,0,0,0,0
	c-0.2,0.1-0.5,0.2-0.8,0.4c-0.3,0.3-0.6,0.8-0.6,1.3c0.1,0.9,0.4,1.1,0.6,1.4c0.6,0.9,1.5,1.9,1.8,3.4c0,0.2,0.1,0.4,0.1,0.6
	c0,1.1-0.4,2.5-0.5,4.1c-0.1,2,1,4.2,3.9,5.8c5.1,2.9,7.1,5.2,8.4,8.7c1.7,4.6,8.6,11,8.6,11.1c0,0,4.9,5.2,7.4,7.6
	c1,0.9,1.9,1.6,3.1,1.6c1.1,0,1.9-0.7,2.3-1.4c0.4-0.7,0.6-1.4,0.8-2.2c0.1-0.4,0.4-0.8,1.6-1.1c1.1-0.3,2.8-0.4,4.7-0.4
	c2.7,0,4.9,0.5,7.7,0.6c0.9,0,1.9-0.1,2.9-0.2c4.3-0.8,8.3-3.9,9.4-4.4c1.3-0.7,3.8-2.5,6-2.4c0.7,0,1.4,0.2,2.1,0.7
	c1.5,1.1,2,2.3,2.6,3.7c0.5,1.4,0.9,3.1,2.1,4.6c0.9,1.2,2.4,1.7,3.7,1.7c2.3,0,4.3-1.3,6.1-2.9c0.3-0.3,0.6-0.5,0.7-0.7
	c0.4,0.4,1,0.9,1.9,1.5c1.8,1.2,2.5,2.2,2.5,2.7c0,0.4-0.2,1-1.1,2c-1.7,1.9-2,4.2-2.2,6.3c-0.1,2.2-0.2,4.3-0.9,6.3
	c-0.7,1.9-1.1,3.1-1.1,4.4c0,1,0.4,2,1,2.7c0.6,0.7,1.4,1.2,2.3,1.8c0.9,0.5,3.2,4.1,5.1,7.6c2,3.6,3.7,7.1,4.6,8.5
	c0.2,0.2,0.4,1.2,0.4,2.5c0,1.3-0.1,2.9-0.1,4.6c0,1.9,0.1,3.8,1,5.5c1.4,2.7,2.6,4.9,2.5,5.8c0,0.4-0.1,0.6-0.5,1
	c-2.2,2-6.5,6-6.8,13.2c0,0.6,0,1.2,0,1.8c0,5.9,1.3,10.1,2.4,12.4c1.1,2.3,3.8,8.5,5.3,11c1.2,1.9,2.9,7.6,3.1,10.9
	c0,0.5,0.1,1.1,0.1,1.7c0,1.2-0.1,2.4-0.1,3.7c0,1.8,0.1,3.6,1.1,5.1c1.2,1.6,2.1,4.8,4.8,7.7c0.9,1,1.8,2.9,2.2,4.5
	c0.5,1.6,0.7,2.9,0.7,2.9l0.1,0.3c0,0,0.2,0.5,0.4,1.4c0.2,1,0.5,2.4,0.6,4.1c0.1,1.8,0.3,3.4,0.8,4.9c0.5,1.5,1.6,2.8,3.2,3.8
	c1.6,1,3,1.6,4.6,1.6h0.1c1.2,0,2.4-0.6,3.2-1.6c0,0,0.2-0.2,0.7-0.4c1.5-0.6,4.6-0.9,7.1-0.9c1,0,1.9,0,2.7,0.1c0.3,0,0.6,0,0.8,0
	c4,0,8-2.4,11.5-5.3c3.8-3.2,9-11.2,10.9-13.3c0.8-1,2.3-2.6,3.6-4.2c1.3-1.7,2.5-3.4,2.5-5.4c0-0.3,0-0.5-0.1-0.7
	c-0.3-1.6-0.7-3-0.7-3.9c0-0.7,0.1-0.8,0.6-1.2c1.1-0.6,2.9-1.6,4.6-2.8c1.6-1.2,3.3-2.2,3.7-4.2c0-0.2,0-0.4,0-0.6
	c0-3-2-10.1-2.6-11.9c0-0.1,0-0.1,0-0.2c-0.1-0.8,1.4-3.6,3.4-6.5c0.8-1.2,2.9-2.6,5-3.7c1-0.6,2.1-1.1,2.9-1.5
	c0.9-0.5,1.6-0.8,2.2-1.5c1.3-1.7,4.3-7.1,5-11.9c0.1-0.7,0.1-1.5,0.1-2.2c0-2.8-0.5-5.6-0.5-7.5c0-0.8,0.1-1.5,0.2-1.7
	c0.4-0.8,0.6-1.7,0.6-2.6c0-2.2-1.2-4-3-5.9c-0.8-0.7-1.4-3.2-1.6-5.6c-0.1-1.2-0.2-2.4-0.3-3.4c-0.1-1-0.1-1.7-0.6-2.6l0,0l0,0l0,0
	c-0.1-0.1-0.2-0.9-0.2-1.8c0-1.1,0.1-2.5,0.4-3.6c0.1-0.5,0.3-1,0.4-1.3c0-0.1,0.1-0.2,0.1-0.2c0.9-0.4,1.4-1.1,2-1.8
	c1.9-2.4,4.3-6.7,5.9-8.8c1.1-1.5,3.2-4.5,5.4-7.2c2.1-2.7,4.7-5.1,5.2-5c2.1-0.5,4.1-2.1,5.8-4c1.7-1.9,3.1-4,3.3-6.1
	c0-0.7,2-4.5,4.1-7.8c1-1.7,2.1-3.4,2.9-4.9c0.8-1.5,1.4-2.5,1.6-3.6c0.1-0.7,0.7-2.8,1.3-5c0.6-2.2,1.2-4.6,1.2-6.5
	c0-0.8-0.1-1.6-0.6-2.4c-0.7-1-1.7-1.1-2.5-1.1c-4,0.1-11.4,3.7-12.7,4.2c-1.5,0.7-4.7,2.8-8.2,2.8c-0.2,0-0.4,0-0.7,0
	c-1-0.1-1.2-0.3-1.3-0.5c-0.1-0.2-0.3-0.6-0.3-1.2c0-0.8,0.2-1.9,0.2-3c0-0.2,0-0.4,0-0.6c-0.1-0.7-0.4-1.5-0.9-2.4
	c0.1,0.1,0.3,0.2,0.5,0.3c0.7,0.3,1.3,0.3,1.9,0.3c1.8,0,4-0.5,5.9-1.2c2-0.7,3.6-1.3,4.5-1.9c1-0.8,10.5-6.2,13-6.3
	c2-0.2,3.4-1.2,4.4-2c1.1-0.8,1.9-1.5,3.7-2c4.7-1.2,7.9-5.1,10.5-7.6c3.1-3,6.3-9.5,7.4-11.9c0.5-1.5,2.8-2.8,3-5.8
	c0-0.7-0.2-1.4-0.5-2.1c-0.9-1.7-2.8-3.4-4.8-4.8c-2-1.4-3.9-2.6-5.6-2.8c-0.1,0-0.1,0-0.3-0.2c-0.2-0.4-0.5-1.2-0.8-2
	c-0.1-0.4-0.3-0.8-0.6-1.3c-0.3-0.4-0.9-1-1.8-1c-0.7,0-1.5,0.4-1.9,0.9c-1,1.3-1,2.2-2.7,3.3c-1.4,0.8-2.7,2-3.8,2.8
	c-1,0.8-1.9,1.3-2.2,1.3c0-0.1,0-0.3,0-0.4c0-1.1-0.3-2.9-2.1-4.5c-1.5-1.5-2.5-2.4-3.1-3.1c-0.5-0.7-0.6-0.9-0.6-1.8
	c0-1.2-0.6-2-1.2-2.9c-1.9-2.5-5.3-5.7-5.4-7.2c0-0.1,0-0.2,0-0.3c0-0.7,0.5-1.8,1.1-2.7c0.6-0.8,1.4-1.2,1.6-1.2c0,0,0,0.1,0.1,0.1
	c1.3,2.7,2.4,7.7,6.6,10.2c1.7,0.9,3.3,2.2,4.8,3.3c1.5,1.1,2.7,2.1,3.9,2.7c0.3,0.1,0.6,0.2,0.9,0.2c1.6-0.1,2.8-1,4-1.8
	c0.6-0.4,1.2-0.8,1.6-1c0.2-0.1,0.4-0.2,0.6-0.3c0.5,0.5,1.5,2,2.4,3.4c1.2,1.6,2.3,3.3,4.1,4.1c1.6,0.6,4.2,0.9,6.8,1.1
	c2.6,0.2,5,0.3,5.8,0.3c0.3,0,0.9,0,1.7,0c1.1,0,2.6,0,4-0.3c1.4-0.3,2.8-0.6,3.7-2.1c0.5-0.9,0.8-1.1,0.9-1.1
	c0.1-0.1,0.3-0.1,0.9-0.1c0.4,0.4,1.3,1.7,2.1,3c1,1.4,1.8,2.8,3.4,3.5c1.2,0.4,2.4,0.5,3.2,0.8c0.7,0.4,1,0.5,1.1,2
	c0,0.1,0,0.2,0,0.4c0,0.3,0,0.6,0,0.9c0,2.2,0.5,4.1,1.3,5.7c0.8,1.5,1.9,2.8,3.5,3.1c0.2,0,0.3,0,0.4,0c2-0.1,3.3-1.5,4.7-2.7
	c0,2.6-0.1,5.8-0.2,7.4c0,0.2,0,0.3,0,0.5c0.1,4,3.1,13.7,3.1,13.8l0,0.1c0,0,4.1,10.1,5.2,12.6c0.6,1.3,2,3.6,3.3,5.9
	c1.3,2.3,2.3,4.8,2.3,5.6c0,1.6,0.2,3.5,0.5,5.2c0.2,0.8,0.4,1.6,0.9,2.3c0.4,0.7,1.1,1.5,2.3,1.5c1.2-0.1,1.9-0.8,2.4-1.4
	c1.5-2,2.7-5.5,4.1-7.8c0.2-0.3,0.3-0.6,0.5-0.9c-0.3,0.6-0.4,1.3-0.7,2.1c-0.4,1.6-0.6,3.5-0.6,5.4c0,1.4,0.1,2.8,0.5,4
	c0.4,1.2,1,2.4,2.3,2.9c0.5,0.2,0.9,0.3,1.4,0.3c1.9,0,3.1-1.4,3.9-2.8c0.7-1.4,1.1-3,1.1-4.3c0-0.8-0.1-1.5-0.5-2.2
	c-0.2-0.2-0.7-2-1.2-3.6c-0.3-0.8-0.6-1.6-1-2.3c-0.4-0.7-1.2-1.5-2.4-1.5c-0.5,0-0.9,0.1-1.3,0.4v0c-0.6,0.4-1,0.8-1.2,1.4
	c1.6-3.4,2.1-7.5,2.8-10.3c0.9-3.6,0.9-9.5,0.9-11.8c0-1.5,1-3,4.7-5c4.5-2.4,7.1-8.1,10.2-10.7c2-1.8,2.7-3.9,3.8-5.3
	c1.1-1.3,1.9-2.2,4.9-2.2c3.3,0,4.8,0,6.1-0.3c1.4-0.4,2-1.4,2.7-2.2c0.4-0.5,0.8-0.9,1.1-1.2c0.1,0,0.1-0.1,0.2-0.1
	c0.1,0.2,0.2,0.5,0.3,1c0.5,2.2,2,4.5,3.4,6.5c1.4,2,2.8,3.7,3.1,4.2c0.6,1,2,4,2,7.2c0,0.2,0,0.5,0,0.8c-0.1,0.7-0.1,1.4-0.1,2.1
	c0,1.7,0.1,3.5,0.5,4.9c0.2,0.7,0.4,1.3,0.7,1.9c0.3,0.5,1,1.2,2,1.2c1.3-0.1,1.7-0.8,2.3-1.4c1.3-1.5,2.5-3.9,2.9-4.7
	c0.2-0.2,0.6-0.5,1.1-0.8c0.7-0.5,1.7-0.9,2-0.8c0,0.1,0.1,0.3,0.1,0.6c0,0.1,0,0.2,0,0.3c0,0.8-0.1,1.6-0.1,2.3
	c0,4.6,0.6,9.2,0.6,11.8c0,2,1.1,4.4,2.2,6.6c0.4,0.7,0.7,1.3,1.1,1.9c-0.1,0-0.1,0-0.2,0c-1.3,0.2-2.1,1.2-2.5,2.1
	c-0.4,1-0.5,2-0.5,3c0,1.5,0.3,2.8,1,4c1,1.3,2,1.5,2.5,2c0.6,0.5,1.3,1.3,1.9,4.1c1.4,6.1,4.2,12.1,5.3,14.4c0.8,1.6,2.3,3,3.8,4.3
	c1.5,1.3,3.1,2.6,3.8,3.3c0.6,0.6,1.5,1,2.3,1c2-0.1,3.4-1.6,3.5-3.6c0-0.6-0.1-1.2-0.4-1.7c-1.2-2.1-3.3-5-3.4-6.7
	c-0.3-2.6-1.8-6.3-4-10.4c-2.4-4.2-4.4-5.3-5.5-7.5c-0.9-1.8-3-4.1-4.5-5.8c0.5-0.1,1-0.5,1.2-0.8c0.2-0.4,0.2-0.7,0.2-0.9
	c0-0.6,0.5-2.5,1.1-4.5c0.5-1.9,1.1-3.9,1.1-5.7c0.6,0.5,1.5,1.2,2.6,2.1c1.5,1.3,3,3.4,4,5.2c1,1.8,1.6,3.2,1.6,3.2l0.3,0.4
	c0,0,0.9,1,1.8,2.1c0.9,1.1,1.9,2.6,2,2.9c0.3,1,1.5,1.6,2.2,1.6c1.3,0,2.3-0.6,3.3-1.3c1-0.7,1.9-1.6,2.4-2.8
	c0.9-2,0.8-2.2,2.6-2.8c0.9-0.3,2.3-0.5,3.6-1.1c1.4-0.7,2.7-2.1,3.1-4.2c0.4-2,1.7-4.7,1.7-7.8c0-1.9-0.5-4-1.9-6.1
	c-3.3-4.8-4.9-8.2-7.6-10.7c-1-0.9-2.1-2.8-2.8-4.5c-0.4-0.9-0.7-1.7-0.9-2.3c1.4-1.5,4.9-5.3,6.3-7c0.3-0.4,0.5-0.4,0.7-0.4
	c0.3,0,1,0.4,1.1,1.3c0,0.1,0,0.1,0,0.2c0,0.5-0.4,1.4-1.2,2.8c-0.7,1.4-1.6,3.3-1.9,5.9c0,0.4-0.1,0.7-0.1,1.1c0,3.6,2.2,6,4.7,6
	c0.9,0,1.9-0.4,2.4-1.2c0.5-0.8,1.5-2.2,2.4-3.6c0.4-0.7,0.8-1.3,1.1-1.9c0.3-0.6,0.6-1,0.6-1.9c0-0.8-0.5-1.4-0.8-1.7
	c-0.8-0.8-1.1-0.4-1.4-2.7c0-0.1,0-0.2,0-0.3c0-1,0.5-2,1.1-2.6c0.6-0.7,1.4-1,1.6-1c0.7,0.4,1.3,0.4,1.9,0.5c3.4-0.1,10-2,13.8-4.4
	c4.6-3,7.1-8.8,9.2-10.7c1.2-1.1,3.8-3.5,6.2-6.1c2.3-2.7,4.6-5.3,4.7-8.1c0-0.2,0-0.3,0-0.5c-0.6-3.2,0.4-8.5-2.1-13.6
	c-2.1-4.4-4.7-7.5-5.8-9.2c0.5-0.3,1.3-0.7,2.4-1.1c1.5-0.6,3.2-1.5,4.6-2.9c1-1.1,1.6-2.4,1.6-3.6c-0.1-2.4-1.8-4.1-3.7-4.2
	c-0.2,0-0.4,0-0.6,0.1c-1.1,0.3-4,1-5.2,1c-0.2,0-0.3,0-0.4,0c-0.4,0.1-1.5-1.4-3.8-3.6c-0.3-0.3-0.3-0.5-0.3-0.6
	c0-0.3,0.2-0.7,0.5-1c0.2-0.2,0.3-0.3,0.5-0.4c0,0,0.1-0.1,0.1-0.1c0.2,0,0.3,0,0.4,0c1.7-0.1,2.7-1.2,4.1-2.2c1.2-1,2.4-2.2,3.1-3
	c-0.3,1.1-0.5,2.4-0.6,3.5c0,0.6,0.1,1.3,0.4,1.9c0.3,0.7,1,1.3,1.9,1.4c0.2,0,0.3,0,0.4,0c2-0.1,3.6-1.4,5.3-2.6
	c0.8-0.6,1.5-1.2,2.1-1.6c0,0,0.1-0.1,0.1-0.1c0.3,0.8,0.7,2.2,0.7,3.2c0,0.5-0.1,0.8-0.1,1c-0.5,1.2-0.7,2.5-0.7,3.6
	c0,0.6,0,1.2,0.2,1.8c0.2,0.5,0.7,1.5,1.9,1.5c0.2,0,0.3,0,0.5-0.1c1.1-0.4,1.7-1.1,2.4-1.7c0.2-0.1,0.3-0.3,0.5-0.4
	c0.7,0.9,1.5,1.7,1.5,3c0,0.4-0.1,0.9-0.3,1.4c-0.7,2.1-2.3,3.2-2.5,5.6c0,1.4,0.9,2.5,2.2,3.4c1.2,0.8,2.3,1.3,3.5,1.3
	c2.4-0.1,3.5-1.7,5-2.6c2.6-2,3.8-6.4,3.9-9.9c0-1.2-0.2-2.2-0.7-3.2c-0.7-1.2-1.9-2.9-2.8-4.5c-0.8-1.2-1.4-2.4-1.5-3
	c0.5-0.3,1.7-0.6,2.8-1.1c1.1-0.5,2.6-1.5,2.6-3.4c0-1.9,1.4-3.5,3-4.3c1.2-0.7,2.2-1.8,3.1-2.7c0.4-0.4,0.7-0.7,0.9-1
	c0.5,0.5,1.2,0.8,1.9,1.1c1.1,0.4,2.3,0.7,3.5,0.7c1.2,0,2.6-0.3,3.5-1.5c1.1-1.7,8.4-9,12.7-12.9c4.7-4.2,6.4-9.2,7.6-13.9
	c0.3-1.3,0.7-2.5,1-3.7c0,0.5,0.1,0.9,0.1,1.4c0,0.7,0,1.5-0.1,2.2c-0.1,1-0.1,2.3-0.1,3.6c0,1.8,0.1,3.8,0.2,5.5
	c0.1,0.8,0.1,1.6,0.2,2.2c0.1,0.6,0.1,1,0.5,1.7c0.4,0.7,1,1.4,1.8,2.1c0.8,0.7,1.7,1.4,3,1.4c0.4,0,0.8-0.1,1.1-0.2
	c1.4-0.9,1.3-2,1.3-2.8c0-1.3-0.3-2.9-0.5-4.2c-0.3-1.3-0.5-2.7-0.5-2.8c0,0,0-0.2,0.1-0.4c0.3-0.8,1.7-1.9,1.8-1.8
	c0.9-0.3,1.2-1,1.3-1.4c0.1-0.5,0.2-0.9,0.2-1.4c0-2.3-0.9-5.5-2-7.6c-0.6-1-1.3-1.9-1.8-2.5c0,0,0,0-0.1-0.1
	c0.4-0.3,0.6-0.7,0.9-1.1c0.5-0.8,0.8-1.6,0.9-2.5c0-0.5-0.1-1.2-0.7-1.7c-0.1-0.1-0.1-0.5-0.3-1c-0.1-0.6-1-1.8-2.3-1.8
	c-0.4,0-0.7,0.1-1.1,0.2c-0.1,0.1-1.5,0.1-2.8,0.3c-0.5,0.1-1,0.2-1.5,0.5c-1-1.6-2.5-2.8-4.5-2.8c-0.2,0-0.4,0-0.6,0
	c-3,0.5-4.3,2-5.9,2c0-0.1,0-0.3,0-0.6c0-0.5,0.1-1.1,0.1-1.7c0-0.3,0-0.7-0.2-1.1c-0.1-0.5-0.9-1.2-1.6-1.2c-1,0.1-1.3,0.5-1.7,0.7
	c-0.6,0.5-1.1,1-1.5,1.4c-0.2,0.1-0.3,0.3-0.4,0.3c0-0.1,0.1-0.3,0.4-0.6c1.1-1.3,4.2-3,6.8-4c2.6-1.1,5.2-3.9,7.9-6.6
	c1.3-1.3,2.5-2.6,3.6-3.5c1-0.9,1.9-1.4,1.9-1.4c0.3,0,0.7,0,1.3,0c2.6,0,7.1,0.5,11.5,0.5c0.9,0,1.8,0,2.7-0.1
	c5-0.3,7.9-2.3,8.5-2.1c0.2,0,0.1,0,0.4,0.1c2.1,1.7,5.7,3.6,8.9,3.7c0.2,0,0.5,0,0.7,0c1.1-0.2,1.9-0.2,2.7-0.8
	c0.7-0.5,1.3-1.2,3.2-2.8c3.7-3.2,7.2-4.7,9.5-7.8c0.9-1.3,3.6-2.7,4.6-2.6c0.1,0,0.1,0,0.2,0c0,0.4,0,0.9,0,1.3c0,0.3,0,0.7,0,1
	c0,0.8,0,1.6,0.4,2.5c0.4,1,1.6,1.7,2.7,1.6c0.2,0,0.4,0,0.6,0c-1,0.7-1.7,1.4-2.2,1.7c-1.1,0.8-3.4,1.7-5.8,2.7
	c-2.4,1.1-5,2.5-6.6,4.8c-2.4,3.5-4.4,5.3-4.4,9.5c0,0.3,0,0.6,0,1c0.4,4.1,3.4,8.4,3.3,11.3c0,0.6-0.1,1.2-0.4,1.7
	c-2.4,4.3-3.1,9.9-3.2,10c-0.1,0.7,0.3,1.3,1,1.6c0.6,0.3,1.4,0,1.7-0.6c0,0,0.8-1.3,2.1-3.1c1.4-1.8,3.3-4,5.4-5.7
	c4.9-3.8,7.8-9,9.3-10.7c0.4-0.5,1.9-1.2,3.4-1.8c0.7-0.3,1.5-0.7,2.2-1.2c0.7-0.5,1.4-1.4,1.3-2.5c0-1.8,1.2-4.7,2.1-7.5
	c0.2-0.5,0.2-1,0.2-1.4c0-0.9-0.4-1.6-0.6-1.9C1098,124.6,1098,124.6,1098,124.5z M691.4,96.4c2.2,0,4.6-0.4,7.3-1.4
	c-0.6,1.1-0.5,2-0.5,2.9c0,0.3,0,0.5,0,0.8c0,0.4,0,0.8,0,1c-0.9,0.3-1.3,0.5-1.7,0.5c-0.4,0-1-0.1-2.2-1c-1.4-1-2.2-1.5-3.4-1.6
	c-0.8,0-1.5,0.5-1.8,0.8c-0.3,0.3-0.4,0.5-0.5,0.5c-0.3,0.3-2,1.3-2.6,1.4c0,0,0,0,0,0c0-0.6-0.1-1.1-0.1-1.6v-0.4
	c0.1-0.9-0.1-2-0.6-3C687.1,95.9,689.1,96.4,691.4,96.4z M670.9,113.8c0.3-0.7,0.3-0.6,0.9-0.7c0.7,0,1.9,0.5,2.8,1.2
	c0.5,0.4,0.9,0.8,1.1,1.1c0.2,0.2,0.2,0.4,0.3,0.6c0,0,0,0-0.1,0c-0.1,0.1-0.4,0.1-0.8,0.1c-0.8,0-2.1-0.3-3-0.9
	c-0.9-0.5-1.3-1.2-1.2-1.3C670.9,113.9,670.9,113.9,670.9,113.8l-1.4-0.4L670.9,113.8z M663.3,181.5c2.1-1.7,3.9-5,5.6-8.4
	c1.2-2.3,2.3-2.5,3.1-2.6c0.2,0,0.3,0,0.4,0c0.3,0.3,1.4,1.7,2.2,3.2c0.9,1.6,1.8,3.4,2.1,4.2c0.3,0.9,1.4,1.7,2.3,1.6
	c1.2,0,2-0.6,2.8-1.1c0.7-0.5,1.4-1,1.6-1.2c1.5-1,3.2-2.9,3.7-5.3c0-0.1,0.2-0.5,1-0.8c0.5-0.2,1-0.4,1.7-0.5
	c-0.3,0.2-0.5,0.3-0.8,0.4c-0.5,0.2-0.9,0.3-1.2,0.7c-0.4,0.3-0.7,0.9-0.7,1.5c0.1,1.3,0.8,1.8,1.5,2.3c0.7,0.5,1.7,1,2.8,1.5
	c2.8,1,5.8,4.6,9.6,7.1c1.8,1.1,2.6,3,2.6,4.1c0,0.7-0.2,0.8-0.3,0.8l0,0c-1.5,0.5-6.3,1-9.1,1c-0.6,0-1.2,0-1.5-0.1
	c-1.6-0.1-4.9-3.1-9-3.9c-1.1-0.2-2.3-0.3-3.5-0.3c-2.8,0-5.8,0.5-7.3,3c-0.1,0.4-1.4,0.9-3.1,0.8c-1.5,0-3-0.2-4.2-0.2
	c-1.5,0-2.6,0.8-3.5,1.3c0.1-0.8,0.2-1.7,0.2-2.5c-0.1-1,0-2.3-1.3-3.2C661.1,184.4,662.5,182.1,663.3,181.5z M639.7,104.2
	c1.9-2.2,2.5-4.2,2.4-5.6c0-0.7-0.1-1.3-0.2-1.6c0.2,0,0.5-0.1,0.9-0.1c2-0.1,4-0.3,5.6-0.3c0.8,0,1.6,0,2.1,0.1
	c-0.7,0.8-2.1,1.9-3.6,3c-2.1,1.5-4.5,3.1-6.2,4c-0.4,0.2-0.8,0.4-1.1,0.7C639.6,104.3,639.6,104.2,639.7,104.2z M602.7,125.8
	c0-0.2,0.5-1.2,1.2-1.9c0.2-0.3,0.5-0.5,0.7-0.7c0.3,1.4,0.8,2.9,1.4,4.3c0.6,1.6,1.1,3.1,1.1,3.8c0,0.1,0,0.2,0,0.2
	c-0.2,0.6-0.3,1.2-0.3,1.8c0,0.8,0.2,1.7,0.7,2.4c0.5,0.7,1.5,1.3,2.5,1.3c0.2,0,0.4,0,0.6-0.1c2.1-0.4,12.2-3,12.2-3l0.3-0.1
	c0-0.1,3.4-1.4,3.6-5c0-0.3,0-0.6-0.1-0.9c0-0.1,0-0.2,0-0.2c0-0.6,0.6-1.9,1.6-3.1c0.9-1.2,2-2.1,2.5-2.7c0.6-0.8,2.2-2.6,2.3-5
	c0.1-1.4-1-3-2.7-3.5c-1.2-0.4-2.3-0.8-2.9-1.1c-0.2-0.1-0.4-0.2-0.5-0.3c0-0.1,0.1-0.2,0.2-0.4c0.2-0.3,0.6-0.8,1.2-1.5
	c1.7-1.6,2.5-1.5,4.4-1.8c1.5-0.2,3.4-0.7,5.5-2.6c-0.7,1.1-1.1,2.3-1.1,3.4c0,1.6,0.5,3,1.3,4.1c0.4,0.6,0.9,2.1,1.5,3.4
	c0.3,0.7,0.7,1.4,1.2,2c0.5,0.6,1.4,1.2,2.4,1.2c0.3,0,0.6,0,0.8-0.1c2.7-0.8,5.5-2.7,7.3-2.6c0.1,0,0.2,0,0.4,0
	c0.6,0.1,1.3,0.1,2.1,0.1c2.5,0,5.8-0.3,6.8-0.4c0.3,0.2,0.8,0.8,1.2,1.3c0.3,0.4,0.6,0.9,0.7,1.2c-1.7,0.4-4.5,0.2-8.8,0.5
	c-2.3,0.2-4.7,0.2-6.7,0.4c-1,0.1-1.8,0.2-2.5,0.4c-0.4,0.1-0.7,0.2-1.1,0.4c-0.3,0.2-0.9,0.7-0.9,1.6c0,0.8,0.4,1.1,0.6,1.3
	c0.8,0.8,1.8,1.3,2.8,2c0.4,0.3,0.7,0.5,0.9,0.7c-0.2,0.1-0.4,0.1-0.6,0.1c-1,0.1-2.7-1-5.1-1.3c-0.1,0-0.3,0-0.5,0
	c-2.2,0-3.5,1.7-4.4,3.2c-0.9,1.6-1.5,3.4-1.9,4.7c-0.2,0.7-0.3,1.5-0.3,2.1c0,0.9,0.1,1.7,0.1,2.3c0,0.2,0,0.3,0,0.5
	c-0.1,0-0.4-0.1-0.6-0.2c-2.7-1.1-4.9-1.5-6.7-1.5c-1.1,0-2,0.1-2.8,0.6c-0.8,0.5-4.2,1.9-6.9,2.8c-0.3,0.1-0.5,0.1-0.5,0.1
	c-0.2-0.2-1.5-1.9-3.9-1.9c-0.1,0-0.2,0-0.3,0c-3.6,0-3.6,0-3.6,0l-0.2,0l-1.5,0.2c-0.5-0.5-1.4-1.7-1.5-2.9c0-0.2,0-0.4,0-0.6
	c0-1.3,0.4-2.7,0.4-4.1c0-0.8-0.2-2.1-1.4-2.7c-0.7-0.3-1.2-0.3-1.9-0.3c-0.7,0-1.6,0.1-2.4,0.3
	C601.5,127.8,602.5,127.1,602.7,125.8z M630.7,193.1c-0.3-0.2-5.2-4.3-7.4-5.4c-1.9-0.9-5.1-2.8-6.5-5.6c-1-2-2.6-3.1-3.7-4
	c-1.2-1-1.6-1.5-1.6-2.3c0-0.1,0-0.1,0-0.2c0-0.2,0-0.4,0.1-0.4l0,0c0,0,0.1,0,0.1,0c0.6,0,2.5,1.1,3.6,2.5c2.5,2.9,8,6.5,9.6,8.5
	c2.4,2.7,5,3.6,5.5,5.7C630.4,192.3,630.5,192.7,630.7,193.1z M574.4,155.1C574.4,155.1,574.4,155.1,574.4,155.1
	c-0.3,0.7-0.3,0.8-1,0.9c-0.2,0-0.4,0.1-0.6,0.1C573.4,155.8,573.9,155.5,574.4,155.1z M677.3,355.6c-0.5,0.9-1.1,1.6-1.5,2.1
	c-0.2,0.2-0.5,0.4-0.6,0.5c0,0,0,0-0.1,0c-0.1-0.1-0.2-0.4-0.3-0.8c-0.2-0.6-0.2-1.4-0.2-2.3c0-2,0.5-4.3,0.7-4.6c0,0,0,0,0.1-0.1
	c0.4-0.3,1.5-0.6,2.4-0.6c0,0,0.1,0,0.1,0c0.4,0,0.8,0,1,0.1c0,0,0.1,0,0.1,0c0,0.1,0.1,0.3,0.1,0.5
	C679.1,351.6,678.3,353.9,677.3,355.6z M678.4,228.5c-0.2,0.3-0.2,0.3-0.2,0.3s-0.1,0.1-0.7,0.1c-0.9,0-1.8,0-2.7,0.2
	c-0.8-1.2-2-2.2-3.7-2.3c-0.3,0-0.7,0.1-1.1,0.2c-1.6,0.5-3.7,0.7-5.8,1.5c0-0.1,0.1-0.3,0.1-0.5c0-0.4-0.1-0.8-0.3-1.1
	c-0.8-1.1-1.9-1.3-3-1.5c-1.1-0.2-2.4-0.2-3.7-0.2c-2.1,0-4.3,0.1-5.8,0.1c-2.9,0.1-5.7-2.4-9-3.3c-0.3-0.1-0.6-0.1-1-0.1
	c-2,0-3.6,1.2-5.2,2.5c-1.6,1.4-3,3.1-4.3,4.6c-1,1.2-1.5,1.2-2,1.3c-0.8,0.1-2.1-0.7-4-0.8c-0.5,0.1-2.3-0.8-3.6-1.9
	c-1.4-1-2.5-2-2.5-2l-0.3-0.2c0,0-1.2-0.6-2.7-1.2c-1.5-0.6-3.1-1.2-4.5-1.3c0,0-0.4-0.1-1-0.5c-0.8-0.5-1.9-1.4-2.8-2.1
	c-0.5-0.4-0.9-0.7-1.4-1c-0.5-0.3-0.8-0.5-1.6-0.6c-0.1,0-0.6-0.4-0.9-0.7c-0.3-0.3-0.5-0.7-0.5-0.8c0,0,0,0,0.1,0
	c0.4-0.2,0.8-0.2,1.6-0.3c0.4-0.1,1-0.2,1.5-0.7c0.5-0.6,0.7-1.3,0.7-1.9c0-1.1-0.3-2.4-1-4.6c-1.4-4.7-4.4-6.6-7.1-6.5
	c-1.7,0-3.1,0.6-4,1c0,0-0.1,0-0.3,0.1c-1.5,0.3-6.2,0.5-9.9,0.5c-2.9,0-5.4,0-5.8,0c-0.8,0-1.4,0.3-2.4,0.6c-2.9,1-7.8,3.1-9.8,4.2
	c-2.3,1.2-6.4,2.7-7.9,3.6c0,0-0.1,0-0.2,0c-0.9,0-3.2-0.5-5.4-0.5c0.3-0.6,0.5-1.2,0.8-1.8c0.2-0.3,0.3-0.6,0.5-0.8
	c0.6,0.2,1.2,0.3,1.7,0.3c2,0,4.3-0.8,5.9-1c1.9-0.3,3-1.5,4-2.6c1-1.1,1.9-2.2,2.9-2.9c0.6-0.4,1-0.7,1.4-1.1
	c0.3-0.4,0.7-0.9,0.7-1.6c0-0.9-0.5-1.3-0.7-1.6c-0.2-0.3-0.4-0.6-0.6-1c0,0,0-0.1,0-0.1c-0.1-0.1,0.4-1,1.2-1.9c0.9-0.9,2-2,3-3.1
	c0.5-0.6,1.3-0.7,2.6-0.9c0.6-0.1,1.4-0.1,2.1-0.5c0.8-0.3,1.6-1.1,1.8-2.1c0.4-1.4,0.7-3.1,1.1-4.4c0.2-0.6,0.4-1.1,0.6-1.4
	c0-0.1,0.1-0.1,0.1-0.1c1.9,0.3,4.7,1.9,7.3,2c1.8-0.1,3.2-1.1,4.7-2.1c1.4-1,2.8-2.1,3.2-2.3v0l0,0c0.1,0,0.4-0.1,0.7-0.1
	c0.6,0,1.4,0.2,1.9,0.5c0.6,0.3,0.9,0.7,1,1.3c0.4,2.1,1.9,3.8,3.3,5.2c1.5,1.5,2.9,2.5,3.6,3c0.8,0.5,2.8,1.2,4.8,2.1
	c1,0.4,2,0.9,2.8,1.2c0.8,0.4,1.4,0.8,1.4,0.8c0.7,0.6,2.4,3.5,2.8,5.8c0.4,1.6,1.2,3,2.9,3.2c1.7-0.1,2.5-1.6,2.6-2.9
	c0-0.3,0-0.5,0-0.8c0-1.5-0.4-3.2-0.4-4.2c0.1,0,0.2,0,0.3,0c2.1,0,3.8-0.8,3.9-0.8c0.4-0.2,0.8-0.6,0.8-1.1c0,0,0,0,0-0.1
	c1.2,2.5,2.8,4.6,3.4,5.6c0.3,0.4,1.2,2.6,2.1,4.7c0.9,2.2,1.8,4.4,2.2,5.3c0.4,0.9,1.5,1.5,2.3,1.4c2.1-0.1,3.7-1.6,4.9-2.7
	c0.4-0.4,1.4-1,2.4-1.7c1-0.7,2-2,2.2-3.8c0-0.2,0-0.3,0-0.4c0-1.9-1.2-3.3-2.3-4.3c-0.5-0.5-1.1-1-1.6-1.3c0.2-0.1,0.5-0.3,0.7-0.4
	c0.8-0.4,1.7-0.8,2.4-1.5c0.8-0.9,2.3-1.9,2.7-2c0,0,0,0,0,0c0.2,0.3,0.5,2.9,0.6,5.2c0,1.2,0.1,2.3,0.1,3.3c0.1,1,0.1,1.7,0.4,2.5
	c0.5,1,1.1,1.3,1.7,1.8c1,0.6,2.3,1.3,3.4,1.9c1.1,0.6,2.1,1.3,2.1,1.5c1.5,1.9,4,2.3,6,2.4c0.9-0.1,1.7,0,2.6-0.8c0,0,0.1,0,0.1,0
	c1.1,0,4,0.9,4.9,1.2c0.4,0.1,0.7,0.1,1,0.1c1.9,0,4.5-0.9,6.4-1.4c0.9-0.3,1.8-0.7,2.3-0.9c0,0.1,0,0.3,0,0.5c0,0.2,0,0.4,0,0.6
	c-0.2,4.1-1.2,10.6-3.5,13.3C679.2,226.3,678.7,227.8,678.4,228.5z M706.3,295.2c-0.7-0.8-0.9-1.4-2-1.9v0c-0.2-0.1-1.3-1.2-2.3-2.5
	c-1-1.4-2-3.1-2.6-4.8c-1.4-4-3.3-9-5.7-12.2c-1.9-2.4-3.3-9.4-5.6-14.2c-2.1-4.5-4.1-10.4-6-14.7c-0.2-0.5-0.5-1.1-0.7-1.5
	c1.2-0.4,2.4-0.7,3-0.6c0.1,0,0.2,0,0.2,0c0.8,2.8,3.6,7.4,4.1,10.5c0.3,2.3,1.8,3.4,2.7,3.9c0.9,0.6,1,0.4,1.1,1.6
	c0.2,1.9,0.9,4.7,1.8,7.3c0.4,1.3,0.9,2.5,1.4,3.5c0.5,1,0.8,1.7,1.4,2.3c0.4,0.4,2,2,3.4,3.6c1.4,1.6,2.9,3.5,3.1,4.1
	c0.8,2,1.8,4.4,2.6,9.2c0.4,2.4,0.8,5.3,1.4,7.8c0.1,0.4,0.2,0.7,0.3,1.1C707.4,296.7,706.8,295.9,706.3,295.2z M732,180.9
	c0.3,0.7,1.3,1,1.7,1c0.7,0,0.9-0.1,1-0.1c0.1,0,0.1,0,0.2,0.1c1.2,0.9,1.7,2.6,2.9,4.8c0.7,1.4,2,2,2.8,2.3
	c0.7,0.3,1.1,0.4,1.5,0.7c-0.2,0.2-0.6,0.7-1,1.1c-0.5,0.6-1.3,1.4-1.4,2.7c0,0.8,0.4,1.6,1,2.1c0.6,0.4,1.5,2.8,2.1,5.2
	c0.5,2.2,0.8,4.4,1,5.5c-0.3,0.2-1.1,0.6-2,0.8c-1.2,0.3-2.6,0.5-3.5,0.5c-0.3,0-0.6,0-0.7,0c-1.5-0.2-7.3-2.5-9.3-3.2
	c-0.3-0.3-1.1-2.7-1.1-4.4c0-0.6,0.1-1.1,0.2-1.3c0.2,0,0.4,0,0.7,0c1.2,0,2.3-0.5,3.2-1.2c0.9-0.7,1.6-1.7,2.8-2.9
	c0.6-0.6,1-1.4,1-2.3c0-1.2-0.7-2-1.4-2.5c-2-1.5-5.2-2.1-6.3-2.5c0,0,0,0,0,0c-0.5-0.3-2-2.2-3.2-4.2c-1.2-2-2.4-4.2-3.1-5.3
	c-0.2-0.4-0.4-0.9-0.4-1.5c0-1.4,0.9-3.5,3.1-5.2l0,0c0,0,0.1,0,0.3,0c1-0.1,3.1,0.8,5.2,0.8c0.9,0,1.8-0.2,2.7-0.8
	c2.1-1.5,4.1-3.4,5-4.1c0.5,0,1.9,0.3,3,0.8c1.2,0.5,2.1,1.3,2.1,1.4c0.5,1.2,1.3,2.2,2.1,3.2c0.4,0.5,0.7,0.9,0.9,1.2
	c0,0,0,0.1,0,0.1c-0.6,0.2-1.9,0.6-3,0.6c-1.1,0-2-0.3-2.2-0.6c-0.7-0.8-1.7-1.3-2.7-1.2c-2.8,0.1-5.3,2.6-5.6,6c0,0.3,0,0.6,0,0.9
	C731.6,179.8,731.7,180.3,732,180.9z M822.4,85.5c-0.8,0.4-1.6,0.5-2.3,0.5c-1.3,0-1.9-0.5-2-0.9c-0.3-1.3-1.5-2.4-2.8-2.6
	c0.2-0.1,0.4-0.2,0.7-0.2c1.5-0.4,3.4-1,4.6-1c0.4,0,0.7,0.1,0.7,0.1c0,0,0-0.1,0.1,0.3c0.1,1.3,0.6,2.3,1,2.9
	c0.2,0.3,0.3,0.5,0.4,0.7C822.6,85.4,822.5,85.5,822.4,85.5z M839.7,78.4C839.7,78.4,839.7,78.4,839.7,78.4
	c-0.2,0.2-0.5,0.3-0.6,0.3c-0.3-0.1-0.6,0.1-0.9-1.5c-0.2-1.5-0.3-2.6-1.1-3.7c-0.5-0.5-1-0.9-1.5-1.2c0.9,0.4,1.7,0.8,2.3,1.2
	c0.3,0.2,0.6,0.4,0.8,0.5c0.1,0.1,0.2,0.1,0.2,0.2v0c0.4,0.5,1,2.5,1,3.6C839.8,78.1,839.7,78.3,839.7,78.4z M598.8,189.5
	c-1.6,0-2.7,1-3.4,2.1c-0.7,1.1-1,2.4-1,3.7c0,1.1,0.3,2.3,1.2,3.2c0.8,0.8,1.9,1.4,3.1,1.4c1.7,0,3-1.2,3.9-2.7l-1.2-0.7l1.2,0.7
	c0.4-0.7,0.6-1.5,0.6-2.2c0-1.4-0.6-2.7-1.3-3.7C601,190.4,600.2,189.6,598.8,189.5z M485.8,67.9c0.3,0,0.6-0.1,0.9-0.1
	c1.4,0,3.1,0.3,4.7,0.3c0.8,0,1.7-0.1,2.5-0.6c0.9-0.5,1.4-1.7,1.3-2.7c0-0.1,0-0.1,0-0.2l-1.4,0l1.4-0.1c0-0.7,0-1.5,0-2.2
	c0-2.6,0.3-5.2,0.9-6.3c0.3-0.6,0.8-1.2,1.3-1.8c0.5-0.6,1.1-1,1.2-2.3c0.1-0.8-0.6-1.5-1.1-1.7c-0.6-0.3-1.2-0.4-1.6-0.4
	c-0.2,0-0.4,0-0.5,0c-0.3,0-0.3,0-0.4-0.1c-0.1-0.1-0.3-0.3-0.7-1.2c-0.2-0.5-0.3-1-0.3-1.4c0-1.6,1.2-3.1,2.2-4.1
	c0.8-0.8,2.8-3.2,5.2-5.6c2.3-2.4,5.1-4.8,6.5-5.2c3.3-1.2,5.8-4.2,5.9-7.1c0-1.1-0.7-2.5-2-3c-1.6-0.6-4.2-1.6-6.9-1.7
	c-2.1,0-4.3,0.6-6.1,2.4c-1.6,1.6-2.8,3-3.9,4c-1.1,1-2,1.5-3.1,1.5c-0.3,0-0.7-0.1-1.1-0.2c-1.3-0.3-2.3-1.6-3.2-3.5
	c-0.9-1.8-1.6-4.1-3-5.9c-1.3-1.6-1.7-4.5-2-7c-0.2-1.3-0.3-2.5-0.7-3.6c-0.3-1-1.3-2.3-2.8-2.3c-0.2,0-0.4,0-0.7,0.1
	c-2,0.4-2.9,0.5-3.2,0.6c-0.7-0.1-2.5-0.4-4.4-0.4c-0.9,0-1.8,0.1-2.7,0.3c-1.3,0.3-2.4,0.8-3.3,1.3c0-0.2,0.1-0.3,0.1-0.5
	c-0.1-1.4-0.9-1.8-1.5-2.2c-0.6-0.4-1.2-0.6-1.9-0.7c-4-0.5-10.5-2.6-15.8-3c-0.3,0-0.7,0-1,0c-3.9,0-6.4,1.3-9.7,1.4
	c-5,0.2-11.3-0.3-15.9,3c-1.5,1.1-3.4,1.8-4.9,2.2c-0.7,0.2-1.4,0.4-2,0.5c-0.3,0.1-0.5,0.1-0.8,0.2c-0.2,0.1-0.5,0.1-1,0.6
	c-1.1,1.4-1.9,3.4-2.7,5c-0.4,0.8-0.8,1.5-1.1,1.9c0,0,0,0,0,0c-0.4-0.5-0.8-1.3-1.2-2.2c-0.3-0.5-0.6-1.1-1-1.6
	c-0.4-0.5-1.1-1.1-2.1-1.1c-0.7,0-1.3,0.3-1.8,0.7c-1.9,1.5-1.8,3.7-1.8,5.4v0.2c0,1.6-0.1,3-0.7,4c-0.7,1.1-2.5,1.7-4.4,1.7
	c-1.4,0-2.7-0.4-3-0.6c-1.5-1-3.4-1.9-7.7-1.9c-0.9,0-2,0-3.2,0.1c-3.2,0.2-6.5,0.9-9,1.8c-1.3,0.5-2.4,1-3.3,1.7
	c-0.9,0.7-1.7,1.6-1.7,2.9c0,0.5,0.1,1,0.4,1.4c0.1,0.2,0.1,0.3,0.1,0.3c0,0.1,0,0.2-0.4,0.5c-0.3,0.2-0.9,0.4-1.3,0.4
	c-0.1,0-0.3,0-0.3,0l0,0c-0.6-0.6-1.4-0.8-2-0.8c-1.4,0-2.9,0.7-4.2,1.6c-1.2,1-2.4,2.2-2.5,4.1c0,0.1,0,0.3,0,0.4
	c0,0.2,0,0.4,0,0.7c0,0.9-0.2,1.7-0.5,2.2c-0.3,0.5-0.6,0.6-1,0.6c-0.1,0-0.3,0-0.4,0c-0.4-0.1-0.9-0.2-1.3-0.2
	c-3.2,0-5.3,2.6-5.5,5.2c-0.1,0.2-1.4,1.1-2.8,1.6c-0.7,0.3-1.4,0.5-2,0.6c-0.3,0.1-0.5,0.1-0.7,0.2c-0.1,0-0.1,0-0.1,0h0
	c0,0,0,0,0,0c-0.1,0-0.3,0-0.5,0c-0.8,0-2.3,0-3.7,0.2c-0.7,0.1-1.4,0.2-2,0.5c-0.6,0.3-1.5,0.9-1.5,2.1c0,1,0.6,1.6,1.1,2.1
	c1.4,1.3,2.9,1.5,4,1.4c0.2,0,0.3,0,0.5,0c0.6,0,1.1,0,1.8,0.2c0.5,0.1,1.6,1.2,2.5,2.5c1,1.3,1.6,2.7,3,3.5
	c0.6,0.3,1.2,0.4,1.8,0.4c1.6,0,3.2-0.8,4.1-2.3c0.3-0.4,0.5-0.9,0.7-1.4c0.4,0.5,0.8,1,1.5,1.3c0.8,0.3,1.5,0.4,2.3,0.4
	c2.4,0,5.4-0.8,6.3-0.7c0.1,0,0.1,0,0.1,0c0.7,0.1,3,0.5,5.3,1c2.3,0.5,4.9,1.2,5.5,1.7c1.4,0.8,3.2,1.3,5,2
	c1.7,0.7,3.1,1.6,3.5,2.4c0.5,0.9,1,4.1,1.3,7c0.2,1.5,0.3,2.9,0.5,4.1c0.2,1.2,0.2,1.9,0.8,2.9c0.3,0.4,0.9,0.8,1.5,0.7
	c0.2,0,0.4,0,0.5-0.1c-0.3,0.9-0.4,1.7-0.4,2.6c0,1.2,0.2,2.2,0.7,3.1c0.4,0.8,1.1,1.7,2.4,1.7c0.5,0,1.2,0,1.8,0.1
	c-0.3,0.4-0.6,0.8-0.9,1.2c-0.6,0.9-1.2,1.7-1.2,3c0,0.1,0,0.2,0,0.3c0.3,2.1,2.4,6.9,3.2,8.4c0.8,1.2,2,1.6,3.2,2.1
	c0.1,0.1,0.2,0.1,0.4,0.1c-0.1,0.3-0.2,0.6-0.2,0.9c0,0.4,0.1,0.9,0.3,1.2c0.4,0.6,0.9,2,1.6,3.3c0.7,1.3,1.5,2.7,3,3.4
	c0.7,0.3,2.5,1.5,4,2.8c1.5,1.2,3,2.8,3,3c0.3,1,1.5,1.5,2.2,1.5c1.3,0,2.3-0.6,3.3-1.1c0.3-0.1,0.5-0.3,0.7-0.4
	c0.1,0.5,0.3,1,0.5,1.5c0.4,1.1,1.2,2.6,3,2.8c0.3,0,0.6,0,0.9,0c0,0,0.1,0,0.1,0c2.2,0,3.6-1.2,5.3-2.9c2.6-2.6,1.9-5.9,2.1-7.5
	c0.1-0.7,0.1-1.3,0.1-1.7c0.1,0,0.1,0,0.2,0c0.5,0.2,1.1,0.2,1.6,0.2c1,0,2-0.4,2.6-1.2c0.6-0.8,0.9-1.7,0.9-2.7c0-0.2,0-0.3,0-0.5
	c-0.1-1.5-0.7-2.8-0.6-3.4c0-0.3,0-0.2,0-0.3c0,0,0.2-0.2,0.9-0.3c2.1-0.4,3.6-1.4,4.8-2.2c1.2-0.8,2-1.3,2.5-1.3
	c1.2,0,4.4,0.5,6.7,0.5c0.6,0,1.1,0,1.7-0.1c0.5-0.1,1.1-0.2,1.7-1c0.4-0.6,1.2-2.1,2.2-3.4c0.5-0.7,1-1.3,1.4-1.7
	c0.2-0.2,0.4-0.4,0.6-0.4c0.1-0.1,0.1-0.1,0.1-0.1v0c1.8-0.2,6.7-0.7,11.1-1.5c2.3-0.5,4.6-1.5,6.5-2.4c1.6-0.8,3.2-1.5,3.6-1.5
	c0,0,0,0,0,0c0.5,0.1,1.2,0.1,1.9,0.1c0.7,0,1.4,0,2.1-0.2c0.3-0.1,0.7-0.2,1.1-0.5c0.4-0.2,0.9-0.8,0.8-1.5c0-0.5-0.2-0.8-0.4-1.1
	c0.3,0,0.6,0.1,0.9,0.1c0.5,0,1-0.1,1.5-0.2c2.7-0.6,3.8-3,3.7-4.6c0-1.1-0.3-1.9-0.8-2.7c-0.3-0.3-1-2.6-1.7-4.3
	c-0.1-0.3-0.2-0.6-0.2-0.8c0-0.3,0-0.3,0.2-0.5C484.2,68.3,484.8,68,485.8,67.9z M393.4,74c-0.2-0.1-0.5-0.1-0.9-0.1
	c-0.3,0-0.7,0-1.1,0.1c0.2-0.3,0.3-0.5,0.4-0.7c0.1,0,0.2,0,0.4,0c0.7-0.1,1.8,0.3,2.4,0.7C394.1,74,393.7,74,393.4,74z M398.3,80.2
	c0,0.4-0.1,1-0.2,1.5c-0.2-0.1-0.5-0.2-0.6-0.3c0.2-0.7,0.4-1.4,0.5-2.2C398.2,79.7,398.4,80.1,398.3,80.2L398.3,80.2z M473.9,76.4
	c0-0.4,0.2-1,0.5-1.5c0.1-0.1,0.1-0.3,0.2-0.4c0.3,0.1,0.7,0.2,1.1,0.4c0.7,0.3,0.9,0.6,0.8,0.8c0,0,0,0,0,0.1c0,0.1,0,0.3,0,0.5
	c0,0.4,0,0.8,0.1,1.1C475.9,76.9,475,76.6,473.9,76.4z M513.4,104c0.2-0.1,1.3-0.5,2.3-0.6c1.1-0.2,2.2-0.2,2.2-0.2
	c0.3,0,0.7-0.2,0.9-0.4c0,0,0.8-0.7,1.6-1.7c0.8-1,1.7-2.1,1.7-3.8c0-0.6-0.2-1.3-0.7-1.8l0,0l0,0c-2-2-5.5-3-7.4-3.3
	c-0.2,0-0.3-0.1-0.5-0.1c-2.5,0.2-3.6,1.6-6.7,1.6c-2.7,0-4.8,0.8-5.7,0.8c-0.5,0-0.4,0-0.7-0.3c-1.8-1.9-5-2.4-7.4-2.5
	c-0.5,0-1,0-1.5,0.2c-0.5,0.2-1.1,0.3-1.5,1.1c-0.1,0.3-0.3,0.5-0.7,1c-0.3,0.4-0.8,1.2-0.8,2.2c0,0.8,0.3,1.7,0.8,2.7
	c0.7,1.5,1.3,2.7,2,3.6c0.7,0.9,1.5,1.7,2.9,1.8c0.2,0,0.3,0,0.4,0c0.4-0.1,1.1-0.1,1.9-0.1c0.8,0,1.6,0.1,2.2,0.2
	c0.3,0.1,0.5,0.2,0.6,0.2c0,0,0,0,0,0c0.4,1.6,2,3.5,4.5,3.5h0.1c0.7,0,1.5-0.1,2.4-0.5c1.5-0.5,3-1,4.2-1.5
	C511.6,105.7,512.6,105.2,513.4,104z M733.7,400.7c-0.6-1.8-1.3-3.5-3.2-4.3l-0.5,1.4l0.5-1.4c-0.4-0.2-0.9-0.2-1.4-0.2
	c-1.1,0-2.1,0.6-2.7,1.3c-1.8,2.1-2.4,5.2-4.1,7.4c-1.3,1.7-2.6,3.2-3.7,4.2c-0.6,0.5-1.1,1-1.4,1.2c-0.2,0.1-0.3,0.2-0.4,0.2
	c-0.1,0-0.3,0-0.4,0c-1.2,0.1-2.6,0.6-4.1,1.7c-1.4,1.1-2.7,2.8-2.7,5.1c0,0.8,0.1,1.6,0.5,2.4c0.8,2.1,1.2,4.2,1.2,6.1
	c0,2.1-0.5,3.8-1.3,4.6c-0.7,0.9-0.9,1.9-0.9,2.9c0.1,3.2,1.8,7.3,1.7,9.6c0,0.2,0,0.4,0,0.6c-0.1,0.5-0.1,1.1-0.1,1.7
	c0,1.6,0.5,3.2,1.6,4.3c1.1,1.1,2.8,1.6,4.6,1.6h0.1c2,0,3.8-0.5,5.1-1.7c1.3-1.2,2.1-2.9,3-5.1c1.7-4.5,2-8.8,3.5-12.1
	c0.9-2,1.6-4.8,2.3-7.4c0.6-2.6,1.2-5,1.5-5.7c0.9-2.1,2.3-7.5,2.4-11.5c0-0.3,0-0.6,0-1C734.7,404.6,734.3,402.5,733.7,400.7z
	 M957.3,391.3c0,0,0.1,0,0.2,0c1.5,0,3.1-1.3,3.2-3.2c0-0.2,0-0.3,0-0.4c0-1.1-0.4-2.2-1.2-2.9c-0.7-0.7-1.6-1-2.5-1
	c-1.5,0-3.2,1-3.6,2.9l0,0c0,0.3-0.1,0.5-0.1,0.8C953.4,389.9,955.4,391.3,957.3,391.3z M328.9,271.9c-0.1-1.6-1-2.6-2.1-3.8
	c-1.1-1.1-2.3-2.1-4.1-2.1c-0.2,0-0.3,0-0.5,0c0,0,0,0-0.1,0c-0.4,0-1.8-0.5-3.2-1.3c-1.3-0.8-2.7-1.9-3.6-2.9
	c-2.9-2.9-7.3-2.7-9-2.8c-1.3,0-3.2,0.6-5.2,1.2c-1.9,0.6-3.5,1.2-3.5,1.2c-0.5,0.2-0.9,0.7-1,1.2c0,0.2,0,0.3,0,0.5
	c0,1.1,0.4,2.2,1.3,2.8c0.9,0.6,1.7,0.6,2.6,0.6c1.1,0,2.2-0.1,3.3-0.1c1.5,0,3.5-0.1,5.2-0.1c1.1,0,2.1,0.1,2.8,0.2
	c0.4,0.1,0.6,0.2,0.8,0.2c0.1,0,0.1,0.1,0.1,0.1l0,0l0,0c0.9,1.2,2.4,2.2,4,3.3c1.5,1,3.2,2,3.6,2.5c1.4,1.2,3.2,1.5,4.9,1.5
	c0.7,0,1.3-0.1,1.9-0.3c0.6-0.2,1.4-0.7,1.6-1.7l-1.4-0.3l1.4,0.3C328.9,272.1,328.9,272,328.9,271.9z M319.2,279.4L319.2,279.4
	c-2.1,0.5-2.7,2.5-2.7,4c0,0.9,0.2,1.9,0.7,2.7c0.5,0.8,1.5,1.6,2.7,1.6h0c0.4,0,0.8-0.1,1.2-0.2c1.8-0.6,2.7-2.3,2.6-3.7
	c-0.1-2-1.2-4.3-3.8-4.5C319.7,279.3,319.4,279.4,319.2,279.4z M322.3,255.5c-0.1-2-1.8-3.2-3.8-3.3c-0.2,0-0.4,0-0.6,0
	c-1.6,0.2-2.8,1.6-2.8,3c0,0.8,0.3,1.6,0.9,2.2c0.6,0.6,1.5,1,2.5,1h0c0.3,0,0.7,0,1-0.1l-0.3-1.4l0.3,1.4
	C321,258.1,322.3,256.9,322.3,255.5z M940.8,384.9c0.6-0.3,1.1-1,1.2-1.7l-1.4-0.2l1.4,0.2c0-0.1,0-0.3,0-0.4
	c-0.1-1.7-1.1-3-2.1-4.1c-1.2-1-2.2-1.9-3.7-2c-0.3,0-2.5-0.5-4.3-0.9c-1.9-0.5-3.6-1-3.6-1c-0.4-0.1-0.7-0.1-1.1,0.1
	c-0.7,0.4-1.7,0.7-2.6,1.3c-0.1-0.1-0.2-0.1-0.3-0.2c-1.9-1.3-3.9-1.2-5.3-1.3c-0.7,0-1.2-0.1-1.4-0.2c-0.3-0.1-0.3-0.1-0.5-0.5
	c-0.7-1.7-1.8-3-3.5-3c-0.3,0-0.5,0-0.8,0.1c0.1-3.3,0.7-7,1.6-8.2l0,0c0.7-1,1-2.1,1-3.2c0-0.9-0.2-1.7-0.7-2.4
	c-0.5-0.7-1.5-1.3-2.5-1.3c-0.2,0-0.4,0-0.6,0c0.1,0,0,0,0,0c0,0-0.2,0-0.6-0.4c-1.3-1-3.1-4.2-5.9-6.5c-3.6-3-6.2-4.9-9.4-9
	c-3.5-4.5-7.7-7.2-9.7-9.3c-2.3-2.3-5.2-3.4-7.3-3.5c-0.3,0-0.6,0-0.9,0.1c-1,0.1-2,1.2-1.9,2.3c0.1,1.2,0.6,2,1.2,2.9
	c1,1.3,2.3,2.7,3.4,3.8c1.1,1.1,2.2,2.1,2.3,2.2c0.5,0.6,2.5,2.6,4.4,5.1c1.9,2.3,3.6,5.2,3.5,6.2c0.1,2.4,1.4,5.4,2.8,8.2
	c1.5,2.9,3,5.3,3.9,6.3c0.8,0.8,2.8,2.3,4.8,4c2,1.6,3.9,3.6,4.2,4.4c0.7,1.5,1.6,2.8,3.3,3c0.1,2.7,2,4.2,2.7,4.8
	c1.3,0.9,3.4,1.3,6,1.4c0.6,0,1.1,0,1.7-0.1c0.9-0.1,1.9-0.3,2.9-0.6c0.3-0.1,0.7-0.2,1-0.4c0,0,0.1,0.1,0.1,0.1
	c1.9,2,3.8,3.5,6.7,3.5c0.4,0,0.8,0,1.3-0.1c0.2,0,0.4,0,0.6,0c1.9,0,4.4,0.8,6.4,0.8C939.7,385.3,940.3,385.2,940.8,384.9z
	 M983.9,341.3c-1.8,2.3-3.3,6.3-3.4,9.4c0,0.8,0.1,1.5,0.4,2.2c0.3,0.7,0.9,1.4,1.8,1.6c0.3,0.1,0.5,0.1,0.8,0.1
	c2.5-0.2,3.4-2.4,4.3-4.4c0.8-2.1,1.3-4.6,1.3-6.6c0-0.7-0.1-1.3-0.2-1.9c-0.2-0.6-0.4-1.3-1.2-1.7l0,0c-0.3-0.2-0.7-0.3-1-0.3
	C985.3,339.8,984.6,340.5,983.9,341.3z M1019,199.2c-0.8,2-1.6,3.9-2.2,5.2c-0.3,0.7-0.6,1.2-0.8,1.4c0,0-0.1,0.1-0.1,0.1
	c-0.6,0.1-1.1,0.3-1.7,0.5c-2.3,0.9-5.8,2.6-7.5,4.6c-0.1,0-0.4,0.1-0.8,0.1c-1.9,0-5.1-1-7.4-1c-0.8,0-1.8,0.1-2.5,1.1
	c-0.9,1.4-3.1,3.4-4.5,4.7c0,0.1-1,0.4-2.2,0.7c-1.1,0.2-2.9,1.5-2.8,3.6c0,0.4,0,0.8,0.1,1.3c0.4,2.1,1.2,4.1,2,5.7
	c0.9,1.5,1.8,2.9,3.8,3c1.2,0,2.5-0.5,3.6-1.5c1.1-1.1,1.7-2.7,1.7-4.8c0,0,0-0.1,0-0.1c0.3,0.1,0.8,0.3,1.3,0.5
	c0.8,0.3,1.7,0.7,2.8,0.7c0.2,0,0.3,0,0.5,0c2.1-0.5,3.2-1.9,4-3.7c0.4,0.3,0.8,0.5,1.4,0.7c0.6,0.2,1.2,0.3,1.8,0.3
	c1.6,0,2.8-0.8,3.5-1.7c0.5-0.7,0.8-1.4,0.9-2.1c0.5-0.3,1.7-0.8,2.9-1.3c1.5-0.6,2.8-1,3.8-1.8c0.2-0.2,1.6-1,2.9-1.7
	c0.7-0.4,1.3-0.8,1.9-1.2c0.6-0.5,1.1-0.9,1.4-1.9c0.2-1.1,0.1-3.1,0.3-5.2c0.1-1,0.2-2,0.3-2.7c0.1-0.3,0.1-0.5,0.2-0.7
	c0.3-0.1,0.8-0.3,1.4-0.6c0.7-0.4,1.4-1.5,1.3-2.6c0-1.1-0.4-2.2-1.1-3.8c-0.9-1.8-1.4-3.6-1.9-5c-0.2-0.4-0.3-0.8-0.5-1.2
	c1.1-0.3,2.2-0.6,3.4-0.7c3.5-0.3,6.6-1.3,7.5-1.6c0,0,0.1,0,0.2,0c0.7,0,1.9,0,3.2-0.4c1.2-0.3,2.8-1.3,2.9-3.4
	c0-0.3-0.1-0.6-0.1-1c-0.5-2-2.2-3.1-3.8-3.7c-1.6-0.6-3.3-0.8-4.5-0.8c-0.4,0-0.7,0-1.1,0.1c-0.3-0.2-0.8-0.8-1.4-1.4
	c-0.8-0.7-1.8-1.6-3.3-1.6c-0.3,0-0.6,0-0.9,0.1c-1.7,0.5-2.5,1.9-3,3.1c-0.4,1-0.6,1.9-0.7,2.6c-0.5,0.3-1.6,0.9-2.7,1.4
	c-1.3,0.8-2.9,1.6-3.1,3.7c0,0.8,0.4,1.5,0.9,2c0.3,0.4,0.7,0.7,1.1,0.9c-1.1,1.4-1,3.2-1.2,4.9
	C1019.9,195.3,1019.7,197.6,1019,199.2z M936.5,332.9c-0.5,0.8-0.8,1.6-1.1,2.2c-0.1,0.3-0.3,0.5-0.3,0.7c0,0.1-0.1,0.1-0.1,0.2
	c-0.8,0.7-1.6,1-3.8,1.6c-2.6,0.9-3.4,3.2-3.9,4.9c-0.3-0.2-0.6-0.4-0.9-0.6c-0.9-0.5-1.6-1.2-3-1.3c-0.5,0-1.2,0.2-1.7,0.8
	c-0.8,1-0.8,2-0.8,3.3c0,2.9,0.8,7.1,2.2,10.9c1.1,2.9,2.9,5.2,4.7,6.8c1.9,1.6,3.3,2.6,4.9,2.7c1.4,0,4,0,5.6,0.6
	c1.1,0.3,2.7,0.6,4.5,0.6c1.1,0,2.2-0.1,3.3-0.5c1-0.4,2.1-1.5,2.1-2.9c0-0.1,0-0.2,0-0.2c-0.1-1.2-0.2-2.4-0.2-3.7
	c0-2.2,0.4-4.3,1.8-5.8c1.1-1.1,2.2-2.1,3.2-3.3c0.9-1.2,1.7-2.6,1.7-4.4c0-0.8-0.1-1.7-0.4-2.5c-1.2-3.4-2.9-6-2.8-6.9
	c0-0.3,0-0.3,0.2-0.6c0.8-0.9,1.8-1.5,2.6-2.1c0.8-0.6,1.9-1.6,1.9-3.2c0-0.3,0-0.7-0.4-1.1c-0.4-0.5-1-0.6-1.3-0.6
	c-0.9,0.1-1.1,0.3-1.4,0.4c-0.3,0.1-0.6,0.2-0.7,0.2c0,0,0,0-0.1,0c-0.1,0-0.1,0-0.4-0.5c-0.3-0.6-0.7-2.1-0.9-4.7
	c0-0.5-0.2-1.1-0.7-1.6c-0.5-0.5-1.1-0.6-1.6-0.6c-1.4,0.1-2.4,0.8-3.3,1.7c-0.9,0.9-1.8,2-2,3.4c0,0.1,0,0.3,0,0.5
	c0,0.9,0.3,1.6,0.5,2.2c0,0.1,0.1,0.2,0.1,0.3c-0.3,0-0.7,0.1-1.3,0.1C939.4,329.6,937.4,331.3,936.5,332.9z M957.8,256
	c-1,1.9-1.5,4-1.5,5.8c0,0.8,0.1,1.6,0.5,2.4c0.4,0.7,1.2,1.4,2.2,1.4c0,0,0,0,0.1,0c0.1,0,0.2,0,0.3,0c2.3-0.4,3.4-2.3,4.4-4.2
	c1-2,1.6-4.3,1.7-6.2c0-0.7-0.1-1.4-0.5-2.1c-0.3-0.7-1.3-1.3-2.2-1.3c-0.2,0-0.4,0-0.6,0.1l0,0C960.1,252.4,958.8,254.1,957.8,256z
	 M954.3,288.7c0,0.8,0.2,1.7,0.6,2.6l0,0c0.9,2.1,2.6,3.8,4,5.1c0.7,0.7,1.3,1.3,1.7,1.7c0.1,0.2,0.3,0.3,0.3,0.4
	c-1.4,1.6-5.3,4.6-6.1,8.3c0,0.2,0,0.3,0,0.5c0,0.3,0,0.7,0.4,1.2c0.3,0.4,0.9,0.6,1.3,0.6c0,0,0,0,0,0c1.2-0.1,1.7-0.6,2.5-1.3
	c2.3-1.9,5.6-5.5,6.9-7.6c0.6-0.9,1.5-1.1,2.7-1.3c0.6-0.1,1.2-0.1,1.9-0.3c0.7-0.1,1.6-0.5,2.1-1.5c0.8-1.6,0.8-1.6,0.8-1.6
	c0.2-0.4,0.2-0.9,0-1.3c-0.2-0.4-0.6-0.7-1-0.8c0,0-2.9-0.7-5.2-1.6c-0.5-0.2-1.1-0.3-1.5-0.3c-0.8,0-1.5,0.2-1.9,0.3
	c0-0.2,0.1-0.6,0.2-0.9c0.6-2.1,1.4-2.8,2.4-3.6c0.9-0.7,2.5-1.9,2.4-4c0-0.4,0-0.8-0.1-1.2c-0.5-2.3-1.5-3.8-2.7-4.8
	c-1.2-0.9-2.2-1.3-3.1-1.3c-1-0.1-2.1,0.9-2.2,1.7c-0.4,2.1,0.2,3.5-1.2,4.6c-1,0.8-2.1,1.5-3.2,2.4
	C955.3,285.7,954.3,287,954.3,288.7z"/>
</svg>
