<?xml version="1.0" encoding="UTF-8" standalone="no"?>
<!-- Created with Inkscape (http://www.inkscape.org/) -->

<svg
   xmlns:dc="http://purl.org/dc/elements/1.1/"
   xmlns:cc="http://creativecommons.org/ns#"
   xmlns:rdf="http://www.w3.org/1999/02/22-rdf-syntax-ns#"
   xmlns:svg="http://www.w3.org/2000/svg"
   xmlns="http://www.w3.org/2000/svg"
   xmlns:sodipodi="http://sodipodi.sourceforge.net/DTD/sodipodi-0.dtd"
   xmlns:inkscape="http://www.inkscape.org/namespaces/inkscape"
   id="svg2"
   version="1.1"
   inkscape:version="0.91 r13725"
   xml:space="preserve"
   width="463.79126"
   height="221.04875"
   viewBox="0 0 463.79126 221.04874"
   sodipodi:docname="cyfronet.svg"><metadata
     id="metadata8"><rdf:RDF><cc:Work
         rdf:about=""><dc:format>image/svg+xml</dc:format><dc:type
           rdf:resource="http://purl.org/dc/dcmitype/StillImage" /><dc:title></dc:title></cc:Work></rdf:RDF></metadata><defs
     id="defs6" /><sodipodi:namedview
     pagecolor="#ffffff"
     bordercolor="#666666"
     borderopacity="1"
     objecttolerance="10"
     gridtolerance="10"
     guidetolerance="10"
     inkscape:pageopacity="0"
     inkscape:pageshadow="2"
     inkscape:window-width="714"
     inkscape:window-height="480"
     id="namedview4"
     showgrid="false"
     fit-margin-top="0"
     fit-margin-left="0"
     fit-margin-right="0"
     fit-margin-bottom="0"
     inkscape:zoom="0.22425732"
     inkscape:cx="230.13062"
     inkscape:cy="111.98248"
     inkscape:window-x="0"
     inkscape:window-y="0"
     inkscape:window-maximized="0"
     inkscape:current-layer="g10" /><g
     id="g10"
     inkscape:groupmode="layer"
     inkscape:label="cyfronet_logo_monochr"
     transform="matrix(1.25,0,0,-1.25,-141.91625,635.2475)"><path
       d="m 349.352,444.41 c -4.942,0 -8.959,-4.061 -8.959,-9.308 0,-5.195 4.061,-9.356 8.959,-9.356 4.911,0 8.916,4.105 8.916,9.356 0,5.247 -3.958,9.308 -8.916,9.308 z m 101.766,-0.153 -7.43,0 0,-26.537 -8.606,0 0,26.537 -7.433,0 0,8.082 23.469,0 0,-8.082 z m -26.14,0.213 c -0.644,0.04 -1.244,0.04 -1.78,0.04 -5.95,0 -9.509,-1.633 -11.094,-5.444 l 12.874,0 0,-7.72 -13.025,0 c 1.137,-3.811 4.948,-5.753 11.389,-5.753 0.496,0 1.083,0 1.636,0.056 l 0,-7.929 -0.894,0 c -5.996,0 -10.501,0.949 -13.61,2.931 -5.11,3.265 -7.923,8.46 -7.923,14.407 0,5.934 2.813,11.085 7.923,14.356 3.109,1.976 7.614,2.925 13.61,2.925 l 0.894,0 0,-7.869 z m -25.861,-26.975 -9.077,0 0,21.037 c 0,3.827 -1.799,5.816 -4.954,5.816 -3.112,0 -4.91,-1.989 -4.91,-5.816 l 0,-21.037 -9.122,0 0,20.538 c 0,9.302 5.8,14.824 14.032,14.824 8.228,0 14.031,-5.522 14.031,-14.824 l 0,-20.538 z m -37.184,4.889 c -3.366,-3.422 -7.818,-5.266 -12.581,-5.266 -4.751,0 -9.156,1.885 -12.518,5.266 -3.415,3.462 -5.244,7.813 -5.244,12.674 0,4.841 1.829,9.199 5.244,12.677 3.362,3.362 7.767,5.194 12.518,5.194 4.763,0 9.215,-1.832 12.581,-5.238 3.365,-3.378 5.16,-7.829 5.16,-12.633 0,-4.801 -1.795,-9.312 -5.16,-12.674 z m -33.271,-4.664 -8.625,0 0,8.376 c 0,3.852 -1.471,4.744 -5.629,4.744 l -0.799,0 0,7.776 1.287,0 c 2.825,0 4.201,1.146 4.201,3.269 0,1.885 -1.376,3.224 -3.162,3.224 -2.326,0 -3.712,-1.688 -3.712,-4.8 l 0,-22.533 -8.616,0 0,22.629 c 0,7.579 5.039,12.577 12.374,12.577 6.931,0 12.134,-4.704 12.134,-10.051 0,-3.462 -2.025,-6.337 -5.646,-7.524 4.508,-0.502 6.193,-2.625 6.193,-7.189 l 0,-10.498 z m -33.645,-22.649 -6.178,0 -7.174,11.901 27.087,0 c -4.215,-4.266 -9.022,-8.036 -13.735,-11.901 z m 2.191,-13.885 -5.429,9.006 c 2.173,0.591 4.377,0.92 6.522,0.92 1.367,0 2.69,-0.17 3.986,-0.421 -1.894,-3.745 -3.681,-7.014 -5.079,-9.505 z m -7.482,12.412 3.533,0 c -0.783,-0.655 -1.573,-1.305 -2.347,-1.97 l -1.186,1.97 z m 4.716,-17.199 c -1.389,-1.564 -2.869,-3.061 -4.385,-4.527 l -18.681,0 -8.025,21.726 24.661,0 8.366,-13.88 c -1.177,-2.06 -1.936,-3.319 -1.936,-3.319 z m -18.895,-15.818 -3.627,9.819 16.591,0 c -3.952,-3.627 -8.294,-6.913 -12.964,-9.819 z m -30.98,-12.225 -3.193,22.044 28.95,0 3.908,-10.579 c -8.88,-5.32 -18.888,-9.256 -29.665,-11.465 z m -20.106,-2.075 c -7.189,0 -14.169,0.775 -20.865,2.199 l 2.509,21.92 33.761,0 3.24,-22.354 c -6.018,-1.137 -12.246,-1.765 -18.645,-1.765 z m -52.331,15.072 3.093,9.047 29.378,0 -2.476,-21.616 c -10.966,2.509 -21.099,6.832 -29.995,12.569 z m -11.725,9.047 13.239,0 -2.807,-8.206 c -3.721,2.489 -7.201,5.24 -10.432,8.206 z m -11.806,13.47 5.812,9.728 27.165,0 -7.43,-21.726 -15.327,0 c -3.821,3.693 -7.245,7.711 -10.22,11.998 z m -5.725,9.728 9.795,0 -4.988,-8.349 c -1.783,2.686 -3.39,5.471 -4.807,8.349 z m -6.927,23.427 30.723,0 -13.12,-21.954 -11.382,0 c -3.203,6.885 -5.347,14.252 -6.221,21.954 z m -0.453,7.969 c 0,4.925 0.537,9.739 1.517,14.415 l 17.625,0 -18.942,-19.433 c -0.119,1.66 -0.2,3.33 -0.2,5.018 z m 9.246,34.931 29.89,0 -18.368,-18.847 -18.901,0 c 1.557,6.629 4.067,12.944 7.379,18.847 z m 15.284,19.29 14.272,0 -27.941,-16.526 c 3.733,6.038 8.347,11.582 13.669,16.526 z m 54.847,23.998 -38.003,-22.478 -15.193,0 c 13.964,12.301 32.522,20.519 53.196,22.478 z m -19.956,-22.478 -15.122,0 35.7,21.114 -20.578,-21.114 z m 9.827,0 -7.739,0 20.003,20.522 -12.264,-20.522 z m 6.633,0 -4.889,0 11.423,19.113 -6.534,-19.113 z m 5.862,0 -4.285,0 6.445,18.849 -2.16,-18.849 z m 6.64,0 -5.138,0 2.266,19.805 2.872,-19.805 z m 36.446,0 -13.374,0 -21.127,21.649 34.501,-21.649 z m -10.917,20.633 c 13.458,-4.168 25.483,-11.321 35.24,-20.633 l -21.517,0 -36.477,22.888 c 7.876,-0.106 15.512,-0.768 22.754,-2.255 z m 48.301,-36.545 -9.221,0 -22.935,14.392 20.637,0 c 4.362,-4.375 8.216,-9.204 11.519,-14.392 z m -39.295,-57.851 21.539,0 7.174,-11.901 -24.317,0 -4.396,11.901 z m -20.4,-13.374 23.747,0 8.022,-21.726 -28.619,0 -3.15,21.726 z m -29.25,0 27.742,0 3.15,-21.726 -33.38,0 2.488,21.726 z m -25.607,0 24.103,0 -2.488,-21.726 -29.041,0 7.426,21.726 z m -14.743,23.427 21.174,0 -7.508,-21.954 -26.786,0 13.12,21.954 z m 11.634,22.384 -12.477,-20.881 -31.201,0 20.353,20.881 23.325,0 z m -3.327,20.516 15.586,0 -11.263,-18.847 -22.694,0 18.371,18.847 z m -0.618,1.506 -28.951,0 30.071,17.784 16.214,0 -17.334,-17.784 z m 17.106,0 -15.021,0 17.334,17.784 8.313,0 -10.626,-17.784 z m 11.566,0 -9.824,0 10.629,17.784 5.276,0 -6.081,-17.784 z m 10.529,2.408 c -2.116,-0.574 -4.149,-1.37 -6.04,-2.408 l -2.909,0 6.081,17.784 4.632,0 -1.764,-15.376 z m 10.882,0.984 -3.715,0 c -1.923,0 -3.802,-0.202 -5.618,-0.581 l 1.713,14.973 5.532,0 2.088,-14.392 z m 3.397,15.912 -4.196,0 -2.71,18.701 6.906,-18.701 z m 5.915,0 -4.327,0 -6.845,18.538 11.172,-18.538 z m 1.714,0 -12.362,20.51 20.019,-20.51 -7.657,0 z m 23.19,-15.912 -13.6,0 -8.675,14.392 8.228,0 14.047,-14.392 z m 2.083,0 -14.047,14.392 14.309,0 22.938,-14.392 -23.2,0 z m -26.409,-57.851 20.746,0 4.395,-11.901 -23.415,0 -1.726,11.901 z m -1.449,42.442 c 3.109,1.976 7.62,2.925 13.617,2.925 l 0.886,0 0,-8.125 c -0.636,0.043 -1.286,0.043 -1.929,0.043 -7.676,0 -11.681,-3.362 -11.681,-9.199 0,-5.891 4.005,-9.268 11.681,-9.268 0.643,0 1.293,0 1.929,0.056 l 0,-8.126 -0.886,0 c -5.997,0 -10.508,0.949 -13.617,2.931 -5.104,3.265 -7.932,8.46 -7.932,14.407 0,5.934 2.828,11.085 7.932,14.356 z m -2.894,29.801 4.68,0 8.675,-14.392 -8.039,0 -5.316,14.392 z m 3.727,-14.392 -7.766,0 -2.086,14.392 4.537,0 5.315,-14.392 z m -24.854,-55.124 c 3.612,-1.731 7.62,-2.727 11.865,-2.727 l 12.097,0 1.726,-11.901 -27.361,0 1.673,14.628 z m -5.11,49.225 0.343,1.001 0.971,0 c -0.453,-0.312 -0.877,-0.662 -1.314,-1.001 z m -14.326,-41.899 10.012,0 c 2.247,-2.676 4.951,-4.936 8.004,-6.622 l -1.758,-15.332 -23.765,0 7.507,21.954 z m 3.394,22.384 c -0.138,-1.153 -0.228,-2.321 -0.228,-3.512 0,-1.387 0.128,-2.74 0.312,-4.076 l -4.545,-13.293 -20.79,0 12.477,20.881 12.774,0 z m 5.45,-20.881 -8.331,0 3.53,10.321 c 0.927,-3.796 2.576,-7.286 4.801,-10.321 z m -5.203,22.55 -12.022,0 11.263,18.847 10.208,0 -1.008,-2.946 c -4.309,-4.154 -7.343,-9.675 -8.441,-15.901 z m 57.747,1.35 0,9.911 8.516,0 0,-10.844 c 0,-2.879 1.277,-4.414 3.509,-4.414 2.234,0 3.464,1.535 3.464,4.414 l 0,10.844 8.572,0 0,-9.911 c 0,-6.474 -2.578,-10.692 -7.779,-12.718 l 0,-11.99 -8.566,0 0,12.031 c -5.247,2.082 -7.716,6.243 -7.716,12.677 z m 46.64,-4.005 0,-8.069 -9.611,0 0,-12.634 -8.609,0 0,23.035 c 0,7.872 3.917,11.584 12.087,11.584 l 6.133,0 0,-8.082 -5.99,0 c -2.372,0 -3.621,-1.183 -3.621,-3.558 l 0,-2.276 9.611,0 z m 157.241,26.4 -156.931,0 c -3.49,5.613 -7.617,10.82 -12.313,15.514 l 0,0.398 -0.381,0 c -6.274,6.195 -14.621,11.524 -15.62,12.173 -16.357,10.333 -36.086,15.29 -57.719,15.29 -55.191,0 -99.94,-39.576 -99.94,-88.412 0,-48.832 44.749,-88.427 99.94,-88.427 3.496,0 7.073,0.391 10.539,0.701 3.458,0.32 6.898,0.752 10.288,1.378 3.353,0.628 6.65,1.456 9.887,2.46 3.196,0.99 6.337,2.173 9.415,3.488 3.044,1.299 6.031,2.75 8.962,4.289 2.878,1.511 5.712,3.125 8.466,4.873 2.703,1.701 5.331,3.514 7.848,5.484 2.497,1.942 4.869,4.033 7.11,6.283 2.27,2.264 4.371,4.677 6.363,7.178 1.836,2.303 3.696,4.608 5.344,7.035 1.373,2.026 2.466,4.202 3.536,6.397 1.574,2.779 2.972,5.656 4.224,8.607 3.031,-1.781 5.663,-4.39 7.795,-7.758 l 1.427,0.53 c -1.177,8.252 -2.928,16.439 -3.368,24.668 l 145.128,0 c 15.527,0 28.129,12.955 28.129,28.925 0,15.971 -12.602,28.926 -28.129,28.926"
       style="fill:#353535;fill-opacity:1;fill-rule:nonzero;stroke:none"
       id="path12"
       inkscape:connector-curvature="0" /></g></svg>