<?xml version="1.0" encoding="utf-8"?>
<!-- Generator: Adobe Illustrator 19.2.1, SVG Export Plug-In . SVG Version: 6.00 Build 0)  -->
<!DOCTYPE svg PUBLIC "-//W3C//DTD SVG 1.1//EN" "http://www.w3.org/Graphics/SVG/1.1/DTD/svg11.dtd">
<svg version="1.1" id="Warstwa_1" xmlns="http://www.w3.org/2000/svg" xmlns:xlink="http://www.w3.org/1999/xlink" x="0px" y="0px"
	 width="55.7px" height="47.7px" viewBox="0 0 55.7 47.7" style="enable-background:new 0 0 55.7 47.7;" xml:space="preserve">
<style type="text/css">
	.st0{fill-rule:evenodd;clip-rule:evenodd;fill:#231F20;}
	.st1{fill:#231F20;}
</style>
<g>
	<g>
		<rect x="30.4" y="25.9" class="st0" width="1.5" height="11.8"/>
	</g>
	<g>
		<path class="st0" d="M28.7,17.6h-1.9v-4.3h1.9c1.3,0,1.9,0.6,1.9,2.2C30.6,17,30,17.6,28.7,17.6 M28.7,11.9h-3.4v11.8h1.5v-4.7
			h1.9c2.3,0,3.4-1,3.4-3.5S31,11.9,28.7,11.9L28.7,11.9z"/>
	</g>
	<g>
		<path class="st0" d="M24.3,31.8h-1.9v-4.5h1.9c1.3,0,1.9,0.6,1.9,2.1C26.2,31,25.6,31.8,24.3,31.8 M25.9,32.9
			c1.2-0.4,1.9-1.5,1.9-3.5c0-2.5-1.1-3.5-3.4-3.5h-3.4v11.8h1.5v-4.5h1.8l2.6,4.5h1.7L25.9,32.9L25.9,32.9z"/>
	</g>
	<g>
		<path class="st0" d="M18.3,37.7v-7h-3V32h1.5v4.3h-2.3c-1.5,0-2.3-0.7-2.3-2v-5c0-1.4,0.7-2,2.3-2h3.8v-1.4h-3.8
			c-2.5,0-3.8,1.1-3.8,3.4v5c0,2.3,1.3,3.4,3.8,3.4H18.3L18.3,37.7z"/>
	</g>
	<g>
		<polygon class="st0" points="34.5,11.9 34.5,23.7 41.3,23.7 41.3,22.3 36,22.3 36,11.9 		"/>
	</g>
	<g>
		<path class="st0" d="M40.5,34.3c0,1.4-0.8,2-2.3,2H36v-9h2.3c1.5,0,2.3,0.7,2.3,2V34.3L40.5,34.3z M38.2,25.9h-3.8v11.8h3.8
			c2.5,0,3.8-1.1,3.8-3.4v-5C42,27,40.7,25.9,38.2,25.9L38.2,25.9z"/>
	</g>
	<g>
		<polygon class="st0" points="8.2,21.4 0,20.4 0.1,23.7 5.8,23.7 		"/>
	</g>
	<g>
		<polygon class="st0" points="27.6,9.3 35.5,9.3 38,6.8 25.4,7.1 		"/>
	</g>
	<g>
		<polygon class="st0" points="22.7,20.9 22.7,4.1 21.4,0 17.7,1.2 20.3,23.3 		"/>
	</g>
	<g>
		<polygon class="st0" points="25.1,6.5 38.2,6.1 38.2,3.3 25.1,4.5 		"/>
	</g>
	<g>
		<polygon class="st0" points="46.8,17.5 40.7,18.3 43.1,20.6 47.2,20.6 		"/>
	</g>
	<g>
		<polygon class="st0" points="47.6,25.2 47.3,21.8 44.3,24.7 		"/>
	</g>
	<g>
		<polygon class="st0" points="45.3,2.6 40.5,3.1 40.5,17.6 46.8,16.8 		"/>
	</g>
	<g>
		<polygon class="st0" points="47.7,25.9 44.2,25.4 44.2,39 48.5,32 		"/>
	</g>
	<g>
		<polygon class="st0" points="19.6,23.6 17,1.4 10.6,3.5 10.6,21 13.2,23.6 		"/>
	</g>
	<g>
		<polygon class="st0" points="30.3,40 12.5,39.9 18.2,43.6 32.6,42.4 		"/>
	</g>
	<g>
		<polygon class="st0" points="22.4,46.3 32.8,47.7 32.8,43 19.2,44.2 		"/>
	</g>
	<g>
		<polygon class="st0" points="0.2,25.9 0.3,29.5 8.5,28.6 8.5,28.5 5.8,25.9 		"/>
	</g>
	<g>
		<polygon class="st0" points="0.4,32.2 8.4,37.3 8.5,29.2 0.4,30.2 		"/>
	</g>
	<g>
		<polygon class="st0" points="8.5,4.2 -0.4,7.1 0,19.7 8.5,20.7 		"/>
	</g>
	<g>
		<path class="st0" d="M48,44.2h-1.1v-2.5H48c0.7,0,1.1,0.3,1.1,1.2C49,43.7,48.7,44.2,48,44.2 M48.9,44.8c0.7-0.2,1-0.9,1-1.9
			c0-1.4-0.6-2-1.9-2h-1.9v6.6h0.8v-2.5h1l1.5,2.5h1L48.9,44.8L48.9,44.8z"/>
		<path class="st1" d="M50.9,47.7h-1.6l-1.5-2.5h-0.6v2.5h-1.3v-7.1H48c1.5,0,2.2,0.7,2.2,2.2c0,1-0.3,1.7-0.9,2.1L50.9,47.7z
			 M49.6,47.2H50l-1.5-2.6l0.3-0.1c0.6-0.2,0.9-0.7,0.9-1.7c0-1.2-0.5-1.7-1.7-1.7h-1.7v6.1h0.3v-2.5h1.4L49.6,47.2z M48,44.4h-1.3
			v-3H48c0.9,0,1.3,0.5,1.3,1.5C49.3,44.2,48.5,44.4,48,44.4z M47.2,43.9H48c0.4,0,0.8-0.1,0.8-1.1c0-0.8-0.3-1-0.8-1h-0.8V43.9z"/>
	</g>
	<g>
		<path class="st0" d="M39,47.5c0-0.2,0-0.3,0-0.8c-0.2,0-0.5,0-0.8,0h-1.3c-0.4,0-0.7-0.1-0.9-0.3c-0.2-0.2-0.3-0.5-0.3-0.9v-2.8
			c0-0.8,0.4-1.1,1.3-1.1H39v-0.8h-2.1c-1.4,0-2.1,0.6-2.1,1.9c0,0,0,0.7,0,1.4c0,0.7,0,1.4,0,1.4c0,1.3,0.7,1.9,2.1,1.9H39L39,47.5
			z"/>
		<path class="st1" d="M39.3,47.7h-2.4c-2,0-2.4-1.2-2.4-2.2v-2.8c0-1,0.4-2.2,2.4-2.2h2.4v1.3h-2.4c-0.9,0-1,0.5-1,0.9v2.8
			c0,0.3,0.1,0.5,0.2,0.7c0.2,0.2,0.4,0.2,0.8,0.2h1.3c0.4,0,0.6,0,0.8,0l0.3,0V47.7z M36.9,41.1c-1.3,0-1.9,0.5-1.9,1.7v2.8
			c0,1.1,0.6,1.7,1.9,1.7h1.9V47c-0.2,0-0.4,0-0.6,0h-1.3c-0.5,0-0.9-0.1-1.1-0.4c-0.3-0.2-0.4-0.6-0.4-1v-2.8
			c0-0.9,0.5-1.4,1.5-1.4h1.9v-0.3H36.9z"/>
	</g>
	<g>
		<path class="st0" d="M43.4,46.4c0.2-0.2,0.3-0.5,0.3-0.9v-2.8c0-0.8-0.4-1.1-1.3-1.2l0,0c-0.8,0-1.3,0.4-1.3,1.2v2.8
			c0,0.4,0.1,0.7,0.3,0.9c0.2,0.2,0.5,0.3,0.9,0.3l0,0C42.9,46.7,43.2,46.6,43.4,46.4L43.4,46.4z M42.5,40.9L42.5,40.9
			c1.4-0.1,2.1,0.6,2.1,1.8c0,0,0,0.7,0,1.4c0,0.7,0,1.4,0,1.4c0,1.1-0.5,1.8-1.7,1.9c-0.1,0-0.1,0-0.2,0s-0.2,0-0.2,0l0,0h-0.2
			c-0.1,0-0.1,0-0.2,0c-1.1-0.1-1.7-0.8-1.7-1.9c0,0,0-0.7,0-1.4c0-0.7,0-1.4,0-1.4C40.4,41.5,41.1,40.9,42.5,40.9L42.5,40.9z"/>
		<path class="st1" d="M42.7,47.7h-0.7c-1.3-0.1-1.9-0.9-1.9-2.1v-2.8c0-0.9,0.4-2,2.1-2.2v0l0.2,0l0.2,0v0c1.7,0.1,2.1,1.2,2.1,2.2
			v2.8c0,1.3-0.7,2-1.9,2.1L42.7,47.7z M42.5,41.1c-1.3,0-1.9,0.5-1.9,1.7v2.8c0,1,0.5,1.5,1.5,1.6l0.9,0c1-0.1,1.4-0.6,1.4-1.6
			v-2.8C44.4,41.6,43.8,41.1,42.5,41.1z M42.5,47c-0.5,0-0.8-0.1-1.1-0.3c-0.3-0.2-0.4-0.6-0.4-1v-2.8c0-0.9,0.6-1.4,1.5-1.4
			c1,0,1.5,0.5,1.5,1.4v2.8c0,0.5-0.1,0.8-0.4,1l0,0C43.3,46.8,43,47,42.5,47z M42.5,41.9c-0.9,0-1,0.5-1,0.9v2.8
			c0,0.2,0,0.5,0.2,0.7c0.2,0.1,0.4,0.2,0.8,0.2c0.3,0,0.6-0.1,0.8-0.2c0.2-0.1,0.2-0.4,0.2-0.7v-2.8C43.5,42.4,43.4,41.9,42.5,41.9
			z"/>
	</g>
	<g>
		<polygon class="st0" points="52.4,40.9 55.5,40.9 55.5,41.6 52.4,41.6 52.4,43.6 55.5,43.6 55.5,44.4 52.4,44.4 52.4,46.7 
			55.5,46.7 55.5,47.5 52.4,47.5 52.4,47.5 51.7,47.5 51.7,47.5 51.7,46.7 51.7,44.4 51.7,43.6 51.7,41.6 51.7,40.9 51.7,40.9 
			52.4,40.9 		"/>
		<path class="st1" d="M55.7,47.7h-4.3v-7.1h4.3v1.3h-3v1.5h3v1.3h-3v1.8h3V47.7z M51.9,47.2h3.3v-0.3h-3v-2.8h3v-0.3h-3v-2.5h3
			v-0.3h-3.3V47.2z"/>
	</g>
</g>
</svg>
