<?xml version="1.0" encoding="UTF-8" standalone="no"?>
<!-- Created with Inkscape (http://www.inkscape.org/) -->

<svg
   xmlns:dc="http://purl.org/dc/elements/1.1/"
   xmlns:cc="http://creativecommons.org/ns#"
   xmlns:rdf="http://www.w3.org/1999/02/22-rdf-syntax-ns#"
   xmlns:svg="http://www.w3.org/2000/svg"
   xmlns="http://www.w3.org/2000/svg"
   xmlns:sodipodi="http://sodipodi.sourceforge.net/DTD/sodipodi-0.dtd"
   xmlns:inkscape="http://www.inkscape.org/namespaces/inkscape"
   id="svg2"
   version="1.1"
   inkscape:version="0.91 r13725"
   xml:space="preserve"
   width="402.14737"
   height="106.29875"
   viewBox="0 0 402.14737 106.29875"
   sodipodi:docname="ie.ai.svg"><metadata
     id="metadata8"><rdf:RDF><cc:Work
         rdf:about=""><dc:format>image/svg+xml</dc:format><dc:type
           rdf:resource="http://purl.org/dc/dcmitype/StillImage" /><dc:title></dc:title></cc:Work></rdf:RDF></metadata><defs
     id="defs6"><clipPath
       clipPathUnits="userSpaceOnUse"
       id="clipPath18"><path
         d="m 0,595.276 841.89,0 L 841.89,0 0,0 0,595.276 Z"
         id="path20"
         inkscape:connector-curvature="0" /></clipPath><linearGradient
       x1="0"
       y1="0"
       x2="1"
       y2="0"
       gradientUnits="userSpaceOnUse"
       gradientTransform="matrix(20.972198,44.975021,44.975021,-20.972198,315.25635,281.28906)"
       spreadMethod="pad"
       id="linearGradient188"><stop
         style="stop-opacity:1;stop-color:#9c9d9f"
         offset="0"
         id="stop190" /><stop
         style="stop-opacity:1;stop-color:#4b4b4d"
         offset="1"
         id="stop192" /></linearGradient><linearGradient
       x1="0"
       y1="0"
       x2="1"
       y2="0"
       gradientUnits="userSpaceOnUse"
       gradientTransform="matrix(3.8183136,10.385361,10.385361,-3.8183136,328.80811,289.78711)"
       spreadMethod="pad"
       id="linearGradient208"><stop
         style="stop-opacity:1;stop-color:#af0917"
         offset="0"
         id="stop210" /><stop
         style="stop-opacity:1;stop-color:#e2001a"
         offset="0.25"
         id="stop212" /><stop
         style="stop-opacity:1;stop-color:#e2001a"
         offset="1"
         id="stop214" /></linearGradient><linearGradient
       x1="0"
       y1="0"
       x2="1"
       y2="0"
       gradientUnits="userSpaceOnUse"
       gradientTransform="matrix(2.8576355,10.664856,10.664856,-2.8576355,328.76123,289.34863)"
       spreadMethod="pad"
       id="linearGradient230"><stop
         style="stop-opacity:1;stop-color:#58585a"
         offset="0"
         id="stop232" /><stop
         style="stop-opacity:1;stop-color:#707173"
         offset="0.252808"
         id="stop234" /><stop
         style="stop-opacity:1;stop-color:#707173"
         offset="1"
         id="stop236" /></linearGradient><linearGradient
       x1="0"
       y1="0"
       x2="1"
       y2="0"
       gradientUnits="userSpaceOnUse"
       gradientTransform="matrix(-26.616241,-18.636902,-18.636902,26.616257,310.49072,290.76367)"
       spreadMethod="pad"
       id="linearGradient252"><stop
         style="stop-opacity:1;stop-color:#d9dadb"
         offset="0"
         id="stop254" /><stop
         style="stop-opacity:1;stop-color:#87888a"
         offset="1"
         id="stop256" /></linearGradient><linearGradient
       x1="0"
       y1="0"
       x2="1"
       y2="0"
       gradientUnits="userSpaceOnUse"
       gradientTransform="matrix(35.99794,30.205856,30.205856,-35.99794,298.12891,282.10156)"
       spreadMethod="pad"
       id="linearGradient272"><stop
         style="stop-opacity:1;stop-color:#d9dadb"
         offset="0"
         id="stop274" /><stop
         style="stop-opacity:1;stop-color:#87888a"
         offset="1"
         id="stop276" /></linearGradient><linearGradient
       x1="0"
       y1="0"
       x2="1"
       y2="0"
       gradientUnits="userSpaceOnUse"
       gradientTransform="matrix(24.282547,-1.601059,-1.601059,-24.282547,314.98242,267.94824)"
       spreadMethod="pad"
       id="linearGradient292"><stop
         style="stop-opacity:1;stop-color:#707173"
         offset="0"
         id="stop294" /><stop
         style="stop-opacity:1;stop-color:#87888a"
         offset="0.252808"
         id="stop296" /><stop
         style="stop-opacity:1;stop-color:#9c9d9f"
         offset="1"
         id="stop298" /></linearGradient><linearGradient
       x1="0"
       y1="0"
       x2="1"
       y2="0"
       gradientUnits="userSpaceOnUse"
       gradientTransform="matrix(-11.446198,-13.641022,-13.641022,11.446198,325.79541,317.0874)"
       spreadMethod="pad"
       id="linearGradient314"><stop
         style="stop-opacity:1;stop-color:#ffffff"
         offset="0"
         id="stop316" /><stop
         style="stop-opacity:1;stop-color:#c6c7c9"
         offset="1"
         id="stop318" /></linearGradient><linearGradient
       x1="0"
       y1="0"
       x2="1"
       y2="0"
       gradientUnits="userSpaceOnUse"
       gradientTransform="matrix(21.75885,15.235703,15.235703,-21.75885,316.46631,311.64551)"
       spreadMethod="pad"
       id="linearGradient334"><stop
         style="stop-opacity:1;stop-color:#ffffff"
         offset="0"
         id="stop336" /><stop
         style="stop-opacity:1;stop-color:#c6c7c9"
         offset="1"
         id="stop338" /></linearGradient><linearGradient
       x1="0"
       y1="0"
       x2="1"
       y2="0"
       gradientUnits="userSpaceOnUse"
       gradientTransform="matrix(-8.7237701,-10.396591,-10.396591,8.7237701,333.17334,297.20068)"
       spreadMethod="pad"
       id="linearGradient354"><stop
         style="stop-opacity:1;stop-color:#58585a"
         offset="0"
         id="stop356" /><stop
         style="stop-opacity:1;stop-color:#707173"
         offset="0.252808"
         id="stop358" /><stop
         style="stop-opacity:1;stop-color:#707173"
         offset="1"
         id="stop360" /></linearGradient><linearGradient
       x1="0"
       y1="0"
       x2="1"
       y2="0"
       gradientUnits="userSpaceOnUse"
       gradientTransform="matrix(-6.354187,17.457977,17.457977,6.354187,337.81787,300.56641)"
       spreadMethod="pad"
       id="linearGradient376"><stop
         style="stop-opacity:1;stop-color:#58585a"
         offset="0"
         id="stop378" /><stop
         style="stop-opacity:1;stop-color:#707173"
         offset="0.350006"
         id="stop380" /><stop
         style="stop-opacity:1;stop-color:#707173"
         offset="1"
         id="stop382" /></linearGradient><clipPath
       clipPathUnits="userSpaceOnUse"
       id="clipPath390"><path
         d="m 0,595.276 841.89,0 L 841.89,0 0,0 0,595.276 Z"
         id="path392"
         inkscape:connector-curvature="0" /></clipPath></defs><sodipodi:namedview
     pagecolor="#ffffff"
     bordercolor="#666666"
     borderopacity="1"
     objecttolerance="10"
     gridtolerance="10"
     guidetolerance="10"
     inkscape:pageopacity="0"
     inkscape:pageshadow="2"
     inkscape:window-width="1179"
     inkscape:window-height="629"
     id="namedview4"
     showgrid="false"
     fit-margin-top="0"
     fit-margin-left="0"
     fit-margin-right="0"
     fit-margin-bottom="0"
     inkscape:zoom="0.75917001"
     inkscape:cx="201.07251"
     inkscape:cy="53.149373"
     inkscape:window-x="0"
     inkscape:window-y="0"
     inkscape:window-maximized="0"
     inkscape:current-layer="g10" /><g
     id="g10"
     inkscape:groupmode="layer"
     inkscape:label="INNOVATIVE_ECONOMY_GRAY"
     transform="matrix(1.25,0,0,-1.25,-359.8375,423.7175)"><path
       d="m 363.571,306.491 2.598,0 0,-16.093 -2.598,0 0,16.093 z"
       style="fill:#1a171b;fill-opacity:1;fill-rule:nonzero;stroke:none"
       id="path12"
       inkscape:connector-curvature="0" /><g
       id="g14"><g
         id="g16"
         clip-path="url(#clipPath18)"><g
           id="g22"
           transform="translate(380.397,290.3984)"><path
             d="m 0,0 -5.507,9.155 c -0.715,1.169 -1.287,2.313 -1.788,3.386 0.096,-1.574 0.143,-4.84 0.143,-7.129 l 0,-5.412 -2.527,0 0,16.093 3.409,0 5.317,-8.774 C -0.238,6.127 0.405,4.84 1.002,3.672 0.906,5.508 0.834,8.964 0.834,11.325 l 0,4.768 2.528,0 L 3.362,0 0,0 Z"
             style="fill:#1a171b;fill-opacity:1;fill-rule:nonzero;stroke:none"
             id="path24"
             inkscape:connector-curvature="0" /></g><g
           id="g26"
           transform="translate(397.9878,290.3984)"><path
             d="m 0,0 -5.506,9.155 c -0.715,1.169 -1.288,2.313 -1.789,3.386 0.096,-1.574 0.143,-4.84 0.143,-7.129 l 0,-5.412 -2.526,0 0,16.093 3.408,0 5.317,-8.774 C -0.238,6.127 0.406,4.84 1.002,3.672 0.906,5.508 0.834,8.964 0.834,11.325 l 0,4.768 2.528,0 L 3.362,0 0,0 Z"
             style="fill:#1a171b;fill-opacity:1;fill-rule:nonzero;stroke:none"
             id="path28"
             inkscape:connector-curvature="0" /></g><g
           id="g30"
           transform="translate(411.9839,304.4409)"><path
             d="m 0,0 c -2.48,0 -4.721,-2.003 -4.721,-5.865 0,-3.646 1.503,-6.103 4.673,-6.103 2.384,0 4.768,1.908 4.768,5.912 C 4.72,-2.17 3.003,0 0,0 m -0.238,-14.281 c -4.888,0 -7.248,3.171 -7.248,8.106 0,5.341 3.48,8.464 7.724,8.464 4.339,0 7.248,-2.694 7.248,-8.082 0,-5.34 -3.457,-8.488 -7.724,-8.488"
             style="fill:#1a171b;fill-opacity:1;fill-rule:nonzero;stroke:none"
             id="path32"
             inkscape:connector-curvature="0" /></g><g
           id="g34"
           transform="translate(428.8867,290.3984)"><path
             d="m 0,0 -2.957,0 -5.722,16.093 2.862,0 3.384,-9.918 c 0.311,-0.929 0.716,-2.074 1.026,-3.266 l 0.024,0 c 0.286,1.12 0.572,2.121 1.049,3.433 l 3.457,9.751 2.67,0 L 0,0 Z"
             style="fill:#1a171b;fill-opacity:1;fill-rule:nonzero;stroke:none"
             id="path36"
             inkscape:connector-curvature="0" /></g><g
           id="g38"
           transform="translate(441.876,301.0796)"><path
             d="m 0,0 c -0.31,0.834 -0.524,1.597 -0.715,2.479 l -0.048,0 C -0.93,1.668 -1.192,0.787 -1.501,-0.072 l -1.813,-4.982 5.15,0 L 0,0 Z m 3.767,-10.681 -1.24,3.553 -6.508,0 -1.24,-3.553 -2.623,0 5.77,16.093 2.885,0 5.84,-16.093 -2.884,0 z"
             style="fill:#1a171b;fill-opacity:1;fill-rule:nonzero;stroke:none"
             id="path40"
             inkscape:connector-curvature="0" /></g><g
           id="g42"
           transform="translate(454.6738,304.2979)"><path
             d="m 0,0 0,-13.899 -2.6,0 0,13.899 -4.409,0 0,2.193 11.444,0 L 4.435,0 0,0 Z"
             style="fill:#1a171b;fill-opacity:1;fill-rule:nonzero;stroke:none"
             id="path44"
             inkscape:connector-curvature="0" /></g><path
           d="m 461.493,306.491 2.598,0 0,-16.093 -2.598,0 0,16.093 z"
           style="fill:#1a171b;fill-opacity:1;fill-rule:nonzero;stroke:none"
           id="path46"
           inkscape:connector-curvature="0" /><g
           id="g48"
           transform="translate(475.1777,290.3984)"><path
             d="m 0,0 -2.956,0 -5.723,16.093 2.863,0 3.383,-9.918 c 0.311,-0.929 0.716,-2.074 1.026,-3.266 l 0.024,0 c 0.286,1.12 0.572,2.121 1.049,3.433 l 3.457,9.751 2.67,0 L 0,0 Z"
             style="fill:#1a171b;fill-opacity:1;fill-rule:nonzero;stroke:none"
             id="path50"
             inkscape:connector-curvature="0" /></g><g
           id="g52"
           transform="translate(483.3799,290.3984)"><path
             d="m 0,0 0,16.093 8.487,0 0,-2.17 -5.888,0 0,-4.577 5.602,0 0,-2.122 -5.602,0 0,-5.006 5.888,0 L 8.487,0 0,0 Z"
             style="fill:#1a171b;fill-opacity:1;fill-rule:nonzero;stroke:none"
             id="path54"
             inkscape:connector-curvature="0" /></g><g
           id="g56"
           transform="translate(501.166,290.3984)"><path
             d="m 0,0 0,16.093 8.486,0 0,-2.17 -5.888,0 0,-4.577 5.602,0 0,-2.122 -5.602,0 0,-5.006 5.888,0 L 8.486,0 0,0 Z"
             style="fill:#1a171b;fill-opacity:1;fill-rule:nonzero;stroke:none"
             id="path58"
             inkscape:connector-curvature="0" /></g><g
           id="g60"
           transform="translate(519.9287,290.208)"><path
             d="m 0,0 c -5.389,0 -7.366,3.481 -7.366,7.772 0,5.007 2.526,8.654 7.937,8.654 1.193,0 2.432,-0.19 3.553,-0.453 L 3.838,13.589 c -1.169,0.358 -2.313,0.548 -3.481,0.548 -3.361,0 -4.886,-2.574 -4.886,-5.936 0,-3.742 1.596,-5.864 5.1,-5.864 1.098,0 2.504,0.31 3.386,0.739 L 4.268,0.763 C 3.052,0.287 1.549,0 0,0"
             style="fill:#1a171b;fill-opacity:1;fill-rule:nonzero;stroke:none"
             id="path62"
             inkscape:connector-curvature="0" /></g><g
           id="g64"
           transform="translate(533.3955,304.4409)"><path
             d="m 0,0 c -2.479,0 -4.72,-2.003 -4.72,-5.865 0,-3.646 1.502,-6.103 4.672,-6.103 2.385,0 4.769,1.908 4.769,5.912 C 4.721,-2.17 3.004,0 0,0 m -0.237,-14.281 c -4.889,0 -7.248,3.171 -7.248,8.106 0,5.341 3.48,8.464 7.723,8.464 4.339,0 7.248,-2.694 7.248,-8.082 0,-5.34 -3.457,-8.488 -7.723,-8.488"
             style="fill:#1a171b;fill-opacity:1;fill-rule:nonzero;stroke:none"
             id="path66"
             inkscape:connector-curvature="0" /></g><g
           id="g68"
           transform="translate(553.6846,290.3984)"><path
             d="m 0,0 -5.507,9.155 c -0.715,1.169 -1.288,2.313 -1.788,3.386 0.096,-1.574 0.143,-4.84 0.143,-7.129 l 0,-5.412 -2.527,0 0,16.093 3.409,0 5.317,-8.774 C -0.238,6.127 0.405,4.84 1.002,3.672 0.905,5.508 0.834,8.964 0.834,11.325 l 0,4.768 2.528,0 L 3.362,0 0,0 Z"
             style="fill:#1a171b;fill-opacity:1;fill-rule:nonzero;stroke:none"
             id="path70"
             inkscape:connector-curvature="0" /></g><g
           id="g72"
           transform="translate(567.6797,304.4409)"><path
             d="m 0,0 c -2.479,0 -4.72,-2.003 -4.72,-5.865 0,-3.646 1.502,-6.103 4.672,-6.103 2.385,0 4.769,1.908 4.769,5.912 C 4.721,-2.17 3.004,0 0,0 m -0.237,-14.281 c -4.888,0 -7.248,3.171 -7.248,8.106 0,5.341 3.48,8.464 7.723,8.464 4.34,0 7.248,-2.694 7.248,-8.082 0,-5.34 -3.457,-8.488 -7.723,-8.488"
             style="fill:#1a171b;fill-opacity:1;fill-rule:nonzero;stroke:none"
             id="path74"
             inkscape:connector-curvature="0" /></g><g
           id="g76"
           transform="translate(593.6182,290.3984)"><path
             d="m 0,0 -1.263,8.559 c -0.262,1.716 -0.383,2.885 -0.502,3.934 l -0.047,0 C -2.003,11.587 -2.265,10.538 -2.646,9.346 L -5.674,0 -8.368,0 -11.252,8.678 c -0.429,1.264 -0.835,2.647 -1.025,3.815 l -0.048,0 c -0.096,-1.383 -0.238,-2.646 -0.43,-4.172 L -13.78,0 l -2.646,0 2.408,16.093 3.099,0 3.1,-9.298 c 0.381,-1.168 0.691,-2.24 0.881,-3.291 l 0.048,0 c 0.239,1.193 0.477,2.004 0.882,3.196 l 3.171,9.393 3.123,0 L 2.741,0 0,0 Z"
             style="fill:#1a171b;fill-opacity:1;fill-rule:nonzero;stroke:none"
             id="path78"
             inkscape:connector-curvature="0" /></g><g
           id="g80"
           transform="translate(604.4619,296.1445)"><path
             d="m 0,0 0,-5.746 -2.599,0 0,5.746 -5.03,10.347 2.837,0 2.384,-5.078 c 0.453,-0.954 0.81,-1.86 1.144,-2.718 l 0.048,0 c 0.358,0.953 0.859,1.978 1.335,3.004 l 2.265,4.792 2.742,0 L 0,0 Z"
             style="fill:#1a171b;fill-opacity:1;fill-rule:nonzero;stroke:none"
             id="path82"
             inkscape:connector-curvature="0" /></g><g
           id="g84"
           transform="translate(369.0229,275.1279)"><path
             d="m 0,0 -3.564,5.626 c -0.369,0.572 -0.68,1.098 -0.942,1.622 0.036,-0.954 0.084,-3.374 0.084,-4.876 l 0,-2.372 -0.764,0 0,8.046 1.038,0 3.516,-5.529 C -0.286,1.968 0.048,1.395 0.357,0.835 0.322,1.968 0.274,4.34 0.274,5.9 l 0,2.146 0.763,0 L 1.037,0 0,0 Z"
             style="fill:#1a171b;fill-opacity:1;fill-rule:nonzero;stroke:none"
             id="path86"
             inkscape:connector-curvature="0" /></g><g
           id="g88"
           transform="translate(375.7588,281.207)"><path
             d="m 0,0 c -0.143,0.394 -0.251,0.752 -0.357,1.157 l -0.012,0 C -0.477,0.775 -0.597,0.405 -0.74,0.024 l -1.263,-3.432 3.266,0 L 0,0 Z m 2.217,-6.079 -0.726,2.05 -3.708,0 -0.751,-2.05 -0.799,0 3.027,8.046 0.823,0 3.017,-8.046 -0.883,0 z"
             style="fill:#1a171b;fill-opacity:1;fill-rule:nonzero;stroke:none"
             id="path90"
             inkscape:connector-curvature="0" /></g><g
           id="g92"
           transform="translate(382.8872,282.543)"><path
             d="m 0,0 0,-7.415 -0.763,0 0,7.415 -2.491,0 0,0.631 5.745,0 L 2.491,0 0,0 Z"
             style="fill:#1a171b;fill-opacity:1;fill-rule:nonzero;stroke:none"
             id="path94"
             inkscape:connector-curvature="0" /></g><path
           d="m 387.108,283.174 0.762,0 0,-8.046 -0.762,0 0,8.046 z"
           style="fill:#1a171b;fill-opacity:1;fill-rule:nonzero;stroke:none"
           id="path96"
           inkscape:connector-curvature="0" /><g
           id="g98"
           transform="translate(393.8198,282.626)"><path
             d="m 0,0 c -1.502,0 -2.814,-1.228 -2.814,-3.397 0,-2.086 0.918,-3.541 2.801,-3.541 1.491,0 2.826,1.215 2.826,3.41 C 2.813,-1.288 1.764,0 0,0 m -0.108,-7.593 c -2.384,0 -3.529,1.621 -3.529,4.041 0,2.705 1.694,4.196 3.732,4.196 2.205,0 3.54,-1.479 3.54,-4.041 0,-2.694 -1.692,-4.196 -3.743,-4.196"
             style="fill:#1a171b;fill-opacity:1;fill-rule:nonzero;stroke:none"
             id="path100"
             inkscape:connector-curvature="0" /></g><g
           id="g102"
           transform="translate(404.834,275.1279)"><path
             d="m 0,0 -3.563,5.626 c -0.37,0.572 -0.68,1.098 -0.943,1.622 0.037,-0.954 0.084,-3.374 0.084,-4.876 l 0,-2.372 -0.762,0 0,8.046 1.036,0 3.517,-5.529 C -0.286,1.968 0.048,1.395 0.357,0.835 0.322,1.968 0.274,4.34 0.274,5.9 l 0,2.146 0.763,0 L 1.037,0 0,0 Z"
             style="fill:#1a171b;fill-opacity:1;fill-rule:nonzero;stroke:none"
             id="path104"
             inkscape:connector-curvature="0" /></g><g
           id="g106"
           transform="translate(411.5698,281.207)"><path
             d="m 0,0 c -0.143,0.394 -0.25,0.752 -0.357,1.157 l -0.012,0 C -0.477,0.775 -0.596,0.405 -0.739,0.024 l -1.263,-3.432 3.266,0 L 0,0 Z m 2.217,-6.079 -0.726,2.05 -3.708,0 -0.751,-2.05 -0.798,0 3.027,8.046 0.822,0 3.017,-8.046 -0.883,0 z"
             style="fill:#1a171b;fill-opacity:1;fill-rule:nonzero;stroke:none"
             id="path108"
             inkscape:connector-curvature="0" /></g><g
           id="g110"
           transform="translate(416.6021,275.1279)"><path
             d="m 0,0 0,8.046 0.762,0 0,-7.414 3.076,0 L 3.838,0 0,0 Z"
             style="fill:#1a171b;fill-opacity:1;fill-rule:nonzero;stroke:none"
             id="path112"
             inkscape:connector-curvature="0" /></g><g
           id="g114"
           transform="translate(428.0566,275.0332)"><path
             d="m 0,0 c -2.408,0 -3.6,1.489 -3.6,3.944 0,2.397 1.121,4.269 3.874,4.269 0.632,0 1.288,-0.097 1.896,-0.251 L 2.086,7.247 C 1.395,7.475 0.764,7.569 0.107,7.569 c -2.061,0 -2.884,-1.609 -2.884,-3.493 0,-2.156 0.954,-3.409 3.004,-3.409 0.656,0 1.454,0.202 1.966,0.465 L 2.277,0.452 C 1.646,0.178 0.87,0 0,0"
             style="fill:#1a171b;fill-opacity:1;fill-rule:nonzero;stroke:none"
             id="path116"
             inkscape:connector-curvature="0" /></g><g
           id="g118"
           transform="translate(435.377,282.626)"><path
             d="m 0,0 c -1.503,0 -2.814,-1.228 -2.814,-3.397 0,-2.086 0.918,-3.541 2.8,-3.541 1.492,0 2.827,1.215 2.827,3.41 C 2.813,-1.288 1.764,0 0,0 m -0.108,-7.593 c -2.384,0 -3.529,1.621 -3.529,4.041 0,2.705 1.694,4.196 3.732,4.196 2.205,0 3.54,-1.479 3.54,-4.041 0,-2.694 -1.693,-4.196 -3.743,-4.196"
             style="fill:#1a171b;fill-opacity:1;fill-rule:nonzero;stroke:none"
             id="path120"
             inkscape:connector-curvature="0" /></g><g
           id="g122"
           transform="translate(446.4512,275.1279)"><path
             d="m 0,0 0,3.861 -4.603,0 0,-3.861 -0.761,0 0,8.046 0.761,0 0,-3.552 4.603,0 0,3.552 0.763,0 L 0.763,0 0,0 Z"
             style="fill:#1a171b;fill-opacity:1;fill-rule:nonzero;stroke:none"
             id="path124"
             inkscape:connector-curvature="0" /></g><g
           id="g126"
           transform="translate(449.8574,275.1279)"><path
             d="m 0,0 0,8.046 3.971,0 0,-0.619 -3.207,0 0,-2.968 3.051,0 0,-0.609 -3.051,0 0,-3.218 3.207,0 L 3.971,0 0,0 Z"
             style="fill:#1a171b;fill-opacity:1;fill-rule:nonzero;stroke:none"
             id="path128"
             inkscape:connector-curvature="0" /></g><g
           id="g130"
           transform="translate(457.5469,275.0332)"><path
             d="m 0,0 c -0.607,0 -1.18,0.07 -1.62,0.201 l 0.047,0.765 c 0.476,-0.168 1.085,-0.299 1.645,-0.299 1.085,0 2.014,0.441 2.014,1.608 0,1.992 -3.815,1.277 -3.815,3.78 0,1.252 1.014,2.181 2.73,2.181 0.514,0 0.978,-0.058 1.442,-0.143 L 2.396,7.378 C 1.943,7.521 1.418,7.605 0.941,7.605 -0.285,7.605 -0.953,7.021 -0.953,6.139 -0.953,4.195 2.873,4.898 2.873,2.384 2.873,0.978 1.777,0 0,0"
             style="fill:#1a171b;fill-opacity:1;fill-rule:nonzero;stroke:none"
             id="path132"
             inkscape:connector-curvature="0" /></g><path
           d="m 462.638,283.174 0.765,0 0,-8.046 -0.765,0 0,8.046 z"
           style="fill:#1a171b;fill-opacity:1;fill-rule:nonzero;stroke:none"
           id="path134"
           inkscape:connector-curvature="0" /><g
           id="g136"
           transform="translate(469.1113,282.626)"><path
             d="m 0,0 c -1.502,0 -2.813,-1.228 -2.813,-3.397 0,-2.086 0.917,-3.541 2.801,-3.541 1.49,0 2.825,1.215 2.825,3.41 C 2.813,-1.288 1.764,0 0,0 m -0.107,-7.593 c -2.384,0 -3.53,1.621 -3.53,4.041 0,2.705 1.694,4.196 3.732,4.196 2.206,0 3.54,-1.479 3.54,-4.041 0,-2.694 -1.692,-4.196 -3.742,-4.196"
             style="fill:#1a171b;fill-opacity:1;fill-rule:nonzero;stroke:none"
             id="path138"
             inkscape:connector-curvature="0" /></g><g
           id="g140"
           transform="translate(480.126,275.1279)"><path
             d="m 0,0 -3.563,5.626 c -0.37,0.572 -0.68,1.098 -0.943,1.622 0.036,-0.954 0.084,-3.374 0.084,-4.876 l 0,-2.372 -0.764,0 0,8.046 1.038,0 3.516,-5.529 C -0.286,1.968 0.048,1.395 0.357,0.835 0.322,1.968 0.274,4.34 0.274,5.9 l 0,2.146 0.763,0 L 1.037,0 0,0 Z"
             style="fill:#1a171b;fill-opacity:1;fill-rule:nonzero;stroke:none"
             id="path142"
             inkscape:connector-curvature="0" /></g><g
           id="g144"
           transform="translate(488.042,275.0332)"><path
             d="m 0,0 c -0.608,0 -1.181,0.07 -1.621,0.201 l 0.047,0.765 c 0.477,-0.168 1.085,-0.299 1.645,-0.299 1.085,0 2.015,0.441 2.015,1.608 0,1.992 -3.815,1.277 -3.815,3.78 0,1.252 1.014,2.181 2.73,2.181 0.513,0 0.977,-0.058 1.442,-0.143 L 2.396,7.378 C 1.942,7.521 1.418,7.605 0.94,7.605 -0.286,7.605 -0.954,7.021 -0.954,6.139 -0.954,4.195 2.872,4.898 2.872,2.384 2.872,0.978 1.776,0 0,0"
             style="fill:#1a171b;fill-opacity:1;fill-rule:nonzero;stroke:none"
             id="path146"
             inkscape:connector-curvature="0" /></g><g
           id="g148"
           transform="translate(495.5879,282.543)"><path
             d="m 0,0 0,-7.415 -0.764,0 0,7.415 -2.491,0 0,0.631 5.746,0 L 2.491,0 0,0 Z"
             style="fill:#1a171b;fill-opacity:1;fill-rule:nonzero;stroke:none"
             id="path150"
             inkscape:connector-curvature="0" /></g><g
           id="g152"
           transform="translate(501.3926,282.6025)"><path
             d="m 0,0 c -0.309,0 -0.56,-0.013 -0.821,-0.036 l 0,-3.028 c 0.143,-0.012 0.392,-0.024 0.774,-0.024 1.312,0 2.062,0.656 2.062,1.585 C 2.015,-0.381 1.288,0 0,0 m 2.302,-7.475 -3.088,3.803 -0.035,0 0,-3.803 -0.764,0 0,8.046 c 0.489,0.026 0.954,0.037 1.8,0.037 1.454,0 2.599,-0.502 2.599,-1.979 0,-1.478 -1.204,-2.254 -2.742,-2.277 C 0.311,-3.911 0.585,-4.22 0.8,-4.482 l 2.514,-2.993 -1.012,0 z"
             style="fill:#1a171b;fill-opacity:1;fill-rule:nonzero;stroke:none"
             id="path154"
             inkscape:connector-curvature="0" /></g><g
           id="g156"
           transform="translate(509.4639,281.207)"><path
             d="m 0,0 c -0.144,0.394 -0.251,0.752 -0.357,1.157 l -0.012,0 C -0.478,0.775 -0.597,0.405 -0.739,0.024 l -1.264,-3.432 3.266,0 L 0,0 Z m 2.217,-6.079 -0.727,2.05 -3.708,0 -0.751,-2.05 -0.798,0 3.028,8.046 0.822,0 3.017,-8.046 -0.883,0 z"
             style="fill:#1a171b;fill-opacity:1;fill-rule:nonzero;stroke:none"
             id="path158"
             inkscape:connector-curvature="0" /></g><g
           id="g160"
           transform="translate(516.4141,282.543)"><path
             d="m 0,0 0,-7.415 -0.763,0 0,7.415 -2.491,0 0,0.631 5.745,0 L 2.491,0 0,0 Z"
             style="fill:#1a171b;fill-opacity:1;fill-rule:nonzero;stroke:none"
             id="path162"
             inkscape:connector-curvature="0" /></g><g
           id="g164"
           transform="translate(520.6338,275.1279)"><path
             d="m 0,0 0,8.046 3.971,0 0,-0.619 -3.206,0 0,-2.968 3.05,0 0,-0.609 -3.05,0 0,-3.218 3.206,0 L 3.971,0 0,0 Z"
             style="fill:#1a171b;fill-opacity:1;fill-rule:nonzero;stroke:none"
             id="path166"
             inkscape:connector-curvature="0" /></g><g
           id="g168"
           transform="translate(532.8779,282.209)"><path
             d="m 0,0 c -0.691,0.273 -1.442,0.43 -2.146,0.43 -1.728,0 -3.326,-1.121 -3.326,-3.505 0,-2.231 1.335,-3.457 3.266,-3.457 0.643,0 1.181,0.094 1.705,0.261 l 0,3.208 0.764,0 0,-3.672 c -0.812,-0.298 -1.778,-0.441 -2.588,-0.441 -2.361,0 -3.957,1.453 -3.957,3.969 0,2.432 1.596,4.268 4.231,4.268 0.739,0 1.443,-0.108 2.17,-0.333 L 0,0 Z"
             style="fill:#1a171b;fill-opacity:1;fill-rule:nonzero;stroke:none"
             id="path170"
             inkscape:connector-curvature="0" /></g><g
           id="g172"
           transform="translate(538.1348,278.0615)"><path
             d="m 0,0 0,-2.934 -0.763,0 0,2.934 -2.516,5.112 0.847,0 1.43,-2.991 c 0.239,-0.489 0.453,-0.977 0.645,-1.454 l 0.011,0 c 0.203,0.512 0.464,1.049 0.715,1.573 l 1.395,2.872 0.81,0 L 0,0 Z"
             style="fill:#1a171b;fill-opacity:1;fill-rule:nonzero;stroke:none"
             id="path174"
             inkscape:connector-curvature="0" /></g></g></g><g
       id="g176"><g
         id="g178"><g
           id="g184"><g
             id="g186"><path
               d="m 298.641,325.275 0,-64.139 40.986,-7.201 0,85.039 -40.986,-13.699 z"
               style="fill:url(#linearGradient188);stroke:none"
               id="path194"
               inkscape:connector-curvature="0" /></g></g></g></g><g
       id="g196"><g
         id="g198"><g
           id="g204"><g
             id="g206"><path
               d="m 327.711,298.57 c -2.188,-3.726 -9.197,-8.391 -9.197,-8.391 l 0,0 c 0,0 7.749,1.568 9.262,-0.94 l 0,0 c 1.601,-2.666 1.813,-11.99 1.813,-11.99 l 0,0 c 0,0 3.952,11.189 7.534,12.718 l 0,0 c 0.703,0.301 1.568,0.586 2.504,0.855 l 0,0 0,15.62 c -1.419,-0.912 -2.811,-1.646 -3.858,-1.859 l 0,0 c -3.296,-0.662 -6.82,3.263 -6.82,3.263 l 0,0 c 0,0 0.832,-5.737 -1.238,-9.276"
               style="fill:url(#linearGradient208);stroke:none"
               id="path216"
               inkscape:connector-curvature="0" /></g></g></g></g><g
       id="g218"><g
         id="g220"><g
           id="g226"><g
             id="g228"><path
               d="m 327.711,298.57 c -2.188,-3.726 -9.197,-8.391 -9.197,-8.391 l 0,0 c 0,0 7.749,1.568 9.262,-0.94 l 0,0 c 1.601,-2.666 1.813,-11.99 1.813,-11.99 l 0,0 c 0,0 3.952,11.189 7.534,12.718 l 0,0 c 0.703,0.301 1.568,0.586 2.504,0.855 l 0,0 0,15.62 c -1.419,-0.912 -2.811,-1.646 -3.858,-1.859 l 0,0 c -3.296,-0.662 -6.82,3.263 -6.82,3.263 l 0,0 c 0,0 0.832,-5.737 -1.238,-9.276"
               style="fill:url(#linearGradient230);stroke:none"
               id="path238"
               inkscape:connector-curvature="0" /></g></g></g></g><g
       id="g240"><g
         id="g242"><g
           id="g248"><g
             id="g250"><path
               d="m 304.519,293.88 c -3.354,-2.088 -10.545,1.793 -10.545,1.793 l 0,0 c 0,0 4.599,-6.684 2.922,-10.671 l 0,0 c -1.791,-4.259 -9.026,-12.143 -9.026,-12.143 l 0,0 c 0,0 8.579,5.7 10.653,4.449 l 0,0 c 2.163,-1.295 3.877,-8.682 3.877,-8.682 l 0,0 c 0,0 2.344,11.104 5.732,14.132 l 0,0 c 3.299,2.949 10.382,7.421 10.382,7.421 l 0,0 c 0,0 -6.264,0.142 -7.318,2.777 l 0,0 c -0.995,2.48 1.647,9.252 1.647,9.252 l 0,0 c 0,0 -5.016,-6.276 -8.324,-8.328"
               style="fill:url(#linearGradient252);stroke:none"
               id="path258"
               inkscape:connector-curvature="0" /></g></g></g></g><g
       id="g260"><g
         id="g262"><g
           id="g268"><g
             id="g270"><path
               d="m 304.519,293.88 c -3.354,-2.088 -10.545,1.793 -10.545,1.793 l 0,0 c 0,0 4.599,-6.684 2.922,-10.671 l 0,0 c -1.791,-4.259 -9.026,-12.143 -9.026,-12.143 l 0,0 c 0,0 1.596,1.06 3.576,2.166 l 0,0 c 2.264,2.681 5.342,6.585 6.425,9.163 l 0,0 c 1.679,3.988 -2.921,10.673 -2.921,10.673 l 0,0 c 0,0 7.194,-3.884 10.543,-1.796 l 0,0 c 1.969,1.225 4.52,3.922 6.285,5.925 l 0,0 c 0.507,1.786 1.065,3.218 1.065,3.218 l 0,0 c 0,0 -5.016,-6.276 -8.324,-8.328 m 13.006,-4.334 c 0.08,0.051 0.158,0.1 0.231,0.148 l 0,0 c 0.474,0.305 0.758,0.485 0.758,0.485 l 0,0 c 0,0 -3.672,0.085 -5.867,1.307 l 0,0 c 1.044,-1.178 3.232,-1.714 4.878,-1.94 m -17.662,-13.818 c 0.002,-0.002 0.003,-0.006 0.008,-0.01 l 0,0 c 0.052,-0.094 0.106,-0.194 0.159,-0.293 l 0,0 c 0.008,-0.014 0.014,-0.028 0.022,-0.04 l 0,0 c 0.047,-0.091 0.097,-0.185 0.144,-0.28 l 0,0 c 0.011,-0.018 0.019,-0.038 0.028,-0.056 l 0,0 c 0.047,-0.093 0.093,-0.19 0.138,-0.286 l 0,0 c 0.007,-0.02 0.017,-0.037 0.025,-0.056 l 0,0 c 0.05,-0.106 0.099,-0.218 0.147,-0.327 l 0,0 c 0.004,-0.008 0.008,-0.013 0.01,-0.021 l 0,0 c 0.051,-0.113 0.098,-0.225 0.145,-0.341 l 0,0 c 0.026,-0.06 0.051,-0.123 0.076,-0.183 l 0,0 c 0.022,-0.054 0.043,-0.105 0.064,-0.157 l 0,0 c 0.03,-0.075 0.059,-0.15 0.088,-0.226 l 0,0 c 0.014,-0.037 0.029,-0.074 0.045,-0.113 l 0,0 c 0.032,-0.084 0.061,-0.168 0.093,-0.25 l 0,0 c 0.011,-0.031 0.021,-0.057 0.031,-0.084 l 0,0 c 0.034,-0.093 0.067,-0.183 0.101,-0.277 l 0,0 c 0.005,-0.014 0.009,-0.027 0.012,-0.041 l 0,0 c 0.628,-1.756 1.051,-3.43 1.167,-3.915 l 0,0 c 0.002,-0.005 0.003,-0.01 0.003,-0.01 l 0,0 c 0.007,-0.026 0.012,-0.048 0.017,-0.07 l 0,0 c 10e-4,-0.008 0.002,-0.013 0.006,-0.021 l 0,0 c 0.002,-0.011 0.005,-0.019 0.005,-0.026 l 0,0 c 0.003,-0.011 0.003,-0.019 0.003,-0.019 l 0,0 c 0,0 0.022,0.099 0.06,0.265 l 0,0 c 0.002,0.016 0.007,0.033 0.011,0.052 l 0,0 c 0.007,0.036 0.015,0.073 0.026,0.116 l 0,0 c 0.058,0.259 0.144,0.619 0.252,1.061 l 0,0 c -0.692,2.291 -1.877,5.554 -3.251,6.377 l 0,0 c -0.052,0.027 -0.127,0.039 -0.18,0.063 l 0,0 c 0.187,-0.243 0.368,-0.524 0.545,-0.832"
               style="fill:url(#linearGradient272);stroke:none"
               id="path278"
               inkscape:connector-curvature="0" /></g></g></g></g><g
       id="g280"><g
         id="g282"><g
           id="g288"><g
             id="g290"><path
               d="m 323.68,270.221 c -0.228,-0.392 -3.348,-0.784 -3.348,-0.784 l 0,0 c 0,0 4.35,0.022 5.79,-0.278 l 0,0 c 1.465,-0.3 3.68,-1.23 3.68,-1.23 l 0,0 c 0,0 -0.611,1.077 0.725,1.184 l 0,0 c 1.289,0.103 4.304,0.115 4.304,0.115 l 0,0 c 0,0 -3.33,0.455 -4.351,0.848 l 0,0 c -0.985,0.377 -0.688,0.997 -0.688,0.997 l 0,0 c 0,0 -1.742,-0.372 -3.288,-0.363 l 0,0 c -1.592,0.014 -4.672,0.597 -4.672,0.597 l 0,0 c 0,0 2.064,-0.72 1.848,-1.086 m -14.558,-1.063 c -1.624,-0.396 -6.722,-0.532 -6.722,-0.532 l 0,0 c 0,0 5.474,-0.386 6.385,-0.88 l 0,0 c 0.945,-0.524 0.703,-1.9 0.703,-1.9 l 0,0 c 0,0 2.995,1.351 5.276,1.309 l 0,0 c 2.22,-0.037 6.707,-0.394 6.707,-0.394 l 0,0 c 0,0 -3.325,0.945 -3.473,1.504 l 0,0 c -0.145,0.521 2.334,1.172 2.334,1.172 l 0,0 c 0,0 -3.663,-0.221 -5.753,-0.046 l 0,0 c -2.114,0.174 -4.244,1.072 -4.244,1.072 l 0,0 c 0,0 0.305,-0.952 -1.213,-1.305 m 20.68,-1.229 c 0,0 -0.451,-1.001 -2.113,-1.238 l 0,0 c -1.752,-0.249 -6.218,0.07 -6.218,0.07 l 0,0 c 0,0 4.373,-0.901 4.79,-1.506 l 0,0 c 0.44,-0.639 -0.916,-2.091 -0.916,-2.091 l 0,0 c 0,0 3.87,1.128 6.015,0.837 l 0,0 c 2.151,-0.303 6.464,-1.256 6.464,-1.256 l 0,0 c 0,0 -2.694,1.474 -2.405,2.112 l 0,0 c 0.261,0.59 3.261,1.048 3.261,1.048 l 0,0 c 0,0 -3.849,0.133 -5.747,0.52 l 0,0 c -1.867,0.383 -3.131,1.504 -3.131,1.504 l 0,0 c 0,0 0,0 0,0"
               style="fill:url(#linearGradient292);stroke:none"
               id="path300"
               inkscape:connector-curvature="0" /></g></g></g></g><g
       id="g302"><g
         id="g304"><g
           id="g310"><g
             id="g312"><path
               d="m 319.937,317.454 c -2.344,-2.188 -7.717,-3.547 -7.717,-3.547 l 0,0 c 0,0 4.107,-0.798 4.343,-2.963 l 0,0 c 0.245,-2.299 -3.72,-8.736 -3.72,-8.736 l 0,0 c 0,0 6.307,6.297 8.864,6.799 l 0,0 c 2.591,0.508 7.242,-1.161 7.242,-1.161 l 0,0 c 0,0 -2.518,4.649 -0.73,7.094 l 0,0 c 1.725,2.347 6.11,6.646 6.11,6.646 l 0,0 c 0,0 -5.558,-2.326 -7.628,-1.776 l 0,0 c -2.008,0.526 -2.51,4.147 -2.51,4.147 l 0,0 c 0,0 -1.98,-4.381 -4.254,-6.503"
               style="fill:url(#linearGradient314);stroke:none"
               id="path320"
               inkscape:connector-curvature="0" /></g></g></g></g><g
       id="g322"><g
         id="g324"><g
           id="g330"><g
             id="g332"><path
               d="m 319.937,317.454 c -2.344,-2.188 -7.717,-3.547 -7.717,-3.547 l 0,0 c 0,0 0.878,-0.171 1.846,-0.568 l 0,0 c 1.619,0.482 5.088,1.659 6.85,3.301 l 0,0 c 1.598,1.496 3.034,4.079 3.756,5.497 l 0,0 c -0.36,0.949 -0.481,1.82 -0.481,1.82 l 0,0 c 0,0 -1.98,-4.381 -4.254,-6.503 m 6.764,2.356 c -0.098,0.026 -0.191,0.061 -0.282,0.099 l 0,0 c 0.33,-0.431 0.739,-0.777 1.256,-0.916 l 0,0 c 1.094,-0.292 3.145,0.221 4.846,0.769 l 0,0 c 1.02,1.052 1.808,1.824 1.808,1.824 l 0,0 c 0,0 -5.558,-2.326 -7.628,-1.776 m -10.138,-8.866 c 0.245,-2.299 -3.72,-8.736 -3.72,-8.736 l 0,0 c 0,0 1.306,1.302 2.967,2.768 l 0,0 c 0.945,1.878 1.849,4.02 1.725,5.152 l 0,0 c -0.083,0.799 -0.701,1.402 -1.433,1.86 l 0,0 c 0.247,-0.307 0.417,-0.653 0.461,-1.044"
               style="fill:url(#linearGradient334);stroke:none"
               id="path340"
               inkscape:connector-curvature="0" /></g></g></g></g><g
       id="g342"><g
         id="g344"><g
           id="g350"><g
             id="g352"><path
               d="m 327.711,298.57 c -2.188,-3.726 -9.197,-8.391 -9.197,-8.391 l 0,0 c 0,0 1.157,0.23 2.661,0.374 l 0,0 c 2.21,1.627 6.009,4.635 7.51,7.207 l 0,0 c 1.934,3.306 1.347,8.47 1.258,9.143 l 0,0 c -0.603,0.524 -0.994,0.943 -0.994,0.943 l 0,0 c 0,0 0.832,-5.737 -1.238,-9.276 m 8.058,6.013 c -1.887,-0.376 -3.828,0.739 -5.159,1.771 l 0,0 c 1.18,-1.087 3.716,-3.068 6.138,-2.582 l 0,0 c 0.772,0.157 1.796,0.693 2.879,1.377 l 0,0 0,1.293 c -1.419,-0.912 -2.811,-1.646 -3.858,-1.859 m -7.993,-15.344 c 1.601,-2.666 1.813,-11.99 1.813,-11.99 l 0,0 c 0,0 0.312,0.875 0.831,2.16 l 0,0 c -0.201,2.97 -0.654,7.327 -1.672,9.016 l 0,0 c -0.213,0.356 -0.563,0.623 -0.987,0.831 l 0,0 c 0.006,-0.01 0.012,-0.013 0.015,-0.017"
               style="fill:url(#linearGradient354);stroke:none"
               id="path362"
               inkscape:connector-curvature="0" /></g></g></g></g><g
       id="g364"><g
         id="g366"><g
           id="g372"><g
             id="g374"><path
               d="m 336.748,303.772 c -1.35,-0.271 -2.735,0.226 -3.903,0.906 l 0,0 c 2.105,-2.735 4.584,-9.965 5.752,-14.171 l 0,0 c 0.329,0.108 0.672,0.213 1.03,0.315 l 0,0 0,14.327 c -1.083,-0.684 -2.107,-1.22 -2.879,-1.377"
               style="fill:url(#linearGradient376);stroke:none"
               id="path384"
               inkscape:connector-curvature="0" /></g></g></g></g><g
       id="g386"><g
         id="g388"
         clip-path="url(#clipPath390)"><g
           id="g394"
           transform="translate(336.5991,304.8306)"><path
             d="m 0,0 c -0.234,-0.098 -0.495,-0.179 -0.777,-0.235 -0.02,-0.003 -0.036,-0.009 -0.053,-0.013 -0.576,-0.115 -1.162,-0.088 -1.731,0.031 -0.031,0.006 -0.06,0.011 -0.09,0.018 -0.031,0.008 -0.059,0.015 -0.089,0.022 -0.426,0.099 -0.879,0.261 -1.357,0.498 -0.03,0.016 -0.062,0.031 -0.094,0.045 -0.007,0.004 -0.012,0.006 -0.017,0.01 0.148,-0.149 0.3,-0.328 0.454,-0.528 1.168,-0.681 2.553,-1.178 3.902,-0.906 0.773,0.156 1.797,0.693 2.879,1.376 l 0,1.293 C 1.959,0.925 0.904,0.338 0,0"
             style="fill:#58585a;fill-opacity:1;fill-rule:nonzero;stroke:none"
             id="path396"
             inkscape:connector-curvature="0" /></g></g></g></g></svg>