<?xml version="1.0" encoding="utf-8"?>
<!-- Generator: Adobe Illustrator 19.2.1, SVG Export Plug-In . SVG Version: 6.00 Build 0)  -->
<!DOCTYPE svg PUBLIC "-//W3C//DTD SVG 1.1//EN" "http://www.w3.org/Graphics/SVG/1.1/DTD/svg11.dtd">
<svg version="1.1" id="Warstwa_1" xmlns="http://www.w3.org/2000/svg" xmlns:xlink="http://www.w3.org/1999/xlink" x="0px" y="0px"
	 width="1844.9px" height="781.3px" viewBox="0 0 1844.9 781.3" style="enable-background:new 0 0 1844.9 781.3;"
	 xml:space="preserve">
<style type="text/css">
	.st0{clip-path:url(#SVGID_2_);fill:#E2E3E2;}
	.st1{clip-path:url(#SVGID_2_);fill:#E3E4E3;}
	.st2{clip-path:url(#SVGID_2_);fill:#E5E6E5;}
	.st3{clip-path:url(#SVGID_2_);fill:#E6E7E6;}
	.st4{clip-path:url(#SVGID_2_);fill:#E8E8E8;}
	.st5{clip-path:url(#SVGID_2_);fill:#E9EAE9;}
	.st6{clip-path:url(#SVGID_2_);fill:#EAEBEA;}
	.st7{clip-path:url(#SVGID_2_);fill:#ECECEC;}
	.st8{clip-path:url(#SVGID_2_);fill:#EDEEED;}
	.st9{clip-path:url(#SVGID_2_);fill:#EEEFEE;}
	.st10{clip-path:url(#SVGID_2_);fill:#EFF0EF;}
	.st11{clip-path:url(#SVGID_2_);fill:#F1F1F1;}
	.st12{clip-path:url(#SVGID_2_);fill:#F2F2F2;}
	.st13{clip-path:url(#SVGID_2_);fill:#F3F3F3;}
	.st14{clip-path:url(#SVGID_2_);fill:#F4F4F4;}
	.st15{clip-path:url(#SVGID_2_);fill:#F5F5F5;}
	.st16{clip-path:url(#SVGID_2_);fill:#F6F6F6;}
	.st17{clip-path:url(#SVGID_2_);fill:#F7F7F7;}
	.st18{clip-path:url(#SVGID_2_);fill:#F8F8F8;}
	.st19{clip-path:url(#SVGID_2_);fill:#F9F9F9;}
	.st20{clip-path:url(#SVGID_2_);fill:#FAFAFA;}
	.st21{clip-path:url(#SVGID_2_);fill:#FBFBFB;}
	.st22{clip-path:url(#SVGID_2_);fill:#FCFCFC;}
	.st23{clip-path:url(#SVGID_2_);fill:#FCFDFC;}
	.st24{clip-path:url(#SVGID_2_);fill:#FDFDFD;}
	.st25{clip-path:url(#SVGID_2_);fill:#FEFEFE;}
	.st26{clip-path:url(#SVGID_2_);fill:#FFFFFF;}
	.st27{fill-rule:evenodd;clip-rule:evenodd;fill:#626262;}
	.st28{fill-rule:evenodd;clip-rule:evenodd;fill:#D8D8D8;}
	.st29{fill:#FFFFFF;}
	.st30{fill:#999999;}
	.st31{fill:#C62C2C;}
	.st32{fill:#F9D426;}
	.st33{fill:#85AF2B;}
	.st34{fill:#C2C4BE;}
	.st35{fill:#626262;}
	.st36{fill:#F63C3C;}
	.st37{fill:#F63B3B;}
	.st38{fill:#666666;}
	.st39{fill:#516072;}
</style>
<g>
	<g>
		<defs>
			<path id="SVGID_1_" d="M209.2,298.3C309.7,274.3,844,0,844,0l-5.7,781.3c0,0-552.8-298.7-622.9-327.6L209.2,298.3z"/>
		</defs>
		<clipPath id="SVGID_2_">
			<use xlink:href="#SVGID_1_"  style="overflow:visible;"/>
		</clipPath>
		<path class="st0" d="M209.6,0v781.3V0z"/>
		<rect x="209.6" y="0.3" class="st0" width="21" height="781"/>
		<rect x="230.6" y="0.3" class="st1" width="22" height="781"/>
		<rect x="252.6" y="0.3" class="st2" width="22" height="781"/>
		<rect x="274.6" y="0.3" class="st3" width="22" height="781"/>
		<rect x="296.6" y="0.3" class="st4" width="22" height="781"/>
		<rect x="318.6" y="0.3" class="st5" width="22" height="781"/>
		<rect x="340.6" y="0.3" class="st6" width="22" height="781"/>
		<rect x="362.6" y="0.3" class="st7" width="22" height="781"/>
		<rect x="384.6" y="0.3" class="st8" width="22" height="781"/>
		<rect x="406.6" y="0.3" class="st9" width="21" height="781"/>
		<rect x="427.6" y="0.3" class="st10" width="22" height="781"/>
		<rect x="449.6" y="0.3" class="st11" width="22" height="781"/>
		<rect x="471.6" y="0.3" class="st12" width="22" height="781"/>
		<rect x="493.6" y="0.3" class="st13" width="22" height="781"/>
		<rect x="515.6" y="0.3" class="st14" width="22" height="781"/>
		<rect x="537.6" y="0.3" class="st15" width="22" height="781"/>
		<rect x="559.6" y="0.3" class="st16" width="22" height="781"/>
		<rect x="581.6" y="0.3" class="st17" width="22" height="781"/>
		<rect x="603.6" y="0.3" class="st18" width="22" height="781"/>
		<rect x="625.6" y="0.3" class="st19" width="21" height="781"/>
		<rect x="646.6" y="0.3" class="st20" width="22" height="781"/>
		<rect x="668.6" y="0.3" class="st21" width="22" height="781"/>
		<rect x="690.6" y="0.3" class="st22" width="22" height="781"/>
		<rect x="712.6" y="0.3" class="st23" width="22" height="781"/>
		<rect x="734.6" y="0.3" class="st24" width="22" height="781"/>
		<rect x="756.6" y="0.3" class="st25" width="22" height="781"/>
		<rect x="778.6" y="0.3" class="st25" width="22" height="781"/>
		<rect x="800.6" y="0.3" class="st26" width="22" height="781"/>
		<rect x="822.6" y="0.3" class="st26" width="21" height="781"/>
		<path class="st26" d="M843.6,781.3V0V781.3z"/>
	</g>
</g>
<g>
	<g>
		<path class="st27" d="M0,471.2V246.8c0-4.8,3.9-8.7,8.7-8.7h367.6c4.8,0,8.7,3.9,8.7,8.7v224.5H0z"/>
	</g>
	<g>
		<path class="st28" d="M376.3,505.9H8.7c-4.8,0-8.7-3.9-8.7-8.7v-26h384.9v26C384.9,502,381.1,505.9,376.3,505.9z"/>
	</g>
	<g>
		<path class="st28" d="M131.2,551.3v-4.8l15.2-1.9l10.5-40h77.7l10.5,40l15.2,1.9v4.8H131.2z"/>
	</g>
</g>
<g>
	<g>
		<rect x="12.6" y="249.3" class="st29" width="358" height="210"/>
		<path class="st30" d="M371.6,459.3h-359v-211h359V459.3z M13.6,458.3h357v-209h-357V458.3z"/>
	</g>
	<g>
		<rect x="12.6" y="248.3" class="st30" width="358" height="34"/>
	</g>
	<g>
		<ellipse class="st31" cx="35.5" cy="265.8" rx="5.7" ry="5.5"/>
	</g>
	<g>
		<ellipse class="st32" cx="53" cy="265.8" rx="5.7" ry="5.5"/>
	</g>
	<g>
		<ellipse class="st33" cx="70.5" cy="265.8" rx="5.7" ry="5.5"/>
	</g>
	<g>
		<rect x="87.6" y="262.3" class="st29" width="186" height="6"/>
	</g>
	<g>
		<rect x="286.6" y="262.3" class="st29" width="73" height="6"/>
	</g>
	<g>
		<rect x="29.6" y="306.3" class="st34" width="166" height="5"/>
	</g>
	<g>
		<rect x="29.6" y="317.3" class="st34" width="166" height="5"/>
	</g>
	<g>
		<rect x="29.6" y="344.3" class="st34" width="166" height="5"/>
	</g>
	<g>
		<rect x="29.6" y="355.3" class="st34" width="124" height="5"/>
	</g>
	<g>
		<rect x="29.6" y="355.3" class="st34" width="166" height="5"/>
	</g>
</g>
<g>
	<path class="st35" d="M1348.9,391.9l-5-0.1l0.1-5l5,0.1L1348.9,391.9z M1338.9,391.8l-5-0.1l0.1-5l5,0.1L1338.9,391.8z
		 M1328.9,391.7l-5-0.1l0.1-5l5,0.1L1328.9,391.7z M1318.9,391.5l-5-0.1l0.1-5l5,0.1L1318.9,391.5z M1308.9,391.4l-5-0.1l0.1-5
		l5,0.1L1308.9,391.4z M1298.9,391.3l-5-0.1l0.1-5l5,0.1L1298.9,391.3z M1288.9,391.1l-5-0.1l0.1-5l5,0.1L1288.9,391.1z M1278.9,391
		l-5-0.1l0.1-5l5,0.1L1278.9,391z M1268.9,390.9l-5-0.1l0.1-5l5,0.1L1268.9,390.9z M1258.9,390.7l-5-0.1l0.1-5l5,0.1L1258.9,390.7z
		 M1248.9,390.6l-5-0.1l0.1-5l5,0.1L1248.9,390.6z M1238.9,390.5l-5-0.1l0.1-5l5,0.1L1238.9,390.5z M1228.9,390.3l-5-0.1l0.1-5
		l5,0.1L1228.9,390.3z M1218.9,390.2l-5-0.1l0.1-5l5,0.1L1218.9,390.2z M1208.9,390.1l-5-0.1l0.1-5l5,0.1L1208.9,390.1z M1198.9,390
		l-5-0.1l0.1-5l5,0.1L1198.9,390z M1188.9,389.8l-5-0.1l0.1-5l5,0.1L1188.9,389.8z M1178.9,389.7l-5-0.1l0.1-5l5,0.1L1178.9,389.7z
		 M1168.9,389.6l-5-0.1l0.1-5l5,0.1L1168.9,389.6z M1158.9,389.4l-5-0.1l0.1-5l5,0.1L1158.9,389.4z M1148.9,389.3l-5-0.1l0.1-5
		l5,0.1L1148.9,389.3z M1138.9,389.2l-5-0.1l0.1-5l5,0.1L1138.9,389.2z M1128.9,389l-5-0.1l0.1-5l5,0.1L1128.9,389z M1119,388.9
		l-5-0.1l0.1-5l5,0.1L1119,388.9z M1109,388.8l-5-0.1l0.1-5l5,0.1L1109,388.8z M1099,388.7l-5-0.1l0.1-5l5,0.1L1099,388.7z
		 M1089,388.5l-5-0.1l0.1-5l5,0.1L1089,388.5z M1079,388.4l-5-0.1l0.1-5l5,0.1L1079,388.4z M1069,388.3l-5-0.1l0.1-5l5,0.1
		L1069,388.3z M1059,388.1l-5-0.1l0.1-5l5,0.1L1059,388.1z M1049,388l-5-0.1l0.1-5l5,0.1L1049,388z M1039,387.9l-5-0.1l0.1-5l5,0.1
		L1039,387.9z M1029,387.7l-5-0.1l0.1-5l5,0.1L1029,387.7z M1019,387.6l-5-0.1l0.1-5l5,0.1L1019,387.6z M1009,387.5l-5-0.1l0.1-5
		l5,0.1L1009,387.5z M999,387.4l-5-0.1l0.1-5l5,0.1L999,387.4z M989,387.2l-5-0.1l0.1-5l5,0.1L989,387.2z M979,387.1l-5-0.1l0.1-5
		l5,0.1L979,387.1z M969,387l-5-0.1l0.1-5l5,0.1L969,387z M959,386.8l-5-0.1l0.1-5l5,0.1L959,386.8z M949,386.7l-5-0.1l0.1-5l5,0.1
		L949,386.7z M939,386.6l-5-0.1l0.1-5l5,0.1L939,386.6z M929,386.4l-5-0.1l0.1-5l5,0.1L929,386.4z M919,386.3l-0.5,0l0.1-5l0.5,0
		L919,386.3z"/>
</g>
<g>
	<path class="st35" d="M1102,153.5l-0.7-4.9l4.9-0.7l0.7,4.9L1102,153.5z M1111.9,152l-0.7-4.9l4.9-0.7l0.7,4.9L1111.9,152z
		 M1121.8,150.5l-0.7-4.9l4.9-0.7l0.7,4.9L1121.8,150.5z M1131.7,149.1l-0.7-4.9l4.9-0.7l0.7,4.9L1131.7,149.1z M1141.6,147.6
		l-0.7-4.9l4.9-0.7l0.7,4.9L1141.6,147.6z M1151.5,146.1l-0.7-4.9l4.9-0.7l0.7,4.9L1151.5,146.1z M1161.4,144.6l-0.7-4.9l4.9-0.7
		l0.7,4.9L1161.4,144.6z M1171.3,143.1l-0.7-4.9l4.9-0.7l0.7,4.9L1171.3,143.1z M1181.1,141.6l-0.7-4.9l4.9-0.7l0.7,4.9
		L1181.1,141.6z M1191,140.1l-0.7-4.9l4.9-0.7l0.7,4.9L1191,140.1z M1200.9,138.7l-0.7-4.9l4.9-0.7l0.7,4.9L1200.9,138.7z
		 M1210.8,137.2l-0.7-4.9l4.9-0.7l0.7,4.9L1210.8,137.2z M1220.7,135.7l-0.7-4.9l4.9-0.7l0.7,4.9L1220.7,135.7z M1230.6,134.2
		l-0.7-4.9l4.9-0.7l0.7,4.9L1230.6,134.2z M1240.5,132.7l-0.7-4.9l4.9-0.7l0.7,4.9L1240.5,132.7z M1250.4,131.2l-0.7-4.9l4.9-0.7
		l0.7,4.9L1250.4,131.2z M1260.3,129.7l-0.7-4.9l4.9-0.7l0.7,4.9L1260.3,129.7z M1270.1,128.2l-0.7-4.9l4.9-0.7l0.7,4.9
		L1270.1,128.2z M1280,126.8l-0.7-4.9l4.9-0.7l0.7,4.9L1280,126.8z M1289.9,125.3l-0.7-4.9l4.9-0.7l0.7,4.9L1289.9,125.3z
		 M1299.8,123.8l-0.7-4.9l4.9-0.7l0.7,4.9L1299.8,123.8z M1309.7,122.3l-0.7-4.9l4.9-0.7l0.7,4.9L1309.7,122.3z M1319.6,120.8
		l-0.7-4.9l4.9-0.7l0.7,4.9L1319.6,120.8z M1329.5,119.3l-0.7-4.9l4.9-0.7l0.7,4.9L1329.5,119.3z M1339.4,117.8l-0.7-4.9l4.9-0.7
		l0.7,4.9L1339.4,117.8z"/>
</g>
<g>
	<path class="st35" d="M630.9,328.4l-3.9-3.1l0.3-0.3l3.9,3.1L630.9,328.4z M634.3,324.1l-3.9-3.1l3.1-3.9l3.9,3.1L634.3,324.1z
		 M640.5,316.3l-3.9-3.1l3.1-3.9l3.9,3.1L640.5,316.3z M646.8,308.4l-3.9-3.1l3.1-3.9l3.9,3.1L646.8,308.4z M653,300.6l-3.9-3.1
		l3.1-3.9l3.9,3.1L653,300.6z M659.2,292.8l-3.9-3.1l3.1-3.9l3.9,3.1L659.2,292.8z M665.4,285l-3.9-3.1l3.1-3.9l3.9,3.1L665.4,285z
		 M671.7,277.1l-3.9-3.1l3.1-3.9l3.9,3.1L671.7,277.1z M677.9,269.3l-3.9-3.1l3.1-3.9l3.9,3.1L677.9,269.3z M684.1,261.5l-3.9-3.1
		l3.1-3.9l3.9,3.1L684.1,261.5z M690.3,253.7l-3.9-3.1l3.1-3.9l3.9,3.1L690.3,253.7z M696.6,245.8l-3.9-3.1l3.1-3.9l3.9,3.1
		L696.6,245.8z M702.8,238l-3.9-3.1l3.1-3.9l3.9,3.1L702.8,238z M709,230.2l-3.9-3.1l3.1-3.9l3.9,3.1L709,230.2z M715.2,222.4
		l-3.9-3.1l3.1-3.9l3.9,3.1L715.2,222.4z"/>
</g>
<g>
	<path class="st35" d="M714.4,545.6l-3.1-3.9l3.9-3.1l3.1,3.9L714.4,545.6z M708.2,537.7l-3.1-3.9l3.9-3.1l3.1,3.9L708.2,537.7z
		 M702,529.9l-3.1-3.9l3.9-3.1l3.1,3.9L702,529.9z M695.8,522.1l-3.1-3.9l3.9-3.1l3.1,3.9L695.8,522.1z M689.5,514.3l-3.1-3.9
		l3.9-3.1l3.1,3.9L689.5,514.3z M683.3,506.4l-3.1-3.9l3.9-3.1l3.1,3.9L683.3,506.4z M677.1,498.6l-3.1-3.9l3.9-3.1l3.1,3.9
		L677.1,498.6z M670.9,490.8l-3.1-3.9l3.9-3.1l3.1,3.9L670.9,490.8z M664.6,482.9l-3.1-3.9l3.9-3.1l3.1,3.9L664.6,482.9z
		 M658.4,475.1l-3.1-3.9l3.9-3.1l3.1,3.9L658.4,475.1z M652.2,467.3l-3.1-3.9l3.9-3.1l3.1,3.9L652.2,467.3z M646,459.5l-3.1-3.9
		l3.9-3.1l3.1,3.9L646,459.5z M639.7,451.6l-3.1-3.9l3.9-3.1l3.1,3.9L639.7,451.6z M633.5,443.8l-3.1-3.9l3.9-3.1l3.1,3.9
		L633.5,443.8z M627.3,436l-0.3-0.3l3.9-3.1l0.3,0.3L627.3,436z"/>
</g>
<g>
	<g>
		<g>
			<path class="st36" d="M1472.5,121.1c-5.1,3.7-15.6,6.3-27.8,6.3c-12.2,0-22.8-2.6-27.8-6.3c-2.1,1.5-3.3,3.2-3.3,5.1
				c0,6.3,13.9,11.4,31.1,11.4c17.2,0,31.1-5.1,31.1-11.4C1475.7,124.3,1474.5,122.6,1472.5,121.1z"/>
		</g>
		<g>
			<path class="st36" d="M1472.5,105.9c-5.1,3.7-15.6,6.3-27.8,6.3c-12.2,0-22.8-2.6-27.8-6.3c-2.1,1.5-3.3,3.2-3.3,5.1
				c0,6.3,13.9,11.4,31.1,11.4c17.2,0,31.1-5.1,31.1-11.4C1475.7,109.1,1474.5,107.4,1472.5,105.9z"/>
		</g>
		<g>
			<ellipse class="st36" cx="1444.6" cy="95.8" rx="31.1" ry="11.4"/>
		</g>
	</g>
</g>
<g>
	<g>
		<g>
			<path class="st36" d="M1567.8,121.1c-5.1,3.7-15.6,6.3-27.8,6.3c-12.2,0-22.8-2.6-27.8-6.3c-2.1,1.5-3.3,3.2-3.3,5.1
				c0,6.3,13.9,11.4,31.1,11.4c17.2,0,31.1-5.1,31.1-11.4C1571.1,124.3,1569.9,122.6,1567.8,121.1z"/>
		</g>
		<g>
			<path class="st36" d="M1567.8,105.9c-5.1,3.7-15.6,6.3-27.8,6.3c-12.2,0-22.8-2.6-27.8-6.3c-2.1,1.5-3.3,3.2-3.3,5.1
				c0,6.3,13.9,11.4,31.1,11.4c17.2,0,31.1-5.1,31.1-11.4C1571.1,109.1,1569.9,107.4,1567.8,105.9z"/>
		</g>
		<g>
			<ellipse class="st36" cx="1540" cy="95.8" rx="31.1" ry="11.4"/>
		</g>
	</g>
</g>
<g>
	<g>
		<g>
			<path class="st36" d="M1472.5,217.9c-5.1,3.7-15.6,6.3-27.8,6.3c-12.2,0-22.8-2.6-27.8-6.3c-2.1,1.5-3.3,3.2-3.3,5.1
				c0,6.3,13.9,11.4,31.1,11.4c17.2,0,31.1-5.1,31.1-11.4C1475.7,221.1,1474.5,219.4,1472.5,217.9z"/>
		</g>
		<g>
			<path class="st36" d="M1472.5,202.7c-5.1,3.7-15.6,6.3-27.8,6.3c-12.2,0-22.8-2.6-27.8-6.3c-2.1,1.5-3.3,3.2-3.3,5.1
				c0,6.3,13.9,11.4,31.1,11.4c17.2,0,31.1-5.1,31.1-11.4C1475.7,205.9,1474.5,204.2,1472.5,202.7z"/>
		</g>
		<g>
			<ellipse class="st36" cx="1444.6" cy="192.6" rx="31.1" ry="11.4"/>
		</g>
	</g>
</g>
<g>
	<g>
		<g>
			<path class="st36" d="M1472.5,603.1c-5.1,3.7-15.6,6.3-27.8,6.3c-12.2,0-22.8-2.6-27.8-6.3c-2.1,1.5-3.3,3.2-3.3,5.1
				c0,6.3,13.9,11.4,31.1,11.4c17.2,0,31.1-5.1,31.1-11.4C1475.7,606.3,1474.5,604.6,1472.5,603.1z"/>
		</g>
		<g>
			<path class="st36" d="M1472.5,587.9c-5.1,3.7-15.6,6.3-27.8,6.3c-12.2,0-22.8-2.6-27.8-6.3c-2.1,1.5-3.3,3.2-3.3,5.1
				c0,6.3,13.9,11.4,31.1,11.4c17.2,0,31.1-5.1,31.1-11.4C1475.7,591.2,1474.5,589.4,1472.5,587.9z"/>
		</g>
		<g>
			<ellipse class="st36" cx="1444.6" cy="577.8" rx="31.1" ry="11.4"/>
		</g>
	</g>
</g>
<g>
	<g>
		<g>
			<path class="st36" d="M1567.8,217.9c-5.1,3.7-15.6,6.3-27.8,6.3c-12.2,0-22.8-2.6-27.8-6.3c-2.1,1.5-3.3,3.2-3.3,5.1
				c0,6.3,13.9,11.4,31.1,11.4c17.2,0,31.1-5.1,31.1-11.4C1571.1,221.1,1569.9,219.4,1567.8,217.9z"/>
		</g>
		<g>
			<path class="st36" d="M1567.8,202.7c-5.1,3.7-15.6,6.3-27.8,6.3c-12.2,0-22.8-2.6-27.8-6.3c-2.1,1.5-3.3,3.2-3.3,5.1
				c0,6.3,13.9,11.4,31.1,11.4c17.2,0,31.1-5.1,31.1-11.4C1571.1,205.9,1569.9,204.2,1567.8,202.7z"/>
		</g>
		<g>
			<ellipse class="st36" cx="1540" cy="192.6" rx="31.1" ry="11.4"/>
		</g>
	</g>
</g>
<g>
	<g>
		<g>
			<path class="st36" d="M1667,121.1c-5.1,3.7-15.6,6.3-27.8,6.3c-12.2,0-22.8-2.6-27.8-6.3c-2.1,1.5-3.3,3.2-3.3,5.1
				c0,6.3,13.9,11.4,31.1,11.4c17.2,0,31.1-5.1,31.1-11.4C1670.3,124.3,1669.1,122.6,1667,121.1z"/>
		</g>
		<g>
			<path class="st36" d="M1667,105.9c-5.1,3.7-15.6,6.3-27.8,6.3c-12.2,0-22.8-2.6-27.8-6.3c-2.1,1.5-3.3,3.2-3.3,5.1
				c0,6.3,13.9,11.4,31.1,11.4c17.2,0,31.1-5.1,31.1-11.4C1670.3,109.1,1669.1,107.4,1667,105.9z"/>
		</g>
		<g>
			<ellipse class="st36" cx="1639.2" cy="95.8" rx="31.1" ry="11.4"/>
		</g>
	</g>
</g>
<g>
	<g>
		<g>
			<path class="st36" d="M1472.5,393.9c-5.1,3.7-15.6,6.3-27.8,6.3c-12.2,0-22.8-2.6-27.8-6.3c-2.1,1.5-3.3,3.2-3.3,5.1
				c0,6.3,13.9,11.4,31.1,11.4c17.2,0,31.1-5.1,31.1-11.4C1475.7,397.2,1474.5,395.5,1472.5,393.9z"/>
		</g>
		<g>
			<path class="st36" d="M1472.5,378.7c-5.1,3.7-15.6,6.3-27.8,6.3c-12.2,0-22.8-2.6-27.8-6.3c-2.1,1.5-3.3,3.2-3.3,5.1
				c0,6.3,13.9,11.4,31.1,11.4c17.2,0,31.1-5.1,31.1-11.4C1475.7,382,1474.5,380.3,1472.5,378.7z"/>
		</g>
		<g>
			<ellipse class="st36" cx="1444.6" cy="368.6" rx="31.1" ry="11.4"/>
		</g>
	</g>
</g>
<g>
	<g>
		<g>
			<path class="st36" d="M1567.8,393.9c-5.1,3.7-15.6,6.3-27.8,6.3c-12.2,0-22.8-2.6-27.8-6.3c-2.1,1.5-3.3,3.2-3.3,5.1
				c0,6.3,13.9,11.4,31.1,11.4c17.2,0,31.1-5.1,31.1-11.4C1571.1,397.2,1569.9,395.5,1567.8,393.9z"/>
		</g>
		<g>
			<path class="st36" d="M1567.8,378.7c-5.1,3.7-15.6,6.3-27.8,6.3c-12.2,0-22.8-2.6-27.8-6.3c-2.1,1.5-3.3,3.2-3.3,5.1
				c0,6.3,13.9,11.4,31.1,11.4c17.2,0,31.1-5.1,31.1-11.4C1571.1,382,1569.9,380.3,1567.8,378.7z"/>
		</g>
		<g>
			<ellipse class="st36" cx="1540" cy="368.6" rx="31.1" ry="11.4"/>
		</g>
	</g>
</g>
<g>
	<g>
		<g>
			<path class="st36" d="M1667,393.9c-5.1,3.7-15.6,6.3-27.8,6.3c-12.2,0-22.8-2.6-27.8-6.3c-2.1,1.5-3.3,3.2-3.3,5.1
				c0,6.3,13.9,11.4,31.1,11.4c17.2,0,31.1-5.1,31.1-11.4C1670.3,397.2,1669.1,395.5,1667,393.9z"/>
		</g>
		<g>
			<path class="st36" d="M1667,378.7c-5.1,3.7-15.6,6.3-27.8,6.3c-12.2,0-22.8-2.6-27.8-6.3c-2.1,1.5-3.3,3.2-3.3,5.1
				c0,6.3,13.9,11.4,31.1,11.4c17.2,0,31.1-5.1,31.1-11.4C1670.3,382,1669.1,380.3,1667,378.7z"/>
		</g>
		<g>
			<ellipse class="st36" cx="1639.2" cy="368.6" rx="31.1" ry="11.4"/>
		</g>
	</g>
</g>
<g>
	<g>
		<path class="st37" d="M358.3,443.5H232.6V334.3h125.7V443.5z M236.6,439.5h117.7V338.3H236.6V439.5z"/>
	</g>
	<g>
		<rect x="234.6" y="300.6" class="st37" width="121.7" height="36.2"/>
		<path class="st37" d="M358.3,338.8H232.6v-40.2h125.7V338.8z M236.6,334.8h117.7v-32.2H236.6V334.8z"/>
	</g>
	<g>
		<path class="st29" d="M248.4,315.7l-2.3-6.6h0c0.1,1,0.1,1.9,0.1,2.8v3.9H245v-7.9h1.8l2.2,6.3h0l2.3-6.3h1.8v7.9h-1.2v-3.9
			c0-0.4,0-0.9,0-1.5c0-0.6,0-1,0.1-1.2h0l-2.4,6.6H248.4z"/>
		<path class="st29" d="M257.5,311.4l1.9-3.6h1.4l-2.6,4.9v3.1h-1.3v-3l-2.6-4.9h1.4L257.5,311.4z"/>
		<path class="st29" d="M269.3,313.6c0,0.7-0.3,1.3-0.8,1.7c-0.5,0.4-1.2,0.6-2.1,0.6c-0.9,0-1.6-0.1-2.2-0.4v-1.2
			c0.4,0.2,0.7,0.3,1.2,0.4c0.4,0.1,0.8,0.1,1.1,0.1c0.5,0,0.9-0.1,1.1-0.3c0.2-0.2,0.4-0.5,0.4-0.8c0-0.3-0.1-0.5-0.3-0.8
			c-0.2-0.2-0.7-0.5-1.4-0.7c-0.7-0.3-1.2-0.6-1.5-1c-0.3-0.4-0.4-0.8-0.4-1.4c0-0.7,0.2-1.2,0.7-1.6c0.5-0.4,1.1-0.6,1.9-0.6
			c0.8,0,1.5,0.2,2.3,0.5l-0.4,1.1c-0.7-0.3-1.3-0.4-1.9-0.4c-0.4,0-0.7,0.1-1,0.3c-0.2,0.2-0.3,0.4-0.3,0.7c0,0.2,0,0.4,0.1,0.5
			c0.1,0.1,0.2,0.3,0.4,0.4c0.2,0.1,0.6,0.3,1.1,0.5c0.6,0.2,1,0.5,1.3,0.7c0.3,0.2,0.5,0.4,0.6,0.7S269.3,313.2,269.3,313.6z"/>
		<path class="st29" d="M276.1,310.2c0,0.8-0.3,1.5-0.8,1.9c-0.5,0.4-1.3,0.7-2.3,0.7h-0.8v3h-1.3v-7.9h2.3c1,0,1.7,0.2,2.2,0.6
			C275.9,308.8,276.1,309.4,276.1,310.2z M272.1,311.7h0.7c0.7,0,1.2-0.1,1.5-0.3c0.3-0.2,0.5-0.6,0.5-1.1c0-0.5-0.1-0.8-0.4-1
			c-0.3-0.2-0.7-0.3-1.3-0.3h-0.9V311.7z"/>
		<path class="st29" d="M282.6,315.7l-0.8-2.2h-3l-0.8,2.2h-1.4l3-8h1.4l3,8H282.6z M281.5,312.4l-0.7-2.2c-0.1-0.1-0.1-0.4-0.2-0.7
			c-0.1-0.3-0.2-0.5-0.2-0.7c-0.1,0.4-0.2,0.9-0.4,1.5l-0.7,2.1H281.5z"/>
		<path class="st29" d="M288.4,308.8c-0.7,0-1.3,0.3-1.8,0.8s-0.6,1.3-0.6,2.2c0,1,0.2,1.7,0.6,2.2c0.4,0.5,1,0.8,1.8,0.8
			c0.3,0,0.7,0,1-0.1c0.3-0.1,0.6-0.2,1-0.3v1.1c-0.6,0.2-1.3,0.4-2.1,0.4c-1.2,0-2.1-0.4-2.7-1.1c-0.6-0.7-0.9-1.7-0.9-3
			c0-0.8,0.2-1.5,0.5-2.2c0.3-0.6,0.7-1.1,1.3-1.4c0.6-0.3,1.2-0.5,2-0.5c0.8,0,1.6,0.2,2.3,0.5l-0.5,1.1c-0.3-0.1-0.6-0.2-0.9-0.3
			C289.1,308.8,288.8,308.8,288.4,308.8z"/>
		<path class="st29" d="M296.6,315.7h-4.5v-7.9h4.5v1.1h-3.2v2.2h3v1.1h-3v2.5h3.2V315.7z"/>
		<path class="st29" d="M302.9,313.6c0,0.7-0.3,1.3-0.8,1.7c-0.5,0.4-1.2,0.6-2.1,0.6c-0.9,0-1.6-0.1-2.2-0.4v-1.2
			c0.4,0.2,0.7,0.3,1.2,0.4c0.4,0.1,0.8,0.1,1.1,0.1c0.5,0,0.9-0.1,1.1-0.3c0.2-0.2,0.4-0.5,0.4-0.8c0-0.3-0.1-0.5-0.3-0.8
			c-0.2-0.2-0.7-0.5-1.4-0.7c-0.7-0.3-1.2-0.6-1.5-1c-0.3-0.4-0.4-0.8-0.4-1.4c0-0.7,0.2-1.2,0.7-1.6c0.5-0.4,1.1-0.6,1.9-0.6
			c0.8,0,1.5,0.2,2.3,0.5l-0.4,1.1c-0.7-0.3-1.3-0.4-1.9-0.4c-0.4,0-0.7,0.1-1,0.3c-0.2,0.2-0.3,0.4-0.3,0.7c0,0.2,0,0.4,0.1,0.5
			c0.1,0.1,0.2,0.3,0.4,0.4c0.2,0.1,0.6,0.3,1.1,0.5c0.6,0.2,1,0.5,1.3,0.7c0.3,0.2,0.5,0.4,0.6,0.7S302.9,313.2,302.9,313.6z"/>
		<path class="st29" d="M245,330.8v-7.9h1.3v7.9H245z"/>
		<path class="st29" d="M255,330.8h-1.6l-3.9-6.3h0l0,0.4c0.1,0.7,0.1,1.3,0.1,1.8v4.1h-1.2v-7.9h1.6l3.9,6.3h0c0-0.1,0-0.4,0-0.9
			c0-0.5,0-0.9,0-1.2v-4.2h1.2V330.8z"/>
		<path class="st29" d="M267,326.8c0,1.3-0.3,2.3-1,3c-0.6,0.7-1.6,1.1-2.7,1.1c-1.2,0-2.1-0.4-2.8-1.1c-0.6-0.7-1-1.7-1-3
			c0-1.3,0.3-2.3,1-3c0.6-0.7,1.6-1.1,2.8-1.1c1.2,0,2.1,0.4,2.7,1.1C266.7,324.5,267,325.5,267,326.8z M261,326.8
			c0,1,0.2,1.7,0.6,2.2c0.4,0.5,1,0.8,1.8,0.8c0.8,0,1.4-0.2,1.7-0.8c0.4-0.5,0.6-1.2,0.6-2.2c0-1-0.2-1.7-0.6-2.2s-1-0.8-1.7-0.8
			c-0.8,0-1.4,0.3-1.8,0.8C261.2,325.1,261,325.9,261,326.8z"/>
		<path class="st29" d="M275.4,330.8h-1.6l-3.9-6.3h0l0,0.4c0.1,0.7,0.1,1.3,0.1,1.8v4.1h-1.2v-7.9h1.6l3.9,6.3h0c0-0.1,0-0.4,0-0.9
			c0-0.5,0-0.9,0-1.2v-4.2h1.2V330.8z"/>
		<path class="st29" d="M282,330.8h-4.5v-7.9h4.5v1.1h-3.2v2.2h3v1.1h-3v2.5h3.2V330.8z"/>
		<path class="st29" d="M290.1,326.8c0,1.3-0.4,2.3-1.1,3s-1.8,1-3.1,1h-2.2v-7.9h2.5c1.3,0,2.2,0.3,3,1
			C289.8,324.6,290.1,325.5,290.1,326.8z M288.8,326.8c0-1.9-0.9-2.9-2.7-2.9H285v5.8h0.9C287.8,329.7,288.8,328.7,288.8,326.8z"/>
		<path class="st29" d="M296.8,330.8l-0.8-2.2h-3l-0.8,2.2h-1.4l3-8h1.4l3,8H296.8z M295.6,327.5l-0.7-2.2c-0.1-0.1-0.1-0.4-0.2-0.7
			c-0.1-0.3-0.2-0.5-0.2-0.7c-0.1,0.4-0.2,0.9-0.4,1.5l-0.7,2.1H295.6z"/>
		<path class="st29" d="M301.9,330.8h-1.3V324h-2.3v-1.1h6v1.1h-2.3V330.8z"/>
		<path class="st29" d="M310.4,330.8l-0.8-2.2h-3l-0.8,2.2h-1.4l3-8h1.4l3,8H310.4z M309.3,327.5l-0.7-2.2c-0.1-0.1-0.1-0.4-0.2-0.7
			c-0.1-0.3-0.2-0.5-0.2-0.7c-0.1,0.4-0.2,0.9-0.4,1.5l-0.7,2.1H309.3z"/>
	</g>
	<g>
		<path class="st38" d="M279.1,359.3h-3.4v-6.1h3.4v0.8h-2.4v1.7h2.3v0.8h-2.3v1.9h2.4V359.3z"/>
		<path class="st38" d="M284.9,359.3h-1.1l-1.5-2.5l-1.5,2.5h-1.1l2-3.2l-1.9-2.9h1.1l1.4,2.3l1.4-2.3h1.1l-1.9,2.9L284.9,359.3z"/>
		<path class="st38" d="M289.7,355c0,0.6-0.2,1.1-0.6,1.5s-1,0.5-1.8,0.5h-0.6v2.3h-1v-6.1h1.8c0.8,0,1.3,0.2,1.7,0.5
			C289.5,354,289.7,354.4,289.7,355z M286.7,356.2h0.5c0.5,0,0.9-0.1,1.1-0.3c0.2-0.2,0.4-0.5,0.4-0.8c0-0.3-0.1-0.6-0.3-0.8
			c-0.2-0.2-0.5-0.3-1-0.3h-0.7V356.2z"/>
		<path class="st38" d="M294.4,359.3h-3.4v-6.1h3.4v0.8h-2.4v1.7h2.3v0.8h-2.3v1.9h2.4V359.3z"/>
		<path class="st38" d="M296.7,356.8v2.4h-1v-6.1h1.7c0.8,0,1.4,0.1,1.7,0.4s0.6,0.7,0.6,1.3c0,0.8-0.4,1.3-1.2,1.6l1.7,2.7h-1.1
			l-1.5-2.4H296.7z M296.7,356h0.7c0.5,0,0.8-0.1,1-0.3s0.3-0.4,0.3-0.8c0-0.3-0.1-0.6-0.3-0.7c-0.2-0.1-0.6-0.2-1-0.2h-0.7V356z"/>
		<path class="st38" d="M301.1,359.3v-6.1h1v6.1H301.1z"/>
		<path class="st38" d="M306.4,359.3l-1.8-5.1h0c0,0.8,0.1,1.5,0.1,2.1v3h-0.9v-6.1h1.4l1.7,4.8h0l1.7-4.8h1.4v6.1h-1v-3
			c0-0.3,0-0.7,0-1.2s0-0.8,0-0.9h0l-1.8,5.1H306.4z"/>
		<path class="st38" d="M315,359.3h-3.4v-6.1h3.4v0.8h-2.4v1.7h2.3v0.8h-2.3v1.9h2.4V359.3z"/>
		<path class="st38" d="M321.4,359.3h-1.2l-3-4.8h0l0,0.3c0,0.5,0.1,1,0.1,1.4v3.2h-0.9v-6.1h1.2l3,4.8h0c0-0.1,0-0.3,0-0.7
			s0-0.7,0-0.9v-3.2h0.9V359.3z"/>
		<path class="st38" d="M325.1,359.3h-1v-5.2h-1.8v-0.9h4.6v0.9h-1.8V359.3z"/>
		<path class="st38" d="M280.6,366.7c0,1-0.3,1.8-0.8,2.3c-0.6,0.5-1.4,0.8-2.4,0.8h-1.7v-6.1h1.9c1,0,1.7,0.3,2.3,0.8
			C280.3,365,280.6,365.7,280.6,366.7z M279.6,366.7c0-1.5-0.7-2.2-2-2.2h-0.9v4.4h0.7C278.8,368.9,279.6,368.2,279.6,366.7z"/>
		<path class="st38" d="M285.7,369.8l-0.6-1.7h-2.3l-0.6,1.7h-1l2.3-6.1h1.1l2.3,6.1H285.7z M284.8,367.2l-0.6-1.7
			c0-0.1-0.1-0.3-0.2-0.5s-0.1-0.4-0.2-0.5c-0.1,0.3-0.2,0.7-0.3,1.1l-0.5,1.6H284.8z"/>
		<path class="st38" d="M289.6,369.8h-1v-5.2h-1.8v-0.9h4.6v0.9h-1.8V369.8z"/>
		<path class="st38" d="M296.1,369.8l-0.6-1.7h-2.3l-0.6,1.7h-1l2.3-6.1h1.1l2.3,6.1H296.1z M295.3,367.2l-0.6-1.7
			c0-0.1-0.1-0.3-0.2-0.5s-0.1-0.4-0.2-0.5c-0.1,0.3-0.2,0.7-0.3,1.1l-0.5,1.6H295.3z"/>
	</g>
	<g>
		<path class="st38" d="M278.3,392.4l-1.8-5.1h0c0,0.8,0.1,1.5,0.1,2.1v3h-0.9v-6.1h1.4l1.7,4.8h0l1.7-4.8h1.4v6.1h-1v-3
			c0-0.3,0-0.7,0-1.2s0-0.8,0-0.9h0l-1.8,5.1H278.3z"/>
		<path class="st38" d="M285.2,389.1l1.4-2.8h1.1l-2,3.7v2.4h-1V390l-2-3.8h1.1L285.2,389.1z"/>
		<path class="st38" d="M294.3,390.7c0,0.5-0.2,1-0.6,1.3s-0.9,0.5-1.6,0.5s-1.2-0.1-1.7-0.3v-0.9c0.3,0.1,0.6,0.2,0.9,0.3
			c0.3,0.1,0.6,0.1,0.9,0.1c0.4,0,0.7-0.1,0.9-0.2c0.2-0.1,0.3-0.4,0.3-0.6c0-0.2-0.1-0.4-0.3-0.6s-0.5-0.3-1.1-0.6
			c-0.6-0.2-0.9-0.5-1.2-0.8s-0.3-0.6-0.3-1c0-0.5,0.2-0.9,0.5-1.2c0.4-0.3,0.8-0.4,1.5-0.4c0.6,0,1.2,0.1,1.7,0.4l-0.3,0.8
			c-0.5-0.2-1-0.3-1.4-0.3c-0.3,0-0.6,0.1-0.7,0.2c-0.2,0.1-0.2,0.3-0.2,0.6c0,0.2,0,0.3,0.1,0.4s0.2,0.2,0.3,0.3
			c0.2,0.1,0.4,0.2,0.8,0.4c0.4,0.2,0.8,0.4,1,0.5s0.4,0.3,0.5,0.5C294.2,390.2,294.3,390.4,294.3,390.7z"/>
		<path class="st38" d="M295.5,392.4v-6.1h1v6.1H295.5z"/>
		<path class="st38" d="M300.7,392.4l-1.8-5.1h0c0,0.8,0.1,1.5,0.1,2.1v3H298v-6.1h1.4l1.7,4.8h0l1.7-4.8h1.4v6.1h-1v-3
			c0-0.3,0-0.7,0-1.2s0-0.8,0-0.9h0l-1.8,5.1H300.7z"/>
		<path class="st38" d="M310.7,386.3v3.9c0,0.4-0.1,0.8-0.3,1.2c-0.2,0.3-0.5,0.6-0.8,0.8s-0.8,0.3-1.3,0.3c-0.8,0-1.3-0.2-1.8-0.6
			c-0.4-0.4-0.6-0.9-0.6-1.6v-3.9h1v3.8c0,0.5,0.1,0.9,0.3,1.1c0.2,0.2,0.6,0.4,1.1,0.4c0.9,0,1.4-0.5,1.4-1.5v-3.8H310.7z"/>
		<path class="st38" d="M312.2,392.4v-6.1h1v5.2h2.6v0.9H312.2z"/>
		<path class="st38" d="M320.6,392.4l-0.6-1.7h-2.3l-0.6,1.7h-1l2.3-6.1h1.1l2.3,6.1H320.6z M319.7,389.8l-0.6-1.7
			c0-0.1-0.1-0.3-0.2-0.5s-0.1-0.4-0.2-0.5c-0.1,0.3-0.2,0.7-0.3,1.1l-0.5,1.6H319.7z"/>
		<path class="st38" d="M324.6,392.4h-1v-5.2h-1.8v-0.9h4.6v0.9h-1.8V392.4z"/>
		<path class="st38" d="M327.3,392.4v-6.1h1v6.1H327.3z"/>
		<path class="st38" d="M335.3,389.3c0,1-0.2,1.8-0.7,2.3c-0.5,0.5-1.2,0.8-2.1,0.8c-0.9,0-1.6-0.3-2.1-0.8
			c-0.5-0.5-0.7-1.3-0.7-2.3s0.2-1.8,0.7-2.3s1.2-0.8,2.1-0.8c0.9,0,1.6,0.3,2.1,0.8S335.3,388.3,335.3,389.3z M330.6,389.3
			c0,0.7,0.2,1.3,0.5,1.7c0.3,0.4,0.8,0.6,1.3,0.6c0.6,0,1-0.2,1.3-0.6c0.3-0.4,0.5-1,0.5-1.7c0-0.7-0.1-1.3-0.4-1.7
			c-0.3-0.4-0.7-0.6-1.3-0.6c-0.6,0-1,0.2-1.3,0.6C330.8,388,330.6,388.6,330.6,389.3z"/>
		<path class="st38" d="M341.7,392.4h-1.2l-3-4.8h0l0,0.3c0,0.5,0.1,1,0.1,1.4v3.2h-0.9v-6.1h1.2l3,4.8h0c0-0.1,0-0.3,0-0.7
			s0-0.7,0-0.9v-3.2h0.9V392.4z"/>
		<path class="st38" d="M346.8,390.7c0,0.5-0.2,1-0.6,1.3s-0.9,0.5-1.6,0.5s-1.2-0.1-1.7-0.3v-0.9c0.3,0.1,0.6,0.2,0.9,0.3
			c0.3,0.1,0.6,0.1,0.9,0.1c0.4,0,0.7-0.1,0.9-0.2c0.2-0.1,0.3-0.4,0.3-0.6c0-0.2-0.1-0.4-0.3-0.6s-0.5-0.3-1.1-0.6
			c-0.6-0.2-0.9-0.5-1.2-0.8s-0.3-0.6-0.3-1c0-0.5,0.2-0.9,0.5-1.2c0.4-0.3,0.8-0.4,1.5-0.4c0.6,0,1.2,0.1,1.7,0.4l-0.3,0.8
			c-0.5-0.2-1-0.3-1.4-0.3c-0.3,0-0.6,0.1-0.7,0.2c-0.2,0.1-0.2,0.3-0.2,0.6c0,0.2,0,0.3,0.1,0.4s0.2,0.2,0.3,0.3
			c0.2,0.1,0.4,0.2,0.8,0.4c0.4,0.2,0.8,0.4,1,0.5s0.4,0.3,0.5,0.5C346.7,390.2,346.8,390.4,346.8,390.7z"/>
	</g>
	<g>
		<path class="st38" d="M279.7,417.8c0,0.6-0.2,1.1-0.6,1.5s-1,0.5-1.8,0.5h-0.6v2.3h-1v-6.1h1.8c0.8,0,1.3,0.2,1.7,0.5
			C279.5,416.7,279.7,417.1,279.7,417.8z M276.7,418.9h0.5c0.5,0,0.9-0.1,1.1-0.3c0.2-0.2,0.4-0.5,0.4-0.8c0-0.3-0.1-0.6-0.3-0.8
			c-0.2-0.2-0.5-0.3-1-0.3h-0.7V418.9z"/>
		<path class="st38" d="M285.7,415.9v3.9c0,0.4-0.1,0.8-0.3,1.2c-0.2,0.3-0.5,0.6-0.8,0.8s-0.8,0.3-1.3,0.3c-0.8,0-1.3-0.2-1.8-0.6
			c-0.4-0.4-0.6-0.9-0.6-1.6v-3.9h1v3.8c0,0.5,0.1,0.9,0.3,1.1c0.2,0.2,0.6,0.4,1.1,0.4c0.9,0,1.4-0.5,1.4-1.5v-3.8H285.7z"/>
		<path class="st38" d="M287.2,415.9h1.8c0.8,0,1.4,0.1,1.8,0.4c0.4,0.2,0.6,0.6,0.6,1.2c0,0.4-0.1,0.7-0.3,0.9s-0.4,0.4-0.8,0.4v0
			c0.4,0.1,0.7,0.2,0.9,0.5c0.2,0.2,0.3,0.6,0.3,1c0,0.5-0.2,1-0.6,1.3c-0.4,0.3-0.9,0.5-1.6,0.5h-2.2V415.9z M288.2,418.4h1
			c0.4,0,0.7-0.1,0.9-0.2c0.2-0.1,0.3-0.4,0.3-0.7c0-0.3-0.1-0.5-0.3-0.6c-0.2-0.1-0.5-0.2-1-0.2h-0.9V418.4z M288.2,419.2v1.9h1.1
			c0.4,0,0.7-0.1,0.9-0.2c0.2-0.2,0.3-0.4,0.3-0.8c0-0.3-0.1-0.6-0.3-0.7c-0.2-0.2-0.5-0.2-1-0.2H288.2z"/>
		<path class="st38" d="M292.8,422v-6.1h1v5.2h2.6v0.9H292.8z"/>
		<path class="st38" d="M297.5,422v-6.1h1v6.1H297.5z"/>
		<path class="st38" d="M302.6,416.7c-0.6,0-1,0.2-1.3,0.6c-0.3,0.4-0.5,1-0.5,1.7c0,0.7,0.2,1.3,0.5,1.7c0.3,0.4,0.8,0.6,1.4,0.6
			c0.3,0,0.5,0,0.7-0.1c0.2-0.1,0.5-0.1,0.8-0.2v0.9c-0.5,0.2-1,0.3-1.6,0.3c-0.9,0-1.6-0.3-2-0.8s-0.7-1.3-0.7-2.3
			c0-0.6,0.1-1.2,0.3-1.7c0.2-0.5,0.6-0.8,1-1.1c0.4-0.3,1-0.4,1.5-0.4c0.6,0,1.2,0.1,1.7,0.4L304,417c-0.2-0.1-0.4-0.2-0.7-0.3
			S302.9,416.7,302.6,416.7z"/>
		<path class="st38" d="M309.2,422l-0.6-1.7h-2.3l-0.6,1.7h-1l2.3-6.1h1.1l2.3,6.1H309.2z M308.4,419.4l-0.6-1.7
			c0-0.1-0.1-0.3-0.2-0.5s-0.1-0.4-0.2-0.5c-0.1,0.3-0.2,0.7-0.3,1.1l-0.5,1.6H308.4z"/>
		<path class="st38" d="M313.2,422h-1v-5.2h-1.8v-0.9h4.6v0.9h-1.8V422z"/>
		<path class="st38" d="M315.9,422v-6.1h1v6.1H315.9z"/>
		<path class="st38" d="M323.9,418.9c0,1-0.2,1.8-0.7,2.3c-0.5,0.5-1.2,0.8-2.1,0.8c-0.9,0-1.6-0.3-2.1-0.8
			c-0.5-0.5-0.7-1.3-0.7-2.3s0.2-1.8,0.7-2.3s1.2-0.8,2.1-0.8c0.9,0,1.6,0.3,2.1,0.8S323.9,418,323.9,418.9z M319.3,418.9
			c0,0.7,0.2,1.3,0.5,1.7c0.3,0.4,0.8,0.6,1.3,0.6c0.6,0,1-0.2,1.3-0.6c0.3-0.4,0.5-1,0.5-1.7c0-0.7-0.1-1.3-0.4-1.7
			c-0.3-0.4-0.7-0.6-1.3-0.6c-0.6,0-1,0.2-1.3,0.6C319.4,417.6,319.3,418.2,319.3,418.9z"/>
		<path class="st38" d="M330.3,422H329l-3-4.8h0l0,0.3c0,0.5,0.1,1,0.1,1.4v3.2h-0.9v-6.1h1.2l3,4.8h0c0-0.1,0-0.3,0-0.7
			s0-0.7,0-0.9v-3.2h0.9V422z"/>
		<path class="st38" d="M335.4,420.3c0,0.5-0.2,1-0.6,1.3s-0.9,0.5-1.6,0.5s-1.2-0.1-1.7-0.3v-0.9c0.3,0.1,0.6,0.2,0.9,0.3
			c0.3,0.1,0.6,0.1,0.9,0.1c0.4,0,0.7-0.1,0.9-0.2c0.2-0.1,0.3-0.4,0.3-0.6c0-0.2-0.1-0.4-0.3-0.6s-0.5-0.3-1.1-0.6
			c-0.6-0.2-0.9-0.5-1.2-0.8s-0.3-0.6-0.3-1c0-0.5,0.2-0.9,0.5-1.2c0.4-0.3,0.8-0.4,1.5-0.4c0.6,0,1.2,0.1,1.7,0.4L335,417
			c-0.5-0.2-1-0.3-1.4-0.3c-0.3,0-0.6,0.1-0.7,0.2c-0.2,0.1-0.2,0.3-0.2,0.6c0,0.2,0,0.3,0.1,0.4s0.2,0.2,0.3,0.3
			c0.2,0.1,0.4,0.2,0.8,0.4c0.4,0.2,0.8,0.4,1,0.5s0.4,0.3,0.5,0.5C335.3,419.8,335.4,420.1,335.4,420.3z"/>
	</g>
	<g>
		<polygon class="st39" points="254.9,423.1 242.4,423.1 242.4,352.8 245.4,352.8 245.4,420.1 254.9,420.1 		"/>
	</g>
	<g>
		<rect x="243.1" y="388.3" class="st39" width="13.5" height="3"/>
	</g>
	<g>
		<rect x="243.1" y="361.5" class="st39" width="13.5" height="3"/>
	</g>
	<g>
		<g>
			<circle class="st39" cx="243.9" cy="435.3" r="1.2"/>
		</g>
		<g>
			<circle class="st39" cx="243.9" cy="426.7" r="1.2"/>
		</g>
		<g>
			<circle class="st39" cx="243.9" cy="431" r="1.2"/>
		</g>
	</g>
	<g>
		<g>
			<path class="st37" d="M268,354.9c0-0.8-0.7-1.5-1.5-1.5h-10.1c-0.8,0-1.5,0.7-1.5,1.5v1.1H268V354.9z"/>
		</g>
		<g>
			<path class="st37" d="M270.1,356.7h-1.4H268h-13.1v0.5v0v11.4c0,0.3,0.2,0.5,0.5,0.5h14.7c0.3,0,0.5-0.2,0.5-0.5v-11.5
				C270.6,357,270.4,356.7,270.1,356.7z M267,364.3c-0.7,0-1.3-0.6-1.3-1.3c0-0.7,0.6-1.3,1.3-1.3c0.7,0,1.3,0.6,1.3,1.3
				C268.3,363.7,267.7,364.3,267,364.3z"/>
		</g>
	</g>
	<g>
		<g>
			<path class="st37" d="M268,383.3c0-0.8-0.7-1.5-1.5-1.5h-10.1c-0.8,0-1.5,0.7-1.5,1.5v1.1H268V383.3z"/>
		</g>
		<g>
			<path class="st37" d="M270.1,385.1h-1.4H268h-13.1v0.5v0V397c0,0.3,0.2,0.5,0.5,0.5h14.7c0.3,0,0.5-0.2,0.5-0.5v-11.5
				C270.6,385.3,270.4,385.1,270.1,385.1z M267,392.6c-0.7,0-1.3-0.6-1.3-1.3c0-0.7,0.6-1.3,1.3-1.3c0.7,0,1.3,0.6,1.3,1.3
				C268.3,392,267.7,392.6,267,392.6z"/>
		</g>
	</g>
	<g>
		<g>
			<path class="st37" d="M268,413.6c0-0.8-0.7-1.5-1.5-1.5h-10.1c-0.8,0-1.5,0.7-1.5,1.5v1.1H268V413.6z"/>
		</g>
		<g>
			<path class="st37" d="M270.1,415.4h-1.4H268h-13.1v0.5v0v11.4c0,0.3,0.2,0.5,0.5,0.5h14.7c0.3,0,0.5-0.2,0.5-0.5v-11.5
				C270.6,415.6,270.4,415.4,270.1,415.4z M267,422.9c-0.7,0-1.3-0.6-1.3-1.3c0-0.7,0.6-1.3,1.3-1.3c0.7,0,1.3,0.6,1.3,1.3
				C268.3,422.3,267.7,422.9,267,422.9z"/>
		</g>
	</g>
</g>
<g>
	<path class="st36" d="M860.1,142.7c2-0.3,4.7-0.6,8-0.6c4.1,0,7.2,1,9.1,2.7c1.8,1.5,2.8,3.9,2.8,6.8c0,2.9-0.9,5.2-2.5,6.9
		c-2.2,2.4-5.8,3.6-9.9,3.6c-1.2,0-2.4,0-3.4-0.3v13h-4.2V142.7z M864.3,158.3c0.9,0.2,2.1,0.3,3.5,0.3c5,0,8.1-2.4,8.1-6.9
		c0-4.3-3-6.3-7.6-6.3c-1.8,0-3.2,0.1-3.9,0.3V158.3z"/>
	<path class="st36" d="M884.7,158.7c0-2.7,0-5.1-0.2-7.2h3.7l0.1,4.6h0.2c1.1-3.1,3.6-5.1,6.4-5.1c0.5,0,0.8,0,1.2,0.1v4
		c-0.4-0.1-0.9-0.1-1.4-0.1c-3,0-5.1,2.3-5.7,5.4c-0.1,0.6-0.2,1.2-0.2,2v12.4h-4.2V158.7z"/>
	<path class="st36" d="M921,162.8c0,8.6-6,12.3-11.6,12.3c-6.3,0-11.1-4.6-11.1-12c0-7.8,5.1-12.3,11.5-12.3
		C916.5,150.9,921,155.7,921,162.8z M902.5,163.1c0,5.1,2.9,8.9,7.1,8.9c4,0,7.1-3.8,7.1-9c0-3.9-2-8.9-7-8.9
		S902.5,158.7,902.5,163.1z"/>
	<path class="st36" d="M927.6,151.4l4.6,13.1c0.8,2.1,1.4,4,1.9,6h0.1c0.5-1.9,1.2-3.8,2-6l4.5-13.1h4.4l-9.1,23.2h-4l-8.8-23.2
		H927.6z"/>
	<path class="st36" d="M953.7,144.9c0,1.4-1,2.6-2.7,2.6c-1.5,0-2.5-1.2-2.5-2.6c0-1.5,1.1-2.6,2.6-2.6
		C952.7,142.3,953.7,143.4,953.7,144.9z M949,174.7v-23.2h4.2v23.2H949z"/>
	<path class="st36" d="M980.3,140.6v28.1c0,2.1,0,4.4,0.2,6h-3.8l-0.2-4h-0.1c-1.3,2.6-4.1,4.6-7.9,4.6c-5.6,0-9.9-4.8-9.9-11.8
		c0-7.7,4.8-12.5,10.4-12.5c3.6,0,6,1.7,7,3.6h0.1v-13.9H980.3z M976.1,160.9c0-0.5,0-1.2-0.2-1.8c-0.6-2.7-2.9-4.9-6.1-4.9
		c-4.4,0-7,3.8-7,9c0,4.7,2.3,8.6,6.9,8.6c2.8,0,5.4-1.9,6.2-5c0.1-0.6,0.2-1.2,0.2-1.8V160.9z"/>
	<path class="st36" d="M989.7,163.8c0.1,5.7,3.7,8.1,8,8.1c3,0,4.8-0.5,6.4-1.2l0.7,3c-1.5,0.7-4,1.4-7.7,1.4
		c-7.2,0-11.4-4.7-11.4-11.7c0-7,4.1-12.5,10.9-12.5c7.6,0,9.6,6.7,9.6,10.9c0,0.9-0.1,1.5-0.1,2H989.7z M1002.1,160.8
		c0-2.7-1.1-6.9-5.9-6.9c-4.3,0-6.1,3.9-6.5,6.9H1002.1z"/>
	<path class="st36" d="M1011.4,158.7c0-2.7,0-5.1-0.2-7.2h3.7l0.1,4.6h0.2c1.1-3.1,3.6-5.1,6.4-5.1c0.5,0,0.8,0,1.2,0.1v4
		c-0.4-0.1-0.9-0.1-1.4-0.1c-3,0-5.1,2.3-5.7,5.4c-0.1,0.6-0.2,1.2-0.2,2v12.4h-4.2V158.7z"/>
	<path class="st36" d="M1042.6,164.5l-3.4,10.2h-4.3l11-32.4h5l11,32.4h-4.5l-3.5-10.2H1042.6z M1053.2,161.2l-3.2-9.3
		c-0.7-2.1-1.2-4-1.7-5.9h-0.1c-0.5,1.9-1,3.9-1.6,5.9l-3.2,9.4H1053.2z"/>
</g>
<g>
	<path class="st36" d="M860.1,575.7c2-0.3,4.7-0.6,8-0.6c4.1,0,7.2,1,9.1,2.7c1.8,1.5,2.8,3.9,2.8,6.8c0,2.9-0.9,5.2-2.5,6.9
		c-2.2,2.4-5.8,3.6-9.9,3.6c-1.2,0-2.4,0-3.4-0.3v13h-4.2V575.7z M864.3,591.3c0.9,0.2,2.1,0.3,3.5,0.3c5,0,8.1-2.4,8.1-6.9
		c0-4.3-3-6.3-7.6-6.3c-1.8,0-3.2,0.1-3.9,0.3V591.3z"/>
	<path class="st36" d="M884.7,591.7c0-2.7,0-5.1-0.2-7.2h3.7l0.1,4.6h0.2c1.1-3.1,3.6-5.1,6.4-5.1c0.5,0,0.8,0,1.2,0.1v4
		c-0.4-0.1-0.9-0.1-1.4-0.1c-3,0-5.1,2.3-5.7,5.4c-0.1,0.6-0.2,1.2-0.2,2v12.4h-4.2V591.7z"/>
	<path class="st36" d="M921,595.9c0,8.6-6,12.3-11.6,12.3c-6.3,0-11.1-4.6-11.1-12c0-7.8,5.1-12.3,11.5-12.3
		C916.5,583.9,921,588.8,921,595.9z M902.5,596.1c0,5.1,2.9,8.9,7.1,8.9c4,0,7.1-3.8,7.1-9c0-3.9-2-8.9-7-8.9
		S902.5,591.7,902.5,596.1z"/>
	<path class="st36" d="M927.6,584.5l4.6,13.1c0.8,2.1,1.4,4,1.9,6h0.1c0.5-1.9,1.2-3.8,2-6l4.5-13.1h4.4l-9.1,23.2h-4l-8.8-23.2
		H927.6z"/>
	<path class="st36" d="M953.7,577.9c0,1.4-1,2.6-2.7,2.6c-1.5,0-2.5-1.2-2.5-2.6c0-1.5,1.1-2.6,2.6-2.6
		C952.7,575.3,953.7,576.5,953.7,577.9z M949,607.7v-23.2h4.2v23.2H949z"/>
	<path class="st36" d="M980.3,573.6v28.1c0,2.1,0,4.4,0.2,6h-3.8l-0.2-4h-0.1c-1.3,2.6-4.1,4.6-7.9,4.6c-5.6,0-9.9-4.8-9.9-11.8
		c0-7.7,4.8-12.5,10.4-12.5c3.6,0,6,1.7,7,3.6h0.1v-13.9H980.3z M976.1,593.9c0-0.5,0-1.2-0.2-1.8c-0.6-2.7-2.9-4.9-6.1-4.9
		c-4.4,0-7,3.8-7,9c0,4.7,2.3,8.6,6.9,8.6c2.8,0,5.4-1.9,6.2-5c0.1-0.6,0.2-1.2,0.2-1.8V593.9z"/>
	<path class="st36" d="M989.7,596.9c0.1,5.7,3.7,8.1,8,8.1c3,0,4.8-0.5,6.4-1.2l0.7,3c-1.5,0.7-4,1.4-7.7,1.4
		c-7.2,0-11.4-4.7-11.4-11.7c0-7,4.1-12.5,10.9-12.5c7.6,0,9.6,6.7,9.6,10.9c0,0.9-0.1,1.5-0.1,2H989.7z M1002.1,593.8
		c0-2.7-1.1-6.9-5.9-6.9c-4.3,0-6.1,3.9-6.5,6.9H1002.1z"/>
	<path class="st36" d="M1011.4,591.7c0-2.7,0-5.1-0.2-7.2h3.7l0.1,4.6h0.2c1.1-3.1,3.6-5.1,6.4-5.1c0.5,0,0.8,0,1.2,0.1v4
		c-0.4-0.1-0.9-0.1-1.4-0.1c-3,0-5.1,2.3-5.7,5.4c-0.1,0.6-0.2,1.2-0.2,2v12.4h-4.2V591.7z"/>
	<path class="st36" d="M1060,606.7c-1.5,0.8-4.6,1.5-8.5,1.5c-9.1,0-16-5.8-16-16.4c0-10.1,6.9-17,16.9-17c4,0,6.6,0.9,7.7,1.4
		l-1,3.4c-1.6-0.8-3.8-1.3-6.5-1.3c-7.6,0-12.6,4.8-12.6,13.3c0,7.9,4.6,13,12.4,13c2.5,0,5.1-0.5,6.8-1.3L1060,606.7z"/>
</g>
<g>
	<path class="st36" d="M1540.9,592.5h-12.6v11.7h14v3.5h-18.2v-32.4h17.5v3.5h-13.3v10.2h12.6V592.5z"/>
	<path class="st36" d="M1549.5,584.5l3.3,5c0.9,1.3,1.6,2.5,2.4,3.8h0.1c0.8-1.4,1.5-2.6,2.3-3.8l3.3-4.9h4.6l-7.9,11.2l8.2,12h-4.8
		l-3.4-5.2c-0.9-1.3-1.7-2.6-2.5-4h-0.1c-0.8,1.4-1.6,2.6-2.4,4l-3.4,5.2h-4.7l8.3-11.9l-7.9-11.4H1549.5z"/>
	<path class="st36" d="M1575.5,577.8v6.7h6v3.2h-6v12.5c0,2.9,0.8,4.5,3.2,4.5c1.1,0,1.9-0.1,2.4-0.3l0.2,3.2
		c-0.8,0.3-2.1,0.6-3.7,0.6c-2,0-3.6-0.6-4.6-1.8c-1.2-1.2-1.6-3.3-1.6-6v-12.7h-3.6v-3.2h3.6v-5.6L1575.5,577.8z"/>
	<path class="st36" d="M1598,607.7v-8.5h-14.5v-2.8l13.9-19.9h4.6v19.4h4.4v3.3h-4.4v8.5H1598z M1598,595.9v-10.4
		c0-1.6,0-3.3,0.1-4.9h-0.1c-1,1.8-1.7,3.2-2.6,4.6l-7.6,10.6v0.1H1598z"/>
</g>
<g>
	<path class="st36" d="M1706.1,369.8h4.2v28.9h13.8v3.5h-18V369.8z"/>
	<path class="st36" d="M1747.3,395.8c0,2.4,0,4.5,0.2,6.3h-3.7l-0.2-3.8h-0.1c-1.1,1.9-3.6,4.3-7.7,4.3c-3.6,0-8-2-8-10.2v-13.6h4.2
		v12.9c0,4.4,1.3,7.4,5.2,7.4c2.8,0,4.8-2,5.6-3.8c0.2-0.6,0.4-1.4,0.4-2.2v-14.3h4.2V395.8z"/>
	<path class="st36" d="M1753.8,397.8c1.2,0.8,3.5,1.7,5.6,1.7c3.1,0,4.5-1.5,4.5-3.5c0-2-1.2-3.1-4.3-4.3c-4.2-1.5-6.1-3.8-6.1-6.6
		c0-3.7,3-6.8,8-6.8c2.4,0,4.4,0.7,5.7,1.4l-1.1,3.1c-0.9-0.6-2.6-1.3-4.8-1.3c-2.5,0-3.9,1.4-3.9,3.2c0,1.9,1.4,2.8,4.4,3.9
		c4,1.5,6.1,3.6,6.1,7c0,4.1-3.2,7-8.7,7c-2.5,0-4.9-0.6-6.5-1.6L1753.8,397.8z"/>
	<path class="st36" d="M1778.4,372.2v6.7h6v3.2h-6v12.5c0,2.9,0.8,4.5,3.2,4.5c1.1,0,1.9-0.1,2.4-0.3l0.2,3.2
		c-0.8,0.3-2.1,0.6-3.7,0.6c-2,0-3.6-0.6-4.6-1.8c-1.2-1.2-1.6-3.3-1.6-6v-12.7h-3.6v-3.2h3.6v-5.6L1778.4,372.2z"/>
	<path class="st36" d="M1789.2,386.2c0-2.7,0-5.1-0.2-7.2h3.7l0.1,4.6h0.2c1.1-3.1,3.6-5.1,6.4-5.1c0.5,0,0.8,0,1.2,0.1v4
		c-0.4-0.1-0.9-0.1-1.4-0.1c-3,0-5.1,2.3-5.7,5.4c-0.1,0.6-0.2,1.2-0.2,2v12.4h-4.2V386.2z"/>
	<path class="st36" d="M1806.8,391.3c0.1,5.7,3.7,8.1,8,8.1c3,0,4.8-0.5,6.4-1.2l0.7,3c-1.5,0.7-4,1.4-7.7,1.4
		c-7.2,0-11.4-4.7-11.4-11.7c0-7,4.1-12.5,10.9-12.5c7.6,0,9.6,6.7,9.6,10.9c0,0.9-0.1,1.5-0.1,2H1806.8z M1819.2,388.3
		c0-2.7-1.1-6.9-5.9-6.9c-4.3,0-6.1,3.9-6.5,6.9H1819.2z"/>
</g>
<g>
	<path class="st36" d="M1730.7,224.7c-1.9,0.7-5.6,1.8-9.9,1.8c-4.9,0-8.9-1.2-12.1-4.3c-2.8-2.7-4.5-7-4.5-12
		c0-9.6,6.7-16.7,17.5-16.7c3.7,0,6.7,0.8,8.1,1.5l-1,3.4c-1.7-0.8-3.9-1.4-7.2-1.4c-7.9,0-13,4.9-13,13c0,8.2,4.9,13.1,12.5,13.1
		c2.7,0,4.6-0.4,5.6-0.9v-9.6h-6.6v-3.4h10.7V224.7z"/>
	<path class="st36" d="M1737,192h4.2v34.1h-4.2V192z"/>
	<path class="st36" d="M1767.7,219.8c0,2.4,0,4.5,0.2,6.3h-3.7l-0.2-3.8h-0.1c-1.1,1.9-3.6,4.3-7.7,4.3c-3.6,0-8-2-8-10.2v-13.6h4.2
		v12.9c0,4.4,1.3,7.4,5.2,7.4c2.8,0,4.8-2,5.6-3.8c0.2-0.6,0.4-1.4,0.4-2.2v-14.3h4.2V219.8z"/>
	<path class="st36" d="M1774.2,221.8c1.2,0.8,3.5,1.7,5.6,1.7c3.1,0,4.5-1.5,4.5-3.5c0-2-1.2-3.1-4.3-4.3c-4.2-1.5-6.1-3.8-6.1-6.6
		c0-3.7,3-6.8,8-6.8c2.4,0,4.4,0.7,5.7,1.4l-1.1,3.1c-0.9-0.6-2.6-1.3-4.8-1.3c-2.5,0-3.9,1.4-3.9,3.2c0,1.9,1.4,2.8,4.4,3.9
		c4,1.5,6.1,3.6,6.1,7c0,4.1-3.2,7-8.7,7c-2.5,0-4.9-0.6-6.5-1.6L1774.2,221.8z"/>
	<path class="st36" d="M1798.8,196.2v6.7h6v3.2h-6v12.5c0,2.9,0.8,4.5,3.2,4.5c1.1,0,1.9-0.1,2.4-0.3l0.2,3.2
		c-0.8,0.3-2.1,0.6-3.7,0.6c-2,0-3.6-0.6-4.6-1.8c-1.2-1.2-1.6-3.3-1.6-6v-12.7h-3.6v-3.2h3.6v-5.6L1798.8,196.2z"/>
	<path class="st36" d="M1811.7,215.2c0.1,5.7,3.7,8.1,8,8.1c3,0,4.8-0.5,6.4-1.2l0.7,3c-1.5,0.7-4,1.4-7.7,1.4
		c-7.2,0-11.4-4.7-11.4-11.7c0-7,4.1-12.5,10.9-12.5c7.6,0,9.6,6.7,9.6,10.9c0,0.9-0.1,1.5-0.1,2H1811.7z M1824.1,212.2
		c0-2.7-1.1-6.9-5.9-6.9c-4.3,0-6.1,3.9-6.5,6.9H1824.1z"/>
	<path class="st36" d="M1833.4,210.1c0-2.7,0-5.1-0.2-7.2h3.7l0.1,4.6h0.2c1.1-3.1,3.6-5.1,6.4-5.1c0.5,0,0.8,0,1.2,0.1v4
		c-0.4-0.1-0.9-0.1-1.4-0.1c-3,0-5.1,2.3-5.7,5.4c-0.1,0.6-0.2,1.2-0.2,2v12.4h-4.2V210.1z"/>
</g>
<g>
	<path class="st36" d="M1730.7,127.9c-1.9,0.7-5.6,1.8-9.9,1.8c-4.9,0-8.9-1.2-12.1-4.3c-2.8-2.7-4.5-7-4.5-12
		c0-9.6,6.7-16.7,17.5-16.7c3.7,0,6.7,0.8,8.1,1.5l-1,3.4c-1.7-0.8-3.9-1.4-7.2-1.4c-7.9,0-13,4.9-13,13c0,8.2,4.9,13.1,12.5,13.1
		c2.7,0,4.6-0.4,5.6-0.9v-9.6h-6.6v-3.4h10.7V127.9z"/>
	<path class="st36" d="M1737.1,97.3c2-0.3,4.7-0.6,8-0.6c4.1,0,7.2,1,9.1,2.7c1.8,1.5,2.8,3.9,2.8,6.8c0,2.9-0.9,5.2-2.5,6.9
		c-2.2,2.4-5.8,3.6-9.9,3.6c-1.2,0-2.4,0-3.4-0.3v13h-4.2V97.3z M1741.3,112.9c0.9,0.2,2.1,0.3,3.5,0.3c5,0,8.1-2.4,8.1-6.9
		c0-4.3-3-6.3-7.6-6.3c-1.8,0-3.2,0.1-3.9,0.3V112.9z"/>
	<path class="st36" d="M1762.6,97h17.4v3.5h-13.2v10.8h12.2v3.5h-12.2v14.6h-4.2V97z"/>
	<path class="st36" d="M1785.4,124.2c1.9,1.2,4.6,2.1,7.5,2.1c4.3,0,6.8-2.3,6.8-5.5c0-3-1.7-4.8-6.1-6.4c-5.3-1.9-8.5-4.6-8.5-9.2
		c0-5,4.2-8.8,10.5-8.8c3.3,0,5.7,0.8,7.2,1.6l-1.2,3.4c-1.1-0.6-3.2-1.5-6.1-1.5c-4.4,0-6.1,2.6-6.1,4.8c0,3,2,4.5,6.4,6.2
		c5.5,2.1,8.3,4.8,8.3,9.5c0,5-3.7,9.3-11.3,9.3c-3.1,0-6.5-0.9-8.3-2.1L1785.4,124.2z"/>
</g>
<g>
	<path class="st36" d="M680.8,366.8c2-0.3,4.7-0.6,8-0.6c4.1,0,7.2,1,9.1,2.7c1.8,1.5,2.8,3.9,2.8,6.8c0,2.9-0.9,5.2-2.5,6.9
		c-2.2,2.4-5.8,3.6-9.9,3.6c-1.2,0-2.4,0-3.4-0.3v13h-4.2V366.8z M684.9,382.4c0.9,0.2,2.1,0.3,3.5,0.3c5,0,8.1-2.4,8.1-6.9
		c0-4.3-3-6.3-7.6-6.3c-1.8,0-3.2,0.1-3.9,0.3V382.4z"/>
	<path class="st36" d="M705.4,382.8c0-2.7,0-5.1-0.2-7.2h3.7l0.1,4.6h0.2c1.1-3.1,3.6-5.1,6.4-5.1c0.5,0,0.8,0,1.2,0.1v4
		c-0.4-0.1-0.9-0.1-1.4-0.1c-3,0-5.1,2.3-5.7,5.4c-0.1,0.6-0.2,1.2-0.2,2v12.4h-4.2V382.8z"/>
	<path class="st36" d="M741.6,387c0,8.6-6,12.3-11.6,12.3c-6.3,0-11.1-4.6-11.1-12c0-7.8,5.1-12.3,11.5-12.3
		C737.1,375,741.6,379.9,741.6,387z M723.2,387.2c0,5.1,2.9,8.9,7.1,8.9c4,0,7.1-3.8,7.1-9c0-3.9-2-8.9-7-8.9
		S723.2,382.8,723.2,387.2z"/>
	<path class="st36" d="M748.3,375.6l4.6,13.1c0.8,2.1,1.4,4,1.9,6h0.1c0.5-1.9,1.2-3.8,2-6l4.5-13.1h4.4l-9.1,23.2h-4l-8.8-23.2
		H748.3z"/>
	<path class="st36" d="M774.4,369c0,1.4-1,2.6-2.7,2.6c-1.5,0-2.5-1.2-2.5-2.6c0-1.5,1.1-2.6,2.6-2.6
		C773.4,366.4,774.4,367.5,774.4,369z M769.7,398.8v-23.2h4.2v23.2H769.7z"/>
	<path class="st36" d="M801,364.7v28.1c0,2.1,0,4.4,0.2,6h-3.8l-0.2-4h-0.1c-1.3,2.6-4.1,4.6-7.9,4.6c-5.6,0-9.9-4.8-9.9-11.8
		c0-7.7,4.8-12.5,10.4-12.5c3.6,0,6,1.7,7,3.6h0.1v-13.9H801z M796.8,385c0-0.5,0-1.2-0.2-1.8c-0.6-2.7-2.9-4.9-6.1-4.9
		c-4.4,0-7,3.8-7,9c0,4.7,2.3,8.6,6.9,8.6c2.8,0,5.4-1.9,6.2-5c0.1-0.6,0.2-1.2,0.2-1.8V385z"/>
	<path class="st36" d="M810.4,387.9c0.1,5.7,3.7,8.1,8,8.1c3,0,4.8-0.5,6.4-1.2l0.7,3c-1.5,0.7-4,1.4-7.7,1.4
		c-7.2,0-11.4-4.7-11.4-11.7c0-7,4.1-12.5,10.9-12.5c7.6,0,9.6,6.7,9.6,10.9c0,0.9-0.1,1.5-0.1,2H810.4z M822.7,384.9
		c0-2.7-1.1-6.9-5.9-6.9c-4.3,0-6.1,3.9-6.5,6.9H822.7z"/>
	<path class="st36" d="M832.1,382.8c0-2.7,0-5.1-0.2-7.2h3.7l0.1,4.6h0.2c1.1-3.1,3.6-5.1,6.4-5.1c0.5,0,0.8,0,1.2,0.1v4
		c-0.4-0.1-0.9-0.1-1.4-0.1c-3,0-5.1,2.3-5.7,5.4c-0.1,0.6-0.2,1.2-0.2,2v12.4h-4.2V382.8z"/>
	<path class="st36" d="M858.1,366.9c1.8-0.4,4.7-0.7,7.6-0.7c4.2,0,6.9,0.7,8.9,2.4c1.7,1.2,2.7,3.2,2.7,5.7c0,3.1-2.1,5.9-5.5,7.1
		v0.1c3.1,0.8,6.7,3.3,6.7,8.1c0,2.8-1.1,4.9-2.7,6.5c-2.3,2.1-5.9,3-11.2,3c-2.9,0-5.1-0.2-6.5-0.4V366.9z M862.3,380.1h3.8
		c4.4,0,7-2.3,7-5.4c0-3.8-2.9-5.3-7.1-5.3c-1.9,0-3,0.1-3.7,0.3V380.1z M862.3,395.6c0.8,0.1,2,0.2,3.5,0.2c4.3,0,8.3-1.6,8.3-6.3
		c0-4.4-3.8-6.2-8.4-6.2h-3.5V395.6z"/>
</g>
<g>
	<g>
		<circle class="st35" cx="602.6" cy="381.3" r="45.5"/>
	</g>
	<g>
		<circle class="st36" cx="602.6" cy="381.3" r="39.2"/>
	</g>
	<g>
		<path class="st29" d="M621.6,392.6h-39.9c-0.9,0-1.7,0.9-1.7,2v4.4c0,1.1,0.8,2,1.7,2h39.9c0.9,0,1.6-0.9,1.6-2v-4.4
			C623.1,393.5,622.4,392.6,621.6,392.6z M620,397.7c-0.5,0-1-0.4-1-1s0.4-1,1-1c0.5,0,1,0.4,1,1S620.5,397.7,620,397.7z"/>
	</g>
	<g>
		<path class="st29" d="M621.6,372.6h-39.9c-0.9,0-1.7,0.9-1.7,2v4.4c0,1.1,0.8,2,1.7,2h39.9c0.9,0,1.6-0.9,1.6-2v-4.4
			C623.1,373.5,622.4,372.6,621.6,372.6z M620,377.7c-0.5,0-1-0.4-1-1s0.4-1,1-1c0.5,0,1,0.4,1,1S620.5,377.7,620,377.7z"/>
	</g>
	<g>
		<path class="st29" d="M621.6,382.6h-39.9c-0.9,0-1.7,0.9-1.7,2v4.4c0,1.1,0.8,2,1.7,2h39.9c0.9,0,1.6-0.9,1.6-2v-4.4
			C623.1,383.5,622.4,382.6,621.6,382.6z M620,387.3c-0.5,0-1-0.4-1-1s0.4-1,1-1c0.5,0,1,0.4,1,1S620.5,387.3,620,387.3z"/>
	</g>
	<g>
		<path class="st29" d="M621.6,362.2h-39.9c-0.9,0-1.7,0.9-1.7,2v4.4c0,1.1,0.8,2,1.7,2h39.9c0.9,0,1.6-0.9,1.6-2v-4.4
			C623.1,363.1,622.4,362.2,621.6,362.2z M620,367.3c-0.5,0-1-0.4-1-1s0.4-1,1-1c0.5,0,1,0.4,1,1S620.5,367.3,620,367.3z"/>
	</g>
</g>
<g>
	<g>
		<circle class="st35" cx="761.9" cy="163.4" r="45.5"/>
	</g>
	<g>
		<circle class="st36" cx="761.9" cy="163.4" r="39.2"/>
	</g>
	<g>
		<path class="st29" d="M780.9,174.8H741c-0.9,0-1.7,0.9-1.7,2v4.4c0,1.1,0.8,2,1.7,2h39.9c0.9,0,1.6-0.9,1.6-2v-4.4
			C782.5,175.7,781.8,174.8,780.9,174.8z M779.3,179.9c-0.5,0-1-0.4-1-1c0-0.5,0.4-1,1-1c0.5,0,1,0.4,1,1
			C780.3,179.4,779.8,179.9,779.3,179.9z"/>
	</g>
	<g>
		<path class="st29" d="M780.9,154.7H741c-0.9,0-1.7,0.9-1.7,2v4.4c0,1.1,0.8,2,1.7,2h39.9c0.9,0,1.6-0.9,1.6-2v-4.4
			C782.5,155.6,781.8,154.7,780.9,154.7z M779.3,159.8c-0.5,0-1-0.4-1-1c0-0.5,0.4-1,1-1c0.5,0,1,0.4,1,1
			C780.3,159.4,779.8,159.8,779.3,159.8z"/>
	</g>
	<g>
		<path class="st29" d="M780.9,164.8H741c-0.9,0-1.7,0.9-1.7,2v4.4c0,1.1,0.8,2,1.7,2h39.9c0.9,0,1.6-0.9,1.6-2v-4.4
			C782.5,165.7,781.8,164.8,780.9,164.8z M779.3,169.5c-0.5,0-1-0.4-1-1c0-0.5,0.4-1,1-1c0.5,0,1,0.4,1,1
			C780.3,169,779.8,169.5,779.3,169.5z"/>
	</g>
	<g>
		<path class="st29" d="M780.9,144.3H741c-0.9,0-1.7,0.9-1.7,2v4.4c0,1.1,0.8,2,1.7,2h39.9c0.9,0,1.6-0.9,1.6-2v-4.4
			C782.5,145.2,781.8,144.3,780.9,144.3z M779.3,149.4c-0.5,0-1-0.4-1-1c0-0.5,0.4-1,1-1c0.5,0,1,0.4,1,1
			C780.3,149,779.8,149.4,779.3,149.4z"/>
	</g>
</g>
<g>
	<g>
		<circle class="st35" cx="761.9" cy="593.2" r="45.5"/>
	</g>
	<g>
		<circle class="st36" cx="761.9" cy="593.2" r="39.2"/>
	</g>
	<g>
		<path class="st29" d="M780.9,604.5H741c-0.9,0-1.7,0.9-1.7,2v4.4c0,1.1,0.8,2,1.7,2h39.9c0.9,0,1.6-0.9,1.6-2v-4.4
			C782.5,605.4,781.8,604.5,780.9,604.5z M779.3,609.6c-0.5,0-1-0.4-1-1c0-0.5,0.4-1,1-1c0.5,0,1,0.4,1,1
			C780.3,609.2,779.8,609.6,779.3,609.6z"/>
	</g>
	<g>
		<path class="st29" d="M780.9,584.5H741c-0.9,0-1.7,0.9-1.7,2v4.4c0,1.1,0.8,2,1.7,2h39.9c0.9,0,1.6-0.9,1.6-2v-4.4
			C782.5,585.4,781.8,584.5,780.9,584.5z M779.3,589.6c-0.5,0-1-0.4-1-1s0.4-1,1-1c0.5,0,1,0.4,1,1S779.8,589.6,779.3,589.6z"/>
	</g>
	<g>
		<path class="st29" d="M780.9,594.5H741c-0.9,0-1.7,0.9-1.7,2v4.4c0,1.1,0.8,2,1.7,2h39.9c0.9,0,1.6-0.9,1.6-2v-4.4
			C782.5,595.4,781.8,594.5,780.9,594.5z M779.3,599.2c-0.5,0-1-0.4-1-1s0.4-1,1-1c0.5,0,1,0.4,1,1S779.8,599.2,779.3,599.2z"/>
	</g>
	<g>
		<path class="st29" d="M780.9,574.1H741c-0.9,0-1.7,0.9-1.7,2v4.4c0,1.1,0.8,2,1.7,2h39.9c0.9,0,1.6-0.9,1.6-2v-4.4
			C782.5,575,781.8,574.1,780.9,574.1z M779.3,579.2c-0.5,0-1-0.4-1-1s0.4-1,1-1c0.5,0,1,0.4,1,1S779.8,579.2,779.3,579.2z"/>
	</g>
</g>
<g>
	<circle class="st35" cx="1349.1" cy="112.5" r="9.8"/>
</g>
<g>
	<path class="st35" d="M1343.6,210.2l-4.9-0.7l0.7-4.9l4.9,0.7L1343.6,210.2z M1333.7,208.7l-4.9-0.7l0.7-4.9l4.9,0.7L1333.7,208.7z
		 M1323.8,207.2l-4.9-0.7l0.7-4.9l4.9,0.7L1323.8,207.2z M1313.9,205.8l-4.9-0.7l0.7-4.9l4.9,0.7L1313.9,205.8z M1304,204.3
		l-4.9-0.7l0.7-4.9l4.9,0.7L1304,204.3z M1294.1,202.8l-4.9-0.7l0.7-4.9l4.9,0.7L1294.1,202.8z M1284.2,201.3l-4.9-0.7l0.7-4.9
		l4.9,0.7L1284.2,201.3z M1274.3,199.8l-4.9-0.7l0.7-4.9l4.9,0.7L1274.3,199.8z M1264.5,198.3l-4.9-0.7l0.7-4.9l4.9,0.7
		L1264.5,198.3z M1254.6,196.8l-4.9-0.7l0.7-4.9l4.9,0.7L1254.6,196.8z M1244.7,195.4l-4.9-0.7l0.7-4.9l4.9,0.7L1244.7,195.4z
		 M1234.8,193.9l-4.9-0.7l0.7-4.9l4.9,0.7L1234.8,193.9z M1224.9,192.4l-4.9-0.7l0.7-4.9l4.9,0.7L1224.9,192.4z M1215,190.9
		l-4.9-0.7l0.7-4.9l4.9,0.7L1215,190.9z M1205.1,189.4l-4.9-0.7l0.7-4.9l4.9,0.7L1205.1,189.4z M1195.2,187.9l-4.9-0.7l0.7-4.9
		l4.9,0.7L1195.2,187.9z M1185.3,186.4l-4.9-0.7l0.7-4.9l4.9,0.7L1185.3,186.4z M1175.5,185l-4.9-0.7l0.7-4.9l4.9,0.7L1175.5,185z
		 M1165.6,183.5l-4.9-0.7l0.7-4.9l4.9,0.7L1165.6,183.5z M1155.7,182l-4.9-0.7l0.7-4.9l4.9,0.7L1155.7,182z M1145.8,180.5l-4.9-0.7
		l0.7-4.9l4.9,0.7L1145.8,180.5z M1135.9,179l-4.9-0.7l0.7-4.9l4.9,0.7L1135.9,179z M1126,177.5l-4.9-0.7l0.7-4.9l4.9,0.7
		L1126,177.5z M1116.1,176l-4.9-0.7l0.7-4.9l4.9,0.7L1116.1,176z M1106.2,174.6l-4.9-0.7l0.7-4.9l4.9,0.7L1106.2,174.6z"/>
</g>
<g>
	<circle class="st35" cx="1349.1" cy="209.9" r="9.8"/>
</g>
<g>
	<circle class="st35" cx="1349.1" cy="389.7" r="9.8"/>
</g>
<g>
	<path class="st35" d="M1348.9,599.6l-5,0l0-5l5,0L1348.9,599.6z M1338.9,599.5l-5,0l0-5l5,0L1338.9,599.5z M1328.9,599.4l-5,0l0-5
		l5,0L1328.9,599.4z M1318.9,599.3l-5,0l0-5l5,0L1318.9,599.3z M1308.9,599.2l-5,0l0-5l5,0L1308.9,599.2z M1298.9,599.1l-5,0l0-5
		l5,0L1298.9,599.1z M1288.9,599l-5,0l0-5l5,0L1288.9,599z M1278.9,598.9l-5,0l0-5l5,0L1278.9,598.9z M1268.9,598.8l-5,0l0-5l5,0
		L1268.9,598.8z M1258.9,598.7l-5,0l0-5l5,0L1258.9,598.7z M1248.9,598.6l-5,0l0-5l5,0L1248.9,598.6z M1238.9,598.5l-5,0l0-5l5,0
		L1238.9,598.5z M1228.9,598.4l-5,0l0-5l5,0L1228.9,598.4z M1218.9,598.3l-5,0l0-5l5,0L1218.9,598.3z M1208.9,598.2l-5,0l0-5l5,0
		L1208.9,598.2z M1198.9,598.1l-5,0l0-5l5,0L1198.9,598.1z M1188.9,598l-5,0l0-5l5,0L1188.9,598z M1178.9,597.9l-5,0l0-5l5,0
		L1178.9,597.9z M1168.9,597.8l-5,0l0-5l5,0L1168.9,597.8z M1158.9,597.7l-5,0l0-5l5,0L1158.9,597.7z M1148.9,597.6l-5,0l0-5l5,0
		L1148.9,597.6z M1138.9,597.5l-5,0l0-5l5,0L1138.9,597.5z M1128.9,597.4l-5,0l0-5l5,0L1128.9,597.4z M1119,597.3l-5,0l0-5l5,0
		L1119,597.3z M1109,597.2l-5,0l0-5l5,0L1109,597.2z"/>
</g>
<g>
	<circle class="st35" cx="1349.1" cy="597.3" r="9.8"/>
</g>
<g>
	<path class="st38" d="M1366.1,275.1l-3.9-11.1h-0.1c0.1,1.6,0.2,3.2,0.2,4.6v6.5h-2v-13.3h3.1l3.7,10.6h0.1l3.8-10.6h3.1v13.3h-2.1
		v-6.6c0-0.7,0-1.5,0.1-2.6c0-1.1,0.1-1.7,0.1-1.9h-0.1l-4,11.1H1366.1z"/>
	<path class="st38" d="M1381.3,267.9l3.1-6.1h2.4l-4.4,8.1v5.2h-2.2V270l-4.4-8.2h2.4L1381.3,267.9z"/>
	<path class="st38" d="M1401.1,271.5c0,1.2-0.4,2.1-1.3,2.8c-0.9,0.7-2,1-3.5,1c-1.5,0-2.7-0.2-3.7-0.7v-2.1
		c0.6,0.3,1.3,0.5,1.9,0.7c0.7,0.2,1.3,0.2,1.9,0.2c0.9,0,1.5-0.2,1.9-0.5c0.4-0.3,0.6-0.8,0.6-1.3c0-0.5-0.2-0.9-0.6-1.3
		c-0.4-0.3-1.2-0.8-2.3-1.2c-1.2-0.5-2.1-1.1-2.6-1.7c-0.5-0.6-0.7-1.4-0.7-2.3c0-1.1,0.4-2,1.2-2.6c0.8-0.6,1.8-1,3.2-1
		c1.3,0,2.5,0.3,3.8,0.8l-0.7,1.8c-1.2-0.5-2.2-0.7-3.2-0.7c-0.7,0-1.2,0.2-1.6,0.5c-0.4,0.3-0.5,0.7-0.5,1.2c0,0.3,0.1,0.6,0.2,0.9
		s0.4,0.5,0.7,0.7c0.3,0.2,0.9,0.5,1.8,0.9c1,0.4,1.7,0.8,2.1,1.1c0.5,0.4,0.8,0.7,1,1.2C1401,270.4,1401.1,270.9,1401.1,271.5z"/>
	<path class="st38" d="M1403.6,275.1v-13.3h2.2v13.3H1403.6z"/>
	<path class="st38" d="M1415.1,275.1l-3.9-11.1h-0.1c0.1,1.6,0.2,3.2,0.2,4.6v6.5h-2v-13.3h3.1l3.7,10.6h0.1l3.8-10.6h3.1v13.3h-2.1
		v-6.6c0-0.7,0-1.5,0-2.6c0-1.1,0.1-1.7,0.1-1.9h-0.1l-4,11.1H1415.1z"/>
	<path class="st38" d="M1437,261.8v8.6c0,1-0.2,1.8-0.6,2.6c-0.4,0.7-1,1.3-1.8,1.7c-0.8,0.4-1.8,0.6-2.9,0.6
		c-1.6,0-2.9-0.4-3.8-1.3c-0.9-0.9-1.4-2.1-1.4-3.6v-8.6h2.2v8.4c0,1.1,0.3,1.9,0.8,2.4c0.5,0.5,1.3,0.8,2.3,0.8
		c2.1,0,3.1-1.1,3.1-3.2v-8.4H1437z"/>
	<path class="st38" d="M1440.4,275.1v-13.3h2.2v11.4h5.6v1.9H1440.4z"/>
	<path class="st38" d="M1458.7,275.1l-1.3-3.7h-5.1l-1.3,3.7h-2.3l5-13.4h2.4l5,13.4H1458.7z M1456.8,269.6l-1.2-3.6
		c-0.1-0.2-0.2-0.6-0.4-1.1c-0.2-0.5-0.3-0.9-0.3-1.1c-0.2,0.7-0.4,1.6-0.7,2.4l-1.2,3.5H1456.8z"/>
	<path class="st38" d="M1467.4,275.1h-2.2v-11.4h-3.9v-1.9h10v1.9h-3.9V275.1z"/>
	<path class="st38" d="M1473.3,275.1v-13.3h2.2v13.3H1473.3z"/>
	<path class="st38" d="M1490.8,268.5c0,2.2-0.5,3.8-1.6,5s-2.6,1.8-4.6,1.8c-2,0-3.5-0.6-4.6-1.8c-1.1-1.2-1.6-2.9-1.6-5.1
		c0-2.2,0.5-3.9,1.6-5.1c1.1-1.2,2.6-1.8,4.6-1.8c2,0,3.5,0.6,4.6,1.8C1490.3,264.6,1490.8,266.3,1490.8,268.5z M1480.7,268.5
		c0,1.6,0.3,2.9,1,3.7c0.7,0.8,1.6,1.3,2.9,1.3c1.3,0,2.3-0.4,2.9-1.3c0.7-0.8,1-2.1,1-3.7c0-1.6-0.3-2.9-1-3.7
		c-0.7-0.8-1.6-1.3-2.9-1.3c-1.3,0-2.3,0.4-3,1.3C1481,265.6,1480.7,266.8,1480.7,268.5z"/>
	<path class="st38" d="M1504.8,275.1h-2.7l-6.5-10.6h-0.1l0,0.6c0.1,1.1,0.1,2.2,0.1,3.1v6.9h-2v-13.3h2.6l6.5,10.5h0.1
		c0-0.1,0-0.6-0.1-1.5c0-0.9-0.1-1.6-0.1-2.1v-7h2V275.1z"/>
	<path class="st38" d="M1515.9,271.5c0,1.2-0.4,2.1-1.3,2.8c-0.9,0.7-2,1-3.5,1c-1.5,0-2.7-0.2-3.7-0.7v-2.1
		c0.6,0.3,1.3,0.5,1.9,0.7c0.7,0.2,1.3,0.2,1.9,0.2c0.9,0,1.5-0.2,1.9-0.5c0.4-0.3,0.6-0.8,0.6-1.3c0-0.5-0.2-0.9-0.6-1.3
		c-0.4-0.3-1.2-0.8-2.3-1.2c-1.2-0.5-2.1-1.1-2.6-1.7c-0.5-0.6-0.7-1.4-0.7-2.3c0-1.1,0.4-2,1.2-2.6c0.8-0.6,1.8-1,3.2-1
		c1.3,0,2.5,0.3,3.8,0.8l-0.7,1.8c-1.2-0.5-2.2-0.7-3.2-0.7c-0.7,0-1.2,0.2-1.6,0.5c-0.4,0.3-0.5,0.7-0.5,1.2c0,0.3,0.1,0.6,0.2,0.9
		c0.1,0.2,0.4,0.5,0.7,0.7c0.3,0.2,0.9,0.5,1.8,0.9c1,0.4,1.7,0.8,2.1,1.1c0.5,0.4,0.8,0.7,1,1.2
		C1515.8,270.4,1515.9,270.9,1515.9,271.5z"/>
</g>
<g>
	<g>
		<path class="st36" d="M1336.1,256.3c0-1.8-1.4-3.2-3.2-3.2h-22.2c-1.8,0-3.2,1.4-3.2,3.2v2.5h28.7V256.3z"/>
	</g>
	<g>
		<path class="st36" d="M1340.8,260.3h-3h-1.6h-28.7v1.1v0.1v25c0,0.6,0.5,1.1,1.1,1.1h32.2c0.6,0,1.1-0.5,1.1-1.1v-25.1
			C1341.8,260.7,1341.4,260.3,1340.8,260.3z M1334,276.7c-1.6,0-2.9-1.3-2.9-2.9c0-1.6,1.3-2.9,2.9-2.9c1.6,0,2.9,1.3,2.9,2.9
			C1336.8,275.5,1335.5,276.7,1334,276.7z"/>
	</g>
</g>
<g>
	<path class="st38" d="M1369.1,675.2c0,1.4-0.5,2.5-1.4,3.2c-0.9,0.7-2.2,1.1-3.9,1.1h-1.4v5h-2.2v-13.3h3.8c1.7,0,2.9,0.3,3.7,1
		C1368.7,672.9,1369.1,673.9,1369.1,675.2z M1362.5,677.7h1.2c1.1,0,1.9-0.2,2.5-0.6c0.5-0.4,0.8-1,0.8-1.8c0-0.8-0.2-1.3-0.7-1.7
		c-0.5-0.4-1.2-0.6-2.2-0.6h-1.5V677.7z"/>
	<path class="st38" d="M1382.2,671.2v8.6c0,1-0.2,1.8-0.6,2.6c-0.4,0.7-1,1.3-1.8,1.7c-0.8,0.4-1.8,0.6-2.9,0.6
		c-1.7,0-2.9-0.4-3.9-1.3c-0.9-0.9-1.4-2.1-1.4-3.6v-8.6h2.2v8.4c0,1.1,0.3,1.9,0.8,2.4c0.5,0.5,1.3,0.8,2.3,0.8
		c2.1,0,3.1-1.1,3.1-3.2v-8.4H1382.2z"/>
	<path class="st38" d="M1385.6,671.2h3.9c1.8,0,3.2,0.3,4,0.8c0.8,0.5,1.2,1.4,1.2,2.5c0,0.8-0.2,1.4-0.6,1.9c-0.4,0.5-1,0.8-1.7,1
		v0.1c0.9,0.2,1.6,0.5,2.1,1c0.4,0.5,0.7,1.2,0.7,2.1c0,1.2-0.4,2.1-1.3,2.8c-0.8,0.7-2,1-3.5,1h-4.8V671.2z M1387.8,676.7h2.1
		c0.9,0,1.6-0.1,2-0.4c0.4-0.3,0.6-0.8,0.6-1.5c0-0.6-0.2-1.1-0.7-1.4c-0.5-0.3-1.2-0.4-2.2-0.4h-1.9V676.7z M1387.8,678.5v4.2h2.3
		c0.9,0,1.6-0.2,2.1-0.5c0.5-0.3,0.7-0.9,0.7-1.7c0-0.7-0.2-1.2-0.7-1.5c-0.5-0.3-1.2-0.5-2.2-0.5H1387.8z"/>
	<path class="st38" d="M1397.9,684.5v-13.3h2.2v11.4h5.6v1.9H1397.9z"/>
	<path class="st38" d="M1408,684.5v-13.3h2.2v13.3H1408z"/>
	<path class="st38" d="M1419.4,672.9c-1.3,0-2.2,0.4-2.9,1.3c-0.7,0.9-1.1,2.1-1.1,3.7c0,1.6,0.3,2.9,1,3.7c0.7,0.8,1.7,1.3,3,1.3
		c0.6,0,1.1-0.1,1.6-0.2c0.5-0.1,1.1-0.3,1.6-0.4v1.9c-1,0.4-2.2,0.6-3.5,0.6c-1.9,0-3.4-0.6-4.5-1.8c-1-1.2-1.6-2.9-1.6-5.1
		c0-1.4,0.3-2.6,0.8-3.6c0.5-1,1.2-1.8,2.2-2.4c1-0.6,2.1-0.8,3.4-0.8c1.4,0,2.6,0.3,3.8,0.9l-0.8,1.8c-0.5-0.2-0.9-0.4-1.4-0.6
		C1420.4,673,1419.9,672.9,1419.4,672.9z"/>
	<path class="st38" d="M1433.8,684.5l-1.3-3.7h-5.1l-1.3,3.7h-2.3l5-13.4h2.4l5,13.4H1433.8z M1431.9,678.9l-1.2-3.6
		c-0.1-0.2-0.2-0.6-0.4-1.1c-0.2-0.5-0.3-0.9-0.3-1.1c-0.2,0.7-0.4,1.6-0.7,2.4l-1.2,3.5H1431.9z"/>
	<path class="st38" d="M1442.4,684.5h-2.2v-11.4h-3.9v-1.9h10v1.9h-3.9V684.5z"/>
	<path class="st38" d="M1448.4,684.5v-13.3h2.2v13.3H1448.4z"/>
	<path class="st38" d="M1465.9,677.8c0,2.2-0.5,3.8-1.6,5c-1.1,1.2-2.6,1.8-4.6,1.8c-2,0-3.6-0.6-4.6-1.8s-1.6-2.9-1.6-5.1
		c0-2.2,0.5-3.9,1.6-5.1s2.6-1.8,4.6-1.8c2,0,3.5,0.6,4.6,1.8C1465.3,674,1465.9,675.7,1465.9,677.8z M1455.7,677.8
		c0,1.6,0.3,2.9,1,3.7c0.7,0.8,1.6,1.3,2.9,1.3c1.3,0,2.3-0.4,2.9-1.3c0.7-0.8,1-2.1,1-3.7c0-1.6-0.3-2.9-1-3.7
		c-0.7-0.8-1.6-1.3-2.9-1.3c-1.3,0-2.3,0.4-3,1.3C1456.1,675,1455.7,676.2,1455.7,677.8z"/>
	<path class="st38" d="M1479.8,684.5h-2.7l-6.5-10.6h-0.1l0,0.6c0.1,1.1,0.1,2.2,0.1,3.1v6.9h-2v-13.3h2.6l6.5,10.5h0.1
		c0-0.1,0-0.6-0.1-1.5c0-0.9-0.1-1.6-0.1-2.1v-7h2V684.5z"/>
	<path class="st38" d="M1491,680.9c0,1.2-0.4,2.1-1.3,2.8c-0.9,0.7-2,1-3.5,1s-2.7-0.2-3.7-0.7v-2.1c0.6,0.3,1.3,0.5,1.9,0.7
		c0.7,0.2,1.3,0.2,1.9,0.2c0.9,0,1.5-0.2,1.9-0.5s0.6-0.8,0.6-1.3c0-0.5-0.2-0.9-0.6-1.3c-0.4-0.3-1.2-0.8-2.3-1.2
		c-1.2-0.5-2.1-1.1-2.6-1.7c-0.5-0.6-0.7-1.4-0.7-2.3c0-1.1,0.4-2,1.2-2.6c0.8-0.6,1.8-1,3.2-1c1.3,0,2.5,0.3,3.8,0.8l-0.7,1.8
		c-1.2-0.5-2.2-0.7-3.2-0.7c-0.7,0-1.2,0.2-1.6,0.5c-0.4,0.3-0.5,0.7-0.5,1.2c0,0.3,0.1,0.6,0.2,0.9s0.4,0.5,0.7,0.7
		c0.3,0.2,0.9,0.5,1.8,0.9c1,0.4,1.7,0.8,2.1,1.1c0.5,0.4,0.8,0.7,1,1.2C1490.9,679.8,1491,680.3,1491,680.9z"/>
</g>
<g>
	<g>
		<path class="st36" d="M1336.1,665.7c0-1.8-1.4-3.2-3.2-3.2h-22.2c-1.8,0-3.2,1.4-3.2,3.2v2.5h28.7V665.7z"/>
	</g>
	<g>
		<path class="st36" d="M1340.8,669.6h-3h-1.6h-28.7v1.1v0.1v25c0,0.6,0.5,1.1,1.1,1.1h32.2c0.6,0,1.1-0.5,1.1-1.1v-25.1
			C1341.8,670.1,1341.4,669.6,1340.8,669.6z M1334,686.1c-1.6,0-2.9-1.3-2.9-2.9c0-1.6,1.3-2.9,2.9-2.9c1.6,0,2.9,1.3,2.9,2.9
			C1336.8,684.8,1335.5,686.1,1334,686.1z"/>
	</g>
</g>
<g>
	<path class="st38" d="M1367.8,31.9h-7.5V18.6h7.5v1.8h-5.3V24h5v1.8h-5V30h5.3V31.9z"/>
	<path class="st38" d="M1380.5,31.9h-2.5l-3.3-5.4l-3.4,5.4h-2.3l4.4-6.9l-4.1-6.4h2.4l3.1,5l3.1-5h2.3L1376,25L1380.5,31.9z"/>
	<path class="st38" d="M1391.1,22.6c0,1.4-0.5,2.5-1.4,3.2c-0.9,0.7-2.2,1.1-3.9,1.1h-1.4v5h-2.2V18.6h3.8c1.7,0,2.9,0.3,3.7,1
		C1390.7,20.3,1391.1,21.3,1391.1,22.6z M1384.5,25.1h1.2c1.1,0,1.9-0.2,2.5-0.6c0.5-0.4,0.8-1,0.8-1.8c0-0.8-0.2-1.3-0.7-1.7
		c-0.5-0.4-1.2-0.6-2.2-0.6h-1.5V25.1z"/>
	<path class="st38" d="M1401.3,31.9h-7.5V18.6h7.5v1.8h-5.3V24h5v1.8h-5V30h5.3V31.9z"/>
	<path class="st38" d="M1406.4,26.6v5.3h-2.2V18.6h3.8c1.7,0,3,0.3,3.8,1c0.8,0.6,1.2,1.6,1.2,2.9c0,1.7-0.9,2.8-2.6,3.5l3.8,5.9
		h-2.5l-3.2-5.3H1406.4z M1406.4,24.8h1.5c1,0,1.7-0.2,2.2-0.6c0.5-0.4,0.7-0.9,0.7-1.7c0-0.8-0.2-1.3-0.7-1.6
		c-0.5-0.3-1.2-0.5-2.2-0.5h-1.4V24.8z"/>
	<path class="st38" d="M1416.1,31.9V18.6h2.2v13.3H1416.1z"/>
	<path class="st38" d="M1427.5,31.9l-3.9-11.1h-0.1c0.1,1.6,0.2,3.2,0.2,4.6v6.5h-2V18.6h3.1l3.7,10.6h0.1l3.8-10.6h3.1v13.3h-2.1
		v-6.6c0-0.7,0-1.5,0-2.6c0-1.1,0.1-1.7,0.1-1.9h-0.1l-4,11.1H1427.5z"/>
	<path class="st38" d="M1446.5,31.9h-7.5V18.6h7.5v1.8h-5.3V24h5v1.8h-5V30h5.3V31.9z"/>
	<path class="st38" d="M1460.5,31.9h-2.7l-6.5-10.6h-0.1l0,0.6c0.1,1.1,0.1,2.2,0.1,3.1v6.9h-2V18.6h2.6l6.5,10.5h0.1
		c0-0.1,0-0.6-0.1-1.5c0-0.9-0.1-1.6-0.1-2.1v-7h2V31.9z"/>
	<path class="st38" d="M1468.6,31.9h-2.2V20.4h-3.9v-1.9h10v1.9h-3.9V31.9z"/>
	<path class="st38" d="M1371.1,47.5c0,2.2-0.6,3.9-1.8,5c-1.2,1.2-3,1.7-5.3,1.7h-3.7V40.9h4.1c2.1,0,3.8,0.6,4.9,1.7
		S1371.1,45.4,1371.1,47.5z M1368.9,47.5c0-3.2-1.5-4.8-4.5-4.8h-1.9v9.7h1.5C1367.2,52.4,1368.9,50.8,1368.9,47.5z"/>
	<path class="st38" d="M1382.3,54.2l-1.3-3.7h-5.1l-1.3,3.7h-2.3l5-13.4h2.4l5,13.4H1382.3z M1380.4,48.7l-1.2-3.6
		c-0.1-0.2-0.2-0.6-0.4-1.1c-0.2-0.5-0.3-0.9-0.3-1.1c-0.2,0.7-0.4,1.6-0.7,2.4l-1.2,3.5H1380.4z"/>
	<path class="st38" d="M1390.9,54.2h-2.2V42.8h-3.9v-1.9h10v1.9h-3.9V54.2z"/>
	<path class="st38" d="M1405.1,54.2l-1.3-3.7h-5.1l-1.3,3.7h-2.3l5-13.4h2.4l5,13.4H1405.1z M1403.2,48.7L1402,45
		c-0.1-0.2-0.2-0.6-0.4-1.1c-0.2-0.5-0.3-0.9-0.3-1.1c-0.2,0.7-0.4,1.6-0.7,2.4l-1.2,3.5H1403.2z"/>
</g>
<g>
	<g>
		<path class="st36" d="M1336.1,20.2c0-1.8-1.4-3.2-3.2-3.2h-22.2c-1.8,0-3.2,1.4-3.2,3.2v2.5h28.7V20.2z"/>
	</g>
	<g>
		<path class="st36" d="M1340.8,24.2h-3h-1.6h-28.7v1.1v0.1v25c0,0.6,0.5,1.1,1.1,1.1h32.2c0.6,0,1.1-0.5,1.1-1.1V25.2
			C1341.8,24.7,1341.4,24.2,1340.8,24.2z M1334,40.7c-1.6,0-2.9-1.3-2.9-2.9c0-1.6,1.3-2.9,2.9-2.9c1.6,0,2.9,1.3,2.9,2.9
			C1336.8,39.4,1335.5,40.7,1334,40.7z"/>
	</g>
</g>
</svg>
