<svg id="Tryb_izolacji" data-name="Tryb izolacji" xmlns="http://www.w3.org/2000/svg" viewBox="0 0 68.98 72.37"><defs><style>.cls-1{fill:#ef3f3f;}</style></defs><title>icon4</title><path class="cls-1" d="M55.41,4.52a9,9,0,1,1-9,9,9,9,0,0,1,9-9m0-4.52A13.57,13.57,0,1,0,69,13.57,13.59,13.59,0,0,0,55.41,0h0Z"/><path class="cls-1" d="M53.15,45.23A11.31,11.31,0,1,1,41.84,56.54,11.31,11.31,0,0,1,53.15,45.23m0-4.52A15.83,15.83,0,1,0,69,56.54,15.85,15.85,0,0,0,53.15,40.71h0Z"/><path class="cls-1" d="M18.09,23.75A13.57,13.57,0,1,1,4.52,37.32,13.57,13.57,0,0,1,18.09,23.75m0-4.52A18.09,18.09,0,1,0,36.19,37.32,18.11,18.11,0,0,0,18.09,19.22h0Z"/><path class="cls-1" d="M16.19,29.14A1.13,1.13,0,0,1,16,26.9a10.66,10.66,0,0,1,2.13-.22,1.13,1.13,0,0,1,0,2.26,8.42,8.42,0,0,0-1.67.17Z"/><path class="cls-1" d="M8.59,38.45a1.13,1.13,0,0,1-1.13-1.13,10.53,10.53,0,0,1,2.13-6.38A1.13,1.13,0,1,1,11.4,32.3a8.29,8.29,0,0,0-1.67,5A1.13,1.13,0,0,1,8.59,38.45Z"/><path class="cls-1" d="M45.61,58.93a1.13,1.13,0,0,1-1.13-1.13,9.84,9.84,0,0,1,2-6,1.13,1.13,0,1,1,1.81,1.36,7.6,7.6,0,0,0-1.53,4.6A1.13,1.13,0,0,1,45.61,58.93Z"/><path class="cls-1" d="M50.26,14.39a1.13,1.13,0,0,1-1.09-1.44,9,9,0,0,1,3.24-4.72A1.13,1.13,0,0,1,53.78,10a6.72,6.72,0,0,0-2.43,3.54A1.13,1.13,0,0,1,50.26,14.39Z"/><path class="cls-1" d="M40.71,53.15a2.25,2.25,0,0,1-1-.24l-9-4.52a2.26,2.26,0,0,1,2-4l9,4.52A2.26,2.26,0,0,1,40.71,53.15Z"/><path class="cls-1" d="M32.8,31.66a2.26,2.26,0,0,1-1.19-4.19l13.57-7.92a2.26,2.26,0,0,1,2.37,3.85L34,31.33A2.25,2.25,0,0,1,32.8,31.66Z"/><path class="cls-1" d="M52.44,25.1a2.26,2.26,0,0,1,4.31.59l1.8,15.61a2.26,2.26,0,0,1-4.48.62l-1.8-15.61A2.25,2.25,0,0,1,52.44,25.1Z"/></svg>