<?xml version="1.0" encoding="utf-8"?>
<!-- Generator: Adobe Illustrator 19.2.1, SVG Export Plug-In . SVG Version: 6.00 Build 0)  -->
<!DOCTYPE svg PUBLIC "-//W3C//DTD SVG 1.1//EN" "http://www.w3.org/Graphics/SVG/1.1/DTD/svg11.dtd">
<svg version="1.1" id="Tryb_izolacji" xmlns="http://www.w3.org/2000/svg" xmlns:xlink="http://www.w3.org/1999/xlink" x="0px"
	 y="0px" width="78.4px" height="68.3px" viewBox="0 0 78.4 68.3" style="enable-background:new 0 0 78.4 68.3;"
	 xml:space="preserve">
<style type="text/css">
	.st0{fill:#EF3F3F;}
</style>
<g>
	<g>
		<g>
			<g>
				<path class="st0" d="M39.2,68.3C20.2,68.3,0,62.7,0,52.5c0-2.8,1.6-5.4,4.8-7.8L6,43.8l1.3,0.9c5.9,4.3,18.4,7.1,31.9,7.1
					c13.5,0,26-2.8,31.9-7.1l1.3-0.9l1.3,0.9c3.2,2.3,4.8,4.9,4.8,7.8C78.4,62.7,58.2,68.3,39.2,68.3z M6.2,49.2
					c-1,0.9-1.9,2.1-1.9,3.3c0,2.6,3.5,5.4,9.4,7.6c6.8,2.5,15.8,3.8,25.5,3.8c9.7,0,18.7-1.4,25.5-3.8c5.9-2.2,9.4-5,9.4-7.6
					c0-1.2-0.9-2.4-1.9-3.3c-7,4.3-19.4,7-33,7C25.6,56.2,13.2,53.6,6.2,49.2z"/>
			</g>
			<g>
				<path class="st0" d="M39.2,50.2C20.2,50.2,0,44.7,0,34.5c0-1.9,0.8-4.9,4.8-7.8L6,25.8l1.3,0.9c5.9,4.3,18.4,7.1,31.9,7.1
					c13.5,0,26-2.8,31.9-7.1l1.3-0.9l1.3,0.9c3.9,2.9,4.8,5.8,4.8,7.8C78.4,44.7,58.2,50.2,39.2,50.2z M6.2,31.1
					c-1,0.9-1.9,2.1-1.9,3.3c0,2.6,3.5,5.4,9.4,7.6c6.8,2.5,15.8,3.8,25.5,3.8c9.7,0,18.7-1.4,25.5-3.8c5.9-2.2,9.4-5,9.4-7.6
					c0-1.2-0.9-2.4-1.9-3.3c-7,4.4-19.4,7-33,7C25.6,38.1,13.2,35.5,6.2,31.1z"/>
			</g>
			<g>
				<path class="st0" d="M39.2,32.1C20.2,32.1,0,26.6,0,16.4C0,6.2,20.2,0.7,39.2,0.7c19,0,39.2,5.5,39.2,15.7
					C78.4,26.6,58.2,32.1,39.2,32.1z M39.2,5c-9.7,0-18.7,1.4-25.5,3.8c-5.9,2.2-9.4,5-9.4,7.6c0,2.6,3.5,5.4,9.4,7.6
					c6.8,2.5,15.8,3.8,25.5,3.8c9.7,0,18.7-1.4,25.5-3.8c5.9-2.2,9.4-5,9.4-7.6c0-2.6-3.5-5.4-9.4-7.6C57.9,6.3,48.9,5,39.2,5z"/>
			</g>
		</g>
	</g>
	<g>
		<path class="st0" d="M27.9,20.5c0.2,0.6-0.2,1.3-0.8,1.4c-6.1,1.6-12.6-0.4-16.7-5.3c-0.4-0.5-0.3-1.2,0.1-1.6
			c0.5-0.4,1.2-0.3,1.6,0.1c3.5,4.2,9.1,5.9,14.3,4.5C27.1,19.5,27.7,19.9,27.9,20.5z"/>
	</g>
</g>
</svg>
