<svg id="Tryb_izolacji" data-name="Tryb izolacji" xmlns="http://www.w3.org/2000/svg" viewBox="0 0 74.79 57.15"><defs><style>.cls-1{fill:#ef3f3f;}</style></defs><title>icon3</title><path class="cls-1" d="M19.73,19.64"/><path class="cls-1" d="M45.77,57.15h-26a19.87,19.87,0,0,1,0-39.74A19.4,19.4,0,0,1,36.27,27a2.32,2.32,0,1,1-4,2.42,14.61,14.61,0,0,0-12.57-7.39,15.23,15.23,0,0,0,0,30.46h9.79c1.28,0,31.93-.37,31.93.91S69,57.15,45.77,57.15Z"/><path class="cls-1" d="M59.6,57.15H45.77a2.32,2.32,0,1,1,0-4.64H59.6c6.92,0,10.54-6.45,10.54-12.81V39.29c0-7-4.16-11.76-10.59-12.17a2.32,2.32,0,0,1-2.17-2.32V22.54A17.67,17.67,0,0,0,39.55,4.64a17.85,17.85,0,0,0-17.6,15.23,2.32,2.32,0,0,1-4.58-.73A22.45,22.45,0,0,1,62,22.54v0.21c7.72,1.44,12.77,7.84,12.77,16.54V39.7C74.79,49.81,68.4,57.15,59.6,57.15Z"/><path class="cls-1" d="M54.62,23.12A1.16,1.16,0,0,1,53.46,22,13.42,13.42,0,0,0,42.35,8.68a1.16,1.16,0,1,1,.39-2.29A15.73,15.73,0,0,1,55.78,22,1.16,1.16,0,0,1,54.62,23.12Z"/><path class="cls-1" d="M33.81,9.87a1.16,1.16,0,0,1-.5-2.21,15.67,15.67,0,0,1,3.59-1.19,1.16,1.16,0,1,1,.46,2.28,13.4,13.4,0,0,0-3.06,1A1.15,1.15,0,0,1,33.81,9.87Z"/></svg>