<?xml version="1.0" encoding="UTF-8" standalone="no"?>
<!-- Generator: Adobe Illustrator 19.2.1, SVG Export Plug-In . SVG Version: 6.00 Build 0)  -->

<svg
   xmlns:dc="http://purl.org/dc/elements/1.1/"
   xmlns:cc="http://creativecommons.org/ns#"
   xmlns:rdf="http://www.w3.org/1999/02/22-rdf-syntax-ns#"
   xmlns:svg="http://www.w3.org/2000/svg"
   xmlns="http://www.w3.org/2000/svg"
   xmlns:sodipodi="http://sodipodi.sourceforge.net/DTD/sodipodi-0.dtd"
   xmlns:inkscape="http://www.inkscape.org/namespaces/inkscape"
   version="1.1"
   id="Layer_1"
   x="0px"
   y="0px"
   width="535"
   height="410.00961"
   viewBox="0 0 535.00002 410.00962"
   xml:space="preserve"
   inkscape:version="0.48.4 r9939"
   sodipodi:docname="logo-indigo-bw.svg"><sodipodi:namedview
     pagecolor="#ffffff"
     bordercolor="#666666"
     borderopacity="1"
     objecttolerance="10"
     gridtolerance="10"
     guidetolerance="10"
     inkscape:pageopacity="0"
     inkscape:pageshadow="2"
     inkscape:window-width="1280"
     inkscape:window-height="969"
     id="namedview64"
     showgrid="false"
     fit-margin-top="0"
     fit-margin-left="0"
     fit-margin-right="0"
     fit-margin-bottom="0"
     inkscape:zoom="0.58867549"
     inkscape:cx="-18.64786"
     inkscape:cy="200.45"
     inkscape:window-x="-2"
     inkscape:window-y="-3"
     inkscape:window-maximized="1"
     inkscape:current-layer="g5" /><metadata
     id="metadata68"><rdf:RDF><cc:Work
         rdf:about=""><dc:format>image/svg+xml</dc:format><dc:type
           rdf:resource="http://purl.org/dc/dcmitype/StillImage" /><dc:title></dc:title></cc:Work></rdf:RDF></metadata><defs
     id="defs66" /><style
     id="style3"
     type="text/css">
	.st0{fill:#010101;}
	.st1{fill:url(#SVGID_1_);}
</style><g
     transform="translate(1,9.1096)"
     id="g5"><g
       id="g7"
       style="fill:#ffffff"><path
         style="fill:#ffffff"
         inkscape:connector-curvature="0"
         id="path9"
         d="M 2,400.2 C 1.4,400.2 0.9,400 0.5,399.7 0.1,399.3 0,398.8 0,398.2 L 0,356 c 0,-0.6 0.2,-1.1 0.5,-1.5 C 0.9,354.1 1.4,354 2,354 l 2.4,0 c 0.6,0 1.1,0.2 1.5,0.5 0.4,0.4 0.5,0.9 0.5,1.5 l 0,42.2 c 0,0.6 -0.2,1.1 -0.5,1.5 -0.4,0.4 -0.9,0.5 -1.5,0.5 l -2.4,0 z"
         class="st0" /><path
         style="fill:#ffffff"
         inkscape:connector-curvature="0"
         id="path11"
         d="m 43.6,400.2 c -0.6,0 -1.1,-0.2 -1.5,-0.5 -0.4,-0.3 -0.8,-0.9 -1.2,-1.5 L 23.6,367.9 c -0.2,-0.4 -0.5,-0.5 -0.7,-0.4 -0.2,0.1 -0.4,0.3 -0.4,0.7 l 0,30 c 0,0.6 -0.2,1.1 -0.5,1.5 -0.4,0.4 -0.9,0.5 -1.5,0.5 l -2.5,0 c -0.6,0 -1.1,-0.2 -1.5,-0.5 -0.4,-0.4 -0.5,-0.9 -0.5,-1.5 L 16,356 c 0,-0.6 0.2,-1.1 0.5,-1.5 0.4,-0.4 0.9,-0.5 1.5,-0.5 l 2.7,0 c 0.7,0 1.2,0.1 1.7,0.4 0.5,0.2 0.9,0.7 1.2,1.3 l 16.5,28.8 c 0.2,0.3 0.4,0.4 0.6,0.3 0.2,0 0.4,-0.2 0.4,-0.6 l 0,-28.2 c 0,-0.6 0.2,-1.1 0.5,-1.5 0.4,-0.4 0.9,-0.5 1.5,-0.5 l 2.4,0 c 0.6,0 1.1,0.2 1.5,0.5 0.4,0.4 0.5,0.9 0.5,1.5 l 0,42.2 c 0,0.6 -0.2,1.1 -0.5,1.5 -0.4,0.4 -0.9,0.5 -1.5,0.5 l -1.9,0 0,0 z"
         class="st0" /><path
         style="fill:#ffffff"
         inkscape:connector-curvature="0"
         id="path13"
         d="m 59.2,400.2 c -0.6,0 -1.1,-0.2 -1.5,-0.5 -0.4,-0.4 -0.5,-0.9 -0.5,-1.5 l 0,-42.2 c 0,-0.6 0.2,-1.1 0.5,-1.5 0.4,-0.4 0.9,-0.5 1.5,-0.5 l 11.9,0 c 2.5,0 4.8,0.4 6.8,1.3 2.1,0.8 3.8,2 5.3,3.4 1.5,1.4 2.6,3.2 3.4,5.2 0.8,2 1.2,4.2 1.2,6.5 l 0,13.6 c 0,2.3 -0.4,4.5 -1.2,6.5 -0.8,2 -1.9,3.7 -3.4,5.2 -1.5,1.5 -3.2,2.6 -5.3,3.4 -2.1,0.8 -4.3,1.3 -6.8,1.3 l -11.9,-0.2 0,0 z m 22.1,-29.9 c 0,-1.6 -0.2,-3 -0.7,-4.3 -0.5,-1.3 -1.2,-2.3 -2.1,-3.2 -0.9,-0.9 -2,-1.6 -3.2,-2 -1.2,-0.5 -2.6,-0.7 -4.1,-0.7 l -6.8,0 c -0.5,0 -0.7,0.2 -0.7,0.7 l 0,32.7 c 0,0.5 0.2,0.7 0.7,0.7 l 6.8,0 c 1.5,0 2.9,-0.2 4.1,-0.7 1.2,-0.5 2.3,-1.1 3.2,-2 0.9,-0.9 1.6,-1.9 2.1,-3.2 0.5,-1.3 0.7,-2.7 0.7,-4.4 l 0,-13.6 z"
         class="st0" /><path
         style="fill:#ffffff"
         inkscape:connector-curvature="0"
         id="path15"
         d="m 98.7,400.2 c -0.6,0 -1.1,-0.2 -1.5,-0.5 -0.4,-0.4 -0.5,-0.9 -0.5,-1.5 l 0,-42.2 c 0,-0.6 0.2,-1.1 0.5,-1.5 0.4,-0.4 0.9,-0.5 1.5,-0.5 l 2.4,0 c 0.6,0 1.1,0.2 1.5,0.5 0.4,0.4 0.5,0.9 0.5,1.5 l 0,42.2 c 0,0.6 -0.2,1.1 -0.5,1.5 -0.4,0.4 -0.9,0.5 -1.5,0.5 l -2.4,0 z"
         class="st0" /><path
         style="fill:#ffffff"
         inkscape:connector-curvature="0"
         id="path17"
         d="m 143,385.6 c 0,2.3 -0.4,4.4 -1.2,6.3 -0.8,1.9 -1.9,3.5 -3.2,4.8 -1.4,1.3 -3,2.4 -5,3.1 -1.9,0.7 -4.1,1.1 -6.4,1.1 -2.2,0 -4.3,-0.4 -6.1,-1.2 -1.9,-0.8 -3.5,-1.9 -4.8,-3.3 -1.4,-1.4 -2.4,-3.2 -3.2,-5.2 -0.7,-2 -1.1,-4.2 -1.1,-6.6 l 0,-15 c 0,-2.4 0.4,-4.5 1.2,-6.6 0.8,-2 1.9,-3.7 3.3,-5.2 1.4,-1.4 3,-2.6 4.9,-3.4 1.9,-0.8 4,-1.2 6.2,-1.2 1.5,0 2.9,0.1 4.1,0.4 1.2,0.3 2.3,0.7 3.3,1.1 1,0.5 1.9,1 2.6,1.5 0.7,0.6 1.4,1.1 1.9,1.6 1,1 1,1.9 0,2.9 l -1.6,1.6 c -0.5,0.5 -0.9,0.7 -1.3,0.7 -0.4,0 -0.9,-0.2 -1.4,-0.7 -0.6,-0.5 -1.5,-1.2 -2.7,-1.9 -1.2,-0.7 -2.8,-1.1 -4.9,-1.1 -1.5,0 -2.7,0.3 -3.8,0.8 -1.1,0.5 -2.1,1.2 -2.9,2.2 -0.8,0.9 -1.4,2 -1.8,3.3 -0.4,1.2 -0.6,2.6 -0.6,4 l 0,15 c 0,3 0.7,5.5 2.2,7.4 1.5,1.9 3.7,2.8 6.5,2.8 3.1,0 5.4,-0.9 6.9,-2.6 1.5,-1.7 2.3,-3.9 2.3,-6.6 l 0,-0.6 c 0,-0.4 0,-0.6 -0.1,-0.7 -0.1,-0.1 -0.2,-0.2 -0.5,-0.3 L 124,377.3 c -0.5,-0.3 -0.8,-0.7 -1,-1.2 -0.2,-0.5 -0.1,-1 0.2,-1.6 l 1,-1.8 c 0.3,-0.5 0.7,-0.9 1.2,-1.1 0.5,-0.2 1,-0.1 1.5,0.2 l 14.4,8.3 c 0.6,0.4 1,0.7 1.2,1.1 0.2,0.3 0.3,0.8 0.3,1.5 l 0.2,2.9 0,0 z"
         class="st0" /><path
         style="fill:#ffffff"
         inkscape:connector-curvature="0"
         id="path19"
         d="m 181.4,385.2 c 0,2.3 -0.4,4.4 -1.2,6.4 -0.8,1.9 -1.9,3.6 -3.3,4.9 -1.4,1.3 -3.1,2.4 -5.1,3.2 -2,0.8 -4.1,1.2 -6.4,1.2 -2.3,0 -4.4,-0.4 -6.4,-1.2 -2,-0.8 -3.6,-1.8 -5.1,-3.2 -1.5,-1.4 -2.5,-3 -3.3,-4.9 -0.8,-1.9 -1.2,-4.1 -1.2,-6.4 l 0,-16.3 c 0,-2.3 0.4,-4.4 1.2,-6.4 0.8,-1.9 1.9,-3.6 3.3,-4.9 1.4,-1.3 3.1,-2.4 5.1,-3.2 2,-0.8 4.1,-1.2 6.4,-1.2 2.3,0 4.4,0.4 6.4,1.2 2,0.8 3.6,1.8 5.1,3.2 1.5,1.4 2.5,3 3.3,4.9 0.8,1.9 1.2,4 1.2,6.4 l 0,16.3 z m -6.5,-16.3 c 0,-2.7 -0.8,-5 -2.5,-6.8 -1.7,-1.8 -4,-2.7 -7.1,-2.7 -3.1,0 -5.4,0.9 -7.1,2.7 -1.7,1.8 -2.5,4.1 -2.5,6.8 l 0,16.3 c 0,2.7 0.8,5 2.5,6.8 1.7,1.8 4,2.7 7.1,2.7 3.1,0 5.4,-0.9 7.1,-2.7 1.6,-1.8 2.5,-4.1 2.5,-6.8 l 0,-16.3 z"
         class="st0" /><path
         style="fill:#ffffff"
         inkscape:connector-curvature="0"
         id="path21"
         d="m 211.4,386.3 c -0.6,0 -1.1,-0.2 -1.5,-0.5 -0.4,-0.4 -0.5,-0.9 -0.5,-1.5 l 0,-1.7 c 0,-0.6 0.2,-1.1 0.5,-1.5 0.4,-0.4 0.9,-0.5 1.5,-0.5 l 10.9,0 c 0.6,0 1.1,0.2 1.5,0.5 0.4,0.4 0.5,0.9 0.5,1.5 l 0,1.7 c 0,0.6 -0.2,1.1 -0.5,1.5 -0.4,0.4 -0.9,0.5 -1.5,0.5 l -10.9,0 z"
         class="st0" /><path
         style="fill:#ffffff"
         inkscape:connector-curvature="0"
         id="path23"
         d="m 254.9,400.2 c -0.6,0 -1.1,-0.2 -1.5,-0.5 -0.4,-0.4 -0.5,-0.9 -0.5,-1.5 l 0,-42.2 c 0,-0.6 0.2,-1.1 0.5,-1.5 0.4,-0.4 0.9,-0.5 1.5,-0.5 l 11.9,0 c 2.5,0 4.8,0.4 6.8,1.3 2.1,0.8 3.8,2 5.3,3.4 1.5,1.5 2.6,3.2 3.4,5.2 0.8,2 1.2,4.2 1.2,6.5 l 0,13.6 c 0,2.3 -0.4,4.5 -1.2,6.5 -0.8,2 -1.9,3.7 -3.4,5.2 -1.5,1.5 -3.2,2.6 -5.3,3.4 -2.1,0.8 -4.3,1.3 -6.8,1.3 l -11.9,-0.2 0,0 z m 22.2,-29.9 c 0,-1.6 -0.2,-3 -0.7,-4.3 -0.5,-1.3 -1.2,-2.3 -2.1,-3.2 -0.9,-0.9 -2,-1.6 -3.2,-2 -1.2,-0.5 -2.6,-0.7 -4.1,-0.7 l -7,0 c -0.5,0 -0.7,0.2 -0.7,0.7 l 0,32.7 c 0,0.5 0.2,0.7 0.7,0.7 l 6.8,0 c 1.5,0 2.9,-0.2 4.1,-0.7 1.2,-0.5 2.3,-1.1 3.2,-2 0.9,-0.9 1.6,-1.9 2.1,-3.2 0.5,-1.3 0.7,-2.7 0.7,-4.4 l 0,-13.6 z"
         class="st0" /><path
         style="fill:#ffffff"
         inkscape:connector-curvature="0"
         id="path25"
         d="m 312.8,400.2 c -0.6,0 -1.1,-0.2 -1.5,-0.6 -0.4,-0.4 -0.5,-0.9 -0.5,-1.4 0,-0.3 -0.1,-0.4 -0.3,-0.5 -0.2,-0.1 -0.4,0 -0.6,0.2 -0.6,0.9 -1.6,1.6 -2.8,2.1 -1.2,0.5 -2.8,0.8 -4.5,0.8 -1.6,0 -3,-0.3 -4.4,-0.9 -1.3,-0.6 -2.5,-1.4 -3.4,-2.5 -1,-1.1 -1.7,-2.4 -2.2,-3.9 -0.5,-1.5 -0.8,-3.2 -0.8,-5 l 0,-6.1 c 0,-1.8 0.3,-3.4 1,-5 0.6,-1.6 1.5,-3 2.7,-4.1 1.2,-1.1 2.5,-2.1 4.1,-2.8 1.6,-0.7 3.3,-1 5.2,-1 l 10.1,0 c 0.6,0 1.1,0.2 1.5,0.5 0.4,0.4 0.5,0.9 0.5,1.5 l 0,26.5 c 0,0.6 -0.2,1.1 -0.5,1.5 -0.4,0.4 -0.9,0.5 -1.5,0.5 l -2.1,0.2 0,0 z m -2,-24.2 c 0,-0.5 -0.2,-0.7 -0.7,-0.7 l -5.1,0 c -2.3,0 -4,0.7 -5.3,2.1 -1.2,1.4 -1.9,3.1 -1.9,5 l 0,6.7 c 0,1.7 0.5,3.1 1.5,4.2 1,1.1 2.4,1.6 4.3,1.6 1.2,0 2.3,-0.2 3.2,-0.6 0.9,-0.4 1.6,-1 2.2,-1.7 0.6,-0.7 1,-1.5 1.3,-2.4 0.3,-0.9 0.4,-1.8 0.4,-2.8 l 0.1,-11.4 0,0 z"
         class="st0" /><path
         style="fill:#ffffff"
         inkscape:connector-curvature="0"
         id="path27"
         d="m 337.4,400.2 c -3.4,0 -5.9,-0.9 -7.5,-2.8 -1.6,-1.9 -2.4,-4.4 -2.4,-7.8 l 0,-13.6 c 0,-0.5 -0.2,-0.7 -0.7,-0.7 l -2,0 c -0.6,0 -1.1,-0.2 -1.5,-0.5 -0.4,-0.4 -0.5,-0.9 -0.5,-1.5 l 0,-1.7 c 0,-0.6 0.2,-1.1 0.5,-1.5 0.4,-0.4 0.9,-0.5 1.5,-0.5 l 2,0 c 0.5,0 0.7,-0.2 0.7,-0.7 l 0,-4.8 c 0,-0.6 0.2,-1.1 0.5,-1.5 0.4,-0.4 0.9,-0.5 1.5,-0.5 l 2,0 c 0.6,0 1.1,0.2 1.5,0.5 0.4,0.4 0.5,0.9 0.5,1.5 l 0,4.8 c 0,0.5 0.2,0.7 0.7,0.7 l 5.1,0 c 0.6,0 1.1,0.2 1.5,0.5 0.4,0.4 0.5,0.9 0.5,1.5 l 0,1.7 c 0,0.6 -0.2,1.1 -0.5,1.5 -0.4,0.4 -0.9,0.5 -1.5,0.5 l -5.1,0 c -0.5,0 -0.7,0.2 -0.7,0.7 l 0,13.3 c 0,1.6 0.3,2.8 0.9,3.7 0.6,0.9 1.8,1.4 3.5,1.4 l 1.4,0 c 0.6,0 1.1,0.2 1.5,0.5 0.4,0.3 0.5,0.9 0.5,1.5 l 0,1.7 c 0,0.6 -0.2,1.1 -0.5,1.5 -0.4,0.4 -0.9,0.5 -1.5,0.5 l -1.9,0.1 0,0 z"
         class="st0" /><path
         style="fill:#ffffff"
         inkscape:connector-curvature="0"
         id="path29"
         d="m 368.6,400.2 c -0.6,0 -1.1,-0.2 -1.5,-0.6 -0.4,-0.4 -0.5,-0.9 -0.5,-1.4 0,-0.3 -0.1,-0.4 -0.3,-0.5 -0.2,-0.1 -0.4,0 -0.6,0.2 -0.6,0.9 -1.6,1.6 -2.8,2.1 -1.2,0.5 -2.8,0.8 -4.5,0.8 -1.6,0 -3,-0.3 -4.4,-0.9 -1.3,-0.6 -2.5,-1.4 -3.4,-2.5 -1,-1.1 -1.7,-2.4 -2.2,-3.9 -0.5,-1.5 -0.8,-3.2 -0.8,-5 l 0,-6.1 c 0,-1.8 0.3,-3.4 1,-5 0.6,-1.6 1.5,-3 2.7,-4.1 1.2,-1.2 2.5,-2.1 4.1,-2.8 1.6,-0.7 3.3,-1 5.2,-1 l 10.1,0 c 0.6,0 1.1,0.2 1.5,0.5 0.4,0.4 0.5,0.9 0.5,1.5 l 0,26.5 c 0,0.6 -0.2,1.1 -0.5,1.5 -0.4,0.4 -0.9,0.5 -1.5,0.5 l -2.1,0.2 0,0 z m -2,-24.2 c 0,-0.5 -0.2,-0.7 -0.7,-0.7 l -5.1,0 c -2.3,0 -4,0.7 -5.3,2.1 -1.2,1.4 -1.9,3.1 -1.9,5 l 0,6.7 c 0,1.7 0.5,3.1 1.5,4.2 1,1.1 2.4,1.6 4.3,1.6 1.2,0 2.3,-0.2 3.2,-0.6 0.9,-0.4 1.6,-1 2.2,-1.7 0.6,-0.7 1,-1.5 1.3,-2.4 0.3,-0.9 0.4,-1.8 0.4,-2.8 l 0.1,-11.4 0,0 z"
         class="st0" /><path
         style="fill:#ffffff"
         inkscape:connector-curvature="0"
         id="path31"
         d="m 409.1,392.7 c 0.5,0.5 0.7,1 0.6,1.5 0,0.5 -0.2,1 -0.6,1.4 -1.5,1.5 -3.2,2.7 -5.1,3.7 -2,1 -4.5,1.6 -7.6,1.6 -2.2,0 -4.3,-0.4 -6.2,-1.2 -1.9,-0.8 -3.6,-1.9 -4.9,-3.3 -1.4,-1.4 -2.5,-3.2 -3.3,-5.2 -0.8,-2 -1.2,-4.2 -1.2,-6.6 l 0,-15 c 0,-2.4 0.4,-4.5 1.2,-6.6 0.8,-2 1.9,-3.7 3.3,-5.2 1.4,-1.4 3,-2.6 4.9,-3.4 1.9,-0.8 4,-1.2 6.2,-1.2 1.5,0 2.9,0.1 4.1,0.4 1.2,0.3 2.3,0.7 3.3,1.1 1,0.5 1.9,1 2.6,1.5 0.7,0.6 1.4,1.1 1.9,1.6 1,1 1,1.9 0,2.9 l -1.6,1.6 c -0.5,0.5 -0.9,0.7 -1.3,0.7 -0.4,0 -0.9,-0.2 -1.4,-0.7 -0.6,-0.5 -1.5,-1.2 -2.7,-1.9 -1.2,-0.7 -2.8,-1.1 -4.9,-1.1 -1.5,0 -2.7,0.3 -3.8,0.8 -1.1,0.5 -2.1,1.2 -2.9,2.2 -0.8,0.9 -1.4,2 -1.8,3.3 -0.4,1.2 -0.6,2.6 -0.6,4 l 0,15 c 0,3 0.8,5.5 2.4,7.4 1.6,1.9 3.8,2.8 6.7,2.8 2,0 3.7,-0.4 5.1,-1.1 1.4,-0.7 2.5,-1.5 3.4,-2.3 0.4,-0.4 0.9,-0.6 1.4,-0.6 0.5,0 1,0.2 1.5,0.6 l 1.3,1.3 z"
         class="st0" /><path
         style="fill:#ffffff"
         inkscape:connector-curvature="0"
         id="path33"
         d="m 425.2,400.2 c -2.9,0 -5,-0.8 -6.3,-2.4 -1.3,-1.6 -1.9,-3.7 -1.9,-6.5 l 0,-35.3 c 0,-0.6 0.2,-1.1 0.5,-1.5 0.4,-0.4 0.9,-0.5 1.5,-0.5 l 2,0 c 0.6,0 1.1,0.2 1.5,0.5 0.4,0.4 0.5,0.9 0.5,1.5 l 0,36 c 0,0.7 0.2,1.3 0.6,1.7 0.4,0.4 1,0.6 1.8,0.6 l 0.7,0 c 0.6,0 1.1,0.2 1.5,0.5 0.4,0.4 0.5,0.9 0.5,1.5 l 0,1.7 c 0,0.6 -0.2,1.1 -0.5,1.5 -0.4,0.4 -0.9,0.5 -1.5,0.5 l -0.9,0.2 0,0 z"
         class="st0" /><path
         style="fill:#ffffff"
         inkscape:connector-curvature="0"
         id="path35"
         d="m 448.3,400.9 c -2.2,0 -4.3,-0.4 -6.2,-1.3 -1.9,-0.8 -3.6,-2 -5.1,-3.4 -1.5,-1.5 -2.6,-3.1 -3.4,-5.1 -0.8,-1.9 -1.3,-4 -1.3,-6.2 0,-2.2 0.4,-4.3 1.3,-6.2 0.8,-1.9 2,-3.6 3.4,-5.1 1.5,-1.5 3.1,-2.6 5.1,-3.4 1.9,-0.8 4,-1.3 6.2,-1.3 2.2,0 4.3,0.4 6.2,1.3 1.9,0.8 3.6,2 5.1,3.4 1.5,1.5 2.6,3.1 3.4,5.1 0.8,1.9 1.3,4 1.3,6.2 0,2.2 -0.4,4.3 -1.3,6.2 -0.8,1.9 -2,3.6 -3.4,5.1 -1.5,1.5 -3.1,2.6 -5.1,3.4 -1.9,0.9 -4,1.3 -6.2,1.3 z m 0,-5.8 c 1.4,0 2.7,-0.3 3.9,-0.8 1.2,-0.5 2.2,-1.3 3.1,-2.2 0.9,-0.9 1.6,-2 2.1,-3.2 0.5,-1.2 0.7,-2.6 0.7,-4 0,-1.4 -0.2,-2.7 -0.7,-4 -0.5,-1.2 -1.2,-2.3 -2.1,-3.2 -0.9,-0.9 -1.9,-1.6 -3.1,-2.2 -1.2,-0.5 -2.5,-0.8 -3.9,-0.8 -1.4,0 -2.7,0.3 -3.9,0.8 -1.2,0.5 -2.2,1.3 -3.1,2.2 -0.9,0.9 -1.6,2 -2.1,3.2 -0.5,1.2 -0.7,2.6 -0.7,4 0,1.4 0.2,2.7 0.7,4 0.5,1.2 1.2,2.3 2.1,3.2 0.9,0.9 1.9,1.6 3.1,2.2 1.1,0.5 2.5,0.8 3.9,0.8 z"
         class="st0" /><path
         style="fill:#ffffff"
         inkscape:connector-curvature="0"
         id="path37"
         d="m 489.8,371.6 c 0,-0.6 0.2,-1.1 0.5,-1.5 0.4,-0.4 0.9,-0.5 1.5,-0.5 l 2,0 c 0.6,0 1.1,0.2 1.5,0.5 0.4,0.4 0.5,0.9 0.5,1.5 l 0,17 c 0,1.6 -0.3,3.2 -0.9,4.7 -0.6,1.5 -1.4,2.8 -2.5,3.9 -1.1,1.1 -2.4,2 -3.9,2.7 -1.5,0.7 -3.2,1 -5.1,1 -1.9,0 -3.6,-0.3 -5.1,-1 -1.5,-0.7 -2.8,-1.5 -3.9,-2.7 -1.1,-1.1 -1.9,-2.4 -2.5,-3.9 -0.6,-1.5 -0.9,-3.1 -0.9,-4.7 l 0,-17 c 0,-0.6 0.2,-1.1 0.5,-1.5 0.4,-0.4 0.9,-0.5 1.5,-0.5 l 2,0 c 0.6,0 1.1,0.2 1.5,0.5 0.4,0.4 0.5,0.9 0.5,1.5 l 0,17 c 0,1.7 0.5,3.2 1.5,4.5 1,1.3 2.6,1.9 4.8,1.9 2.2,0 3.8,-0.6 4.8,-1.9 1,-1.3 1.5,-2.8 1.5,-4.5 l 0.2,-17 0,0 z"
         class="st0" /><path
         style="fill:#ffffff"
         inkscape:connector-curvature="0"
         id="path39"
         d="m 515.3,400.2 c -1.8,0 -3.4,-0.3 -4.9,-0.9 -1.5,-0.6 -2.7,-1.4 -3.8,-2.4 -1.1,-1 -1.9,-2.2 -2.4,-3.7 -0.6,-1.4 -0.9,-3 -0.9,-4.6 l 0,-7.5 c 0,-1.6 0.3,-3.2 0.9,-4.6 0.6,-1.4 1.4,-2.7 2.4,-3.7 1,-1 2.2,-1.8 3.7,-2.4 1.5,-0.6 3,-0.9 4.7,-0.9 l 6.7,0 c 0.5,0 0.7,-0.2 0.7,-0.7 l 0,-12.8 c 0,-0.6 0.2,-1.1 0.5,-1.5 0.4,-0.4 0.9,-0.5 1.5,-0.5 l 2,0 c 0.6,0 1.1,0.2 1.5,0.5 0.4,0.4 0.5,0.9 0.5,1.5 l 0,42.2 c 0,0.6 -0.2,1.1 -0.5,1.5 -0.4,0.4 -0.9,0.5 -1.5,0.5 l -11.1,0 0,0 z m 7.2,-24.2 c 0,-0.5 -0.2,-0.7 -0.7,-0.7 l -6.5,0 c -1.7,0 -3.1,0.5 -4.2,1.6 -1.1,1.1 -1.6,2.5 -1.6,4.2 l 0,7.5 c 0,1.7 0.6,3.1 1.7,4.2 1.1,1.1 2.5,1.6 4.1,1.6 l 6.5,0 c 0.5,0 0.7,-0.2 0.7,-0.7 l 0,-17.7 0,0 z"
         class="st0" /></g><g
       id="g41"><g
         id="g45"
         transform="translate(0,16)"
         style="fill:#ffffff"><g
           id="g47"
           style="fill:#ffffff"><linearGradient
             gradientTransform="matrix(1,0,0,-1,0,402)"
             y2="243.78481"
             x2="516.63898"
             y1="243.78481"
             x1="12.388"
             gradientUnits="userSpaceOnUse"
             id="SVGID_1_"><stop
               id="stop50"
               style="stop-color:#3e3e3e"
               offset="0" /><stop
               id="stop52"
               style="stop-color:#383838"
               offset="0.1363" /><stop
               id="stop54"
               style="stop-color:#2b2b2b"
               offset="0.4154" /><stop
               id="stop56"
               style="stop-color:#212121"
               offset="0.6625" /><stop
               id="stop58"
               style="stop-color:#1a1a1a"
               offset="0.8659" /><stop
               id="stop60"
               style="stop-color:#171717"
               offset="1" /></linearGradient><path
             style="fill:#ffffff"
             inkscape:connector-curvature="0"
             id="path62"
             d="m 405.7,56.4 c -52.3,-3.7 -79.3,24.9 -105.9,54.2 -31.4,34.5 -59.7,62 -92,97.1 -22.5,24.5 -42.1,55.5 -92,47.9 C 78.5,250 52,212.7 51.5,177.4 50.8,124.4 112.2,71.9 166.3,106.1 l 30.1,-25.4 c 0,0 0.2,-0.1 0.2,-0.1 l 0,-0.8 C 197.6,54 219,31.1 245,33.4 c 21.5,1.9 31.5,10.4 41.6,21 4.7,5 18.4,11 29.7,3.4 8.4,-5.6 9.1,-17.1 7.9,-22.6 C 322,25.2 318.3,22.7 314.7,19 297.1,0.39999953 272.7,-12.000001 245,-12.000001 201,-12.000001 164.2,18.2 153.9,59 l -0.5,-0.2 c 0,0 -6.2,-2.1 -9.9,-2.4 -72,-6.3 -122.1,45.8 -131.1,107.2 0,8.4 0,16.8 0,25.2 11,67.4 63,113 129.8,107.2 59.6,-5.2 88.8,-58.5 127.3,-97.1 15.8,-15.8 32.3,-31.9 46.6,-47.9 22.5,-25.1 39.1,-54.9 79.4,-55.5 49,-0.7 82.5,38.4 81.9,81.9 -0.6,46 -48.7,94.8 -104.6,75.6 -30.2,-10.4 -36.5,-27 -48.9,-42.7 -5.1,-6.4 -18.8,-7.6 -26.1,-1.2 -8.1,7.3 -7.2,20.9 -4,26.9 23.7,44.7 69.4,62.7 111.8,59.8 63.3,-4.3 100.1,-49.5 110.9,-107.2 0,-8.4 0,-16.8 0,-25.2 C 506,101.8 464.7,60.6 405.7,56.4 z"
             class="st1" /><linearGradient
             gradientTransform="matrix(1,0,0,-1,0,386)"
             y2="243.78481"
             x2="516.63898"
             y1="243.78481"
             x1="12.388"
             gradientUnits="userSpaceOnUse"
             id="SVGID_1_-308"><stop
               id="stop4282"
               style="stop-color:#3e3e3e"
               offset="0" /><stop
               id="stop4284"
               style="stop-color:#383838"
               offset="0.1363" /><stop
               id="stop4286"
               style="stop-color:#2b2b2b"
               offset="0.4154" /><stop
               id="stop4288"
               style="stop-color:#212121"
               offset="0.6625" /><stop
               id="stop4290"
               style="stop-color:#1a1a1a"
               offset="0.8659" /><stop
               id="stop4292"
               style="stop-color:#171717"
               offset="1" /></linearGradient></g></g></g></g></svg>