<?xml version="1.0" encoding="utf-8"?>
<!-- Generator: Adobe Illustrator 19.2.1, SVG Export Plug-In . SVG Version: 6.00 Build 0)  -->
<!DOCTYPE svg PUBLIC "-//W3C//DTD SVG 1.1//EN" "http://www.w3.org/Graphics/SVG/1.1/DTD/svg11.dtd">
<svg version="1.1" id="Livello_3" xmlns="http://www.w3.org/2000/svg" xmlns:xlink="http://www.w3.org/1999/xlink" x="0px" y="0px"
	 width="312.2px" height="303.5px" viewBox="0 0 312.2 303.5" enable-background="new 0 0 312.2 303.5" xml:space="preserve">
<g>
	<path fill="#FFFFFF" d="M287.9,239.5L268.6,227c14.4-22.2,21.5-47.9,20.6-74.3l23-0.8C313.2,183,304.8,213.3,287.9,239.5z"/>
</g>
<g>
	<defs>
		<path id="SVGID_1_" d="M152.9,303.5c-14.4,0-29-2.1-43.2-6.3c-38.7-11.5-70.6-37.4-89.9-72.9c-19.2-35.5-23.5-76.4-12-115.1
			c11.5-38.7,37.4-70.6,72.9-89.9C116.2,0.1,157-4.2,195.7,7.3c38.7,11.5,70.6,37.4,89.9,72.9c10.8,19.9,16.9,41.3,18.1,63.7
			l-23,1.3c-1-19-6.2-37.2-15.3-54c-16.3-30.1-43.4-52-76.2-61.8c-32.8-9.7-67.5-6.1-97.6,10.2c-30.1,16.3-52,43.4-61.8,76.2
			c-9.7,32.8-6.1,67.5,10.2,97.6c16.3,30.1,43.4,52,76.2,61.8c32.8,9.7,67.5,6.1,97.6-10.2c16.4-8.9,30.3-20.9,41.4-35.7l18.4,13.8
			c-13.1,17.5-29.5,31.6-48.9,42.1C202.3,297.3,177.8,303.5,152.9,303.5z"/>
	</defs>
	<clipPath id="SVGID_2_">
		<use xlink:href="#SVGID_1_"  overflow="visible"/>
	</clipPath>
	<g clip-path="url(#SVGID_2_)">
		<line fill="none" stroke="#FFFFFF" stroke-miterlimit="10" x1="-10.7" y1="-13.3" x2="-80.3" y2="348.5"/>
		<line fill="none" stroke="#FFFFFF" stroke-miterlimit="10" x1="-6.6" y1="-13.2" x2="-74.9" y2="348.1"/>
		<line fill="none" stroke="#FFFFFF" stroke-miterlimit="10" x1="-2.4" y1="-13.1" x2="-69.6" y2="347.7"/>
		<line fill="none" stroke="#FFFFFF" stroke-miterlimit="10" x1="1.8" y1="-13" x2="-64.2" y2="347.3"/>
		<line fill="none" stroke="#FFFFFF" stroke-miterlimit="10" x1="5.9" y1="-12.9" x2="-58.9" y2="346.9"/>
		<line fill="none" stroke="#FFFFFF" stroke-miterlimit="10" x1="10.1" y1="-12.8" x2="-53.5" y2="346.5"/>
		<line fill="none" stroke="#FFFFFF" stroke-miterlimit="10" x1="14.2" y1="-12.8" x2="-48.2" y2="346.1"/>
		<line fill="none" stroke="#FFFFFF" stroke-miterlimit="10" x1="18.4" y1="-12.7" x2="-42.9" y2="345.7"/>
		<line fill="none" stroke="#FFFFFF" stroke-miterlimit="10" x1="22.6" y1="-12.6" x2="-37.5" y2="345.3"/>
		<line fill="none" stroke="#FFFFFF" stroke-miterlimit="10" x1="26.7" y1="-12.5" x2="-32.2" y2="344.9"/>
		<line fill="none" stroke="#FFFFFF" stroke-miterlimit="10" x1="30.9" y1="-12.4" x2="-26.8" y2="344.5"/>
		<line fill="none" stroke="#FFFFFF" stroke-miterlimit="10" x1="35" y1="-12.3" x2="-21.5" y2="344.1"/>
		<line fill="none" stroke="#FFFFFF" stroke-miterlimit="10" x1="39.2" y1="-12.2" x2="-16.1" y2="343.7"/>
		<line fill="none" stroke="#FFFFFF" stroke-miterlimit="10" x1="43.4" y1="-12.1" x2="-10.8" y2="343.3"/>
		<line fill="none" stroke="#FFFFFF" stroke-miterlimit="10" x1="47.5" y1="-12" x2="-5.4" y2="342.9"/>
		<line fill="none" stroke="#FFFFFF" stroke-miterlimit="10" x1="51.7" y1="-12" x2="-0.1" y2="342.5"/>
		<line fill="none" stroke="#FFFFFF" stroke-miterlimit="10" x1="55.8" y1="-11.9" x2="5.3" y2="342.1"/>
		<line fill="none" stroke="#FFFFFF" stroke-miterlimit="10" x1="60" y1="-11.8" x2="10.6" y2="341.7"/>
		<line fill="none" stroke="#FFFFFF" stroke-miterlimit="10" x1="64.2" y1="-11.7" x2="16" y2="341.2"/>
		<line fill="none" stroke="#FFFFFF" stroke-miterlimit="10" x1="68.3" y1="-11.6" x2="21.3" y2="340.8"/>
		<line fill="none" stroke="#FFFFFF" stroke-miterlimit="10" x1="72.5" y1="-11.5" x2="26.7" y2="340.4"/>
		<line fill="none" stroke="#FFFFFF" stroke-miterlimit="10" x1="76.6" y1="-11.4" x2="32" y2="340"/>
		<line fill="none" stroke="#FFFFFF" stroke-miterlimit="10" x1="80.8" y1="-11.3" x2="37.4" y2="339.6"/>
		<line fill="none" stroke="#FFFFFF" stroke-miterlimit="10" x1="85" y1="-11.2" x2="42.7" y2="339.2"/>
		<line fill="none" stroke="#FFFFFF" stroke-miterlimit="10" x1="89.1" y1="-11.1" x2="48.1" y2="338.8"/>
		<line fill="none" stroke="#FFFFFF" stroke-miterlimit="10" x1="93.3" y1="-11.1" x2="53.4" y2="338.4"/>
		<line fill="none" stroke="#FFFFFF" stroke-miterlimit="10" x1="97.4" y1="-11" x2="58.7" y2="338"/>
		<line fill="none" stroke="#FFFFFF" stroke-miterlimit="10" x1="101.6" y1="-10.9" x2="64.1" y2="337.6"/>
		<line fill="none" stroke="#FFFFFF" stroke-miterlimit="10" x1="105.8" y1="-10.8" x2="69.4" y2="337.2"/>
		<line fill="none" stroke="#FFFFFF" stroke-miterlimit="10" x1="109.9" y1="-10.7" x2="74.8" y2="336.8"/>
		<line fill="none" stroke="#FFFFFF" stroke-miterlimit="10" x1="114.1" y1="-10.6" x2="80.1" y2="336.4"/>
		<line fill="none" stroke="#FFFFFF" stroke-miterlimit="10" x1="118.3" y1="-10.5" x2="85.5" y2="336"/>
		<line fill="none" stroke="#FFFFFF" stroke-miterlimit="10" x1="122.4" y1="-10.4" x2="90.8" y2="335.6"/>
		<line fill="none" stroke="#FFFFFF" stroke-miterlimit="10" x1="126.6" y1="-10.3" x2="96.2" y2="335.2"/>
		<line fill="none" stroke="#FFFFFF" stroke-miterlimit="10" x1="130.7" y1="-10.3" x2="101.5" y2="334.8"/>
		<line fill="none" stroke="#FFFFFF" stroke-miterlimit="10" x1="134.9" y1="-10.2" x2="106.9" y2="334.4"/>
		<line fill="none" stroke="#FFFFFF" stroke-miterlimit="10" x1="139.1" y1="-10.1" x2="112.2" y2="334"/>
		<line fill="none" stroke="#FFFFFF" stroke-miterlimit="10" x1="143.2" y1="-10" x2="117.6" y2="333.6"/>
		<line fill="none" stroke="#FFFFFF" stroke-miterlimit="10" x1="147.4" y1="-9.9" x2="122.9" y2="333.1"/>
		<line fill="none" stroke="#FFFFFF" stroke-miterlimit="10" x1="151.5" y1="-9.8" x2="128.3" y2="332.7"/>
		<line fill="none" stroke="#FFFFFF" stroke-miterlimit="10" x1="155.7" y1="-9.7" x2="133.6" y2="332.3"/>
		<line fill="none" stroke="#FFFFFF" stroke-miterlimit="10" x1="159.9" y1="-9.6" x2="139" y2="331.9"/>
		<line fill="none" stroke="#FFFFFF" stroke-miterlimit="10" x1="164" y1="-9.5" x2="144.3" y2="331.5"/>
		<line fill="none" stroke="#FFFFFF" stroke-miterlimit="10" x1="168.2" y1="-9.5" x2="149.7" y2="331.1"/>
		<line fill="none" stroke="#FFFFFF" stroke-miterlimit="10" x1="172.3" y1="-9.4" x2="155" y2="330.7"/>
		<line fill="none" stroke="#FFFFFF" stroke-miterlimit="10" x1="176.5" y1="-9.3" x2="160.4" y2="330.3"/>
		<line fill="none" stroke="#FFFFFF" stroke-miterlimit="10" x1="180.7" y1="-9.2" x2="165.7" y2="329.9"/>
		<line fill="none" stroke="#FFFFFF" stroke-miterlimit="10" x1="184.8" y1="-9.1" x2="171" y2="329.5"/>
		<line fill="none" stroke="#FFFFFF" stroke-miterlimit="10" x1="189" y1="-9" x2="176.4" y2="329.1"/>
		<line fill="none" stroke="#FFFFFF" stroke-miterlimit="10" x1="193.1" y1="-8.9" x2="181.7" y2="328.7"/>
		<line fill="none" stroke="#FFFFFF" stroke-miterlimit="10" x1="197.3" y1="-8.8" x2="187.1" y2="328.3"/>
		<line fill="none" stroke="#FFFFFF" stroke-miterlimit="10" x1="201.5" y1="-8.7" x2="192.4" y2="327.9"/>
		<line fill="none" stroke="#FFFFFF" stroke-miterlimit="10" x1="205.6" y1="-8.6" x2="197.8" y2="327.5"/>
		<line fill="none" stroke="#FFFFFF" stroke-miterlimit="10" x1="209.8" y1="-8.6" x2="203.1" y2="327.1"/>
		<line fill="none" stroke="#FFFFFF" stroke-miterlimit="10" x1="213.9" y1="-8.5" x2="208.5" y2="326.7"/>
		<line fill="none" stroke="#FFFFFF" stroke-miterlimit="10" x1="218.1" y1="-8.4" x2="213.8" y2="326.3"/>
		<line fill="none" stroke="#FFFFFF" stroke-miterlimit="10" x1="222.3" y1="-8.3" x2="219.2" y2="325.9"/>
		<line fill="none" stroke="#FFFFFF" stroke-miterlimit="10" x1="226.4" y1="-8.2" x2="224.5" y2="325.4"/>
		<line fill="none" stroke="#FFFFFF" stroke-miterlimit="10" x1="230.6" y1="-8.1" x2="229.9" y2="325"/>
		<line fill="none" stroke="#FFFFFF" stroke-miterlimit="10" x1="234.7" y1="-8" x2="235.2" y2="324.6"/>
		<line fill="none" stroke="#FFFFFF" stroke-miterlimit="10" x1="238.9" y1="-7.9" x2="240.6" y2="324.2"/>
		<line fill="none" stroke="#FFFFFF" stroke-miterlimit="10" x1="243.1" y1="-7.8" x2="245.9" y2="323.8"/>
		<line fill="none" stroke="#FFFFFF" stroke-miterlimit="10" x1="247.2" y1="-7.8" x2="251.3" y2="323.4"/>
		<line fill="none" stroke="#FFFFFF" stroke-miterlimit="10" x1="251.4" y1="-7.7" x2="256.6" y2="323"/>
		<line fill="none" stroke="#FFFFFF" stroke-miterlimit="10" x1="255.5" y1="-7.6" x2="262" y2="322.6"/>
		<line fill="none" stroke="#FFFFFF" stroke-miterlimit="10" x1="259.7" y1="-7.5" x2="267.3" y2="322.2"/>
		<line fill="none" stroke="#FFFFFF" stroke-miterlimit="10" x1="263.9" y1="-7.4" x2="272.6" y2="321.8"/>
		<line fill="none" stroke="#FFFFFF" stroke-miterlimit="10" x1="268" y1="-7.3" x2="278" y2="321.4"/>
		<line fill="none" stroke="#FFFFFF" stroke-miterlimit="10" x1="272.2" y1="-7.2" x2="283.3" y2="321"/>
		<line fill="none" stroke="#FFFFFF" stroke-miterlimit="10" x1="276.3" y1="-7.1" x2="288.7" y2="320.6"/>
		<line fill="none" stroke="#FFFFFF" stroke-miterlimit="10" x1="280.5" y1="-7" x2="294" y2="320.2"/>
		<line fill="none" stroke="#FFFFFF" stroke-miterlimit="10" x1="284.7" y1="-7" x2="299.4" y2="319.8"/>
		<line fill="none" stroke="#FFFFFF" stroke-miterlimit="10" x1="288.8" y1="-6.9" x2="304.7" y2="319.4"/>
		<line fill="none" stroke="#FFFFFF" stroke-miterlimit="10" x1="293" y1="-6.8" x2="310.1" y2="319"/>
		<line fill="none" stroke="#FFFFFF" stroke-miterlimit="10" x1="297.1" y1="-6.7" x2="315.4" y2="318.6"/>
		<line fill="none" stroke="#FFFFFF" stroke-miterlimit="10" x1="301.3" y1="-6.6" x2="320.8" y2="318.2"/>
		<line fill="none" stroke="#FFFFFF" stroke-miterlimit="10" x1="305.5" y1="-6.5" x2="326.1" y2="317.7"/>
		<line fill="none" stroke="#FFFFFF" stroke-miterlimit="10" x1="309.6" y1="-6.4" x2="331.5" y2="317.3"/>
		<line fill="none" stroke="#FFFFFF" stroke-miterlimit="10" x1="313.8" y1="-6.3" x2="336.8" y2="316.9"/>
		<line fill="none" stroke="#FFFFFF" stroke-miterlimit="10" x1="317.9" y1="-6.2" x2="342.2" y2="316.5"/>
		<line fill="none" stroke="#FFFFFF" stroke-miterlimit="10" x1="322.1" y1="-6.1" x2="347.5" y2="316.1"/>
		<line fill="none" stroke="#FFFFFF" stroke-miterlimit="10" x1="326.3" y1="-6.1" x2="352.9" y2="315.7"/>
		<line fill="none" stroke="#FFFFFF" stroke-miterlimit="10" x1="330.4" y1="-6" x2="358.2" y2="315.3"/>
		<line fill="none" stroke="#FFFFFF" stroke-miterlimit="10" x1="334.6" y1="-5.9" x2="363.6" y2="314.9"/>
		<line fill="none" stroke="#FFFFFF" stroke-miterlimit="10" x1="338.8" y1="-5.8" x2="368.9" y2="314.5"/>
		<line fill="none" stroke="#FFFFFF" stroke-miterlimit="10" x1="342.9" y1="-5.7" x2="374.3" y2="314.1"/>
		<line fill="none" stroke="#FFFFFF" stroke-miterlimit="10" x1="347.1" y1="-5.6" x2="379.6" y2="313.7"/>
	</g>
	<use xlink:href="#SVGID_1_"  overflow="visible" fill="none" stroke="#FFFFFF" stroke-miterlimit="10"/>
</g>
</svg>
